G75*
%MOIN*%
%OFA0B0*%
%FSLAX25Y25*%
%IPPOS*%
%LPD*%
%AMOC8*
5,1,8,0,0,1.08239X$1,22.5*
%
%ADD10C,0.06000*%
%ADD11C,0.05937*%
%ADD12C,0.05500*%
%ADD13C,0.10925*%
%ADD14C,0.12268*%
%ADD15C,0.13843*%
%ADD16C,0.07677*%
%ADD17C,0.12661*%
%ADD18C,0.14236*%
%ADD19C,0.10039*%
%ADD20C,0.02600*%
%ADD21C,0.01600*%
%ADD22C,0.03962*%
%ADD23C,0.04000*%
D10*
X0016000Y0192500D03*
X0016000Y0202500D03*
X0242500Y0117500D03*
X0242500Y0107500D03*
X0242500Y0097500D03*
X0242500Y0087500D03*
X0242500Y0077500D03*
X0242500Y0067500D03*
D11*
X0261126Y0027843D03*
X0269000Y0027843D03*
X0276874Y0027843D03*
X0276874Y0008157D03*
X0269000Y0008157D03*
X0261126Y0008157D03*
X0196874Y0008157D03*
X0189000Y0008157D03*
X0181126Y0008157D03*
X0181126Y0027843D03*
X0189000Y0027843D03*
X0196874Y0027843D03*
X0116874Y0027843D03*
X0109000Y0027843D03*
X0101126Y0027843D03*
X0101126Y0008157D03*
X0109000Y0008157D03*
X0116874Y0008157D03*
X0045843Y0060315D03*
X0036000Y0060315D03*
X0026157Y0060315D03*
X0172500Y0208000D03*
X0172500Y0218000D03*
X0172500Y0228000D03*
X0172500Y0238000D03*
X0289484Y0175024D03*
X0299484Y0175024D03*
X0309484Y0175024D03*
X0319484Y0175024D03*
X0329484Y0175024D03*
X0339484Y0175024D03*
X0359484Y0175024D03*
X0369484Y0175024D03*
X0379484Y0175024D03*
X0356874Y0027843D03*
X0349000Y0027843D03*
X0341126Y0027843D03*
X0341126Y0008157D03*
X0349000Y0008157D03*
X0356874Y0008157D03*
D12*
X0321000Y0197000D03*
X0118000Y0314000D03*
X0103000Y0314000D03*
X0088000Y0314000D03*
X0073000Y0314000D03*
X0058000Y0314000D03*
X0022000Y0253500D03*
X0076500Y0156500D03*
X0076500Y0141500D03*
X0076500Y0126500D03*
D13*
X0132996Y0265303D03*
X0151500Y0265303D03*
X0170004Y0265303D03*
X0161500Y0315303D03*
X0141500Y0315303D03*
D14*
X0198701Y0287846D03*
X0198701Y0237846D03*
D15*
X0105862Y0175024D03*
X0105862Y0052976D03*
X0401138Y0052976D03*
X0401138Y0175024D03*
D16*
X0031748Y0269315D03*
X0031748Y0279157D03*
X0012063Y0289000D03*
X0031748Y0298843D03*
X0031748Y0308685D03*
D17*
X0010409Y0030000D03*
X0061591Y0030000D03*
D18*
X0029122Y0100634D03*
X0011406Y0121500D03*
X0029122Y0142366D03*
D19*
X0029122Y0121500D03*
D20*
X0046000Y0119500D03*
X0046000Y0149000D03*
X0111000Y0130000D03*
X0111000Y0126500D03*
X0115500Y0124000D03*
X0119000Y0124000D03*
X0111500Y0120000D03*
X0111500Y0116000D03*
X0115500Y0112000D03*
X0119000Y0112000D03*
X0135000Y0122000D03*
X0134500Y0131500D03*
X0131000Y0131500D03*
X0127500Y0131500D03*
X0123000Y0136500D03*
X0136000Y0142500D03*
X0174000Y0122000D03*
X0176500Y0122000D03*
X0176500Y0119500D03*
X0174000Y0119500D03*
X0182000Y0126500D03*
X0189500Y0129000D03*
X0189500Y0133000D03*
X0182000Y0134500D03*
X0182000Y0130500D03*
X0182000Y0138500D03*
X0182000Y0142500D03*
X0182000Y0146500D03*
X0189500Y0145000D03*
X0189500Y0141000D03*
X0189500Y0137000D03*
X0195500Y0145000D03*
X0210500Y0141000D03*
X0210500Y0137000D03*
X0215000Y0137000D03*
X0215000Y0141000D03*
X0215000Y0133000D03*
X0215000Y0129000D03*
X0210500Y0129000D03*
X0210500Y0133000D03*
X0213500Y0121000D03*
X0218000Y0121000D03*
X0218000Y0116500D03*
X0218000Y0112000D03*
X0213500Y0112000D03*
X0213500Y0116500D03*
X0189000Y0115000D03*
X0185500Y0115000D03*
X0185500Y0111000D03*
X0189000Y0111000D03*
X0189000Y0119000D03*
X0157500Y0108500D03*
X0158500Y0097000D03*
X0158500Y0091000D03*
X0234000Y0139000D03*
X0239000Y0144000D03*
X0245500Y0144000D03*
X0245500Y0127000D03*
X0239000Y0127000D03*
X0264500Y0113500D03*
X0264500Y0110500D03*
X0279500Y0101500D03*
X0274500Y0097500D03*
X0271000Y0092500D03*
X0271000Y0077500D03*
X0289000Y0096000D03*
X0297000Y0099000D03*
X0302500Y0099000D03*
X0306500Y0099000D03*
X0304500Y0102500D03*
X0312000Y0099000D03*
X0317500Y0107000D03*
X0310500Y0109000D03*
X0320500Y0117000D03*
X0324000Y0115000D03*
X0324000Y0119000D03*
X0324000Y0124000D03*
X0324000Y0131500D03*
X0318500Y0131500D03*
X0316500Y0127000D03*
X0312500Y0127000D03*
X0312500Y0131000D03*
X0308000Y0131000D03*
X0307000Y0122000D03*
X0313000Y0121000D03*
X0297500Y0120000D03*
X0297500Y0115500D03*
X0293500Y0116500D03*
X0293500Y0112000D03*
X0293500Y0124500D03*
X0324500Y0110000D03*
X0324500Y0104000D03*
X0338500Y0104000D03*
X0353500Y0108500D03*
X0353500Y0111500D03*
X0357500Y0097500D03*
X0378000Y0116000D03*
X0382000Y0116000D03*
X0385500Y0110500D03*
X0385500Y0121500D03*
X0363500Y0142000D03*
X0349000Y0154000D03*
X0339500Y0166500D03*
X0320000Y0163000D03*
X0309500Y0163000D03*
X0302500Y0166500D03*
X0306500Y0157500D03*
X0309500Y0157500D03*
X0271000Y0184500D03*
X0266500Y0183500D03*
X0257000Y0174500D03*
X0268500Y0171500D03*
X0250500Y0166000D03*
X0266500Y0200500D03*
X0271000Y0204000D03*
X0300000Y0211000D03*
X0300000Y0215000D03*
X0304000Y0215000D03*
X0304000Y0211000D03*
X0308500Y0213000D03*
X0308500Y0217000D03*
X0313000Y0217000D03*
X0313000Y0213000D03*
X0317500Y0211000D03*
X0317500Y0207000D03*
X0317500Y0215000D03*
X0374500Y0198000D03*
X0389500Y0279000D03*
X0332500Y0296500D03*
X0329000Y0292000D03*
X0324500Y0288000D03*
X0226000Y0295500D03*
X0221000Y0306500D03*
X0157500Y0248000D03*
X0128000Y0248000D03*
X0117000Y0259000D03*
X0117000Y0262500D03*
X0117000Y0267500D03*
X0117000Y0270500D03*
X0112000Y0258000D03*
X0094000Y0261000D03*
X0094000Y0265000D03*
X0089500Y0265000D03*
X0089500Y0261000D03*
X0089500Y0269000D03*
X0094000Y0269000D03*
X0075000Y0276500D03*
X0075000Y0280000D03*
X0071500Y0280000D03*
X0071500Y0276500D03*
X0053500Y0278500D03*
X0053500Y0282000D03*
X0049500Y0264500D03*
X0049500Y0259500D03*
X0054500Y0259500D03*
X0041846Y0246654D03*
X0047500Y0244000D03*
X0047500Y0238500D03*
X0052000Y0238500D03*
X0056500Y0238500D03*
X0061000Y0238500D03*
X0065500Y0238500D03*
X0070000Y0238500D03*
X0074500Y0238500D03*
X0076500Y0243000D03*
X0074500Y0247000D03*
X0072000Y0243000D03*
X0067500Y0243000D03*
X0103000Y0288500D03*
X0088000Y0292000D03*
X0221000Y0235000D03*
X0226000Y0229500D03*
X0306500Y0078500D03*
X0309500Y0073500D03*
X0313000Y0073500D03*
X0302500Y0073500D03*
X0299000Y0073500D03*
X0279500Y0060000D03*
X0274500Y0056000D03*
X0278500Y0047000D03*
X0285000Y0037500D03*
X0259000Y0037500D03*
X0237000Y0028000D03*
X0317000Y0028000D03*
X0326000Y0037500D03*
X0358500Y0037500D03*
X0341000Y0078500D03*
X0157000Y0028000D03*
X0077000Y0028000D03*
X0039500Y0078000D03*
X0033000Y0078000D03*
D21*
X0004800Y0024394D02*
X0004800Y0004800D01*
X0098023Y0004800D01*
X0097253Y0005570D01*
X0096557Y0007249D01*
X0096557Y0009066D01*
X0097253Y0010745D01*
X0098538Y0012030D01*
X0100217Y0012726D01*
X0102035Y0012726D01*
X0103714Y0012030D01*
X0104991Y0010753D01*
X0105363Y0011264D01*
X0105894Y0011795D01*
X0106501Y0012236D01*
X0107170Y0012577D01*
X0107883Y0012809D01*
X0108625Y0012926D01*
X0108816Y0012926D01*
X0108816Y0008342D01*
X0109184Y0008342D01*
X0109184Y0012926D01*
X0109375Y0012926D01*
X0110117Y0012809D01*
X0110830Y0012577D01*
X0111499Y0012236D01*
X0112106Y0011795D01*
X0112637Y0011264D01*
X0113009Y0010753D01*
X0114286Y0012030D01*
X0115965Y0012726D01*
X0117783Y0012726D01*
X0119462Y0012030D01*
X0120747Y0010745D01*
X0121443Y0009066D01*
X0121443Y0007249D01*
X0120747Y0005570D01*
X0119977Y0004800D01*
X0178023Y0004800D01*
X0177253Y0005570D01*
X0176557Y0007249D01*
X0176557Y0009066D01*
X0177253Y0010745D01*
X0178538Y0012030D01*
X0180217Y0012726D01*
X0182035Y0012726D01*
X0183714Y0012030D01*
X0184991Y0010753D01*
X0185363Y0011264D01*
X0185894Y0011795D01*
X0186501Y0012236D01*
X0187170Y0012577D01*
X0187883Y0012809D01*
X0188625Y0012926D01*
X0188816Y0012926D01*
X0188816Y0008342D01*
X0189184Y0008342D01*
X0189184Y0012926D01*
X0189375Y0012926D01*
X0190117Y0012809D01*
X0190830Y0012577D01*
X0191499Y0012236D01*
X0192106Y0011795D01*
X0192637Y0011264D01*
X0193009Y0010753D01*
X0194286Y0012030D01*
X0195965Y0012726D01*
X0197783Y0012726D01*
X0199462Y0012030D01*
X0200747Y0010745D01*
X0201443Y0009066D01*
X0201443Y0007249D01*
X0200747Y0005570D01*
X0199977Y0004800D01*
X0258023Y0004800D01*
X0257253Y0005570D01*
X0256557Y0007249D01*
X0256557Y0009066D01*
X0257253Y0010745D01*
X0258538Y0012030D01*
X0260217Y0012726D01*
X0262035Y0012726D01*
X0263714Y0012030D01*
X0264991Y0010753D01*
X0265363Y0011264D01*
X0265894Y0011795D01*
X0266501Y0012236D01*
X0267170Y0012577D01*
X0267883Y0012809D01*
X0268625Y0012926D01*
X0268816Y0012926D01*
X0268816Y0008342D01*
X0269184Y0008342D01*
X0269184Y0012926D01*
X0269375Y0012926D01*
X0270117Y0012809D01*
X0270830Y0012577D01*
X0271499Y0012236D01*
X0272106Y0011795D01*
X0272637Y0011264D01*
X0273009Y0010753D01*
X0274286Y0012030D01*
X0275965Y0012726D01*
X0277783Y0012726D01*
X0279462Y0012030D01*
X0280747Y0010745D01*
X0281443Y0009066D01*
X0281443Y0007249D01*
X0280747Y0005570D01*
X0279977Y0004800D01*
X0338023Y0004800D01*
X0337253Y0005570D01*
X0336557Y0007249D01*
X0336557Y0009066D01*
X0337253Y0010745D01*
X0338538Y0012030D01*
X0340217Y0012726D01*
X0342035Y0012726D01*
X0343714Y0012030D01*
X0344991Y0010753D01*
X0345363Y0011264D01*
X0345894Y0011795D01*
X0346501Y0012236D01*
X0347170Y0012577D01*
X0347883Y0012809D01*
X0348625Y0012926D01*
X0348816Y0012926D01*
X0348816Y0008342D01*
X0349184Y0008342D01*
X0349184Y0012926D01*
X0349375Y0012926D01*
X0350117Y0012809D01*
X0350830Y0012577D01*
X0351499Y0012236D01*
X0352106Y0011795D01*
X0352637Y0011264D01*
X0353009Y0010753D01*
X0354286Y0012030D01*
X0355965Y0012726D01*
X0357783Y0012726D01*
X0359462Y0012030D01*
X0360747Y0010745D01*
X0361443Y0009066D01*
X0361443Y0007249D01*
X0360747Y0005570D01*
X0359977Y0004800D01*
X0410200Y0004800D01*
X0410200Y0320200D01*
X0351117Y0320200D01*
X0353277Y0318953D01*
X0355417Y0316813D01*
X0356930Y0314192D01*
X0357713Y0311269D01*
X0357713Y0308243D01*
X0356930Y0305320D01*
X0355417Y0302699D01*
X0353277Y0300559D01*
X0350657Y0299046D01*
X0347734Y0298263D01*
X0344707Y0298263D01*
X0341784Y0299046D01*
X0339164Y0300559D01*
X0337024Y0302699D01*
X0335511Y0305320D01*
X0334728Y0308243D01*
X0334728Y0311269D01*
X0335511Y0314192D01*
X0337024Y0316813D01*
X0339164Y0318953D01*
X0341324Y0320200D01*
X0263597Y0320200D01*
X0265758Y0318953D01*
X0267897Y0316813D01*
X0269410Y0314192D01*
X0270194Y0311269D01*
X0270194Y0308243D01*
X0269410Y0305320D01*
X0267897Y0302699D01*
X0265758Y0300559D01*
X0263137Y0299046D01*
X0260214Y0298263D01*
X0257188Y0298263D01*
X0254265Y0299046D01*
X0251644Y0300559D01*
X0249504Y0302699D01*
X0247991Y0305320D01*
X0247208Y0308243D01*
X0247208Y0311269D01*
X0247991Y0314192D01*
X0249504Y0316813D01*
X0251644Y0318953D01*
X0253805Y0320200D01*
X0166591Y0320200D01*
X0167487Y0319304D01*
X0168563Y0316708D01*
X0168563Y0313898D01*
X0167487Y0311302D01*
X0165501Y0309316D01*
X0162905Y0308241D01*
X0160095Y0308241D01*
X0157499Y0309316D01*
X0155513Y0311302D01*
X0154437Y0313898D01*
X0154437Y0316708D01*
X0155513Y0319304D01*
X0156409Y0320200D01*
X0146591Y0320200D01*
X0147487Y0319304D01*
X0148563Y0316708D01*
X0148563Y0313898D01*
X0147487Y0311302D01*
X0145501Y0309316D01*
X0142905Y0308241D01*
X0140095Y0308241D01*
X0137499Y0309316D01*
X0135513Y0311302D01*
X0134437Y0313898D01*
X0134437Y0316708D01*
X0135513Y0319304D01*
X0136409Y0320200D01*
X0070000Y0320200D01*
X0070000Y0317152D01*
X0070536Y0317688D01*
X0072135Y0318350D01*
X0073865Y0318350D01*
X0075464Y0317688D01*
X0076688Y0316464D01*
X0077350Y0314865D01*
X0077350Y0313135D01*
X0076688Y0311536D01*
X0075464Y0310312D01*
X0073865Y0309650D01*
X0072135Y0309650D01*
X0070536Y0310312D01*
X0070000Y0310848D01*
X0070000Y0275000D01*
X0108000Y0275000D01*
X0108000Y0227000D01*
X0023000Y0227000D01*
X0023000Y0245000D01*
X0004800Y0245000D01*
X0004800Y0127224D01*
X0006467Y0128891D01*
X0009671Y0130218D01*
X0013140Y0130218D01*
X0016344Y0128891D01*
X0018796Y0126438D01*
X0020124Y0123234D01*
X0020124Y0119766D01*
X0018796Y0116562D01*
X0016344Y0114109D01*
X0013140Y0112782D01*
X0009671Y0112782D01*
X0006467Y0114109D01*
X0004800Y0115776D01*
X0004800Y0035606D01*
X0005917Y0036723D01*
X0008832Y0037931D01*
X0011987Y0037931D01*
X0014902Y0036723D01*
X0017133Y0034492D01*
X0018340Y0031578D01*
X0018340Y0028422D01*
X0017133Y0025508D01*
X0014902Y0023277D01*
X0011987Y0022069D01*
X0008832Y0022069D01*
X0005917Y0023277D01*
X0004800Y0024394D01*
X0004800Y0023978D02*
X0005216Y0023978D01*
X0004800Y0022379D02*
X0008084Y0022379D01*
X0004800Y0020781D02*
X0410200Y0020781D01*
X0410200Y0022379D02*
X0063916Y0022379D01*
X0063168Y0022069D02*
X0066083Y0023277D01*
X0068314Y0025508D01*
X0069521Y0028422D01*
X0069521Y0031578D01*
X0068314Y0034492D01*
X0066083Y0036723D01*
X0063168Y0037931D01*
X0060013Y0037931D01*
X0057098Y0036723D01*
X0054867Y0034492D01*
X0053660Y0031578D01*
X0053660Y0028422D01*
X0054867Y0025508D01*
X0057098Y0023277D01*
X0060013Y0022069D01*
X0063168Y0022069D01*
X0059265Y0022379D02*
X0012735Y0022379D01*
X0015603Y0023978D02*
X0056397Y0023978D01*
X0054839Y0025576D02*
X0017161Y0025576D01*
X0017823Y0027175D02*
X0054177Y0027175D01*
X0053660Y0028773D02*
X0018340Y0028773D01*
X0018340Y0030372D02*
X0053660Y0030372D01*
X0053823Y0031970D02*
X0018177Y0031970D01*
X0017515Y0033569D02*
X0054485Y0033569D01*
X0055542Y0035167D02*
X0016458Y0035167D01*
X0014799Y0036766D02*
X0057201Y0036766D01*
X0065980Y0036766D02*
X0256165Y0036766D01*
X0256100Y0036923D02*
X0256541Y0035857D01*
X0257357Y0035041D01*
X0258423Y0034600D01*
X0259577Y0034600D01*
X0260643Y0035041D01*
X0261458Y0035857D01*
X0261900Y0036923D01*
X0261900Y0038077D01*
X0261458Y0039143D01*
X0260643Y0039958D01*
X0259577Y0040400D01*
X0258423Y0040400D01*
X0257357Y0039958D01*
X0256541Y0039143D01*
X0256100Y0038077D01*
X0256100Y0036923D01*
X0256219Y0038364D02*
X0004800Y0038364D01*
X0004800Y0036766D02*
X0006020Y0036766D01*
X0004800Y0039963D02*
X0257368Y0039963D01*
X0260632Y0039963D02*
X0283368Y0039963D01*
X0283357Y0039958D02*
X0282541Y0039143D01*
X0282100Y0038077D01*
X0282100Y0036923D01*
X0282541Y0035857D01*
X0283357Y0035041D01*
X0284423Y0034600D01*
X0285577Y0034600D01*
X0286643Y0035041D01*
X0287458Y0035857D01*
X0287900Y0036923D01*
X0287900Y0038077D01*
X0287458Y0039143D01*
X0286643Y0039958D01*
X0285577Y0040400D01*
X0284423Y0040400D01*
X0283357Y0039958D01*
X0282219Y0038364D02*
X0261781Y0038364D01*
X0261835Y0036766D02*
X0282165Y0036766D01*
X0283232Y0035167D02*
X0260768Y0035167D01*
X0260217Y0032411D02*
X0258538Y0031716D01*
X0257253Y0030430D01*
X0256557Y0028751D01*
X0256557Y0026934D01*
X0257253Y0025255D01*
X0258538Y0023970D01*
X0260217Y0023274D01*
X0262035Y0023274D01*
X0263714Y0023970D01*
X0264991Y0025247D01*
X0265363Y0024736D01*
X0265894Y0024205D01*
X0266501Y0023764D01*
X0267170Y0023423D01*
X0267883Y0023191D01*
X0268625Y0023074D01*
X0268816Y0023074D01*
X0268816Y0027658D01*
X0269184Y0027658D01*
X0269184Y0023074D01*
X0269375Y0023074D01*
X0270117Y0023191D01*
X0270830Y0023423D01*
X0271499Y0023764D01*
X0272106Y0024205D01*
X0272637Y0024736D01*
X0273009Y0025247D01*
X0274286Y0023970D01*
X0275965Y0023274D01*
X0277783Y0023274D01*
X0279462Y0023970D01*
X0280747Y0025255D01*
X0281443Y0026934D01*
X0281443Y0028751D01*
X0280747Y0030430D01*
X0279462Y0031716D01*
X0277783Y0032411D01*
X0275965Y0032411D01*
X0274286Y0031716D01*
X0273009Y0030438D01*
X0272637Y0030949D01*
X0272106Y0031480D01*
X0271499Y0031921D01*
X0270830Y0032262D01*
X0270117Y0032494D01*
X0269375Y0032611D01*
X0269184Y0032611D01*
X0269184Y0028027D01*
X0268816Y0028027D01*
X0268816Y0032611D01*
X0268625Y0032611D01*
X0267883Y0032494D01*
X0267170Y0032262D01*
X0266501Y0031921D01*
X0265894Y0031480D01*
X0265363Y0030949D01*
X0264991Y0030438D01*
X0263714Y0031716D01*
X0262035Y0032411D01*
X0260217Y0032411D01*
X0259153Y0031970D02*
X0198847Y0031970D01*
X0199462Y0031716D02*
X0197783Y0032411D01*
X0195965Y0032411D01*
X0194286Y0031716D01*
X0193009Y0030438D01*
X0192637Y0030949D01*
X0192106Y0031480D01*
X0191499Y0031921D01*
X0190830Y0032262D01*
X0190117Y0032494D01*
X0189375Y0032611D01*
X0189184Y0032611D01*
X0189184Y0028027D01*
X0188816Y0028027D01*
X0188816Y0032611D01*
X0188625Y0032611D01*
X0187883Y0032494D01*
X0187170Y0032262D01*
X0186501Y0031921D01*
X0185894Y0031480D01*
X0185363Y0030949D01*
X0184991Y0030438D01*
X0183714Y0031716D01*
X0182035Y0032411D01*
X0180217Y0032411D01*
X0178538Y0031716D01*
X0177253Y0030430D01*
X0176557Y0028751D01*
X0176557Y0026934D01*
X0177253Y0025255D01*
X0178538Y0023970D01*
X0180217Y0023274D01*
X0182035Y0023274D01*
X0183714Y0023970D01*
X0184991Y0025247D01*
X0185363Y0024736D01*
X0185894Y0024205D01*
X0186501Y0023764D01*
X0187170Y0023423D01*
X0187883Y0023191D01*
X0188625Y0023074D01*
X0188816Y0023074D01*
X0188816Y0027658D01*
X0189184Y0027658D01*
X0189184Y0023074D01*
X0189375Y0023074D01*
X0190117Y0023191D01*
X0190830Y0023423D01*
X0191499Y0023764D01*
X0192106Y0024205D01*
X0192637Y0024736D01*
X0193009Y0025247D01*
X0194286Y0023970D01*
X0195965Y0023274D01*
X0197783Y0023274D01*
X0199462Y0023970D01*
X0200747Y0025255D01*
X0201443Y0026934D01*
X0201443Y0028751D01*
X0200747Y0030430D01*
X0199462Y0031716D01*
X0200771Y0030372D02*
X0235270Y0030372D01*
X0235357Y0030458D02*
X0234541Y0029643D01*
X0234100Y0028577D01*
X0234100Y0027423D01*
X0234541Y0026357D01*
X0235357Y0025541D01*
X0236423Y0025100D01*
X0237577Y0025100D01*
X0238643Y0025541D01*
X0239458Y0026357D01*
X0239900Y0027423D01*
X0239900Y0028577D01*
X0239458Y0029643D01*
X0238643Y0030458D01*
X0237577Y0030900D01*
X0236423Y0030900D01*
X0235357Y0030458D01*
X0234181Y0028773D02*
X0201433Y0028773D01*
X0201443Y0027175D02*
X0234203Y0027175D01*
X0235323Y0025576D02*
X0200880Y0025576D01*
X0199470Y0023978D02*
X0258530Y0023978D01*
X0257120Y0025576D02*
X0238677Y0025576D01*
X0239797Y0027175D02*
X0256557Y0027175D01*
X0256567Y0028773D02*
X0239819Y0028773D01*
X0238729Y0030372D02*
X0257229Y0030372D01*
X0263099Y0031970D02*
X0266598Y0031970D01*
X0268816Y0031970D02*
X0269184Y0031970D01*
X0269184Y0030372D02*
X0268816Y0030372D01*
X0268816Y0028773D02*
X0269184Y0028773D01*
X0269184Y0027175D02*
X0268816Y0027175D01*
X0268816Y0025576D02*
X0269184Y0025576D01*
X0269184Y0023978D02*
X0268816Y0023978D01*
X0266207Y0023978D02*
X0263722Y0023978D01*
X0271793Y0023978D02*
X0274278Y0023978D01*
X0279470Y0023978D02*
X0338530Y0023978D01*
X0338538Y0023970D02*
X0340217Y0023274D01*
X0342035Y0023274D01*
X0343714Y0023970D01*
X0344991Y0025247D01*
X0345363Y0024736D01*
X0345894Y0024205D01*
X0346501Y0023764D01*
X0347170Y0023423D01*
X0347883Y0023191D01*
X0348625Y0023074D01*
X0348816Y0023074D01*
X0348816Y0027658D01*
X0349184Y0027658D01*
X0349184Y0023074D01*
X0349375Y0023074D01*
X0350117Y0023191D01*
X0350830Y0023423D01*
X0351499Y0023764D01*
X0352106Y0024205D01*
X0352637Y0024736D01*
X0353009Y0025247D01*
X0354286Y0023970D01*
X0355965Y0023274D01*
X0357783Y0023274D01*
X0359462Y0023970D01*
X0360747Y0025255D01*
X0361443Y0026934D01*
X0361443Y0028751D01*
X0360747Y0030430D01*
X0359462Y0031716D01*
X0357783Y0032411D01*
X0355965Y0032411D01*
X0354286Y0031716D01*
X0353009Y0030438D01*
X0352637Y0030949D01*
X0352106Y0031480D01*
X0351499Y0031921D01*
X0350830Y0032262D01*
X0350117Y0032494D01*
X0349375Y0032611D01*
X0349184Y0032611D01*
X0349184Y0028027D01*
X0348816Y0028027D01*
X0348816Y0032611D01*
X0348625Y0032611D01*
X0347883Y0032494D01*
X0347170Y0032262D01*
X0346501Y0031921D01*
X0345894Y0031480D01*
X0345363Y0030949D01*
X0344991Y0030438D01*
X0343714Y0031716D01*
X0342035Y0032411D01*
X0340217Y0032411D01*
X0338538Y0031716D01*
X0337253Y0030430D01*
X0336557Y0028751D01*
X0336557Y0026934D01*
X0337253Y0025255D01*
X0338538Y0023970D01*
X0337120Y0025576D02*
X0318677Y0025576D01*
X0318643Y0025541D02*
X0319458Y0026357D01*
X0319900Y0027423D01*
X0319900Y0028577D01*
X0319458Y0029643D01*
X0318643Y0030458D01*
X0317577Y0030900D01*
X0316423Y0030900D01*
X0315357Y0030458D01*
X0314541Y0029643D01*
X0314100Y0028577D01*
X0314100Y0027423D01*
X0314541Y0026357D01*
X0315357Y0025541D01*
X0316423Y0025100D01*
X0317577Y0025100D01*
X0318643Y0025541D01*
X0319797Y0027175D02*
X0336557Y0027175D01*
X0336567Y0028773D02*
X0319819Y0028773D01*
X0318729Y0030372D02*
X0337229Y0030372D01*
X0339153Y0031970D02*
X0278847Y0031970D01*
X0280771Y0030372D02*
X0315270Y0030372D01*
X0314181Y0028773D02*
X0281433Y0028773D01*
X0281443Y0027175D02*
X0314203Y0027175D01*
X0315323Y0025576D02*
X0280880Y0025576D01*
X0274901Y0031970D02*
X0271402Y0031970D01*
X0276857Y0044541D02*
X0277923Y0044100D01*
X0279077Y0044100D01*
X0280143Y0044541D01*
X0280958Y0045357D01*
X0281400Y0046423D01*
X0281400Y0047577D01*
X0280958Y0048643D01*
X0280143Y0049458D01*
X0279077Y0049900D01*
X0277923Y0049900D01*
X0276857Y0049458D01*
X0276041Y0048643D01*
X0275600Y0047577D01*
X0275600Y0046423D01*
X0276041Y0045357D01*
X0276857Y0044541D01*
X0276640Y0044758D02*
X0108289Y0044758D01*
X0107557Y0044455D02*
X0110689Y0045752D01*
X0113086Y0048149D01*
X0114383Y0051281D01*
X0114383Y0054671D01*
X0113086Y0057803D01*
X0110689Y0060200D01*
X0107557Y0061498D01*
X0104167Y0061498D01*
X0101035Y0060200D01*
X0098638Y0057803D01*
X0097341Y0054671D01*
X0097341Y0051281D01*
X0098638Y0048149D01*
X0101035Y0045752D01*
X0104167Y0044455D01*
X0107557Y0044455D01*
X0103435Y0044758D02*
X0004800Y0044758D01*
X0004800Y0043160D02*
X0410200Y0043160D01*
X0410200Y0044758D02*
X0403565Y0044758D01*
X0402833Y0044455D02*
X0405965Y0045752D01*
X0408362Y0048149D01*
X0409659Y0051281D01*
X0409659Y0054671D01*
X0408362Y0057803D01*
X0405965Y0060200D01*
X0402833Y0061498D01*
X0399443Y0061498D01*
X0396311Y0060200D01*
X0393914Y0057803D01*
X0392617Y0054671D01*
X0392617Y0051281D01*
X0393914Y0048149D01*
X0396311Y0045752D01*
X0399443Y0044455D01*
X0402833Y0044455D01*
X0398711Y0044758D02*
X0280360Y0044758D01*
X0281373Y0046357D02*
X0395706Y0046357D01*
X0394108Y0047955D02*
X0281243Y0047955D01*
X0279913Y0049554D02*
X0393332Y0049554D01*
X0392670Y0051152D02*
X0114330Y0051152D01*
X0114383Y0052751D02*
X0392617Y0052751D01*
X0392617Y0054349D02*
X0276951Y0054349D01*
X0276958Y0054357D02*
X0277400Y0055423D01*
X0277400Y0056577D01*
X0276958Y0057643D01*
X0276143Y0058458D01*
X0275077Y0058900D01*
X0273923Y0058900D01*
X0272857Y0058458D01*
X0272041Y0057643D01*
X0271600Y0056577D01*
X0271600Y0055423D01*
X0272041Y0054357D01*
X0272857Y0053541D01*
X0273923Y0053100D01*
X0275077Y0053100D01*
X0276143Y0053541D01*
X0276958Y0054357D01*
X0277400Y0055948D02*
X0393145Y0055948D01*
X0393807Y0057546D02*
X0281148Y0057546D01*
X0281143Y0057541D02*
X0281958Y0058357D01*
X0282400Y0059423D01*
X0282400Y0060577D01*
X0281958Y0061643D01*
X0281143Y0062458D01*
X0280077Y0062900D01*
X0278923Y0062900D01*
X0277857Y0062458D01*
X0277041Y0061643D01*
X0276600Y0060577D01*
X0276600Y0059423D01*
X0277041Y0058357D01*
X0277857Y0057541D01*
X0278923Y0057100D01*
X0280077Y0057100D01*
X0281143Y0057541D01*
X0282285Y0059145D02*
X0395255Y0059145D01*
X0397622Y0060743D02*
X0282331Y0060743D01*
X0281259Y0062342D02*
X0410200Y0062342D01*
X0410200Y0063940D02*
X0245446Y0063940D01*
X0245106Y0063600D02*
X0246400Y0064894D01*
X0247100Y0066585D01*
X0247100Y0068415D01*
X0246400Y0070106D01*
X0245106Y0071400D01*
X0243415Y0072100D01*
X0241585Y0072100D01*
X0239894Y0071400D01*
X0238600Y0070106D01*
X0237900Y0068415D01*
X0237900Y0066585D01*
X0238600Y0064894D01*
X0239894Y0063600D01*
X0241585Y0062900D01*
X0243415Y0062900D01*
X0245106Y0063600D01*
X0246667Y0065539D02*
X0410200Y0065539D01*
X0410200Y0067137D02*
X0247100Y0067137D01*
X0246967Y0068736D02*
X0410200Y0068736D01*
X0410200Y0070334D02*
X0246171Y0070334D01*
X0243818Y0071933D02*
X0296510Y0071933D01*
X0296541Y0071857D02*
X0297357Y0071041D01*
X0298423Y0070600D01*
X0299577Y0070600D01*
X0300643Y0071041D01*
X0300750Y0071149D01*
X0300857Y0071041D01*
X0301923Y0070600D01*
X0303077Y0070600D01*
X0304143Y0071041D01*
X0304958Y0071857D01*
X0305400Y0072923D01*
X0305400Y0074077D01*
X0304958Y0075143D01*
X0304143Y0075958D01*
X0303077Y0076400D01*
X0301923Y0076400D01*
X0300857Y0075958D01*
X0300750Y0075851D01*
X0300643Y0075958D01*
X0299577Y0076400D01*
X0298423Y0076400D01*
X0297357Y0075958D01*
X0296541Y0075143D01*
X0296100Y0074077D01*
X0296100Y0072923D01*
X0296541Y0071857D01*
X0296100Y0073532D02*
X0244940Y0073532D01*
X0245106Y0073600D02*
X0246400Y0074894D01*
X0247100Y0076585D01*
X0247100Y0078415D01*
X0246400Y0080106D01*
X0245106Y0081400D01*
X0243415Y0082100D01*
X0241585Y0082100D01*
X0239894Y0081400D01*
X0238600Y0080106D01*
X0237900Y0078415D01*
X0237900Y0076585D01*
X0238600Y0074894D01*
X0239894Y0073600D01*
X0241585Y0072900D01*
X0243415Y0072900D01*
X0245106Y0073600D01*
X0246497Y0075130D02*
X0269269Y0075130D01*
X0269357Y0075041D02*
X0270423Y0074600D01*
X0271577Y0074600D01*
X0272643Y0075041D01*
X0273458Y0075857D01*
X0273900Y0076923D01*
X0273900Y0078077D01*
X0273458Y0079143D01*
X0272643Y0079958D01*
X0271577Y0080400D01*
X0270423Y0080400D01*
X0269357Y0079958D01*
X0268541Y0079143D01*
X0268100Y0078077D01*
X0268100Y0076923D01*
X0268541Y0075857D01*
X0269357Y0075041D01*
X0268181Y0076729D02*
X0247100Y0076729D01*
X0247100Y0078327D02*
X0268204Y0078327D01*
X0269324Y0079926D02*
X0246474Y0079926D01*
X0244805Y0081524D02*
X0410200Y0081524D01*
X0410200Y0079926D02*
X0343548Y0079926D01*
X0343458Y0080143D02*
X0342643Y0080958D01*
X0341577Y0081400D01*
X0340423Y0081400D01*
X0339357Y0080958D01*
X0338541Y0080143D01*
X0338100Y0079077D01*
X0338100Y0077923D01*
X0338541Y0076857D01*
X0339357Y0076041D01*
X0340423Y0075600D01*
X0341577Y0075600D01*
X0342643Y0076041D01*
X0343458Y0076857D01*
X0343900Y0077923D01*
X0343900Y0079077D01*
X0343458Y0080143D01*
X0343900Y0078327D02*
X0410200Y0078327D01*
X0410200Y0076729D02*
X0343330Y0076729D01*
X0338670Y0076729D02*
X0308830Y0076729D01*
X0308958Y0076857D02*
X0309400Y0077923D01*
X0309400Y0079077D01*
X0308958Y0080143D01*
X0308143Y0080958D01*
X0307077Y0081400D01*
X0305923Y0081400D01*
X0304857Y0080958D01*
X0304041Y0080143D01*
X0303600Y0079077D01*
X0303600Y0077923D01*
X0304041Y0076857D01*
X0304857Y0076041D01*
X0305923Y0075600D01*
X0307077Y0075600D01*
X0307797Y0075898D01*
X0307041Y0075143D01*
X0306600Y0074077D01*
X0306600Y0072923D01*
X0307041Y0071857D01*
X0307857Y0071041D01*
X0308923Y0070600D01*
X0310077Y0070600D01*
X0311143Y0071041D01*
X0311250Y0071149D01*
X0311357Y0071041D01*
X0312423Y0070600D01*
X0313577Y0070600D01*
X0314643Y0071041D01*
X0315458Y0071857D01*
X0315900Y0072923D01*
X0315900Y0074077D01*
X0315458Y0075143D01*
X0314643Y0075958D01*
X0313577Y0076400D01*
X0312423Y0076400D01*
X0311357Y0075958D01*
X0311250Y0075851D01*
X0311143Y0075958D01*
X0310077Y0076400D01*
X0308923Y0076400D01*
X0308203Y0076102D01*
X0308958Y0076857D01*
X0309400Y0078327D02*
X0338100Y0078327D01*
X0338452Y0079926D02*
X0309048Y0079926D01*
X0303952Y0079926D02*
X0272676Y0079926D01*
X0273796Y0078327D02*
X0303600Y0078327D01*
X0304170Y0076729D02*
X0273819Y0076729D01*
X0272731Y0075130D02*
X0296536Y0075130D01*
X0304964Y0075130D02*
X0307036Y0075130D01*
X0306600Y0073532D02*
X0305400Y0073532D01*
X0304990Y0071933D02*
X0307010Y0071933D01*
X0315490Y0071933D02*
X0410200Y0071933D01*
X0410200Y0073532D02*
X0315900Y0073532D01*
X0315464Y0075130D02*
X0410200Y0075130D01*
X0410200Y0083123D02*
X0243952Y0083123D01*
X0243415Y0082900D02*
X0245106Y0083600D01*
X0246400Y0084894D01*
X0247100Y0086585D01*
X0247100Y0088415D01*
X0246400Y0090106D01*
X0245106Y0091400D01*
X0243415Y0092100D01*
X0241585Y0092100D01*
X0239894Y0091400D01*
X0238600Y0090106D01*
X0237900Y0088415D01*
X0237900Y0086585D01*
X0238600Y0084894D01*
X0239894Y0083600D01*
X0241585Y0082900D01*
X0243415Y0082900D01*
X0241048Y0083123D02*
X0004800Y0083123D01*
X0004800Y0084721D02*
X0238774Y0084721D01*
X0238010Y0086320D02*
X0004800Y0086320D01*
X0004800Y0087918D02*
X0237900Y0087918D01*
X0238356Y0089517D02*
X0004800Y0089517D01*
X0004800Y0091115D02*
X0239610Y0091115D01*
X0239894Y0093600D02*
X0241585Y0092900D01*
X0243415Y0092900D01*
X0245106Y0093600D01*
X0246400Y0094894D01*
X0247100Y0096585D01*
X0247100Y0098415D01*
X0246400Y0100106D01*
X0245106Y0101400D01*
X0243415Y0102100D01*
X0241585Y0102100D01*
X0239894Y0101400D01*
X0238600Y0100106D01*
X0237900Y0098415D01*
X0237900Y0096585D01*
X0238600Y0094894D01*
X0239894Y0093600D01*
X0239182Y0094312D02*
X0035130Y0094312D01*
X0034060Y0093243D02*
X0036513Y0095695D01*
X0037840Y0098900D01*
X0037840Y0102368D01*
X0036513Y0105572D01*
X0034060Y0108025D01*
X0030856Y0109352D01*
X0027388Y0109352D01*
X0024184Y0108025D01*
X0021731Y0105572D01*
X0020404Y0102368D01*
X0020404Y0098900D01*
X0021731Y0095695D01*
X0024184Y0093243D01*
X0027388Y0091916D01*
X0030856Y0091916D01*
X0034060Y0093243D01*
X0032783Y0092714D02*
X0268100Y0092714D01*
X0268100Y0093077D02*
X0268100Y0091923D01*
X0268541Y0090857D01*
X0269357Y0090041D01*
X0270423Y0089600D01*
X0271577Y0089600D01*
X0272643Y0090041D01*
X0273458Y0090857D01*
X0273900Y0091923D01*
X0273900Y0093077D01*
X0273458Y0094143D01*
X0272643Y0094958D01*
X0271577Y0095400D01*
X0270423Y0095400D01*
X0269357Y0094958D01*
X0268541Y0094143D01*
X0268100Y0093077D01*
X0268711Y0094312D02*
X0245818Y0094312D01*
X0246821Y0095911D02*
X0272019Y0095911D01*
X0272041Y0095857D02*
X0272857Y0095041D01*
X0273923Y0094600D01*
X0275077Y0094600D01*
X0276143Y0095041D01*
X0276958Y0095857D01*
X0277400Y0096923D01*
X0277400Y0098077D01*
X0276958Y0099143D01*
X0276143Y0099958D01*
X0275077Y0100400D01*
X0273923Y0100400D01*
X0272857Y0099958D01*
X0272041Y0099143D01*
X0271600Y0098077D01*
X0271600Y0096923D01*
X0272041Y0095857D01*
X0271600Y0097509D02*
X0247100Y0097509D01*
X0246813Y0099108D02*
X0272027Y0099108D01*
X0276600Y0100923D02*
X0277041Y0099857D01*
X0277857Y0099041D01*
X0278923Y0098600D01*
X0280077Y0098600D01*
X0281143Y0099041D01*
X0281958Y0099857D01*
X0282400Y0100923D01*
X0282400Y0102077D01*
X0281958Y0103143D01*
X0281143Y0103958D01*
X0280077Y0104400D01*
X0278923Y0104400D01*
X0277857Y0103958D01*
X0277041Y0103143D01*
X0276600Y0102077D01*
X0276600Y0100923D01*
X0276690Y0100706D02*
X0245799Y0100706D01*
X0244343Y0103052D02*
X0245016Y0103395D01*
X0245627Y0103839D01*
X0246161Y0104373D01*
X0246605Y0104984D01*
X0246948Y0105657D01*
X0247182Y0106376D01*
X0247300Y0107122D01*
X0247300Y0107300D01*
X0242700Y0107300D01*
X0242700Y0107700D01*
X0247300Y0107700D01*
X0247300Y0107878D01*
X0247182Y0108624D01*
X0246948Y0109343D01*
X0246605Y0110016D01*
X0246161Y0110627D01*
X0245627Y0111161D01*
X0245016Y0111605D01*
X0244343Y0111948D01*
X0243624Y0112182D01*
X0242878Y0112300D01*
X0242700Y0112300D01*
X0242700Y0107700D01*
X0242300Y0107700D01*
X0242300Y0112300D01*
X0242122Y0112300D01*
X0241376Y0112182D01*
X0240657Y0111948D01*
X0239984Y0111605D01*
X0239373Y0111161D01*
X0238839Y0110627D01*
X0238395Y0110016D01*
X0238052Y0109343D01*
X0237818Y0108624D01*
X0237700Y0107878D01*
X0237700Y0107700D01*
X0242300Y0107700D01*
X0242300Y0107300D01*
X0242700Y0107300D01*
X0242700Y0102700D01*
X0242878Y0102700D01*
X0243624Y0102818D01*
X0244343Y0103052D01*
X0245691Y0103903D02*
X0277802Y0103903D01*
X0276694Y0102305D02*
X0037840Y0102305D01*
X0037840Y0100706D02*
X0239201Y0100706D01*
X0238187Y0099108D02*
X0037840Y0099108D01*
X0037264Y0097509D02*
X0237900Y0097509D01*
X0238179Y0095911D02*
X0036602Y0095911D01*
X0037204Y0103903D02*
X0239309Y0103903D01*
X0239373Y0103839D02*
X0239984Y0103395D01*
X0240657Y0103052D01*
X0241376Y0102818D01*
X0242122Y0102700D01*
X0242300Y0102700D01*
X0242300Y0107300D01*
X0237700Y0107300D01*
X0237700Y0107122D01*
X0237818Y0106376D01*
X0238052Y0105657D01*
X0238395Y0104984D01*
X0238839Y0104373D01*
X0239373Y0103839D01*
X0238131Y0105502D02*
X0036542Y0105502D01*
X0034985Y0107100D02*
X0154941Y0107100D01*
X0155041Y0106857D02*
X0154600Y0107923D01*
X0154600Y0109077D01*
X0155041Y0110143D01*
X0155857Y0110958D01*
X0156923Y0111400D01*
X0158077Y0111400D01*
X0159143Y0110958D01*
X0159958Y0110143D01*
X0160400Y0109077D01*
X0160400Y0107923D01*
X0159958Y0106857D01*
X0159143Y0106041D01*
X0158077Y0105600D01*
X0156923Y0105600D01*
X0155857Y0106041D01*
X0155041Y0106857D01*
X0154600Y0108699D02*
X0032433Y0108699D01*
X0030439Y0114880D02*
X0032872Y0115888D01*
X0034734Y0117750D01*
X0035742Y0120183D01*
X0035742Y0122817D01*
X0034734Y0125250D01*
X0032872Y0127112D01*
X0030439Y0128120D01*
X0027805Y0128120D01*
X0025372Y0127112D01*
X0023510Y0125250D01*
X0022502Y0122817D01*
X0022502Y0120183D01*
X0023510Y0117750D01*
X0025372Y0115888D01*
X0027805Y0114880D01*
X0030439Y0114880D01*
X0030952Y0115093D02*
X0108737Y0115093D01*
X0108600Y0115423D02*
X0109041Y0114357D01*
X0109857Y0113541D01*
X0110923Y0113100D01*
X0112077Y0113100D01*
X0112970Y0113470D01*
X0112600Y0112577D01*
X0112600Y0111423D01*
X0113041Y0110357D01*
X0113857Y0109541D01*
X0114923Y0109100D01*
X0116077Y0109100D01*
X0117143Y0109541D01*
X0117250Y0109649D01*
X0117357Y0109541D01*
X0118423Y0109100D01*
X0119577Y0109100D01*
X0120643Y0109541D01*
X0121458Y0110357D01*
X0121900Y0111423D01*
X0121900Y0112577D01*
X0121458Y0113643D01*
X0120643Y0114458D01*
X0119577Y0114900D01*
X0118423Y0114900D01*
X0117357Y0114458D01*
X0117250Y0114351D01*
X0117143Y0114458D01*
X0116077Y0114900D01*
X0114923Y0114900D01*
X0114030Y0114530D01*
X0114400Y0115423D01*
X0114400Y0116577D01*
X0113958Y0117643D01*
X0113601Y0118000D01*
X0113958Y0118357D01*
X0114400Y0119423D01*
X0114400Y0120577D01*
X0114030Y0121470D01*
X0114923Y0121100D01*
X0116077Y0121100D01*
X0117143Y0121541D01*
X0117250Y0121649D01*
X0117357Y0121541D01*
X0118423Y0121100D01*
X0119577Y0121100D01*
X0120643Y0121541D01*
X0121458Y0122357D01*
X0121900Y0123423D01*
X0121900Y0124577D01*
X0121458Y0125643D01*
X0120643Y0126458D01*
X0119577Y0126900D01*
X0118423Y0126900D01*
X0117357Y0126458D01*
X0117250Y0126351D01*
X0117143Y0126458D01*
X0116077Y0126900D01*
X0114923Y0126900D01*
X0113900Y0126476D01*
X0113900Y0127077D01*
X0113458Y0128143D01*
X0113351Y0128250D01*
X0113458Y0128357D01*
X0113900Y0129423D01*
X0113900Y0130577D01*
X0113458Y0131643D01*
X0112643Y0132458D01*
X0111577Y0132900D01*
X0110423Y0132900D01*
X0109357Y0132458D01*
X0108541Y0131643D01*
X0108100Y0130577D01*
X0108100Y0129423D01*
X0108541Y0128357D01*
X0108649Y0128250D01*
X0108541Y0128143D01*
X0108100Y0127077D01*
X0108100Y0125923D01*
X0108541Y0124857D01*
X0109357Y0124041D01*
X0110423Y0123600D01*
X0111577Y0123600D01*
X0112600Y0124024D01*
X0112600Y0123423D01*
X0112970Y0122530D01*
X0112077Y0122900D01*
X0110923Y0122900D01*
X0109857Y0122458D01*
X0109041Y0121643D01*
X0108600Y0120577D01*
X0108600Y0119423D01*
X0109041Y0118357D01*
X0109399Y0118000D01*
X0109041Y0117643D01*
X0108600Y0116577D01*
X0108600Y0115423D01*
X0108647Y0116691D02*
X0046797Y0116691D01*
X0046577Y0116600D02*
X0047643Y0117041D01*
X0048458Y0117857D01*
X0048900Y0118923D01*
X0048900Y0120077D01*
X0048458Y0121143D01*
X0047643Y0121958D01*
X0046577Y0122400D01*
X0045423Y0122400D01*
X0044357Y0121958D01*
X0043541Y0121143D01*
X0043100Y0120077D01*
X0043100Y0118923D01*
X0043541Y0117857D01*
X0044357Y0117041D01*
X0045423Y0116600D01*
X0046577Y0116600D01*
X0045203Y0116691D02*
X0033675Y0116691D01*
X0034957Y0118290D02*
X0043362Y0118290D01*
X0043100Y0119888D02*
X0035620Y0119888D01*
X0035742Y0121487D02*
X0043886Y0121487D01*
X0048114Y0121487D02*
X0108977Y0121487D01*
X0108600Y0119888D02*
X0048900Y0119888D01*
X0048638Y0118290D02*
X0109109Y0118290D01*
X0113891Y0118290D02*
X0171362Y0118290D01*
X0171541Y0117857D02*
X0172357Y0117041D01*
X0173423Y0116600D01*
X0174577Y0116600D01*
X0175250Y0116879D01*
X0175923Y0116600D01*
X0177077Y0116600D01*
X0178143Y0117041D01*
X0178958Y0117857D01*
X0179400Y0118923D01*
X0179400Y0120077D01*
X0179121Y0120750D01*
X0179400Y0121423D01*
X0179400Y0122577D01*
X0178958Y0123643D01*
X0178143Y0124458D01*
X0177077Y0124900D01*
X0175923Y0124900D01*
X0175250Y0124621D01*
X0174577Y0124900D01*
X0173423Y0124900D01*
X0172357Y0124458D01*
X0171541Y0123643D01*
X0171100Y0122577D01*
X0171100Y0121423D01*
X0171379Y0120750D01*
X0171100Y0120077D01*
X0171100Y0118923D01*
X0171541Y0117857D01*
X0173203Y0116691D02*
X0114353Y0116691D01*
X0114263Y0115093D02*
X0182600Y0115093D01*
X0182600Y0115577D02*
X0182600Y0114423D01*
X0183041Y0113357D01*
X0183399Y0113000D01*
X0183041Y0112643D01*
X0182600Y0111577D01*
X0182600Y0110423D01*
X0183041Y0109357D01*
X0183857Y0108541D01*
X0184923Y0108100D01*
X0186077Y0108100D01*
X0187143Y0108541D01*
X0187250Y0108649D01*
X0187357Y0108541D01*
X0188423Y0108100D01*
X0189577Y0108100D01*
X0190643Y0108541D01*
X0191458Y0109357D01*
X0191900Y0110423D01*
X0191900Y0111577D01*
X0191458Y0112643D01*
X0191101Y0113000D01*
X0191458Y0113357D01*
X0191900Y0114423D01*
X0191900Y0115577D01*
X0191458Y0116643D01*
X0191101Y0117000D01*
X0191458Y0117357D01*
X0191900Y0118423D01*
X0191900Y0119577D01*
X0191458Y0120643D01*
X0190643Y0121458D01*
X0189577Y0121900D01*
X0188423Y0121900D01*
X0187357Y0121458D01*
X0186541Y0120643D01*
X0186100Y0119577D01*
X0186100Y0118423D01*
X0186366Y0117780D01*
X0186077Y0117900D01*
X0184923Y0117900D01*
X0183857Y0117458D01*
X0183041Y0116643D01*
X0182600Y0115577D01*
X0183090Y0116691D02*
X0177297Y0116691D01*
X0175703Y0116691D02*
X0174797Y0116691D01*
X0179138Y0118290D02*
X0186155Y0118290D01*
X0186229Y0119888D02*
X0179400Y0119888D01*
X0179400Y0121487D02*
X0187426Y0121487D01*
X0190574Y0121487D02*
X0240105Y0121487D01*
X0239894Y0121400D02*
X0238600Y0120106D01*
X0237900Y0118415D01*
X0237900Y0116585D01*
X0238600Y0114894D01*
X0239894Y0113600D01*
X0241585Y0112900D01*
X0243415Y0112900D01*
X0245106Y0113600D01*
X0246400Y0114894D01*
X0247100Y0116585D01*
X0247100Y0118415D01*
X0246400Y0120106D01*
X0245106Y0121400D01*
X0243415Y0122100D01*
X0241585Y0122100D01*
X0239894Y0121400D01*
X0238510Y0119888D02*
X0191771Y0119888D01*
X0191845Y0118290D02*
X0237900Y0118290D01*
X0237900Y0116691D02*
X0191410Y0116691D01*
X0191900Y0115093D02*
X0238518Y0115093D01*
X0240150Y0113494D02*
X0191515Y0113494D01*
X0191768Y0111896D02*
X0240554Y0111896D01*
X0242300Y0111896D02*
X0242700Y0111896D01*
X0242700Y0110297D02*
X0242300Y0110297D01*
X0242300Y0108699D02*
X0242700Y0108699D01*
X0242700Y0107100D02*
X0242300Y0107100D01*
X0242300Y0105502D02*
X0242700Y0105502D01*
X0242700Y0103903D02*
X0242300Y0103903D01*
X0246869Y0105502D02*
X0314982Y0105502D01*
X0315041Y0105357D02*
X0315857Y0104541D01*
X0316923Y0104100D01*
X0318077Y0104100D01*
X0319143Y0104541D01*
X0319958Y0105357D01*
X0320400Y0106423D01*
X0320400Y0107577D01*
X0319958Y0108643D01*
X0319143Y0109458D01*
X0318077Y0109900D01*
X0316923Y0109900D01*
X0315857Y0109458D01*
X0315041Y0108643D01*
X0314600Y0107577D01*
X0314600Y0106423D01*
X0315041Y0105357D01*
X0314600Y0107100D02*
X0312701Y0107100D01*
X0312958Y0107357D02*
X0313400Y0108423D01*
X0313400Y0109577D01*
X0312958Y0110643D01*
X0312143Y0111458D01*
X0311077Y0111900D01*
X0309923Y0111900D01*
X0308857Y0111458D01*
X0308041Y0110643D01*
X0307600Y0109577D01*
X0307600Y0108423D01*
X0308041Y0107357D01*
X0308857Y0106541D01*
X0309923Y0106100D01*
X0311077Y0106100D01*
X0312143Y0106541D01*
X0312958Y0107357D01*
X0313400Y0108699D02*
X0315098Y0108699D01*
X0313102Y0110297D02*
X0350859Y0110297D01*
X0350982Y0110000D02*
X0350600Y0110923D01*
X0350600Y0112077D01*
X0351041Y0113143D01*
X0351857Y0113958D01*
X0352923Y0114400D01*
X0354077Y0114400D01*
X0355143Y0113958D01*
X0355958Y0113143D01*
X0356400Y0112077D01*
X0356400Y0110923D01*
X0356018Y0110000D01*
X0356400Y0109077D01*
X0356400Y0107923D01*
X0355958Y0106857D01*
X0355143Y0106041D01*
X0354077Y0105600D01*
X0352923Y0105600D01*
X0351857Y0106041D01*
X0351041Y0106857D01*
X0350600Y0107923D01*
X0350600Y0109077D01*
X0350982Y0110000D01*
X0350600Y0108699D02*
X0319902Y0108699D01*
X0320400Y0107100D02*
X0350941Y0107100D01*
X0350600Y0111896D02*
X0311087Y0111896D01*
X0309913Y0111896D02*
X0267061Y0111896D01*
X0267018Y0112000D02*
X0267400Y0112923D01*
X0267400Y0114077D01*
X0266958Y0115143D01*
X0266143Y0115958D01*
X0265077Y0116400D01*
X0263923Y0116400D01*
X0262857Y0115958D01*
X0262041Y0115143D01*
X0261600Y0114077D01*
X0261600Y0112923D01*
X0261982Y0112000D01*
X0261600Y0111077D01*
X0261600Y0109923D01*
X0262041Y0108857D01*
X0262857Y0108041D01*
X0263923Y0107600D01*
X0265077Y0107600D01*
X0266143Y0108041D01*
X0266958Y0108857D01*
X0267400Y0109923D01*
X0267400Y0111077D01*
X0267018Y0112000D01*
X0267400Y0113494D02*
X0295404Y0113494D01*
X0295041Y0113857D02*
X0295857Y0113041D01*
X0296923Y0112600D01*
X0298077Y0112600D01*
X0299143Y0113041D01*
X0299958Y0113857D01*
X0300400Y0114923D01*
X0300400Y0116077D01*
X0299958Y0117143D01*
X0299351Y0117750D01*
X0299958Y0118357D01*
X0300400Y0119423D01*
X0300400Y0120577D01*
X0299958Y0121643D01*
X0299143Y0122458D01*
X0298077Y0122900D01*
X0296923Y0122900D01*
X0295857Y0122458D01*
X0295041Y0121643D01*
X0294600Y0120577D01*
X0294600Y0119423D01*
X0294720Y0119134D01*
X0294077Y0119400D01*
X0292923Y0119400D01*
X0291857Y0118958D01*
X0291041Y0118143D01*
X0290600Y0117077D01*
X0290600Y0115923D01*
X0291041Y0114857D01*
X0291857Y0114041D01*
X0292923Y0113600D01*
X0294077Y0113600D01*
X0294991Y0113979D01*
X0295041Y0113857D01*
X0290944Y0115093D02*
X0266979Y0115093D01*
X0267400Y0110297D02*
X0307898Y0110297D01*
X0307600Y0108699D02*
X0266800Y0108699D01*
X0262200Y0108699D02*
X0247158Y0108699D01*
X0247297Y0107100D02*
X0308299Y0107100D01*
X0306143Y0104958D02*
X0305077Y0105400D01*
X0303923Y0105400D01*
X0302857Y0104958D01*
X0302041Y0104143D01*
X0301600Y0103077D01*
X0301600Y0101923D01*
X0301656Y0101789D01*
X0300857Y0101458D01*
X0300041Y0100643D01*
X0299600Y0099577D01*
X0299600Y0098423D01*
X0300041Y0097357D01*
X0300857Y0096541D01*
X0301923Y0096100D01*
X0303077Y0096100D01*
X0304143Y0096541D01*
X0304500Y0096899D01*
X0304857Y0096541D01*
X0305923Y0096100D01*
X0307077Y0096100D01*
X0308143Y0096541D01*
X0308958Y0097357D01*
X0309400Y0098423D01*
X0309400Y0099577D01*
X0308958Y0100643D01*
X0308143Y0101458D01*
X0307344Y0101789D01*
X0307400Y0101923D01*
X0307400Y0103077D01*
X0306958Y0104143D01*
X0306143Y0104958D01*
X0307058Y0103903D02*
X0335600Y0103903D01*
X0335600Y0103423D02*
X0335600Y0104577D01*
X0336041Y0105643D01*
X0336857Y0106458D01*
X0337923Y0106900D01*
X0339077Y0106900D01*
X0340143Y0106458D01*
X0340958Y0105643D01*
X0341400Y0104577D01*
X0341400Y0103423D01*
X0340958Y0102357D01*
X0340143Y0101541D01*
X0339077Y0101100D01*
X0337923Y0101100D01*
X0336857Y0101541D01*
X0336041Y0102357D01*
X0335600Y0103423D01*
X0336094Y0102305D02*
X0307400Y0102305D01*
X0308895Y0100706D02*
X0410200Y0100706D01*
X0410200Y0099108D02*
X0359973Y0099108D01*
X0359958Y0099143D02*
X0359143Y0099958D01*
X0358077Y0100400D01*
X0356923Y0100400D01*
X0355857Y0099958D01*
X0355041Y0099143D01*
X0354600Y0098077D01*
X0354600Y0096923D01*
X0355041Y0095857D01*
X0355857Y0095041D01*
X0356923Y0094600D01*
X0358077Y0094600D01*
X0359143Y0095041D01*
X0359958Y0095857D01*
X0360400Y0096923D01*
X0360400Y0098077D01*
X0359958Y0099143D01*
X0360400Y0097509D02*
X0410200Y0097509D01*
X0410200Y0095911D02*
X0359981Y0095911D01*
X0355019Y0095911D02*
X0291900Y0095911D01*
X0291900Y0095423D02*
X0291458Y0094357D01*
X0290643Y0093541D01*
X0289577Y0093100D01*
X0288423Y0093100D01*
X0287357Y0093541D01*
X0286541Y0094357D01*
X0286100Y0095423D01*
X0286100Y0096577D01*
X0286541Y0097643D01*
X0287357Y0098458D01*
X0288423Y0098900D01*
X0289577Y0098900D01*
X0290643Y0098458D01*
X0291458Y0097643D01*
X0291900Y0096577D01*
X0291900Y0095423D01*
X0291413Y0094312D02*
X0410200Y0094312D01*
X0410200Y0092714D02*
X0273900Y0092714D01*
X0273565Y0091115D02*
X0410200Y0091115D01*
X0410200Y0089517D02*
X0246644Y0089517D01*
X0247100Y0087918D02*
X0410200Y0087918D01*
X0410200Y0086320D02*
X0246990Y0086320D01*
X0246226Y0084721D02*
X0410200Y0084721D01*
X0410200Y0102305D02*
X0340906Y0102305D01*
X0341400Y0103903D02*
X0410200Y0103903D01*
X0410200Y0105502D02*
X0341017Y0105502D01*
X0335983Y0105502D02*
X0320018Y0105502D01*
X0322357Y0112541D02*
X0323423Y0112100D01*
X0324577Y0112100D01*
X0325643Y0112541D01*
X0326458Y0113357D01*
X0326900Y0114423D01*
X0326900Y0115577D01*
X0326458Y0116643D01*
X0326101Y0117000D01*
X0326458Y0117357D01*
X0326900Y0118423D01*
X0326900Y0119577D01*
X0326458Y0120643D01*
X0325643Y0121458D01*
X0325543Y0121500D01*
X0325643Y0121541D01*
X0326458Y0122357D01*
X0326900Y0123423D01*
X0326900Y0124577D01*
X0326458Y0125643D01*
X0325643Y0126458D01*
X0324577Y0126900D01*
X0323423Y0126900D01*
X0322357Y0126458D01*
X0321541Y0125643D01*
X0321100Y0124577D01*
X0321100Y0123423D01*
X0321541Y0122357D01*
X0322357Y0121541D01*
X0322457Y0121500D01*
X0322357Y0121458D01*
X0321541Y0120643D01*
X0321211Y0119844D01*
X0321077Y0119900D01*
X0319923Y0119900D01*
X0318857Y0119458D01*
X0318041Y0118643D01*
X0317600Y0117577D01*
X0317600Y0116423D01*
X0318041Y0115357D01*
X0318857Y0114541D01*
X0319923Y0114100D01*
X0321077Y0114100D01*
X0321211Y0114156D01*
X0321541Y0113357D01*
X0322357Y0112541D01*
X0321485Y0113494D02*
X0299596Y0113494D01*
X0300400Y0115093D02*
X0318306Y0115093D01*
X0317600Y0116691D02*
X0300145Y0116691D01*
X0299891Y0118290D02*
X0311965Y0118290D01*
X0312423Y0118100D02*
X0313577Y0118100D01*
X0314643Y0118541D01*
X0315458Y0119357D01*
X0315900Y0120423D01*
X0315900Y0121577D01*
X0315458Y0122643D01*
X0314643Y0123458D01*
X0313577Y0123900D01*
X0312423Y0123900D01*
X0311357Y0123458D01*
X0310541Y0122643D01*
X0310100Y0121577D01*
X0310100Y0120423D01*
X0310541Y0119357D01*
X0311357Y0118541D01*
X0312423Y0118100D01*
X0314035Y0118290D02*
X0317895Y0118290D01*
X0319895Y0119888D02*
X0315678Y0119888D01*
X0315900Y0121487D02*
X0322426Y0121487D01*
X0321240Y0123085D02*
X0315016Y0123085D01*
X0315923Y0124100D02*
X0317077Y0124100D01*
X0318143Y0124541D01*
X0318958Y0125357D01*
X0319400Y0126423D01*
X0319400Y0127577D01*
X0318976Y0128600D01*
X0319077Y0128600D01*
X0320143Y0129041D01*
X0320958Y0129857D01*
X0321250Y0130561D01*
X0321541Y0129857D01*
X0322357Y0129041D01*
X0323423Y0128600D01*
X0324577Y0128600D01*
X0325643Y0129041D01*
X0326458Y0129857D01*
X0326900Y0130923D01*
X0326900Y0132077D01*
X0326458Y0133143D01*
X0325643Y0133958D01*
X0324577Y0134400D01*
X0323423Y0134400D01*
X0322357Y0133958D01*
X0321541Y0133143D01*
X0321250Y0132439D01*
X0320958Y0133143D01*
X0320143Y0133958D01*
X0319077Y0134400D01*
X0317923Y0134400D01*
X0316857Y0133958D01*
X0316041Y0133143D01*
X0315600Y0132077D01*
X0315600Y0130923D01*
X0316024Y0129900D01*
X0315923Y0129900D01*
X0315030Y0129530D01*
X0315400Y0130423D01*
X0315400Y0131577D01*
X0314958Y0132643D01*
X0314143Y0133458D01*
X0313077Y0133900D01*
X0311923Y0133900D01*
X0310857Y0133458D01*
X0310041Y0132643D01*
X0309600Y0131577D01*
X0309600Y0130423D01*
X0310041Y0129357D01*
X0310399Y0129000D01*
X0310041Y0128643D01*
X0309600Y0127577D01*
X0309600Y0126423D01*
X0310041Y0125357D01*
X0310857Y0124541D01*
X0311923Y0124100D01*
X0313077Y0124100D01*
X0314143Y0124541D01*
X0314500Y0124899D01*
X0314857Y0124541D01*
X0315923Y0124100D01*
X0314715Y0124684D02*
X0314285Y0124684D01*
X0310715Y0124684D02*
X0308099Y0124684D01*
X0307577Y0124900D02*
X0306423Y0124900D01*
X0305357Y0124458D01*
X0304541Y0123643D01*
X0304100Y0122577D01*
X0304100Y0121423D01*
X0304541Y0120357D01*
X0305357Y0119541D01*
X0306423Y0119100D01*
X0307577Y0119100D01*
X0308643Y0119541D01*
X0309458Y0120357D01*
X0309900Y0121423D01*
X0309900Y0122577D01*
X0309458Y0123643D01*
X0308643Y0124458D01*
X0307577Y0124900D01*
X0305901Y0124684D02*
X0296400Y0124684D01*
X0296400Y0125077D02*
X0295958Y0126143D01*
X0295143Y0126958D01*
X0294077Y0127400D01*
X0292923Y0127400D01*
X0291857Y0126958D01*
X0291041Y0126143D01*
X0290600Y0125077D01*
X0290600Y0123923D01*
X0291041Y0122857D01*
X0291857Y0122041D01*
X0292923Y0121600D01*
X0294077Y0121600D01*
X0295143Y0122041D01*
X0295958Y0122857D01*
X0296400Y0123923D01*
X0296400Y0125077D01*
X0295819Y0126282D02*
X0309658Y0126282D01*
X0309726Y0127881D02*
X0192175Y0127881D01*
X0191958Y0127357D02*
X0192400Y0128423D01*
X0192400Y0129577D01*
X0191958Y0130643D01*
X0191601Y0131000D01*
X0191958Y0131357D01*
X0192400Y0132423D01*
X0192400Y0133577D01*
X0191958Y0134643D01*
X0191601Y0135000D01*
X0191958Y0135357D01*
X0192400Y0136423D01*
X0192400Y0137577D01*
X0191958Y0138643D01*
X0191601Y0139000D01*
X0191958Y0139357D01*
X0192400Y0140423D01*
X0192400Y0141577D01*
X0191958Y0142643D01*
X0191601Y0143000D01*
X0191958Y0143357D01*
X0192400Y0144423D01*
X0192400Y0145577D01*
X0191958Y0146643D01*
X0191143Y0147458D01*
X0190077Y0147900D01*
X0188923Y0147900D01*
X0187857Y0147458D01*
X0187041Y0146643D01*
X0186600Y0145577D01*
X0186600Y0144423D01*
X0187041Y0143357D01*
X0187399Y0143000D01*
X0187041Y0142643D01*
X0186600Y0141577D01*
X0186600Y0140423D01*
X0187041Y0139357D01*
X0187399Y0139000D01*
X0187041Y0138643D01*
X0186600Y0137577D01*
X0186600Y0136423D01*
X0187041Y0135357D01*
X0187399Y0135000D01*
X0187041Y0134643D01*
X0186600Y0133577D01*
X0186600Y0132423D01*
X0187041Y0131357D01*
X0187399Y0131000D01*
X0187041Y0130643D01*
X0186600Y0129577D01*
X0186600Y0128423D01*
X0187041Y0127357D01*
X0187857Y0126541D01*
X0188923Y0126100D01*
X0190077Y0126100D01*
X0191143Y0126541D01*
X0191958Y0127357D01*
X0190517Y0126282D02*
X0291181Y0126282D01*
X0290600Y0124684D02*
X0184285Y0124684D01*
X0184458Y0124857D02*
X0184900Y0125923D01*
X0184900Y0127077D01*
X0184458Y0128143D01*
X0184101Y0128500D01*
X0184458Y0128857D01*
X0184900Y0129923D01*
X0184900Y0131077D01*
X0184458Y0132143D01*
X0184101Y0132500D01*
X0184458Y0132857D01*
X0184900Y0133923D01*
X0184900Y0135077D01*
X0184458Y0136143D01*
X0184101Y0136500D01*
X0184458Y0136857D01*
X0184900Y0137923D01*
X0184900Y0139077D01*
X0184458Y0140143D01*
X0184101Y0140500D01*
X0184458Y0140857D01*
X0184900Y0141923D01*
X0184900Y0143077D01*
X0184458Y0144143D01*
X0184101Y0144500D01*
X0184458Y0144857D01*
X0184900Y0145923D01*
X0184900Y0147077D01*
X0184458Y0148143D01*
X0183643Y0148958D01*
X0182577Y0149400D01*
X0181423Y0149400D01*
X0180357Y0148958D01*
X0179541Y0148143D01*
X0179100Y0147077D01*
X0179100Y0145923D01*
X0179541Y0144857D01*
X0179899Y0144500D01*
X0179541Y0144143D01*
X0179100Y0143077D01*
X0179100Y0141923D01*
X0179541Y0140857D01*
X0179899Y0140500D01*
X0179541Y0140143D01*
X0179100Y0139077D01*
X0179100Y0137923D01*
X0179541Y0136857D01*
X0179899Y0136500D01*
X0179541Y0136143D01*
X0179100Y0135077D01*
X0179100Y0133923D01*
X0179541Y0132857D01*
X0179899Y0132500D01*
X0179541Y0132143D01*
X0179100Y0131077D01*
X0179100Y0129923D01*
X0179541Y0128857D01*
X0179899Y0128500D01*
X0179541Y0128143D01*
X0179100Y0127077D01*
X0179100Y0125923D01*
X0179541Y0124857D01*
X0180357Y0124041D01*
X0181423Y0123600D01*
X0182577Y0123600D01*
X0183643Y0124041D01*
X0184458Y0124857D01*
X0184900Y0126282D02*
X0188483Y0126282D01*
X0186825Y0127881D02*
X0184567Y0127881D01*
X0184716Y0129479D02*
X0186600Y0129479D01*
X0187321Y0131078D02*
X0184900Y0131078D01*
X0184278Y0132676D02*
X0186600Y0132676D01*
X0186889Y0134275D02*
X0184900Y0134275D01*
X0184570Y0135873D02*
X0186828Y0135873D01*
X0186600Y0137472D02*
X0184713Y0137472D01*
X0184900Y0139070D02*
X0187328Y0139070D01*
X0186600Y0140669D02*
X0184270Y0140669D01*
X0184900Y0142268D02*
X0186886Y0142268D01*
X0186831Y0143866D02*
X0184573Y0143866D01*
X0184710Y0145465D02*
X0186600Y0145465D01*
X0187462Y0147063D02*
X0184900Y0147063D01*
X0183940Y0148662D02*
X0410200Y0148662D01*
X0410200Y0150260D02*
X0048617Y0150260D01*
X0048458Y0150643D02*
X0047643Y0151458D01*
X0046577Y0151900D01*
X0045423Y0151900D01*
X0044357Y0151458D01*
X0043541Y0150643D01*
X0043100Y0149577D01*
X0043100Y0148423D01*
X0043541Y0147357D01*
X0044357Y0146541D01*
X0045423Y0146100D01*
X0046577Y0146100D01*
X0047643Y0146541D01*
X0048458Y0147357D01*
X0048900Y0148423D01*
X0048900Y0149577D01*
X0048458Y0150643D01*
X0048900Y0148662D02*
X0180060Y0148662D01*
X0179100Y0147063D02*
X0048164Y0147063D01*
X0043836Y0147063D02*
X0036613Y0147063D01*
X0036513Y0147305D02*
X0034060Y0149757D01*
X0030856Y0151084D01*
X0027388Y0151084D01*
X0024184Y0149757D01*
X0021731Y0147305D01*
X0020404Y0144100D01*
X0020404Y0140632D01*
X0021731Y0137428D01*
X0024184Y0134975D01*
X0027388Y0133648D01*
X0030856Y0133648D01*
X0034060Y0134975D01*
X0036513Y0137428D01*
X0037840Y0140632D01*
X0037840Y0144100D01*
X0036513Y0147305D01*
X0035156Y0148662D02*
X0043100Y0148662D01*
X0043383Y0150260D02*
X0032846Y0150260D01*
X0037275Y0145465D02*
X0074704Y0145465D01*
X0074036Y0145188D02*
X0072812Y0143964D01*
X0072150Y0142365D01*
X0072150Y0140635D01*
X0072812Y0139036D01*
X0074036Y0137812D01*
X0075635Y0137150D01*
X0077365Y0137150D01*
X0078964Y0137812D01*
X0080188Y0139036D01*
X0080850Y0140635D01*
X0080850Y0142365D01*
X0080188Y0143964D01*
X0078964Y0145188D01*
X0077365Y0145850D01*
X0075635Y0145850D01*
X0074036Y0145188D01*
X0072772Y0143866D02*
X0037840Y0143866D01*
X0037840Y0142268D02*
X0072150Y0142268D01*
X0072150Y0140669D02*
X0037840Y0140669D01*
X0037193Y0139070D02*
X0072798Y0139070D01*
X0074857Y0137472D02*
X0036531Y0137472D01*
X0034959Y0135873D02*
X0120121Y0135873D01*
X0120100Y0135923D02*
X0120541Y0134857D01*
X0121357Y0134041D01*
X0122423Y0133600D01*
X0123577Y0133600D01*
X0124643Y0134041D01*
X0125458Y0134857D01*
X0125900Y0135923D01*
X0125900Y0137077D01*
X0125458Y0138143D01*
X0124643Y0138958D01*
X0123577Y0139400D01*
X0122423Y0139400D01*
X0121357Y0138958D01*
X0120541Y0138143D01*
X0120100Y0137077D01*
X0120100Y0135923D01*
X0120264Y0137472D02*
X0078143Y0137472D01*
X0080202Y0139070D02*
X0121628Y0139070D01*
X0124372Y0139070D02*
X0179100Y0139070D01*
X0179287Y0137472D02*
X0125736Y0137472D01*
X0125879Y0135873D02*
X0179430Y0135873D01*
X0179100Y0134275D02*
X0135379Y0134275D01*
X0135077Y0134400D02*
X0133923Y0134400D01*
X0132857Y0133958D01*
X0132750Y0133851D01*
X0132643Y0133958D01*
X0131577Y0134400D01*
X0130423Y0134400D01*
X0129357Y0133958D01*
X0129250Y0133851D01*
X0129143Y0133958D01*
X0128077Y0134400D01*
X0126923Y0134400D01*
X0125857Y0133958D01*
X0125041Y0133143D01*
X0124600Y0132077D01*
X0124600Y0130923D01*
X0125041Y0129857D01*
X0125857Y0129041D01*
X0126923Y0128600D01*
X0128077Y0128600D01*
X0129143Y0129041D01*
X0129250Y0129149D01*
X0129357Y0129041D01*
X0130423Y0128600D01*
X0131577Y0128600D01*
X0132643Y0129041D01*
X0132750Y0129149D01*
X0132857Y0129041D01*
X0133923Y0128600D01*
X0135077Y0128600D01*
X0136143Y0129041D01*
X0136958Y0129857D01*
X0137400Y0130923D01*
X0137400Y0132077D01*
X0136958Y0133143D01*
X0136143Y0133958D01*
X0135077Y0134400D01*
X0133621Y0134275D02*
X0131879Y0134275D01*
X0130121Y0134275D02*
X0128379Y0134275D01*
X0126621Y0134275D02*
X0124876Y0134275D01*
X0124848Y0132676D02*
X0112117Y0132676D01*
X0109883Y0132676D02*
X0004800Y0132676D01*
X0004800Y0131078D02*
X0108308Y0131078D01*
X0108100Y0129479D02*
X0014923Y0129479D01*
X0017354Y0127881D02*
X0027229Y0127881D01*
X0024543Y0126282D02*
X0018861Y0126282D01*
X0019523Y0124684D02*
X0023276Y0124684D01*
X0022614Y0123085D02*
X0020124Y0123085D01*
X0020124Y0121487D02*
X0022502Y0121487D01*
X0022625Y0119888D02*
X0020124Y0119888D01*
X0019512Y0118290D02*
X0023287Y0118290D01*
X0024569Y0116691D02*
X0018850Y0116691D01*
X0017328Y0115093D02*
X0027292Y0115093D01*
X0025811Y0108699D02*
X0004800Y0108699D01*
X0004800Y0110297D02*
X0113101Y0110297D01*
X0112600Y0111896D02*
X0004800Y0111896D01*
X0004800Y0113494D02*
X0007951Y0113494D01*
X0005483Y0115093D02*
X0004800Y0115093D01*
X0004800Y0107100D02*
X0023259Y0107100D01*
X0021702Y0105502D02*
X0004800Y0105502D01*
X0004800Y0103903D02*
X0021040Y0103903D01*
X0020404Y0102305D02*
X0004800Y0102305D01*
X0004800Y0100706D02*
X0020404Y0100706D01*
X0020404Y0099108D02*
X0004800Y0099108D01*
X0004800Y0097509D02*
X0020980Y0097509D01*
X0021642Y0095911D02*
X0004800Y0095911D01*
X0004800Y0094312D02*
X0023114Y0094312D01*
X0025462Y0092714D02*
X0004800Y0092714D01*
X0004800Y0081524D02*
X0240195Y0081524D01*
X0238526Y0079926D02*
X0004800Y0079926D01*
X0004800Y0078327D02*
X0237900Y0078327D01*
X0237900Y0076729D02*
X0004800Y0076729D01*
X0004800Y0075130D02*
X0238503Y0075130D01*
X0240060Y0073532D02*
X0004800Y0073532D01*
X0004800Y0071933D02*
X0241182Y0071933D01*
X0238829Y0070334D02*
X0004800Y0070334D01*
X0004800Y0068736D02*
X0238033Y0068736D01*
X0237900Y0067137D02*
X0004800Y0067137D01*
X0004800Y0065539D02*
X0238333Y0065539D01*
X0239554Y0063940D02*
X0048678Y0063940D01*
X0048430Y0064188D02*
X0046751Y0064883D01*
X0044934Y0064883D01*
X0043255Y0064188D01*
X0041970Y0062903D01*
X0041274Y0061224D01*
X0041274Y0059406D01*
X0041970Y0057727D01*
X0043255Y0056442D01*
X0044934Y0055746D01*
X0046751Y0055746D01*
X0048430Y0056442D01*
X0049716Y0057727D01*
X0050411Y0059406D01*
X0050411Y0061224D01*
X0049716Y0062903D01*
X0048430Y0064188D01*
X0049948Y0062342D02*
X0277741Y0062342D01*
X0276669Y0060743D02*
X0109378Y0060743D01*
X0111745Y0059145D02*
X0276715Y0059145D01*
X0276998Y0057546D02*
X0277852Y0057546D01*
X0272002Y0057546D02*
X0113193Y0057546D01*
X0113855Y0055948D02*
X0271600Y0055948D01*
X0272049Y0054349D02*
X0114383Y0054349D01*
X0113668Y0049554D02*
X0277088Y0049554D01*
X0275757Y0047955D02*
X0112892Y0047955D01*
X0111294Y0046357D02*
X0275627Y0046357D01*
X0286632Y0039963D02*
X0324368Y0039963D01*
X0324357Y0039958D02*
X0323541Y0039143D01*
X0323100Y0038077D01*
X0323100Y0036923D01*
X0323541Y0035857D01*
X0324357Y0035041D01*
X0325423Y0034600D01*
X0326577Y0034600D01*
X0327643Y0035041D01*
X0328458Y0035857D01*
X0328900Y0036923D01*
X0328900Y0038077D01*
X0328458Y0039143D01*
X0327643Y0039958D01*
X0326577Y0040400D01*
X0325423Y0040400D01*
X0324357Y0039958D01*
X0323219Y0038364D02*
X0287781Y0038364D01*
X0287835Y0036766D02*
X0323165Y0036766D01*
X0324232Y0035167D02*
X0286768Y0035167D01*
X0257232Y0035167D02*
X0067639Y0035167D01*
X0068696Y0033569D02*
X0410200Y0033569D01*
X0410200Y0035167D02*
X0360268Y0035167D01*
X0360143Y0035041D02*
X0360958Y0035857D01*
X0361400Y0036923D01*
X0361400Y0038077D01*
X0360958Y0039143D01*
X0360143Y0039958D01*
X0359077Y0040400D01*
X0357923Y0040400D01*
X0356857Y0039958D01*
X0356041Y0039143D01*
X0355600Y0038077D01*
X0355600Y0036923D01*
X0356041Y0035857D01*
X0356857Y0035041D01*
X0357923Y0034600D01*
X0359077Y0034600D01*
X0360143Y0035041D01*
X0361335Y0036766D02*
X0410200Y0036766D01*
X0410200Y0038364D02*
X0361281Y0038364D01*
X0360132Y0039963D02*
X0410200Y0039963D01*
X0410200Y0041561D02*
X0004800Y0041561D01*
X0004800Y0046357D02*
X0100431Y0046357D01*
X0098832Y0047955D02*
X0004800Y0047955D01*
X0004800Y0049554D02*
X0098057Y0049554D01*
X0097394Y0051152D02*
X0004800Y0051152D01*
X0004800Y0052751D02*
X0097341Y0052751D01*
X0097341Y0054349D02*
X0004800Y0054349D01*
X0004800Y0055948D02*
X0024762Y0055948D01*
X0025249Y0055746D02*
X0027066Y0055746D01*
X0028745Y0056442D01*
X0030030Y0057727D01*
X0030726Y0059406D01*
X0030726Y0061224D01*
X0030030Y0062903D01*
X0028745Y0064188D01*
X0027066Y0064883D01*
X0025249Y0064883D01*
X0023570Y0064188D01*
X0022284Y0062903D01*
X0021589Y0061224D01*
X0021589Y0059406D01*
X0022284Y0057727D01*
X0023570Y0056442D01*
X0025249Y0055746D01*
X0027553Y0055948D02*
X0034605Y0055948D01*
X0035091Y0055746D02*
X0036909Y0055746D01*
X0038588Y0056442D01*
X0039873Y0057727D01*
X0040568Y0059406D01*
X0040568Y0061224D01*
X0039873Y0062903D01*
X0038588Y0064188D01*
X0036909Y0064883D01*
X0035091Y0064883D01*
X0033412Y0064188D01*
X0032127Y0062903D01*
X0031431Y0061224D01*
X0031431Y0059406D01*
X0032127Y0057727D01*
X0033412Y0056442D01*
X0035091Y0055746D01*
X0037395Y0055948D02*
X0044447Y0055948D01*
X0047238Y0055948D02*
X0097870Y0055948D01*
X0098532Y0057546D02*
X0049535Y0057546D01*
X0050303Y0059145D02*
X0099980Y0059145D01*
X0102346Y0060743D02*
X0050411Y0060743D01*
X0043007Y0063940D02*
X0038835Y0063940D01*
X0040105Y0062342D02*
X0041737Y0062342D01*
X0041274Y0060743D02*
X0040568Y0060743D01*
X0040460Y0059145D02*
X0041382Y0059145D01*
X0042150Y0057546D02*
X0039692Y0057546D01*
X0032308Y0057546D02*
X0029850Y0057546D01*
X0030618Y0059145D02*
X0031540Y0059145D01*
X0031431Y0060743D02*
X0030726Y0060743D01*
X0030263Y0062342D02*
X0031895Y0062342D01*
X0033165Y0063940D02*
X0028993Y0063940D01*
X0023322Y0063940D02*
X0004800Y0063940D01*
X0004800Y0062342D02*
X0022052Y0062342D01*
X0021589Y0060743D02*
X0004800Y0060743D01*
X0004800Y0059145D02*
X0021697Y0059145D01*
X0022465Y0057546D02*
X0004800Y0057546D01*
X0004800Y0019182D02*
X0410200Y0019182D01*
X0410200Y0017584D02*
X0004800Y0017584D01*
X0004800Y0015985D02*
X0410200Y0015985D01*
X0410200Y0014387D02*
X0004800Y0014387D01*
X0004800Y0012788D02*
X0107820Y0012788D01*
X0108816Y0012788D02*
X0109184Y0012788D01*
X0110180Y0012788D02*
X0187820Y0012788D01*
X0188816Y0012788D02*
X0189184Y0012788D01*
X0190180Y0012788D02*
X0267820Y0012788D01*
X0268816Y0012788D02*
X0269184Y0012788D01*
X0270180Y0012788D02*
X0347820Y0012788D01*
X0348816Y0012788D02*
X0349184Y0012788D01*
X0350180Y0012788D02*
X0410200Y0012788D01*
X0410200Y0011190D02*
X0360303Y0011190D01*
X0361225Y0009591D02*
X0410200Y0009591D01*
X0410200Y0007993D02*
X0361443Y0007993D01*
X0361088Y0006394D02*
X0410200Y0006394D01*
X0410200Y0023978D02*
X0359470Y0023978D01*
X0360880Y0025576D02*
X0410200Y0025576D01*
X0410200Y0027175D02*
X0361443Y0027175D01*
X0361433Y0028773D02*
X0410200Y0028773D01*
X0410200Y0030372D02*
X0360771Y0030372D01*
X0358847Y0031970D02*
X0410200Y0031970D01*
X0410200Y0046357D02*
X0406569Y0046357D01*
X0408168Y0047955D02*
X0410200Y0047955D01*
X0410200Y0049554D02*
X0408943Y0049554D01*
X0409606Y0051152D02*
X0410200Y0051152D01*
X0410200Y0052751D02*
X0409659Y0052751D01*
X0409659Y0054349D02*
X0410200Y0054349D01*
X0410200Y0055948D02*
X0409130Y0055948D01*
X0408468Y0057546D02*
X0410200Y0057546D01*
X0410200Y0059145D02*
X0407020Y0059145D01*
X0404654Y0060743D02*
X0410200Y0060743D01*
X0356868Y0039963D02*
X0327632Y0039963D01*
X0328781Y0038364D02*
X0355719Y0038364D01*
X0355665Y0036766D02*
X0328835Y0036766D01*
X0327768Y0035167D02*
X0356732Y0035167D01*
X0354901Y0031970D02*
X0351402Y0031970D01*
X0349184Y0031970D02*
X0348816Y0031970D01*
X0348816Y0030372D02*
X0349184Y0030372D01*
X0349184Y0028773D02*
X0348816Y0028773D01*
X0348816Y0027175D02*
X0349184Y0027175D01*
X0349184Y0025576D02*
X0348816Y0025576D01*
X0348816Y0023978D02*
X0349184Y0023978D01*
X0351793Y0023978D02*
X0354278Y0023978D01*
X0346207Y0023978D02*
X0343722Y0023978D01*
X0343099Y0031970D02*
X0346598Y0031970D01*
X0345309Y0011190D02*
X0344555Y0011190D01*
X0348816Y0011190D02*
X0349184Y0011190D01*
X0349184Y0009591D02*
X0348816Y0009591D01*
X0352691Y0011190D02*
X0353445Y0011190D01*
X0337697Y0011190D02*
X0280303Y0011190D01*
X0281225Y0009591D02*
X0336775Y0009591D01*
X0336557Y0007993D02*
X0281443Y0007993D01*
X0281088Y0006394D02*
X0336911Y0006394D01*
X0273445Y0011190D02*
X0272691Y0011190D01*
X0269184Y0011190D02*
X0268816Y0011190D01*
X0268816Y0009591D02*
X0269184Y0009591D01*
X0265309Y0011190D02*
X0264555Y0011190D01*
X0257697Y0011190D02*
X0200303Y0011190D01*
X0201225Y0009591D02*
X0256775Y0009591D01*
X0256557Y0007993D02*
X0201443Y0007993D01*
X0201088Y0006394D02*
X0256911Y0006394D01*
X0193445Y0011190D02*
X0192691Y0011190D01*
X0189184Y0011190D02*
X0188816Y0011190D01*
X0188816Y0009591D02*
X0189184Y0009591D01*
X0185309Y0011190D02*
X0184555Y0011190D01*
X0177697Y0011190D02*
X0120303Y0011190D01*
X0121225Y0009591D02*
X0176775Y0009591D01*
X0176557Y0007993D02*
X0121443Y0007993D01*
X0121088Y0006394D02*
X0176911Y0006394D01*
X0178530Y0023978D02*
X0119470Y0023978D01*
X0119462Y0023970D02*
X0120747Y0025255D01*
X0121443Y0026934D01*
X0121443Y0028751D01*
X0120747Y0030430D01*
X0119462Y0031716D01*
X0117783Y0032411D01*
X0115965Y0032411D01*
X0114286Y0031716D01*
X0113009Y0030438D01*
X0112637Y0030949D01*
X0112106Y0031480D01*
X0111499Y0031921D01*
X0110830Y0032262D01*
X0110117Y0032494D01*
X0109375Y0032611D01*
X0109184Y0032611D01*
X0109184Y0028027D01*
X0108816Y0028027D01*
X0108816Y0032611D01*
X0108625Y0032611D01*
X0107883Y0032494D01*
X0107170Y0032262D01*
X0106501Y0031921D01*
X0105894Y0031480D01*
X0105363Y0030949D01*
X0104991Y0030438D01*
X0103714Y0031716D01*
X0102035Y0032411D01*
X0100217Y0032411D01*
X0098538Y0031716D01*
X0097253Y0030430D01*
X0096557Y0028751D01*
X0096557Y0026934D01*
X0097253Y0025255D01*
X0098538Y0023970D01*
X0100217Y0023274D01*
X0102035Y0023274D01*
X0103714Y0023970D01*
X0104991Y0025247D01*
X0105363Y0024736D01*
X0105894Y0024205D01*
X0106501Y0023764D01*
X0107170Y0023423D01*
X0107883Y0023191D01*
X0108625Y0023074D01*
X0108816Y0023074D01*
X0108816Y0027658D01*
X0109184Y0027658D01*
X0109184Y0023074D01*
X0109375Y0023074D01*
X0110117Y0023191D01*
X0110830Y0023423D01*
X0111499Y0023764D01*
X0112106Y0024205D01*
X0112637Y0024736D01*
X0113009Y0025247D01*
X0114286Y0023970D01*
X0115965Y0023274D01*
X0117783Y0023274D01*
X0119462Y0023970D01*
X0120880Y0025576D02*
X0155323Y0025576D01*
X0155357Y0025541D02*
X0156423Y0025100D01*
X0157577Y0025100D01*
X0158643Y0025541D01*
X0159458Y0026357D01*
X0159900Y0027423D01*
X0159900Y0028577D01*
X0159458Y0029643D01*
X0158643Y0030458D01*
X0157577Y0030900D01*
X0156423Y0030900D01*
X0155357Y0030458D01*
X0154541Y0029643D01*
X0154100Y0028577D01*
X0154100Y0027423D01*
X0154541Y0026357D01*
X0155357Y0025541D01*
X0154203Y0027175D02*
X0121443Y0027175D01*
X0121433Y0028773D02*
X0154181Y0028773D01*
X0155270Y0030372D02*
X0120771Y0030372D01*
X0118847Y0031970D02*
X0179153Y0031970D01*
X0177229Y0030372D02*
X0158729Y0030372D01*
X0159819Y0028773D02*
X0176567Y0028773D01*
X0176557Y0027175D02*
X0159797Y0027175D01*
X0158677Y0025576D02*
X0177120Y0025576D01*
X0183722Y0023978D02*
X0186207Y0023978D01*
X0188816Y0023978D02*
X0189184Y0023978D01*
X0189184Y0025576D02*
X0188816Y0025576D01*
X0188816Y0027175D02*
X0189184Y0027175D01*
X0189184Y0028773D02*
X0188816Y0028773D01*
X0188816Y0030372D02*
X0189184Y0030372D01*
X0189184Y0031970D02*
X0188816Y0031970D01*
X0186598Y0031970D02*
X0183099Y0031970D01*
X0191402Y0031970D02*
X0194901Y0031970D01*
X0194278Y0023978D02*
X0191793Y0023978D01*
X0114901Y0031970D02*
X0111402Y0031970D01*
X0109184Y0031970D02*
X0108816Y0031970D01*
X0108816Y0030372D02*
X0109184Y0030372D01*
X0109184Y0028773D02*
X0108816Y0028773D01*
X0108816Y0027175D02*
X0109184Y0027175D01*
X0109184Y0025576D02*
X0108816Y0025576D01*
X0108816Y0023978D02*
X0109184Y0023978D01*
X0111793Y0023978D02*
X0114278Y0023978D01*
X0106207Y0023978D02*
X0103722Y0023978D01*
X0098530Y0023978D02*
X0066784Y0023978D01*
X0068342Y0025576D02*
X0075323Y0025576D01*
X0075357Y0025541D02*
X0076423Y0025100D01*
X0077577Y0025100D01*
X0078643Y0025541D01*
X0079458Y0026357D01*
X0079900Y0027423D01*
X0079900Y0028577D01*
X0079458Y0029643D01*
X0078643Y0030458D01*
X0077577Y0030900D01*
X0076423Y0030900D01*
X0075357Y0030458D01*
X0074541Y0029643D01*
X0074100Y0028577D01*
X0074100Y0027423D01*
X0074541Y0026357D01*
X0075357Y0025541D01*
X0074203Y0027175D02*
X0069004Y0027175D01*
X0069521Y0028773D02*
X0074181Y0028773D01*
X0075270Y0030372D02*
X0069521Y0030372D01*
X0069359Y0031970D02*
X0099153Y0031970D01*
X0097229Y0030372D02*
X0078729Y0030372D01*
X0079819Y0028773D02*
X0096567Y0028773D01*
X0096557Y0027175D02*
X0079797Y0027175D01*
X0078677Y0025576D02*
X0097120Y0025576D01*
X0103099Y0031970D02*
X0106598Y0031970D01*
X0105309Y0011190D02*
X0104555Y0011190D01*
X0108816Y0011190D02*
X0109184Y0011190D01*
X0109184Y0009591D02*
X0108816Y0009591D01*
X0112691Y0011190D02*
X0113445Y0011190D01*
X0097697Y0011190D02*
X0004800Y0011190D01*
X0004800Y0009591D02*
X0096775Y0009591D01*
X0096557Y0007993D02*
X0004800Y0007993D01*
X0004800Y0006394D02*
X0096911Y0006394D01*
X0160059Y0107100D02*
X0237703Y0107100D01*
X0237842Y0108699D02*
X0190800Y0108699D01*
X0191848Y0110297D02*
X0238599Y0110297D01*
X0244446Y0111896D02*
X0261939Y0111896D01*
X0261600Y0113494D02*
X0244850Y0113494D01*
X0246482Y0115093D02*
X0262021Y0115093D01*
X0261600Y0110297D02*
X0246401Y0110297D01*
X0247100Y0116691D02*
X0290600Y0116691D01*
X0291189Y0118290D02*
X0247100Y0118290D01*
X0246490Y0119888D02*
X0294600Y0119888D01*
X0294977Y0121487D02*
X0244895Y0121487D01*
X0235643Y0136541D02*
X0236458Y0137357D01*
X0236900Y0138423D01*
X0236900Y0139577D01*
X0236458Y0140643D01*
X0235643Y0141458D01*
X0234577Y0141900D01*
X0233423Y0141900D01*
X0232357Y0141458D01*
X0231541Y0140643D01*
X0231100Y0139577D01*
X0231100Y0138423D01*
X0231541Y0137357D01*
X0232357Y0136541D01*
X0233423Y0136100D01*
X0234577Y0136100D01*
X0235643Y0136541D01*
X0236506Y0137472D02*
X0410200Y0137472D01*
X0410200Y0139070D02*
X0236900Y0139070D01*
X0236432Y0140669D02*
X0360912Y0140669D01*
X0361041Y0140357D02*
X0361857Y0139541D01*
X0362923Y0139100D01*
X0364077Y0139100D01*
X0365143Y0139541D01*
X0365958Y0140357D01*
X0366400Y0141423D01*
X0366400Y0142577D01*
X0365958Y0143643D01*
X0365143Y0144458D01*
X0364077Y0144900D01*
X0362923Y0144900D01*
X0361857Y0144458D01*
X0361041Y0143643D01*
X0360600Y0142577D01*
X0360600Y0141423D01*
X0361041Y0140357D01*
X0360600Y0142268D02*
X0247869Y0142268D01*
X0247958Y0142357D02*
X0248400Y0143423D01*
X0248400Y0144577D01*
X0247958Y0145643D01*
X0247143Y0146458D01*
X0246077Y0146900D01*
X0244923Y0146900D01*
X0243857Y0146458D01*
X0243041Y0145643D01*
X0242600Y0144577D01*
X0242600Y0143423D01*
X0243041Y0142357D01*
X0243857Y0141541D01*
X0244923Y0141100D01*
X0246077Y0141100D01*
X0247143Y0141541D01*
X0247958Y0142357D01*
X0248400Y0143866D02*
X0361265Y0143866D01*
X0365735Y0143866D02*
X0410200Y0143866D01*
X0410200Y0142268D02*
X0366400Y0142268D01*
X0366088Y0140669D02*
X0410200Y0140669D01*
X0410200Y0145465D02*
X0248032Y0145465D01*
X0242968Y0145465D02*
X0241532Y0145465D01*
X0241458Y0145643D02*
X0240643Y0146458D01*
X0239577Y0146900D01*
X0238423Y0146900D01*
X0237357Y0146458D01*
X0236541Y0145643D01*
X0236100Y0144577D01*
X0236100Y0143423D01*
X0236541Y0142357D01*
X0237357Y0141541D01*
X0238423Y0141100D01*
X0239577Y0141100D01*
X0240643Y0141541D01*
X0241458Y0142357D01*
X0241900Y0143423D01*
X0241900Y0144577D01*
X0241458Y0145643D01*
X0241900Y0143866D02*
X0242600Y0143866D01*
X0243131Y0142268D02*
X0241369Y0142268D01*
X0236631Y0142268D02*
X0196481Y0142268D01*
X0196077Y0142100D02*
X0197143Y0142541D01*
X0197958Y0143357D01*
X0198400Y0144423D01*
X0198400Y0145577D01*
X0197958Y0146643D01*
X0197143Y0147458D01*
X0196077Y0147900D01*
X0194923Y0147900D01*
X0193857Y0147458D01*
X0193041Y0146643D01*
X0192600Y0145577D01*
X0192600Y0144423D01*
X0193041Y0143357D01*
X0193857Y0142541D01*
X0194923Y0142100D01*
X0196077Y0142100D01*
X0194519Y0142268D02*
X0192114Y0142268D01*
X0192169Y0143866D02*
X0192831Y0143866D01*
X0192600Y0145465D02*
X0192400Y0145465D01*
X0191538Y0147063D02*
X0193462Y0147063D01*
X0197538Y0147063D02*
X0410200Y0147063D01*
X0410200Y0151859D02*
X0350960Y0151859D01*
X0350643Y0151541D02*
X0351458Y0152357D01*
X0351900Y0153423D01*
X0351900Y0154577D01*
X0351458Y0155643D01*
X0350643Y0156458D01*
X0349577Y0156900D01*
X0348423Y0156900D01*
X0347357Y0156458D01*
X0346541Y0155643D01*
X0346100Y0154577D01*
X0346100Y0153423D01*
X0346541Y0152357D01*
X0347357Y0151541D01*
X0348423Y0151100D01*
X0349577Y0151100D01*
X0350643Y0151541D01*
X0351900Y0153457D02*
X0410200Y0153457D01*
X0410200Y0155056D02*
X0351702Y0155056D01*
X0350170Y0156654D02*
X0410200Y0156654D01*
X0410200Y0158253D02*
X0312327Y0158253D01*
X0312400Y0158077D02*
X0311958Y0159143D01*
X0311143Y0159958D01*
X0310439Y0160250D01*
X0311143Y0160541D01*
X0311958Y0161357D01*
X0312400Y0162423D01*
X0312400Y0163577D01*
X0311958Y0164643D01*
X0311143Y0165458D01*
X0310077Y0165900D01*
X0308923Y0165900D01*
X0307857Y0165458D01*
X0307041Y0164643D01*
X0306600Y0163577D01*
X0306600Y0162423D01*
X0307041Y0161357D01*
X0307857Y0160541D01*
X0308561Y0160250D01*
X0308000Y0160018D01*
X0307077Y0160400D01*
X0305923Y0160400D01*
X0304857Y0159958D01*
X0304041Y0159143D01*
X0303600Y0158077D01*
X0303600Y0156923D01*
X0304041Y0155857D01*
X0304857Y0155041D01*
X0305923Y0154600D01*
X0307077Y0154600D01*
X0308000Y0154982D01*
X0308923Y0154600D01*
X0310077Y0154600D01*
X0311143Y0155041D01*
X0311958Y0155857D01*
X0312400Y0156923D01*
X0312400Y0158077D01*
X0312289Y0156654D02*
X0347830Y0156654D01*
X0346298Y0155056D02*
X0311157Y0155056D01*
X0311250Y0159851D02*
X0410200Y0159851D01*
X0410200Y0161450D02*
X0322497Y0161450D01*
X0322458Y0161357D02*
X0322900Y0162423D01*
X0322900Y0163577D01*
X0322458Y0164643D01*
X0321643Y0165458D01*
X0320577Y0165900D01*
X0319423Y0165900D01*
X0318357Y0165458D01*
X0317541Y0164643D01*
X0317100Y0163577D01*
X0317100Y0162423D01*
X0317541Y0161357D01*
X0318357Y0160541D01*
X0319423Y0160100D01*
X0320577Y0160100D01*
X0321643Y0160541D01*
X0322458Y0161357D01*
X0322900Y0163048D02*
X0410200Y0163048D01*
X0410200Y0164647D02*
X0341748Y0164647D01*
X0341958Y0164857D02*
X0342400Y0165923D01*
X0342400Y0167077D01*
X0341958Y0168143D01*
X0341143Y0168958D01*
X0340077Y0169400D01*
X0338923Y0169400D01*
X0337857Y0168958D01*
X0337041Y0168143D01*
X0336600Y0167077D01*
X0336600Y0165923D01*
X0337041Y0164857D01*
X0337857Y0164041D01*
X0338923Y0163600D01*
X0340077Y0163600D01*
X0341143Y0164041D01*
X0341958Y0164857D01*
X0342400Y0166245D02*
X0410200Y0166245D01*
X0410200Y0167844D02*
X0406009Y0167844D01*
X0405965Y0167800D02*
X0408362Y0170197D01*
X0409659Y0173329D01*
X0409659Y0176719D01*
X0408362Y0179851D01*
X0405965Y0182248D01*
X0402833Y0183545D01*
X0399443Y0183545D01*
X0396311Y0182248D01*
X0393914Y0179851D01*
X0392617Y0176719D01*
X0392617Y0173329D01*
X0393914Y0170197D01*
X0396311Y0167800D01*
X0399443Y0166502D01*
X0402833Y0166502D01*
X0405965Y0167800D01*
X0407607Y0169442D02*
X0410200Y0169442D01*
X0410200Y0171041D02*
X0408711Y0171041D01*
X0409373Y0172639D02*
X0410200Y0172639D01*
X0410200Y0174238D02*
X0409659Y0174238D01*
X0409659Y0175836D02*
X0410200Y0175836D01*
X0410200Y0177435D02*
X0409362Y0177435D01*
X0408700Y0179033D02*
X0410200Y0179033D01*
X0410200Y0180632D02*
X0407580Y0180632D01*
X0405982Y0182230D02*
X0410200Y0182230D01*
X0410200Y0183829D02*
X0273861Y0183829D01*
X0273900Y0183923D02*
X0273900Y0185077D01*
X0273458Y0186143D01*
X0272643Y0186958D01*
X0271577Y0187400D01*
X0270423Y0187400D01*
X0269357Y0186958D01*
X0268541Y0186143D01*
X0268371Y0185730D01*
X0268143Y0185958D01*
X0267077Y0186400D01*
X0265923Y0186400D01*
X0264857Y0185958D01*
X0264041Y0185143D01*
X0263600Y0184077D01*
X0263600Y0182923D01*
X0264041Y0181857D01*
X0264857Y0181041D01*
X0265923Y0180600D01*
X0267077Y0180600D01*
X0268143Y0181041D01*
X0268958Y0181857D01*
X0269129Y0182270D01*
X0269357Y0182041D01*
X0270423Y0181600D01*
X0271577Y0181600D01*
X0272643Y0182041D01*
X0273458Y0182857D01*
X0273900Y0183923D01*
X0273755Y0185427D02*
X0410200Y0185427D01*
X0410200Y0187026D02*
X0272480Y0187026D01*
X0269520Y0187026D02*
X0124993Y0187026D01*
X0125100Y0187284D02*
X0124552Y0185961D01*
X0123539Y0184948D01*
X0122216Y0184400D01*
X0120784Y0184400D01*
X0119461Y0184948D01*
X0118448Y0185961D01*
X0117900Y0187284D01*
X0117900Y0188716D01*
X0118448Y0190039D01*
X0119409Y0191000D01*
X0118448Y0191961D01*
X0117900Y0193284D01*
X0117900Y0194716D01*
X0118448Y0196039D01*
X0119461Y0197052D01*
X0120784Y0197600D01*
X0122216Y0197600D01*
X0123539Y0197052D01*
X0124552Y0196039D01*
X0125100Y0194716D01*
X0125100Y0193284D01*
X0124552Y0191961D01*
X0123591Y0191000D01*
X0124552Y0190039D01*
X0125100Y0188716D01*
X0125100Y0187284D01*
X0125100Y0188624D02*
X0410200Y0188624D01*
X0410200Y0190223D02*
X0124368Y0190223D01*
X0124413Y0191821D02*
X0273087Y0191821D01*
X0272948Y0191961D02*
X0273961Y0190948D01*
X0275284Y0190400D01*
X0276716Y0190400D01*
X0278039Y0190948D01*
X0279000Y0191909D01*
X0279961Y0190948D01*
X0281284Y0190400D01*
X0282716Y0190400D01*
X0284039Y0190948D01*
X0285052Y0191961D01*
X0285600Y0193284D01*
X0285600Y0194716D01*
X0285052Y0196039D01*
X0284039Y0197052D01*
X0282716Y0197600D01*
X0281284Y0197600D01*
X0279961Y0197052D01*
X0279000Y0196091D01*
X0278039Y0197052D01*
X0276716Y0197600D01*
X0275284Y0197600D01*
X0273961Y0197052D01*
X0272948Y0196039D01*
X0272400Y0194716D01*
X0272400Y0193284D01*
X0272948Y0191961D01*
X0272400Y0193420D02*
X0125100Y0193420D01*
X0124975Y0195018D02*
X0272525Y0195018D01*
X0273526Y0196617D02*
X0123974Y0196617D01*
X0119026Y0196617D02*
X0018081Y0196617D01*
X0018606Y0196400D02*
X0016915Y0197100D01*
X0015085Y0197100D01*
X0013394Y0196400D01*
X0012100Y0195106D01*
X0011400Y0193415D01*
X0011400Y0191585D01*
X0012100Y0189894D01*
X0013394Y0188600D01*
X0015085Y0187900D01*
X0016915Y0187900D01*
X0018606Y0188600D01*
X0019900Y0189894D01*
X0020600Y0191585D01*
X0020600Y0193415D01*
X0019900Y0195106D01*
X0018606Y0196400D01*
X0019936Y0195018D02*
X0118025Y0195018D01*
X0117900Y0193420D02*
X0020598Y0193420D01*
X0020600Y0191821D02*
X0118587Y0191821D01*
X0118632Y0190223D02*
X0020036Y0190223D01*
X0018630Y0188624D02*
X0117900Y0188624D01*
X0118007Y0187026D02*
X0004800Y0187026D01*
X0004800Y0188624D02*
X0013370Y0188624D01*
X0011964Y0190223D02*
X0004800Y0190223D01*
X0004800Y0191821D02*
X0011400Y0191821D01*
X0011402Y0193420D02*
X0004800Y0193420D01*
X0004800Y0195018D02*
X0012064Y0195018D01*
X0013919Y0196617D02*
X0004800Y0196617D01*
X0004800Y0198215D02*
X0014324Y0198215D01*
X0015085Y0197900D02*
X0016915Y0197900D01*
X0018606Y0198600D01*
X0019900Y0199894D01*
X0020600Y0201585D01*
X0020600Y0203415D01*
X0019900Y0205106D01*
X0018606Y0206400D01*
X0016915Y0207100D01*
X0015085Y0207100D01*
X0013394Y0206400D01*
X0012100Y0205106D01*
X0011400Y0203415D01*
X0011400Y0201585D01*
X0012100Y0199894D01*
X0013394Y0198600D01*
X0015085Y0197900D01*
X0017676Y0198215D02*
X0264683Y0198215D01*
X0264857Y0198041D02*
X0265923Y0197600D01*
X0267077Y0197600D01*
X0268143Y0198041D01*
X0268958Y0198857D01*
X0269400Y0199923D01*
X0269400Y0201077D01*
X0269102Y0201797D01*
X0269357Y0201541D01*
X0270423Y0201100D01*
X0271577Y0201100D01*
X0272643Y0201541D01*
X0273458Y0202357D01*
X0273900Y0203423D01*
X0273900Y0204577D01*
X0273458Y0205643D01*
X0272643Y0206458D01*
X0271577Y0206900D01*
X0270423Y0206900D01*
X0269357Y0206458D01*
X0268541Y0205643D01*
X0268100Y0204577D01*
X0268100Y0203423D01*
X0268398Y0202703D01*
X0268143Y0202958D01*
X0267077Y0203400D01*
X0265923Y0203400D01*
X0264857Y0202958D01*
X0264041Y0202143D01*
X0263600Y0201077D01*
X0263600Y0199923D01*
X0264041Y0198857D01*
X0264857Y0198041D01*
X0263645Y0199814D02*
X0019819Y0199814D01*
X0020529Y0201412D02*
X0263739Y0201412D01*
X0264984Y0203011D02*
X0020600Y0203011D01*
X0020105Y0204609D02*
X0169147Y0204609D01*
X0169394Y0204363D02*
X0170001Y0203922D01*
X0170670Y0203581D01*
X0171383Y0203349D01*
X0172125Y0203231D01*
X0172316Y0203231D01*
X0172316Y0207816D01*
X0172684Y0207816D01*
X0172684Y0203231D01*
X0172875Y0203231D01*
X0173617Y0203349D01*
X0174330Y0203581D01*
X0174999Y0203922D01*
X0175606Y0204363D01*
X0176137Y0204894D01*
X0176578Y0205501D01*
X0176919Y0206170D01*
X0177151Y0206883D01*
X0177268Y0207625D01*
X0177268Y0207816D01*
X0172684Y0207816D01*
X0172684Y0208184D01*
X0177268Y0208184D01*
X0177268Y0208375D01*
X0177151Y0209117D01*
X0176919Y0209830D01*
X0176578Y0210499D01*
X0176137Y0211106D01*
X0175606Y0211637D01*
X0174999Y0212078D01*
X0174330Y0212419D01*
X0173617Y0212651D01*
X0172875Y0212768D01*
X0172684Y0212768D01*
X0172684Y0208184D01*
X0172316Y0208184D01*
X0172316Y0207816D01*
X0167731Y0207816D01*
X0167731Y0207625D01*
X0167849Y0206883D01*
X0168081Y0206170D01*
X0168422Y0205501D01*
X0168863Y0204894D01*
X0169394Y0204363D01*
X0168068Y0206208D02*
X0018797Y0206208D01*
X0013203Y0206208D02*
X0004800Y0206208D01*
X0004800Y0207806D02*
X0167731Y0207806D01*
X0167731Y0208184D02*
X0172316Y0208184D01*
X0172316Y0212768D01*
X0172125Y0212768D01*
X0171383Y0212651D01*
X0170670Y0212419D01*
X0170001Y0212078D01*
X0169394Y0211637D01*
X0168863Y0211106D01*
X0168422Y0210499D01*
X0168081Y0209830D01*
X0167849Y0209117D01*
X0167731Y0208375D01*
X0167731Y0208184D01*
X0167943Y0209405D02*
X0004800Y0209405D01*
X0004800Y0211003D02*
X0168788Y0211003D01*
X0171232Y0212602D02*
X0004800Y0212602D01*
X0004800Y0214201D02*
X0169839Y0214201D01*
X0169912Y0214127D02*
X0171591Y0213431D01*
X0173409Y0213431D01*
X0175088Y0214127D01*
X0176373Y0215412D01*
X0177068Y0217091D01*
X0177068Y0218909D01*
X0176373Y0220588D01*
X0175088Y0221873D01*
X0173409Y0222568D01*
X0171591Y0222568D01*
X0169912Y0221873D01*
X0168627Y0220588D01*
X0167931Y0218909D01*
X0167931Y0217091D01*
X0168627Y0215412D01*
X0169912Y0214127D01*
X0168467Y0215799D02*
X0004800Y0215799D01*
X0004800Y0217398D02*
X0167931Y0217398D01*
X0167968Y0218996D02*
X0004800Y0218996D01*
X0004800Y0220595D02*
X0168634Y0220595D01*
X0170685Y0222193D02*
X0004800Y0222193D01*
X0004800Y0223792D02*
X0170722Y0223792D01*
X0169912Y0224127D02*
X0171591Y0223431D01*
X0173409Y0223431D01*
X0175088Y0224127D01*
X0176373Y0225412D01*
X0177068Y0227091D01*
X0177068Y0228909D01*
X0176373Y0230588D01*
X0175088Y0231873D01*
X0173409Y0232568D01*
X0171591Y0232568D01*
X0169912Y0231873D01*
X0168627Y0230588D01*
X0167931Y0228909D01*
X0167931Y0227091D01*
X0168627Y0225412D01*
X0169912Y0224127D01*
X0168649Y0225390D02*
X0004800Y0225390D01*
X0004800Y0226989D02*
X0167974Y0226989D01*
X0167931Y0228587D02*
X0108000Y0228587D01*
X0108000Y0230186D02*
X0168460Y0230186D01*
X0169823Y0231784D02*
X0108000Y0231784D01*
X0108000Y0233383D02*
X0192227Y0233383D01*
X0192144Y0233466D02*
X0194320Y0231290D01*
X0197162Y0230113D01*
X0200239Y0230113D01*
X0203082Y0231290D01*
X0205257Y0233466D01*
X0206435Y0236308D01*
X0206435Y0239385D01*
X0205257Y0242227D01*
X0203082Y0244403D01*
X0200239Y0245580D01*
X0197162Y0245580D01*
X0194320Y0244403D01*
X0192144Y0242227D01*
X0190967Y0239385D01*
X0190967Y0236308D01*
X0192144Y0233466D01*
X0191517Y0234981D02*
X0175942Y0234981D01*
X0176373Y0235412D02*
X0177068Y0237091D01*
X0177068Y0238909D01*
X0176373Y0240588D01*
X0175088Y0241873D01*
X0173409Y0242568D01*
X0171591Y0242568D01*
X0169912Y0241873D01*
X0168627Y0240588D01*
X0167931Y0238909D01*
X0167931Y0237091D01*
X0168627Y0235412D01*
X0169912Y0234127D01*
X0171591Y0233431D01*
X0173409Y0233431D01*
X0175088Y0234127D01*
X0176373Y0235412D01*
X0176857Y0236580D02*
X0190967Y0236580D01*
X0190967Y0238178D02*
X0177068Y0238178D01*
X0176709Y0239777D02*
X0191129Y0239777D01*
X0191791Y0241375D02*
X0175586Y0241375D01*
X0169414Y0241375D02*
X0124931Y0241375D01*
X0125100Y0241784D02*
X0124552Y0240461D01*
X0123841Y0239750D01*
X0124552Y0239039D01*
X0125100Y0237716D01*
X0125100Y0236284D01*
X0124552Y0234961D01*
X0123539Y0233948D01*
X0122216Y0233400D01*
X0120784Y0233400D01*
X0119461Y0233948D01*
X0118448Y0234961D01*
X0117900Y0236284D01*
X0117900Y0237716D01*
X0118448Y0239039D01*
X0119159Y0239750D01*
X0118448Y0240461D01*
X0117900Y0241784D01*
X0117900Y0243216D01*
X0118448Y0244539D01*
X0119461Y0245552D01*
X0120784Y0246100D01*
X0122216Y0246100D01*
X0123539Y0245552D01*
X0124552Y0244539D01*
X0125100Y0243216D01*
X0125100Y0241784D01*
X0125100Y0242974D02*
X0192891Y0242974D01*
X0194729Y0244572D02*
X0124519Y0244572D01*
X0125728Y0246171D02*
X0108000Y0246171D01*
X0108000Y0247769D02*
X0125100Y0247769D01*
X0125100Y0247423D02*
X0125541Y0246357D01*
X0126357Y0245541D01*
X0127423Y0245100D01*
X0128577Y0245100D01*
X0129643Y0245541D01*
X0130458Y0246357D01*
X0130900Y0247423D01*
X0130900Y0248577D01*
X0130458Y0249643D01*
X0129643Y0250458D01*
X0128577Y0250900D01*
X0127423Y0250900D01*
X0126357Y0250458D01*
X0125541Y0249643D01*
X0125100Y0248577D01*
X0125100Y0247423D01*
X0125428Y0249368D02*
X0108000Y0249368D01*
X0108000Y0250966D02*
X0410200Y0250966D01*
X0410200Y0249368D02*
X0160072Y0249368D01*
X0159958Y0249643D02*
X0159143Y0250458D01*
X0158077Y0250900D01*
X0156923Y0250900D01*
X0155857Y0250458D01*
X0155041Y0249643D01*
X0154600Y0248577D01*
X0154600Y0247423D01*
X0155041Y0246357D01*
X0155857Y0245541D01*
X0156923Y0245100D01*
X0158077Y0245100D01*
X0159143Y0245541D01*
X0159958Y0246357D01*
X0160400Y0247423D01*
X0160400Y0248577D01*
X0159958Y0249643D01*
X0160400Y0247769D02*
X0410200Y0247769D01*
X0410200Y0246171D02*
X0159772Y0246171D01*
X0155228Y0246171D02*
X0130272Y0246171D01*
X0130900Y0247769D02*
X0154600Y0247769D01*
X0154928Y0249368D02*
X0130572Y0249368D01*
X0131591Y0258241D02*
X0134401Y0258241D01*
X0136997Y0259316D01*
X0138983Y0261302D01*
X0140059Y0263898D01*
X0140059Y0266708D01*
X0138983Y0269304D01*
X0136997Y0271291D01*
X0134401Y0272366D01*
X0131591Y0272366D01*
X0128995Y0271291D01*
X0127009Y0269304D01*
X0125933Y0266708D01*
X0125933Y0263898D01*
X0127009Y0261302D01*
X0128995Y0259316D01*
X0131591Y0258241D01*
X0129857Y0258959D02*
X0119900Y0258959D01*
X0119900Y0258423D02*
X0119900Y0259577D01*
X0119458Y0260643D01*
X0119351Y0260750D01*
X0119458Y0260857D01*
X0119900Y0261923D01*
X0119900Y0263077D01*
X0119458Y0264143D01*
X0118643Y0264958D01*
X0117577Y0265400D01*
X0116423Y0265400D01*
X0115357Y0264958D01*
X0114541Y0264143D01*
X0114100Y0263077D01*
X0114100Y0261923D01*
X0114541Y0260857D01*
X0114649Y0260750D01*
X0114541Y0260643D01*
X0114224Y0259877D01*
X0113643Y0260458D01*
X0112577Y0260900D01*
X0111423Y0260900D01*
X0110357Y0260458D01*
X0109541Y0259643D01*
X0109100Y0258577D01*
X0109100Y0257423D01*
X0109541Y0256357D01*
X0110357Y0255541D01*
X0111423Y0255100D01*
X0112577Y0255100D01*
X0113643Y0255541D01*
X0114458Y0256357D01*
X0114776Y0257123D01*
X0115357Y0256541D01*
X0116423Y0256100D01*
X0117577Y0256100D01*
X0118643Y0256541D01*
X0119458Y0257357D01*
X0119900Y0258423D01*
X0119460Y0257360D02*
X0410200Y0257360D01*
X0410200Y0255762D02*
X0113863Y0255762D01*
X0110137Y0255762D02*
X0108000Y0255762D01*
X0108000Y0257360D02*
X0109126Y0257360D01*
X0109258Y0258959D02*
X0108000Y0258959D01*
X0108000Y0260557D02*
X0110596Y0260557D01*
X0113404Y0260557D02*
X0114506Y0260557D01*
X0114100Y0262156D02*
X0108000Y0262156D01*
X0108000Y0263754D02*
X0114381Y0263754D01*
X0116309Y0265353D02*
X0108000Y0265353D01*
X0108000Y0266951D02*
X0126034Y0266951D01*
X0125933Y0265353D02*
X0117691Y0265353D01*
X0119619Y0263754D02*
X0125993Y0263754D01*
X0126655Y0262156D02*
X0119900Y0262156D01*
X0119494Y0260557D02*
X0127754Y0260557D01*
X0136135Y0258959D02*
X0148361Y0258959D01*
X0147499Y0259316D02*
X0150095Y0258241D01*
X0152905Y0258241D01*
X0155501Y0259316D01*
X0157487Y0261302D01*
X0158563Y0263898D01*
X0158563Y0266708D01*
X0157487Y0269304D01*
X0155501Y0271291D01*
X0152905Y0272366D01*
X0150095Y0272366D01*
X0147499Y0271291D01*
X0145513Y0269304D01*
X0144437Y0266708D01*
X0144437Y0263898D01*
X0145513Y0261302D01*
X0147499Y0259316D01*
X0146258Y0260557D02*
X0138238Y0260557D01*
X0139337Y0262156D02*
X0145159Y0262156D01*
X0144497Y0263754D02*
X0139999Y0263754D01*
X0140059Y0265353D02*
X0144437Y0265353D01*
X0144538Y0266951D02*
X0139958Y0266951D01*
X0139296Y0268550D02*
X0145200Y0268550D01*
X0146357Y0270148D02*
X0138139Y0270148D01*
X0135895Y0271747D02*
X0148601Y0271747D01*
X0154399Y0271747D02*
X0167105Y0271747D01*
X0166003Y0271291D02*
X0164017Y0269304D01*
X0162941Y0266708D01*
X0162941Y0263898D01*
X0164017Y0261302D01*
X0166003Y0259316D01*
X0168599Y0258241D01*
X0171409Y0258241D01*
X0174005Y0259316D01*
X0175991Y0261302D01*
X0177067Y0263898D01*
X0177067Y0266708D01*
X0175991Y0269304D01*
X0174005Y0271291D01*
X0171409Y0272366D01*
X0168599Y0272366D01*
X0166003Y0271291D01*
X0164861Y0270148D02*
X0156643Y0270148D01*
X0157800Y0268550D02*
X0163704Y0268550D01*
X0163042Y0266951D02*
X0158462Y0266951D01*
X0158563Y0265353D02*
X0162941Y0265353D01*
X0163001Y0263754D02*
X0158503Y0263754D01*
X0157841Y0262156D02*
X0163663Y0262156D01*
X0164762Y0260557D02*
X0156742Y0260557D01*
X0154639Y0258959D02*
X0166865Y0258959D01*
X0173143Y0258959D02*
X0410200Y0258959D01*
X0410200Y0260557D02*
X0175246Y0260557D01*
X0176345Y0262156D02*
X0410200Y0262156D01*
X0410200Y0263754D02*
X0177007Y0263754D01*
X0177067Y0265353D02*
X0410200Y0265353D01*
X0410200Y0266951D02*
X0176966Y0266951D01*
X0176304Y0268550D02*
X0410200Y0268550D01*
X0410200Y0270148D02*
X0175147Y0270148D01*
X0172903Y0271747D02*
X0410200Y0271747D01*
X0410200Y0273345D02*
X0108000Y0273345D01*
X0108000Y0271747D02*
X0130097Y0271747D01*
X0127853Y0270148D02*
X0108000Y0270148D01*
X0108000Y0268550D02*
X0126696Y0268550D01*
X0108000Y0274944D02*
X0410200Y0274944D01*
X0410200Y0276542D02*
X0391144Y0276542D01*
X0391143Y0276541D02*
X0391958Y0277357D01*
X0392400Y0278423D01*
X0392400Y0279577D01*
X0391958Y0280643D01*
X0391143Y0281458D01*
X0390077Y0281900D01*
X0388923Y0281900D01*
X0387857Y0281458D01*
X0387041Y0280643D01*
X0386600Y0279577D01*
X0386600Y0278423D01*
X0387041Y0277357D01*
X0387857Y0276541D01*
X0388923Y0276100D01*
X0390077Y0276100D01*
X0391143Y0276541D01*
X0392283Y0278141D02*
X0410200Y0278141D01*
X0410200Y0279739D02*
X0392333Y0279739D01*
X0391263Y0281338D02*
X0410200Y0281338D01*
X0410200Y0282937D02*
X0204728Y0282937D01*
X0205257Y0283466D02*
X0203082Y0281290D01*
X0200239Y0280113D01*
X0197162Y0280113D01*
X0194320Y0281290D01*
X0192144Y0283466D01*
X0190967Y0286308D01*
X0190967Y0289385D01*
X0192144Y0292227D01*
X0194320Y0294403D01*
X0197162Y0295580D01*
X0200239Y0295580D01*
X0203082Y0294403D01*
X0205257Y0292227D01*
X0206435Y0289385D01*
X0206435Y0286308D01*
X0205257Y0283466D01*
X0205700Y0284535D02*
X0410200Y0284535D01*
X0410200Y0286134D02*
X0326735Y0286134D01*
X0326958Y0286357D02*
X0327400Y0287423D01*
X0327400Y0288577D01*
X0326958Y0289643D01*
X0326143Y0290458D01*
X0325077Y0290900D01*
X0323923Y0290900D01*
X0322857Y0290458D01*
X0322041Y0289643D01*
X0321600Y0288577D01*
X0321600Y0287423D01*
X0322041Y0286357D01*
X0322857Y0285541D01*
X0323923Y0285100D01*
X0325077Y0285100D01*
X0326143Y0285541D01*
X0326958Y0286357D01*
X0327400Y0287732D02*
X0410200Y0287732D01*
X0410200Y0289331D02*
X0330133Y0289331D01*
X0330643Y0289541D02*
X0331458Y0290357D01*
X0331900Y0291423D01*
X0331900Y0292577D01*
X0331458Y0293643D01*
X0331203Y0293898D01*
X0331923Y0293600D01*
X0333077Y0293600D01*
X0334143Y0294041D01*
X0334958Y0294857D01*
X0335400Y0295923D01*
X0335400Y0297077D01*
X0334958Y0298143D01*
X0334143Y0298958D01*
X0333077Y0299400D01*
X0331923Y0299400D01*
X0330857Y0298958D01*
X0330041Y0298143D01*
X0329600Y0297077D01*
X0329600Y0295923D01*
X0330041Y0294857D01*
X0330297Y0294602D01*
X0329577Y0294900D01*
X0328423Y0294900D01*
X0327357Y0294458D01*
X0326541Y0293643D01*
X0326100Y0292577D01*
X0326100Y0291423D01*
X0326541Y0290357D01*
X0327357Y0289541D01*
X0328423Y0289100D01*
X0329577Y0289100D01*
X0330643Y0289541D01*
X0331695Y0290929D02*
X0410200Y0290929D01*
X0410200Y0292528D02*
X0331900Y0292528D01*
X0334227Y0294126D02*
X0410200Y0294126D01*
X0410200Y0295725D02*
X0335318Y0295725D01*
X0335298Y0297323D02*
X0410200Y0297323D01*
X0410200Y0298922D02*
X0350192Y0298922D01*
X0353209Y0300520D02*
X0410200Y0300520D01*
X0410200Y0302119D02*
X0354837Y0302119D01*
X0356005Y0303717D02*
X0410200Y0303717D01*
X0410200Y0305316D02*
X0356928Y0305316D01*
X0357357Y0306914D02*
X0410200Y0306914D01*
X0410200Y0308513D02*
X0357713Y0308513D01*
X0357713Y0310111D02*
X0410200Y0310111D01*
X0410200Y0311710D02*
X0357595Y0311710D01*
X0357167Y0313308D02*
X0410200Y0313308D01*
X0410200Y0314907D02*
X0356518Y0314907D01*
X0355595Y0316505D02*
X0410200Y0316505D01*
X0410200Y0318104D02*
X0354126Y0318104D01*
X0351979Y0319702D02*
X0410200Y0319702D01*
X0387737Y0281338D02*
X0203130Y0281338D01*
X0206362Y0286134D02*
X0322265Y0286134D01*
X0321600Y0287732D02*
X0206435Y0287732D01*
X0206435Y0289331D02*
X0321912Y0289331D01*
X0326305Y0290929D02*
X0205795Y0290929D01*
X0204957Y0292528D02*
X0326100Y0292528D01*
X0327025Y0294126D02*
X0228570Y0294126D01*
X0228458Y0293857D02*
X0228900Y0294923D01*
X0228900Y0296077D01*
X0228458Y0297143D01*
X0227643Y0297958D01*
X0226577Y0298400D01*
X0225423Y0298400D01*
X0224357Y0297958D01*
X0223541Y0297143D01*
X0223100Y0296077D01*
X0223100Y0294923D01*
X0223541Y0293857D01*
X0224357Y0293041D01*
X0225423Y0292600D01*
X0226577Y0292600D01*
X0227643Y0293041D01*
X0228458Y0293857D01*
X0228900Y0295725D02*
X0329682Y0295725D01*
X0329702Y0297323D02*
X0228278Y0297323D01*
X0223722Y0297323D02*
X0070000Y0297323D01*
X0070000Y0295725D02*
X0223100Y0295725D01*
X0223430Y0294126D02*
X0203358Y0294126D01*
X0194043Y0294126D02*
X0089975Y0294126D01*
X0089643Y0294458D02*
X0088577Y0294900D01*
X0087423Y0294900D01*
X0086357Y0294458D01*
X0085541Y0293643D01*
X0085100Y0292577D01*
X0085100Y0291423D01*
X0085541Y0290357D01*
X0086357Y0289541D01*
X0087423Y0289100D01*
X0088577Y0289100D01*
X0089643Y0289541D01*
X0090458Y0290357D01*
X0090900Y0291423D01*
X0090900Y0292577D01*
X0090458Y0293643D01*
X0089643Y0294458D01*
X0090900Y0292528D02*
X0192445Y0292528D01*
X0191607Y0290929D02*
X0104672Y0290929D01*
X0104643Y0290958D02*
X0103577Y0291400D01*
X0102423Y0291400D01*
X0101357Y0290958D01*
X0100541Y0290143D01*
X0100100Y0289077D01*
X0100100Y0287923D01*
X0100541Y0286857D01*
X0101357Y0286041D01*
X0102423Y0285600D01*
X0103577Y0285600D01*
X0104643Y0286041D01*
X0105458Y0286857D01*
X0105900Y0287923D01*
X0105900Y0289077D01*
X0105458Y0290143D01*
X0104643Y0290958D01*
X0105795Y0289331D02*
X0190967Y0289331D01*
X0190967Y0287732D02*
X0105821Y0287732D01*
X0104735Y0286134D02*
X0191039Y0286134D01*
X0191701Y0284535D02*
X0070000Y0284535D01*
X0070000Y0282937D02*
X0192673Y0282937D01*
X0194272Y0281338D02*
X0070000Y0281338D01*
X0070000Y0279739D02*
X0386667Y0279739D01*
X0386717Y0278141D02*
X0070000Y0278141D01*
X0070000Y0276542D02*
X0387856Y0276542D01*
X0410200Y0254163D02*
X0108000Y0254163D01*
X0108000Y0252565D02*
X0410200Y0252565D01*
X0410200Y0244572D02*
X0202673Y0244572D01*
X0204511Y0242974D02*
X0410200Y0242974D01*
X0410200Y0241375D02*
X0205610Y0241375D01*
X0206272Y0239777D02*
X0410200Y0239777D01*
X0410200Y0238178D02*
X0206435Y0238178D01*
X0206435Y0236580D02*
X0218515Y0236580D01*
X0218541Y0236643D02*
X0218100Y0235577D01*
X0218100Y0234423D01*
X0218541Y0233357D01*
X0219357Y0232541D01*
X0220423Y0232100D01*
X0221577Y0232100D01*
X0222643Y0232541D01*
X0223458Y0233357D01*
X0223900Y0234423D01*
X0223900Y0235577D01*
X0223458Y0236643D01*
X0222643Y0237458D01*
X0221577Y0237900D01*
X0220423Y0237900D01*
X0219357Y0237458D01*
X0218541Y0236643D01*
X0218100Y0234981D02*
X0205885Y0234981D01*
X0205174Y0233383D02*
X0218531Y0233383D01*
X0223469Y0233383D02*
X0410200Y0233383D01*
X0410200Y0234981D02*
X0223900Y0234981D01*
X0223485Y0236580D02*
X0410200Y0236580D01*
X0410200Y0231784D02*
X0227817Y0231784D01*
X0227643Y0231958D02*
X0228458Y0231143D01*
X0228900Y0230077D01*
X0228900Y0228923D01*
X0228458Y0227857D01*
X0227643Y0227041D01*
X0226577Y0226600D01*
X0225423Y0226600D01*
X0224357Y0227041D01*
X0223541Y0227857D01*
X0223100Y0228923D01*
X0223100Y0230077D01*
X0223541Y0231143D01*
X0224357Y0231958D01*
X0225423Y0232400D01*
X0226577Y0232400D01*
X0227643Y0231958D01*
X0228855Y0230186D02*
X0410200Y0230186D01*
X0410200Y0228587D02*
X0228761Y0228587D01*
X0227515Y0226989D02*
X0255541Y0226989D01*
X0254265Y0226647D02*
X0257188Y0227430D01*
X0260214Y0227430D01*
X0263137Y0226647D01*
X0265758Y0225134D01*
X0267897Y0222994D01*
X0269410Y0220373D01*
X0270194Y0217450D01*
X0270194Y0214424D01*
X0269410Y0211501D01*
X0267897Y0208880D01*
X0265758Y0206740D01*
X0263137Y0205227D01*
X0260214Y0204444D01*
X0257188Y0204444D01*
X0254265Y0205227D01*
X0251644Y0206740D01*
X0249504Y0208880D01*
X0247991Y0211501D01*
X0247208Y0214424D01*
X0247208Y0217450D01*
X0247991Y0220373D01*
X0249504Y0222994D01*
X0251644Y0225134D01*
X0254265Y0226647D01*
X0252088Y0225390D02*
X0176351Y0225390D01*
X0177026Y0226989D02*
X0224485Y0226989D01*
X0223239Y0228587D02*
X0177068Y0228587D01*
X0176540Y0230186D02*
X0196986Y0230186D01*
X0200415Y0230186D02*
X0223145Y0230186D01*
X0224183Y0231784D02*
X0203576Y0231784D01*
X0193826Y0231784D02*
X0175177Y0231784D01*
X0169058Y0234981D02*
X0124560Y0234981D01*
X0125100Y0236580D02*
X0168143Y0236580D01*
X0167931Y0238178D02*
X0124909Y0238178D01*
X0123868Y0239777D02*
X0168291Y0239777D01*
X0174278Y0223792D02*
X0250302Y0223792D01*
X0249042Y0222193D02*
X0174315Y0222193D01*
X0176366Y0220595D02*
X0248119Y0220595D01*
X0247622Y0218996D02*
X0177032Y0218996D01*
X0177068Y0217398D02*
X0247208Y0217398D01*
X0247208Y0215799D02*
X0176533Y0215799D01*
X0175161Y0214201D02*
X0247268Y0214201D01*
X0247696Y0212602D02*
X0173768Y0212602D01*
X0172684Y0212602D02*
X0172316Y0212602D01*
X0172316Y0211003D02*
X0172684Y0211003D01*
X0172684Y0209405D02*
X0172316Y0209405D01*
X0172316Y0207806D02*
X0172684Y0207806D01*
X0172684Y0206208D02*
X0172316Y0206208D01*
X0172316Y0204609D02*
X0172684Y0204609D01*
X0175853Y0204609D02*
X0256571Y0204609D01*
X0260831Y0204609D02*
X0268114Y0204609D01*
X0268016Y0203011D02*
X0268271Y0203011D01*
X0269261Y0201412D02*
X0269669Y0201412D01*
X0269355Y0199814D02*
X0317662Y0199814D01*
X0317312Y0199464D02*
X0316650Y0197865D01*
X0316650Y0196135D01*
X0317312Y0194536D01*
X0318536Y0193312D01*
X0320135Y0192650D01*
X0321865Y0192650D01*
X0323464Y0193312D01*
X0324688Y0194536D01*
X0325350Y0196135D01*
X0325350Y0197865D01*
X0324688Y0199464D01*
X0323464Y0200688D01*
X0321865Y0201350D01*
X0320135Y0201350D01*
X0318536Y0200688D01*
X0317312Y0199464D01*
X0316795Y0198215D02*
X0268317Y0198215D01*
X0272331Y0201412D02*
X0351880Y0201412D01*
X0352288Y0201581D02*
X0350971Y0201036D01*
X0349964Y0200029D01*
X0349419Y0198712D01*
X0349419Y0197288D01*
X0349964Y0195971D01*
X0350971Y0194964D01*
X0352288Y0194419D01*
X0353712Y0194419D01*
X0355029Y0194964D01*
X0356036Y0195971D01*
X0356581Y0197288D01*
X0356581Y0198712D01*
X0356036Y0200029D01*
X0355029Y0201036D01*
X0353712Y0201581D01*
X0352288Y0201581D01*
X0354120Y0201412D02*
X0410200Y0201412D01*
X0410200Y0199814D02*
X0376787Y0199814D01*
X0376958Y0199643D02*
X0376143Y0200458D01*
X0375077Y0200900D01*
X0373923Y0200900D01*
X0372857Y0200458D01*
X0372041Y0199643D01*
X0371600Y0198577D01*
X0371600Y0197423D01*
X0372041Y0196357D01*
X0372857Y0195541D01*
X0373923Y0195100D01*
X0375077Y0195100D01*
X0376143Y0195541D01*
X0376958Y0196357D01*
X0377400Y0197423D01*
X0377400Y0198577D01*
X0376958Y0199643D01*
X0377400Y0198215D02*
X0410200Y0198215D01*
X0410200Y0196617D02*
X0377066Y0196617D01*
X0371934Y0196617D02*
X0356303Y0196617D01*
X0356581Y0198215D02*
X0371600Y0198215D01*
X0372213Y0199814D02*
X0356125Y0199814D01*
X0355083Y0195018D02*
X0410200Y0195018D01*
X0410200Y0193420D02*
X0323572Y0193420D01*
X0324888Y0195018D02*
X0350917Y0195018D01*
X0349697Y0196617D02*
X0325350Y0196617D01*
X0325205Y0198215D02*
X0349419Y0198215D01*
X0349875Y0199814D02*
X0324338Y0199814D01*
X0319143Y0204541D02*
X0319958Y0205357D01*
X0320400Y0206423D01*
X0320400Y0207577D01*
X0319958Y0208643D01*
X0319601Y0209000D01*
X0319958Y0209357D01*
X0320400Y0210423D01*
X0320400Y0211577D01*
X0319958Y0212643D01*
X0319601Y0213000D01*
X0319958Y0213357D01*
X0320400Y0214423D01*
X0320400Y0215577D01*
X0319958Y0216643D01*
X0319143Y0217458D01*
X0318077Y0217900D01*
X0316923Y0217900D01*
X0315900Y0217476D01*
X0315900Y0217577D01*
X0315458Y0218643D01*
X0314643Y0219458D01*
X0313577Y0219900D01*
X0312423Y0219900D01*
X0311357Y0219458D01*
X0310750Y0218851D01*
X0310143Y0219458D01*
X0309077Y0219900D01*
X0307923Y0219900D01*
X0306857Y0219458D01*
X0306041Y0218643D01*
X0305600Y0217577D01*
X0305600Y0217476D01*
X0304577Y0217900D01*
X0303423Y0217900D01*
X0302357Y0217458D01*
X0302000Y0217101D01*
X0301643Y0217458D01*
X0300577Y0217900D01*
X0299423Y0217900D01*
X0298357Y0217458D01*
X0297541Y0216643D01*
X0297100Y0215577D01*
X0297100Y0214423D01*
X0297541Y0213357D01*
X0297899Y0213000D01*
X0297541Y0212643D01*
X0297100Y0211577D01*
X0297100Y0210423D01*
X0297541Y0209357D01*
X0298357Y0208541D01*
X0299423Y0208100D01*
X0300577Y0208100D01*
X0301643Y0208541D01*
X0302000Y0208899D01*
X0302357Y0208541D01*
X0303423Y0208100D01*
X0304577Y0208100D01*
X0305643Y0208541D01*
X0306458Y0209357D01*
X0306900Y0210423D01*
X0306900Y0210524D01*
X0307923Y0210100D01*
X0309077Y0210100D01*
X0310143Y0210541D01*
X0310750Y0211149D01*
X0311357Y0210541D01*
X0312423Y0210100D01*
X0313577Y0210100D01*
X0314600Y0210524D01*
X0314600Y0210423D01*
X0315041Y0209357D01*
X0315399Y0209000D01*
X0315041Y0208643D01*
X0314600Y0207577D01*
X0314600Y0206423D01*
X0315041Y0205357D01*
X0315857Y0204541D01*
X0316923Y0204100D01*
X0318077Y0204100D01*
X0319143Y0204541D01*
X0319211Y0204609D02*
X0344090Y0204609D01*
X0344707Y0204444D02*
X0347734Y0204444D01*
X0350657Y0205227D01*
X0353277Y0206740D01*
X0355417Y0208880D01*
X0356930Y0211501D01*
X0357713Y0214424D01*
X0357713Y0217450D01*
X0356930Y0220373D01*
X0355417Y0222994D01*
X0353277Y0225134D01*
X0350657Y0226647D01*
X0347734Y0227430D01*
X0344707Y0227430D01*
X0341784Y0226647D01*
X0339164Y0225134D01*
X0337024Y0222994D01*
X0335511Y0220373D01*
X0334728Y0217450D01*
X0334728Y0214424D01*
X0335511Y0211501D01*
X0337024Y0208880D01*
X0339164Y0206740D01*
X0341784Y0205227D01*
X0344707Y0204444D01*
X0348351Y0204609D02*
X0410200Y0204609D01*
X0410200Y0203011D02*
X0273729Y0203011D01*
X0273886Y0204609D02*
X0315789Y0204609D01*
X0314689Y0206208D02*
X0272893Y0206208D01*
X0269107Y0206208D02*
X0264835Y0206208D01*
X0266824Y0207806D02*
X0314695Y0207806D01*
X0315022Y0209405D02*
X0306478Y0209405D01*
X0310605Y0211003D02*
X0310895Y0211003D01*
X0310895Y0218996D02*
X0310605Y0218996D01*
X0306395Y0218996D02*
X0269779Y0218996D01*
X0270194Y0217398D02*
X0298296Y0217398D01*
X0297192Y0215799D02*
X0270194Y0215799D01*
X0270134Y0214201D02*
X0297192Y0214201D01*
X0297525Y0212602D02*
X0269705Y0212602D01*
X0269123Y0211003D02*
X0297100Y0211003D01*
X0297522Y0209405D02*
X0268200Y0209405D01*
X0269283Y0220595D02*
X0335639Y0220595D01*
X0335142Y0218996D02*
X0315105Y0218996D01*
X0319204Y0217398D02*
X0334728Y0217398D01*
X0334728Y0215799D02*
X0320308Y0215799D01*
X0320308Y0214201D02*
X0334787Y0214201D01*
X0335216Y0212602D02*
X0319975Y0212602D01*
X0320400Y0211003D02*
X0335798Y0211003D01*
X0336721Y0209405D02*
X0319978Y0209405D01*
X0320305Y0207806D02*
X0338098Y0207806D01*
X0340086Y0206208D02*
X0320311Y0206208D01*
X0316650Y0196617D02*
X0284474Y0196617D01*
X0285475Y0195018D02*
X0317112Y0195018D01*
X0318428Y0193420D02*
X0285600Y0193420D01*
X0284913Y0191821D02*
X0410200Y0191821D01*
X0396294Y0182230D02*
X0272832Y0182230D01*
X0269168Y0182230D02*
X0269113Y0182230D01*
X0267154Y0180632D02*
X0394695Y0180632D01*
X0393575Y0179033D02*
X0381742Y0179033D01*
X0382072Y0178897D02*
X0380393Y0179592D01*
X0378576Y0179592D01*
X0376896Y0178897D01*
X0375611Y0177611D01*
X0374916Y0175932D01*
X0374916Y0174115D01*
X0375611Y0172436D01*
X0376896Y0171151D01*
X0378576Y0170455D01*
X0380393Y0170455D01*
X0382072Y0171151D01*
X0383357Y0172436D01*
X0384053Y0174115D01*
X0384053Y0175932D01*
X0383357Y0177611D01*
X0382072Y0178897D01*
X0383430Y0177435D02*
X0392913Y0177435D01*
X0392617Y0175836D02*
X0384053Y0175836D01*
X0384053Y0174238D02*
X0392617Y0174238D01*
X0392902Y0172639D02*
X0383441Y0172639D01*
X0381807Y0171041D02*
X0393564Y0171041D01*
X0394668Y0169442D02*
X0270543Y0169442D01*
X0270143Y0169041D02*
X0270958Y0169857D01*
X0271400Y0170923D01*
X0271400Y0172077D01*
X0270958Y0173143D01*
X0270143Y0173958D01*
X0269077Y0174400D01*
X0267923Y0174400D01*
X0266857Y0173958D01*
X0266041Y0173143D01*
X0265600Y0172077D01*
X0265600Y0170923D01*
X0266041Y0169857D01*
X0266857Y0169041D01*
X0267923Y0168600D01*
X0269077Y0168600D01*
X0270143Y0169041D01*
X0271400Y0171041D02*
X0287162Y0171041D01*
X0286896Y0171151D02*
X0288576Y0170455D01*
X0290393Y0170455D01*
X0292072Y0171151D01*
X0293357Y0172436D01*
X0294053Y0174115D01*
X0294053Y0175932D01*
X0293357Y0177611D01*
X0292072Y0178897D01*
X0290393Y0179592D01*
X0288576Y0179592D01*
X0286896Y0178897D01*
X0285611Y0177611D01*
X0284916Y0175932D01*
X0284916Y0174115D01*
X0285611Y0172436D01*
X0286896Y0171151D01*
X0285527Y0172639D02*
X0271167Y0172639D01*
X0269469Y0174238D02*
X0284916Y0174238D01*
X0284916Y0175836D02*
X0259585Y0175836D01*
X0259458Y0176143D02*
X0258643Y0176958D01*
X0257577Y0177400D01*
X0256423Y0177400D01*
X0255357Y0176958D01*
X0254541Y0176143D01*
X0254100Y0175077D01*
X0254100Y0173923D01*
X0254541Y0172857D01*
X0255357Y0172041D01*
X0256423Y0171600D01*
X0257577Y0171600D01*
X0258643Y0172041D01*
X0259458Y0172857D01*
X0259900Y0173923D01*
X0259900Y0175077D01*
X0259458Y0176143D01*
X0259900Y0174238D02*
X0267531Y0174238D01*
X0265833Y0172639D02*
X0259240Y0172639D01*
X0254760Y0172639D02*
X0114098Y0172639D01*
X0114383Y0173329D02*
X0113086Y0170197D01*
X0110689Y0167800D01*
X0107557Y0166502D01*
X0104167Y0166502D01*
X0101035Y0167800D01*
X0098638Y0170197D01*
X0097341Y0173329D01*
X0097341Y0176719D01*
X0098638Y0179851D01*
X0101035Y0182248D01*
X0104167Y0183545D01*
X0107557Y0183545D01*
X0110689Y0182248D01*
X0113086Y0179851D01*
X0114383Y0176719D01*
X0114383Y0173329D01*
X0114383Y0174238D02*
X0254100Y0174238D01*
X0254415Y0175836D02*
X0114383Y0175836D01*
X0114087Y0177435D02*
X0285538Y0177435D01*
X0287226Y0179033D02*
X0113425Y0179033D01*
X0112305Y0180632D02*
X0265846Y0180632D01*
X0263887Y0182230D02*
X0110706Y0182230D01*
X0118982Y0185427D02*
X0004800Y0185427D01*
X0004800Y0183829D02*
X0263600Y0183829D01*
X0264326Y0185427D02*
X0124018Y0185427D01*
X0113436Y0171041D02*
X0265600Y0171041D01*
X0266457Y0169442D02*
X0112332Y0169442D01*
X0110733Y0167844D02*
X0248242Y0167844D01*
X0248041Y0167643D02*
X0247600Y0166577D01*
X0247600Y0165423D01*
X0248041Y0164357D01*
X0248857Y0163541D01*
X0249923Y0163100D01*
X0251077Y0163100D01*
X0252143Y0163541D01*
X0252958Y0164357D01*
X0253400Y0165423D01*
X0253400Y0166577D01*
X0252958Y0167643D01*
X0252143Y0168458D01*
X0251077Y0168900D01*
X0249923Y0168900D01*
X0248857Y0168458D01*
X0248041Y0167643D01*
X0247600Y0166245D02*
X0004800Y0166245D01*
X0004800Y0164647D02*
X0247922Y0164647D01*
X0253078Y0164647D02*
X0300252Y0164647D01*
X0300041Y0164857D02*
X0300857Y0164041D01*
X0301923Y0163600D01*
X0303077Y0163600D01*
X0304143Y0164041D01*
X0304958Y0164857D01*
X0305400Y0165923D01*
X0305400Y0167077D01*
X0304958Y0168143D01*
X0304143Y0168958D01*
X0303077Y0169400D01*
X0301923Y0169400D01*
X0300857Y0168958D01*
X0300041Y0168143D01*
X0299600Y0167077D01*
X0299600Y0165923D01*
X0300041Y0164857D01*
X0299600Y0166245D02*
X0253400Y0166245D01*
X0252758Y0167844D02*
X0299918Y0167844D01*
X0300393Y0170455D02*
X0302072Y0171151D01*
X0303357Y0172436D01*
X0304053Y0174115D01*
X0304053Y0175932D01*
X0303357Y0177611D01*
X0302072Y0178897D01*
X0300393Y0179592D01*
X0298576Y0179592D01*
X0296896Y0178897D01*
X0295611Y0177611D01*
X0294916Y0175932D01*
X0294916Y0174115D01*
X0295611Y0172436D01*
X0296896Y0171151D01*
X0298576Y0170455D01*
X0300393Y0170455D01*
X0301807Y0171041D02*
X0307162Y0171041D01*
X0306896Y0171151D02*
X0308576Y0170455D01*
X0310393Y0170455D01*
X0312072Y0171151D01*
X0313357Y0172436D01*
X0314053Y0174115D01*
X0314053Y0175932D01*
X0313357Y0177611D01*
X0312072Y0178897D01*
X0310393Y0179592D01*
X0308576Y0179592D01*
X0306896Y0178897D01*
X0305611Y0177611D01*
X0304916Y0175932D01*
X0304916Y0174115D01*
X0305611Y0172436D01*
X0306896Y0171151D01*
X0305527Y0172639D02*
X0303441Y0172639D01*
X0304053Y0174238D02*
X0304916Y0174238D01*
X0304916Y0175836D02*
X0304053Y0175836D01*
X0303430Y0177435D02*
X0305538Y0177435D01*
X0307226Y0179033D02*
X0301742Y0179033D01*
X0297226Y0179033D02*
X0291742Y0179033D01*
X0293430Y0177435D02*
X0295538Y0177435D01*
X0294916Y0175836D02*
X0294053Y0175836D01*
X0294053Y0174238D02*
X0294916Y0174238D01*
X0295527Y0172639D02*
X0293441Y0172639D01*
X0291807Y0171041D02*
X0297162Y0171041D01*
X0305082Y0167844D02*
X0336918Y0167844D01*
X0336600Y0166245D02*
X0305400Y0166245D01*
X0304748Y0164647D02*
X0307045Y0164647D01*
X0306600Y0163048D02*
X0004800Y0163048D01*
X0004800Y0161450D02*
X0307003Y0161450D01*
X0304750Y0159851D02*
X0079301Y0159851D01*
X0078964Y0160188D02*
X0077365Y0160850D01*
X0075635Y0160850D01*
X0074036Y0160188D01*
X0072812Y0158964D01*
X0072150Y0157365D01*
X0072150Y0155635D01*
X0072812Y0154036D01*
X0074036Y0152812D01*
X0075635Y0152150D01*
X0077365Y0152150D01*
X0078964Y0152812D01*
X0080188Y0154036D01*
X0080850Y0155635D01*
X0080850Y0157365D01*
X0080188Y0158964D01*
X0078964Y0160188D01*
X0080482Y0158253D02*
X0303673Y0158253D01*
X0303711Y0156654D02*
X0080850Y0156654D01*
X0080610Y0155056D02*
X0304843Y0155056D01*
X0311997Y0161450D02*
X0317503Y0161450D01*
X0317100Y0163048D02*
X0312400Y0163048D01*
X0311955Y0164647D02*
X0317545Y0164647D01*
X0322455Y0164647D02*
X0337252Y0164647D01*
X0342082Y0167844D02*
X0396267Y0167844D01*
X0377162Y0171041D02*
X0371807Y0171041D01*
X0372072Y0171151D02*
X0373357Y0172436D01*
X0374053Y0174115D01*
X0374053Y0175932D01*
X0373357Y0177611D01*
X0372072Y0178897D01*
X0370393Y0179592D01*
X0368576Y0179592D01*
X0366896Y0178897D01*
X0365611Y0177611D01*
X0364916Y0175932D01*
X0364916Y0174115D01*
X0365611Y0172436D01*
X0366896Y0171151D01*
X0368576Y0170455D01*
X0370393Y0170455D01*
X0372072Y0171151D01*
X0373441Y0172639D02*
X0375527Y0172639D01*
X0374916Y0174238D02*
X0374053Y0174238D01*
X0374053Y0175836D02*
X0374916Y0175836D01*
X0375538Y0177435D02*
X0373430Y0177435D01*
X0371742Y0179033D02*
X0377226Y0179033D01*
X0367226Y0179033D02*
X0361742Y0179033D01*
X0362072Y0178897D02*
X0360393Y0179592D01*
X0358576Y0179592D01*
X0356896Y0178897D01*
X0355611Y0177611D01*
X0354916Y0175932D01*
X0354916Y0174115D01*
X0355611Y0172436D01*
X0356896Y0171151D01*
X0358576Y0170455D01*
X0360393Y0170455D01*
X0362072Y0171151D01*
X0363357Y0172436D01*
X0364053Y0174115D01*
X0364053Y0175932D01*
X0363357Y0177611D01*
X0362072Y0178897D01*
X0363430Y0177435D02*
X0365538Y0177435D01*
X0364916Y0175836D02*
X0364053Y0175836D01*
X0364053Y0174238D02*
X0364916Y0174238D01*
X0365527Y0172639D02*
X0363441Y0172639D01*
X0361807Y0171041D02*
X0367162Y0171041D01*
X0357162Y0171041D02*
X0341807Y0171041D01*
X0342072Y0171151D02*
X0343357Y0172436D01*
X0344053Y0174115D01*
X0344053Y0175932D01*
X0343357Y0177611D01*
X0342072Y0178897D01*
X0340393Y0179592D01*
X0338576Y0179592D01*
X0336896Y0178897D01*
X0335611Y0177611D01*
X0334916Y0175932D01*
X0334916Y0174115D01*
X0335611Y0172436D01*
X0336896Y0171151D01*
X0338576Y0170455D01*
X0340393Y0170455D01*
X0342072Y0171151D01*
X0343441Y0172639D02*
X0355527Y0172639D01*
X0354916Y0174238D02*
X0344053Y0174238D01*
X0344053Y0175836D02*
X0354916Y0175836D01*
X0355538Y0177435D02*
X0343430Y0177435D01*
X0341742Y0179033D02*
X0357226Y0179033D01*
X0337226Y0179033D02*
X0331742Y0179033D01*
X0332072Y0178897D02*
X0330393Y0179592D01*
X0328576Y0179592D01*
X0326896Y0178897D01*
X0325611Y0177611D01*
X0324916Y0175932D01*
X0324916Y0174115D01*
X0325611Y0172436D01*
X0326896Y0171151D01*
X0328576Y0170455D01*
X0330393Y0170455D01*
X0332072Y0171151D01*
X0333357Y0172436D01*
X0334053Y0174115D01*
X0334053Y0175932D01*
X0333357Y0177611D01*
X0332072Y0178897D01*
X0333430Y0177435D02*
X0335538Y0177435D01*
X0334916Y0175836D02*
X0334053Y0175836D01*
X0334053Y0174238D02*
X0334916Y0174238D01*
X0335527Y0172639D02*
X0333441Y0172639D01*
X0331807Y0171041D02*
X0337162Y0171041D01*
X0327162Y0171041D02*
X0321807Y0171041D01*
X0322072Y0171151D02*
X0323357Y0172436D01*
X0324053Y0174115D01*
X0324053Y0175932D01*
X0323357Y0177611D01*
X0322072Y0178897D01*
X0320393Y0179592D01*
X0318576Y0179592D01*
X0316896Y0178897D01*
X0315611Y0177611D01*
X0314916Y0175932D01*
X0314916Y0174115D01*
X0315611Y0172436D01*
X0316896Y0171151D01*
X0318576Y0170455D01*
X0320393Y0170455D01*
X0322072Y0171151D01*
X0323441Y0172639D02*
X0325527Y0172639D01*
X0324916Y0174238D02*
X0324053Y0174238D01*
X0324053Y0175836D02*
X0324916Y0175836D01*
X0325538Y0177435D02*
X0323430Y0177435D01*
X0321742Y0179033D02*
X0327226Y0179033D01*
X0317226Y0179033D02*
X0311742Y0179033D01*
X0313430Y0177435D02*
X0315538Y0177435D01*
X0314916Y0175836D02*
X0314053Y0175836D01*
X0314053Y0174238D02*
X0314916Y0174238D01*
X0315527Y0172639D02*
X0313441Y0172639D01*
X0311807Y0171041D02*
X0317162Y0171041D01*
X0346100Y0153457D02*
X0079609Y0153457D01*
X0073391Y0153457D02*
X0004800Y0153457D01*
X0004800Y0151859D02*
X0045323Y0151859D01*
X0046677Y0151859D02*
X0347040Y0151859D01*
X0324879Y0134275D02*
X0410200Y0134275D01*
X0410200Y0135873D02*
X0192172Y0135873D01*
X0192111Y0134275D02*
X0317621Y0134275D01*
X0319379Y0134275D02*
X0323121Y0134275D01*
X0321348Y0132676D02*
X0321152Y0132676D01*
X0320581Y0129479D02*
X0321919Y0129479D01*
X0319274Y0127881D02*
X0410200Y0127881D01*
X0410200Y0129479D02*
X0326081Y0129479D01*
X0326900Y0131078D02*
X0410200Y0131078D01*
X0410200Y0132676D02*
X0326652Y0132676D01*
X0325819Y0126282D02*
X0410200Y0126282D01*
X0410200Y0124684D02*
X0326856Y0124684D01*
X0326760Y0123085D02*
X0383018Y0123085D01*
X0383041Y0123143D02*
X0382600Y0122077D01*
X0382600Y0120923D01*
X0383041Y0119857D01*
X0383857Y0119041D01*
X0384923Y0118600D01*
X0386077Y0118600D01*
X0387143Y0119041D01*
X0387958Y0119857D01*
X0388400Y0120923D01*
X0388400Y0122077D01*
X0387958Y0123143D01*
X0387143Y0123958D01*
X0386077Y0124400D01*
X0384923Y0124400D01*
X0383857Y0123958D01*
X0383041Y0123143D01*
X0382600Y0121487D02*
X0325574Y0121487D01*
X0326771Y0119888D02*
X0383029Y0119888D01*
X0382577Y0118900D02*
X0381423Y0118900D01*
X0380357Y0118458D01*
X0380000Y0118101D01*
X0379643Y0118458D01*
X0378577Y0118900D01*
X0377423Y0118900D01*
X0376357Y0118458D01*
X0375541Y0117643D01*
X0375100Y0116577D01*
X0375100Y0115423D01*
X0375541Y0114357D01*
X0376357Y0113541D01*
X0377423Y0113100D01*
X0378577Y0113100D01*
X0379643Y0113541D01*
X0380000Y0113899D01*
X0380357Y0113541D01*
X0381423Y0113100D01*
X0382577Y0113100D01*
X0383643Y0113541D01*
X0384458Y0114357D01*
X0384900Y0115423D01*
X0384900Y0116577D01*
X0384458Y0117643D01*
X0383643Y0118458D01*
X0382577Y0118900D01*
X0383811Y0118290D02*
X0410200Y0118290D01*
X0410200Y0119888D02*
X0387971Y0119888D01*
X0388400Y0121487D02*
X0410200Y0121487D01*
X0410200Y0123085D02*
X0387982Y0123085D01*
X0380189Y0118290D02*
X0379811Y0118290D01*
X0376189Y0118290D02*
X0326845Y0118290D01*
X0326410Y0116691D02*
X0375147Y0116691D01*
X0375237Y0115093D02*
X0326900Y0115093D01*
X0326515Y0113494D02*
X0351393Y0113494D01*
X0355607Y0113494D02*
X0376471Y0113494D01*
X0379529Y0113494D02*
X0380471Y0113494D01*
X0383041Y0112143D02*
X0382600Y0111077D01*
X0382600Y0109923D01*
X0383041Y0108857D01*
X0383857Y0108041D01*
X0384923Y0107600D01*
X0386077Y0107600D01*
X0387143Y0108041D01*
X0387958Y0108857D01*
X0388400Y0109923D01*
X0388400Y0111077D01*
X0387958Y0112143D01*
X0387143Y0112958D01*
X0386077Y0113400D01*
X0384923Y0113400D01*
X0383857Y0112958D01*
X0383041Y0112143D01*
X0382939Y0111896D02*
X0356400Y0111896D01*
X0356141Y0110297D02*
X0382600Y0110297D01*
X0383200Y0108699D02*
X0356400Y0108699D01*
X0356059Y0107100D02*
X0410200Y0107100D01*
X0410200Y0108699D02*
X0387800Y0108699D01*
X0388400Y0110297D02*
X0410200Y0110297D01*
X0410200Y0111896D02*
X0388061Y0111896D01*
X0384763Y0115093D02*
X0410200Y0115093D01*
X0410200Y0116691D02*
X0384853Y0116691D01*
X0383529Y0113494D02*
X0410200Y0113494D01*
X0355027Y0099108D02*
X0309400Y0099108D01*
X0309021Y0097509D02*
X0354600Y0097509D01*
X0321229Y0119888D02*
X0321105Y0119888D01*
X0321144Y0124684D02*
X0318285Y0124684D01*
X0319342Y0126282D02*
X0322181Y0126282D01*
X0315600Y0131078D02*
X0315400Y0131078D01*
X0315848Y0132676D02*
X0314925Y0132676D01*
X0310075Y0132676D02*
X0192400Y0132676D01*
X0191679Y0131078D02*
X0309600Y0131078D01*
X0309991Y0129479D02*
X0192400Y0129479D01*
X0192400Y0137472D02*
X0231494Y0137472D01*
X0231100Y0139070D02*
X0191672Y0139070D01*
X0192400Y0140669D02*
X0231568Y0140669D01*
X0236100Y0143866D02*
X0198169Y0143866D01*
X0198400Y0145465D02*
X0236468Y0145465D01*
X0182985Y0113494D02*
X0121520Y0113494D01*
X0121900Y0111896D02*
X0182732Y0111896D01*
X0182652Y0110297D02*
X0159804Y0110297D01*
X0160400Y0108699D02*
X0183700Y0108699D01*
X0171100Y0119888D02*
X0136990Y0119888D01*
X0136643Y0119541D02*
X0137458Y0120357D01*
X0137900Y0121423D01*
X0137900Y0122577D01*
X0137458Y0123643D01*
X0136643Y0124458D01*
X0135577Y0124900D01*
X0134423Y0124900D01*
X0133357Y0124458D01*
X0132541Y0123643D01*
X0132100Y0122577D01*
X0132100Y0121423D01*
X0132541Y0120357D01*
X0133357Y0119541D01*
X0134423Y0119100D01*
X0135577Y0119100D01*
X0136643Y0119541D01*
X0137900Y0121487D02*
X0171100Y0121487D01*
X0171311Y0123085D02*
X0137689Y0123085D01*
X0136099Y0124684D02*
X0172901Y0124684D01*
X0175099Y0124684D02*
X0175401Y0124684D01*
X0177599Y0124684D02*
X0179715Y0124684D01*
X0179189Y0123085D02*
X0290947Y0123085D01*
X0296053Y0123085D02*
X0304311Y0123085D01*
X0304100Y0121487D02*
X0300023Y0121487D01*
X0300400Y0119888D02*
X0305010Y0119888D01*
X0308990Y0119888D02*
X0310322Y0119888D01*
X0310100Y0121487D02*
X0309900Y0121487D01*
X0309689Y0123085D02*
X0310984Y0123085D01*
X0301942Y0103903D02*
X0281198Y0103903D01*
X0282306Y0102305D02*
X0301600Y0102305D01*
X0300105Y0100706D02*
X0282310Y0100706D01*
X0281209Y0099108D02*
X0299600Y0099108D01*
X0299979Y0097509D02*
X0291514Y0097509D01*
X0286486Y0097509D02*
X0277400Y0097509D01*
X0277791Y0099108D02*
X0276973Y0099108D01*
X0276981Y0095911D02*
X0286100Y0095911D01*
X0286587Y0094312D02*
X0273289Y0094312D01*
X0268435Y0091115D02*
X0245390Y0091115D01*
X0179100Y0126282D02*
X0120819Y0126282D01*
X0121856Y0124684D02*
X0133901Y0124684D01*
X0132311Y0123085D02*
X0121760Y0123085D01*
X0120511Y0121487D02*
X0132100Y0121487D01*
X0133010Y0119888D02*
X0114400Y0119888D01*
X0117011Y0121487D02*
X0117489Y0121487D01*
X0112740Y0123085D02*
X0035630Y0123085D01*
X0034968Y0124684D02*
X0108715Y0124684D01*
X0108100Y0126282D02*
X0033701Y0126282D01*
X0031015Y0127881D02*
X0108433Y0127881D01*
X0113567Y0127881D02*
X0179433Y0127881D01*
X0179284Y0129479D02*
X0136581Y0129479D01*
X0137400Y0131078D02*
X0179100Y0131078D01*
X0179722Y0132676D02*
X0137152Y0132676D01*
X0136577Y0139600D02*
X0135423Y0139600D01*
X0134357Y0140041D01*
X0133541Y0140857D01*
X0133100Y0141923D01*
X0133100Y0143077D01*
X0133541Y0144143D01*
X0134357Y0144958D01*
X0135423Y0145400D01*
X0136577Y0145400D01*
X0137643Y0144958D01*
X0138458Y0144143D01*
X0138900Y0143077D01*
X0138900Y0141923D01*
X0138458Y0140857D01*
X0137643Y0140041D01*
X0136577Y0139600D01*
X0138270Y0140669D02*
X0179730Y0140669D01*
X0179100Y0142268D02*
X0138900Y0142268D01*
X0138573Y0143866D02*
X0179427Y0143866D01*
X0179290Y0145465D02*
X0078296Y0145465D01*
X0080228Y0143866D02*
X0133427Y0143866D01*
X0133100Y0142268D02*
X0080850Y0142268D01*
X0080850Y0140669D02*
X0133730Y0140669D01*
X0124600Y0131078D02*
X0113692Y0131078D01*
X0113900Y0129479D02*
X0125419Y0129479D01*
X0121124Y0134275D02*
X0032370Y0134275D01*
X0025874Y0134275D02*
X0004800Y0134275D01*
X0004800Y0135873D02*
X0023285Y0135873D01*
X0021713Y0137472D02*
X0004800Y0137472D01*
X0004800Y0139070D02*
X0021051Y0139070D01*
X0020404Y0140669D02*
X0004800Y0140669D01*
X0004800Y0142268D02*
X0020404Y0142268D01*
X0020404Y0143866D02*
X0004800Y0143866D01*
X0004800Y0145465D02*
X0020969Y0145465D01*
X0021631Y0147063D02*
X0004800Y0147063D01*
X0004800Y0148662D02*
X0023088Y0148662D01*
X0025398Y0150260D02*
X0004800Y0150260D01*
X0004800Y0155056D02*
X0072390Y0155056D01*
X0072150Y0156654D02*
X0004800Y0156654D01*
X0004800Y0158253D02*
X0072518Y0158253D01*
X0073699Y0159851D02*
X0004800Y0159851D01*
X0004800Y0167844D02*
X0100991Y0167844D01*
X0099393Y0169442D02*
X0004800Y0169442D01*
X0004800Y0171041D02*
X0098289Y0171041D01*
X0097627Y0172639D02*
X0004800Y0172639D01*
X0004800Y0174238D02*
X0097341Y0174238D01*
X0097341Y0175836D02*
X0004800Y0175836D01*
X0004800Y0177435D02*
X0097638Y0177435D01*
X0098300Y0179033D02*
X0004800Y0179033D01*
X0004800Y0180632D02*
X0099419Y0180632D01*
X0101018Y0182230D02*
X0004800Y0182230D01*
X0004800Y0199814D02*
X0012181Y0199814D01*
X0011471Y0201412D02*
X0004800Y0201412D01*
X0004800Y0203011D02*
X0011400Y0203011D01*
X0011895Y0204609D02*
X0004800Y0204609D01*
X0004800Y0228587D02*
X0023000Y0228587D01*
X0023000Y0230186D02*
X0004800Y0230186D01*
X0004800Y0231784D02*
X0023000Y0231784D01*
X0023000Y0233383D02*
X0004800Y0233383D01*
X0004800Y0234981D02*
X0023000Y0234981D01*
X0023000Y0236580D02*
X0004800Y0236580D01*
X0004800Y0238178D02*
X0023000Y0238178D01*
X0023000Y0239777D02*
X0004800Y0239777D01*
X0004800Y0241375D02*
X0023000Y0241375D01*
X0023000Y0242974D02*
X0004800Y0242974D01*
X0004800Y0244572D02*
X0023000Y0244572D01*
X0070000Y0286134D02*
X0101265Y0286134D01*
X0100179Y0287732D02*
X0070000Y0287732D01*
X0070000Y0289331D02*
X0086867Y0289331D01*
X0085305Y0290929D02*
X0070000Y0290929D01*
X0070000Y0292528D02*
X0085100Y0292528D01*
X0086025Y0294126D02*
X0070000Y0294126D01*
X0070000Y0298922D02*
X0254730Y0298922D01*
X0251712Y0300520D02*
X0070000Y0300520D01*
X0070000Y0302119D02*
X0250085Y0302119D01*
X0248916Y0303717D02*
X0221860Y0303717D01*
X0221577Y0303600D02*
X0222643Y0304041D01*
X0223458Y0304857D01*
X0223900Y0305923D01*
X0223900Y0307077D01*
X0223458Y0308143D01*
X0222643Y0308958D01*
X0221577Y0309400D01*
X0220423Y0309400D01*
X0219357Y0308958D01*
X0218541Y0308143D01*
X0218100Y0307077D01*
X0218100Y0305923D01*
X0218541Y0304857D01*
X0219357Y0304041D01*
X0220423Y0303600D01*
X0221577Y0303600D01*
X0220140Y0303717D02*
X0070000Y0303717D01*
X0070000Y0305316D02*
X0218352Y0305316D01*
X0218100Y0306914D02*
X0070000Y0306914D01*
X0070000Y0308513D02*
X0139438Y0308513D01*
X0136704Y0310111D02*
X0119979Y0310111D01*
X0120464Y0310312D02*
X0121688Y0311536D01*
X0122350Y0313135D01*
X0122350Y0314865D01*
X0121688Y0316464D01*
X0120464Y0317688D01*
X0118865Y0318350D01*
X0117135Y0318350D01*
X0115536Y0317688D01*
X0114312Y0316464D01*
X0113650Y0314865D01*
X0113650Y0313135D01*
X0114312Y0311536D01*
X0115536Y0310312D01*
X0117135Y0309650D01*
X0118865Y0309650D01*
X0120464Y0310312D01*
X0121760Y0311710D02*
X0135344Y0311710D01*
X0134682Y0313308D02*
X0122350Y0313308D01*
X0122333Y0314907D02*
X0134437Y0314907D01*
X0134437Y0316505D02*
X0121647Y0316505D01*
X0119460Y0318104D02*
X0135016Y0318104D01*
X0135911Y0319702D02*
X0070000Y0319702D01*
X0070000Y0318104D02*
X0071540Y0318104D01*
X0074460Y0318104D02*
X0086540Y0318104D01*
X0087135Y0318350D02*
X0085536Y0317688D01*
X0084312Y0316464D01*
X0083650Y0314865D01*
X0083650Y0313135D01*
X0084312Y0311536D01*
X0085536Y0310312D01*
X0087135Y0309650D01*
X0088865Y0309650D01*
X0090464Y0310312D01*
X0091688Y0311536D01*
X0092350Y0313135D01*
X0092350Y0314865D01*
X0091688Y0316464D01*
X0090464Y0317688D01*
X0088865Y0318350D01*
X0087135Y0318350D01*
X0089460Y0318104D02*
X0101540Y0318104D01*
X0102135Y0318350D02*
X0100536Y0317688D01*
X0099312Y0316464D01*
X0098650Y0314865D01*
X0098650Y0313135D01*
X0099312Y0311536D01*
X0100536Y0310312D01*
X0102135Y0309650D01*
X0103865Y0309650D01*
X0105464Y0310312D01*
X0106688Y0311536D01*
X0107350Y0313135D01*
X0107350Y0314865D01*
X0106688Y0316464D01*
X0105464Y0317688D01*
X0103865Y0318350D01*
X0102135Y0318350D01*
X0104460Y0318104D02*
X0116540Y0318104D01*
X0114353Y0316505D02*
X0106647Y0316505D01*
X0107333Y0314907D02*
X0113667Y0314907D01*
X0113650Y0313308D02*
X0107350Y0313308D01*
X0106760Y0311710D02*
X0114240Y0311710D01*
X0116021Y0310111D02*
X0104979Y0310111D01*
X0101021Y0310111D02*
X0089979Y0310111D01*
X0091760Y0311710D02*
X0099240Y0311710D01*
X0098650Y0313308D02*
X0092350Y0313308D01*
X0092333Y0314907D02*
X0098667Y0314907D01*
X0099353Y0316505D02*
X0091647Y0316505D01*
X0084353Y0316505D02*
X0076647Y0316505D01*
X0077333Y0314907D02*
X0083667Y0314907D01*
X0083650Y0313308D02*
X0077350Y0313308D01*
X0076760Y0311710D02*
X0084240Y0311710D01*
X0086021Y0310111D02*
X0074979Y0310111D01*
X0071021Y0310111D02*
X0070000Y0310111D01*
X0090695Y0290929D02*
X0101328Y0290929D01*
X0100205Y0289331D02*
X0089133Y0289331D01*
X0143562Y0308513D02*
X0159438Y0308513D01*
X0156704Y0310111D02*
X0146296Y0310111D01*
X0147656Y0311710D02*
X0155344Y0311710D01*
X0154682Y0313308D02*
X0148318Y0313308D01*
X0148563Y0314907D02*
X0154437Y0314907D01*
X0154437Y0316505D02*
X0148563Y0316505D01*
X0147984Y0318104D02*
X0155016Y0318104D01*
X0155911Y0319702D02*
X0147089Y0319702D01*
X0163562Y0308513D02*
X0218911Y0308513D01*
X0223089Y0308513D02*
X0247208Y0308513D01*
X0247208Y0310111D02*
X0166296Y0310111D01*
X0167656Y0311710D02*
X0247326Y0311710D01*
X0247754Y0313308D02*
X0168318Y0313308D01*
X0168563Y0314907D02*
X0248404Y0314907D01*
X0249327Y0316505D02*
X0168563Y0316505D01*
X0167984Y0318104D02*
X0250795Y0318104D01*
X0252943Y0319702D02*
X0167089Y0319702D01*
X0223900Y0306914D02*
X0247564Y0306914D01*
X0247993Y0305316D02*
X0223648Y0305316D01*
X0262672Y0298922D02*
X0330820Y0298922D01*
X0334180Y0298922D02*
X0342249Y0298922D01*
X0339231Y0300520D02*
X0265690Y0300520D01*
X0267317Y0302119D02*
X0337604Y0302119D01*
X0336436Y0303717D02*
X0268485Y0303717D01*
X0269408Y0305316D02*
X0335513Y0305316D01*
X0335084Y0306914D02*
X0269838Y0306914D01*
X0270194Y0308513D02*
X0334728Y0308513D01*
X0334728Y0310111D02*
X0270194Y0310111D01*
X0270076Y0311710D02*
X0334846Y0311710D01*
X0335274Y0313308D02*
X0269647Y0313308D01*
X0268998Y0314907D02*
X0335923Y0314907D01*
X0336846Y0316505D02*
X0268075Y0316505D01*
X0266606Y0318104D02*
X0338315Y0318104D01*
X0340462Y0319702D02*
X0264459Y0319702D01*
X0327088Y0289331D02*
X0327867Y0289331D01*
X0343060Y0226989D02*
X0261861Y0226989D01*
X0265313Y0225390D02*
X0339608Y0225390D01*
X0337822Y0223792D02*
X0267100Y0223792D01*
X0268360Y0222193D02*
X0336562Y0222193D01*
X0349381Y0226989D02*
X0410200Y0226989D01*
X0410200Y0225390D02*
X0352833Y0225390D01*
X0354619Y0223792D02*
X0410200Y0223792D01*
X0410200Y0222193D02*
X0355879Y0222193D01*
X0356802Y0220595D02*
X0410200Y0220595D01*
X0410200Y0218996D02*
X0357299Y0218996D01*
X0357713Y0217398D02*
X0410200Y0217398D01*
X0410200Y0215799D02*
X0357713Y0215799D01*
X0357654Y0214201D02*
X0410200Y0214201D01*
X0410200Y0212602D02*
X0357225Y0212602D01*
X0356643Y0211003D02*
X0410200Y0211003D01*
X0410200Y0209405D02*
X0355720Y0209405D01*
X0354343Y0207806D02*
X0410200Y0207806D01*
X0410200Y0206208D02*
X0352355Y0206208D01*
X0302296Y0217398D02*
X0301704Y0217398D01*
X0279526Y0196617D02*
X0278474Y0196617D01*
X0278913Y0191821D02*
X0279087Y0191821D01*
X0252566Y0206208D02*
X0176932Y0206208D01*
X0177268Y0207806D02*
X0250578Y0207806D01*
X0249201Y0209405D02*
X0177057Y0209405D01*
X0176212Y0211003D02*
X0248278Y0211003D01*
X0118440Y0234981D02*
X0108000Y0234981D01*
X0108000Y0236580D02*
X0117900Y0236580D01*
X0118091Y0238178D02*
X0108000Y0238178D01*
X0108000Y0239777D02*
X0119132Y0239777D01*
X0118069Y0241375D02*
X0108000Y0241375D01*
X0108000Y0242974D02*
X0117900Y0242974D01*
X0118481Y0244572D02*
X0108000Y0244572D01*
X0007888Y0129479D02*
X0004800Y0129479D01*
X0004800Y0127881D02*
X0005457Y0127881D01*
X0014860Y0113494D02*
X0109971Y0113494D01*
X0121398Y0110297D02*
X0155196Y0110297D01*
D22*
X0353000Y0198000D03*
D23*
X0282000Y0194000D03*
X0276000Y0194000D03*
X0121500Y0194000D03*
X0121500Y0188000D03*
X0121500Y0237000D03*
X0121500Y0242500D03*
X0096500Y0242500D03*
X0091000Y0242500D03*
M02*
