G75*
%MOIN*%
%OFA0B0*%
%FSLAX25Y25*%
%IPPOS*%
%LPD*%
%AMOC8*
5,1,8,0,0,1.08239X$1,22.5*
%
%ADD10R,0.05052X0.04934*%
%ADD11R,0.04934X0.05052*%
%ADD12R,0.05918X0.07099*%
%ADD13R,0.07099X0.05918*%
%ADD14C,0.06800*%
%ADD15R,0.05524X0.01981*%
%ADD16R,0.01981X0.05524*%
%ADD17R,0.05131X0.04737*%
%ADD18R,0.04737X0.05131*%
%ADD19R,0.12414X0.08477*%
%ADD20C,0.06737*%
%ADD21R,0.08674X0.08674*%
%ADD22R,0.06300X0.06300*%
%ADD23R,0.02375X0.03950*%
%ADD24C,0.11725*%
%ADD25C,0.14186*%
%ADD26C,0.13068*%
%ADD27R,0.04737X0.02375*%
%ADD28C,0.14643*%
%ADD29R,0.06737X0.06737*%
%ADD30C,0.06737*%
%ADD31R,0.05524X0.02375*%
%ADD32C,0.06706*%
%ADD33C,0.08477*%
%ADD34C,0.13461*%
%ADD35C,0.15036*%
%ADD36C,0.10839*%
%ADD37R,0.03300X0.05800*%
%ADD38C,0.00500*%
%ADD39C,0.03400*%
%ADD40C,0.04762*%
%ADD41C,0.04800*%
D10*
X0239000Y0132055D03*
X0239000Y0138945D03*
X0308000Y0145555D03*
X0308000Y0152445D03*
X0380000Y0128445D03*
X0380000Y0121555D03*
X0380000Y0110445D03*
X0380000Y0103555D03*
X0312000Y0085445D03*
X0312000Y0078555D03*
X0300500Y0078555D03*
X0300500Y0085445D03*
X0061000Y0244555D03*
X0061000Y0251445D03*
X0112000Y0262555D03*
X0112000Y0269445D03*
D11*
X0061445Y0264500D03*
X0054555Y0264500D03*
X0140555Y0136500D03*
X0147445Y0136500D03*
X0185555Y0104000D03*
X0192445Y0104000D03*
X0170945Y0091000D03*
X0164055Y0091000D03*
X0245555Y0139000D03*
X0252445Y0139000D03*
X0269555Y0112000D03*
X0276445Y0112000D03*
X0341555Y0110000D03*
X0348445Y0110000D03*
X0304445Y0192000D03*
X0297555Y0192000D03*
D12*
X0203937Y0139000D03*
X0196063Y0139000D03*
X0196063Y0131000D03*
X0203937Y0131000D03*
X0175937Y0129500D03*
X0168063Y0129500D03*
X0168063Y0137000D03*
X0168063Y0144500D03*
X0175937Y0144500D03*
X0175937Y0137000D03*
X0124937Y0118000D03*
X0117063Y0118000D03*
X0082437Y0263500D03*
X0074563Y0263500D03*
D13*
X0054000Y0251937D03*
X0054000Y0244063D03*
X0117000Y0136937D03*
X0117000Y0129063D03*
X0311500Y0199063D03*
X0311500Y0206937D03*
D14*
X0245500Y0117500D02*
X0239500Y0117500D01*
X0239500Y0107500D02*
X0245500Y0107500D01*
X0245500Y0097500D02*
X0239500Y0097500D01*
X0239500Y0087500D02*
X0245500Y0087500D01*
X0245500Y0077500D02*
X0239500Y0077500D01*
X0239500Y0067500D02*
X0245500Y0067500D01*
X0019000Y0192500D02*
X0013000Y0192500D01*
X0013000Y0202500D02*
X0019000Y0202500D01*
D15*
X0286559Y0129764D03*
X0286559Y0127795D03*
X0286559Y0125827D03*
X0286559Y0123858D03*
X0286559Y0121890D03*
X0286559Y0119921D03*
X0286559Y0117953D03*
X0286559Y0115984D03*
X0286559Y0114016D03*
X0286559Y0112047D03*
X0286559Y0110079D03*
X0286559Y0108110D03*
X0286559Y0106142D03*
X0286559Y0104173D03*
X0286559Y0102205D03*
X0286559Y0100236D03*
X0331441Y0100236D03*
X0331441Y0102205D03*
X0331441Y0104173D03*
X0331441Y0106142D03*
X0331441Y0108110D03*
X0331441Y0110079D03*
X0331441Y0112047D03*
X0331441Y0114016D03*
X0331441Y0115984D03*
X0331441Y0117953D03*
X0331441Y0119921D03*
X0331441Y0121890D03*
X0331441Y0123858D03*
X0331441Y0125827D03*
X0331441Y0127795D03*
X0331441Y0129764D03*
D16*
X0323764Y0137441D03*
X0321795Y0137441D03*
X0319827Y0137441D03*
X0317858Y0137441D03*
X0315890Y0137441D03*
X0313921Y0137441D03*
X0311953Y0137441D03*
X0309984Y0137441D03*
X0308016Y0137441D03*
X0306047Y0137441D03*
X0304079Y0137441D03*
X0302110Y0137441D03*
X0300142Y0137441D03*
X0298173Y0137441D03*
X0296205Y0137441D03*
X0294236Y0137441D03*
X0294236Y0092559D03*
X0296205Y0092559D03*
X0298173Y0092559D03*
X0300142Y0092559D03*
X0302110Y0092559D03*
X0304079Y0092559D03*
X0306047Y0092559D03*
X0308016Y0092559D03*
X0309984Y0092559D03*
X0311953Y0092559D03*
X0313921Y0092559D03*
X0315890Y0092559D03*
X0317858Y0092559D03*
X0319827Y0092559D03*
X0321795Y0092559D03*
X0323764Y0092559D03*
D17*
X0326000Y0061846D03*
X0326000Y0055154D03*
X0259500Y0122154D03*
X0259500Y0128846D03*
X0314000Y0145654D03*
X0320000Y0145654D03*
X0320000Y0152346D03*
X0314000Y0152346D03*
X0337000Y0142346D03*
X0337000Y0135654D03*
X0193500Y0209154D03*
X0187500Y0209154D03*
X0187500Y0215846D03*
X0193500Y0215846D03*
X0164000Y0247654D03*
X0164000Y0254346D03*
X0036000Y0253346D03*
X0036000Y0246654D03*
X0164500Y0115346D03*
X0164500Y0108654D03*
D18*
X0164346Y0103000D03*
X0164154Y0097000D03*
X0170846Y0097000D03*
X0157654Y0103000D03*
X0146846Y0124500D03*
X0147346Y0130500D03*
X0140654Y0130500D03*
X0140154Y0124500D03*
X0140654Y0142500D03*
X0147346Y0142500D03*
X0245654Y0132000D03*
X0252346Y0132000D03*
X0270654Y0128000D03*
X0277346Y0128000D03*
X0277346Y0122000D03*
X0270654Y0122000D03*
X0341654Y0121000D03*
X0341654Y0127000D03*
X0348346Y0127000D03*
X0348346Y0121000D03*
X0345846Y0097500D03*
X0339154Y0097500D03*
X0317846Y0037500D03*
X0311154Y0037500D03*
X0322654Y0028000D03*
X0329346Y0028000D03*
X0249346Y0028000D03*
X0242654Y0028000D03*
X0169346Y0028000D03*
X0162654Y0028000D03*
X0089346Y0028000D03*
X0082654Y0028000D03*
X0045846Y0072500D03*
X0039154Y0072500D03*
X0032846Y0072500D03*
X0026154Y0072500D03*
X0329654Y0198000D03*
X0336346Y0198000D03*
D19*
X0366500Y0124465D03*
X0366500Y0107535D03*
D20*
X0175469Y0208000D02*
X0169531Y0208000D01*
X0169531Y0218000D02*
X0175469Y0218000D01*
X0175469Y0228000D02*
X0169531Y0228000D01*
X0169531Y0238000D02*
X0175469Y0238000D01*
D21*
X0118000Y0314000D03*
X0103000Y0314000D03*
X0088000Y0314000D03*
X0073000Y0314000D03*
X0058000Y0314000D03*
X0022000Y0253500D03*
X0076500Y0156500D03*
X0076500Y0141500D03*
X0076500Y0126500D03*
X0321000Y0197000D03*
D22*
X0321000Y0197000D03*
X0118000Y0314000D03*
X0103000Y0314000D03*
X0088000Y0314000D03*
X0073000Y0314000D03*
X0058000Y0314000D03*
X0022000Y0253500D03*
X0076500Y0156500D03*
X0076500Y0141500D03*
X0076500Y0126500D03*
D23*
X0126661Y0126382D03*
X0129220Y0126382D03*
X0131780Y0126382D03*
X0134339Y0126382D03*
X0134339Y0136618D03*
X0131780Y0136618D03*
X0129220Y0136618D03*
X0126661Y0136618D03*
X0171260Y0115012D03*
X0175000Y0115012D03*
X0178740Y0115012D03*
X0178740Y0103988D03*
X0175000Y0103988D03*
X0171260Y0103988D03*
D24*
X0170004Y0265303D03*
X0151500Y0265303D03*
X0132996Y0265303D03*
X0141500Y0315303D03*
X0161500Y0315303D03*
D25*
X0258701Y0309756D03*
X0346220Y0309756D03*
X0346220Y0215937D03*
X0258701Y0215937D03*
D26*
X0198701Y0237846D03*
X0198701Y0287846D03*
D27*
X0087646Y0255339D03*
X0087646Y0252780D03*
X0087646Y0250220D03*
X0087646Y0247661D03*
X0068354Y0247661D03*
X0068354Y0250220D03*
X0068354Y0252780D03*
X0068354Y0255339D03*
X0284854Y0205839D03*
X0284854Y0203280D03*
X0284854Y0200720D03*
X0284854Y0198161D03*
X0304146Y0198161D03*
X0304146Y0200720D03*
X0304146Y0203280D03*
X0304146Y0205839D03*
D28*
X0401138Y0175024D03*
X0401138Y0052976D03*
X0105862Y0052976D03*
X0105862Y0175024D03*
D29*
X0339484Y0175024D03*
X0379484Y0175024D03*
D30*
X0369484Y0175024D03*
X0359484Y0175024D03*
X0329484Y0175024D03*
X0319484Y0175024D03*
X0309484Y0175024D03*
X0299484Y0175024D03*
X0289484Y0175024D03*
X0276874Y0027843D03*
X0269000Y0027843D03*
X0261126Y0027843D03*
X0261126Y0008157D03*
X0269000Y0008157D03*
X0276874Y0008157D03*
X0341126Y0008157D03*
X0349000Y0008157D03*
X0356874Y0008157D03*
X0356874Y0027843D03*
X0349000Y0027843D03*
X0341126Y0027843D03*
X0196874Y0027843D03*
X0189000Y0027843D03*
X0181126Y0027843D03*
X0181126Y0008157D03*
X0189000Y0008157D03*
X0196874Y0008157D03*
X0116874Y0008157D03*
X0109000Y0008157D03*
X0101126Y0008157D03*
X0101126Y0027843D03*
X0109000Y0027843D03*
X0116874Y0027843D03*
X0045843Y0060315D03*
X0036000Y0060315D03*
X0026157Y0060315D03*
D31*
X0060870Y0269750D03*
X0060870Y0272250D03*
X0060870Y0274750D03*
X0060870Y0277250D03*
X0060870Y0279750D03*
X0060870Y0282250D03*
X0060870Y0284750D03*
X0060870Y0287250D03*
X0082130Y0287250D03*
X0082130Y0284750D03*
X0082130Y0282250D03*
X0082130Y0279750D03*
X0082130Y0277250D03*
X0082130Y0274750D03*
X0082130Y0272250D03*
X0082130Y0269750D03*
D32*
X0031748Y0289000D03*
X0012063Y0269315D03*
X0012063Y0308685D03*
D33*
X0031748Y0308685D03*
X0031748Y0298843D03*
X0012063Y0289000D03*
X0031748Y0279157D03*
X0031748Y0269315D03*
D34*
X0010409Y0030000D03*
X0061591Y0030000D03*
D35*
X0029122Y0100634D03*
X0011406Y0121500D03*
X0029122Y0142366D03*
D36*
X0029122Y0121500D03*
D37*
X0118201Y0149000D03*
X0130799Y0149000D03*
X0194701Y0116500D03*
X0207299Y0116500D03*
D38*
X0209858Y0116652D02*
X0203559Y0116652D01*
X0203559Y0117150D02*
X0209858Y0117150D01*
X0209858Y0117649D02*
X0203559Y0117649D01*
X0203559Y0118147D02*
X0209858Y0118147D01*
X0209858Y0118646D02*
X0203559Y0118646D01*
X0203559Y0119144D02*
X0209858Y0119144D01*
X0209858Y0119643D02*
X0203559Y0119643D01*
X0203559Y0120141D02*
X0209858Y0120141D01*
X0209858Y0120640D02*
X0203559Y0120640D01*
X0203559Y0121138D02*
X0209858Y0121138D01*
X0209858Y0121421D02*
X0207102Y0124177D01*
X0203559Y0124177D01*
X0203559Y0108823D01*
X0207102Y0108823D01*
X0209858Y0111579D01*
X0209858Y0121421D01*
X0209643Y0121637D02*
X0203559Y0121637D01*
X0203559Y0122135D02*
X0209144Y0122135D01*
X0208646Y0122634D02*
X0203559Y0122634D01*
X0203559Y0123132D02*
X0208147Y0123132D01*
X0207649Y0123631D02*
X0203559Y0123631D01*
X0203559Y0124129D02*
X0207150Y0124129D01*
X0198441Y0124129D02*
X0194850Y0124129D01*
X0194898Y0124177D02*
X0198441Y0124177D01*
X0198441Y0108823D01*
X0194898Y0108823D01*
X0192142Y0111579D01*
X0192142Y0121421D01*
X0194898Y0124177D01*
X0194351Y0123631D02*
X0198441Y0123631D01*
X0198441Y0123132D02*
X0193853Y0123132D01*
X0193354Y0122634D02*
X0198441Y0122634D01*
X0198441Y0122135D02*
X0192856Y0122135D01*
X0192357Y0121637D02*
X0198441Y0121637D01*
X0198441Y0121138D02*
X0192142Y0121138D01*
X0192142Y0120640D02*
X0198441Y0120640D01*
X0198441Y0120141D02*
X0192142Y0120141D01*
X0192142Y0119643D02*
X0198441Y0119643D01*
X0198441Y0119144D02*
X0192142Y0119144D01*
X0192142Y0118646D02*
X0198441Y0118646D01*
X0198441Y0118147D02*
X0192142Y0118147D01*
X0192142Y0117649D02*
X0198441Y0117649D01*
X0198441Y0117150D02*
X0192142Y0117150D01*
X0192142Y0116652D02*
X0198441Y0116652D01*
X0198441Y0116153D02*
X0192142Y0116153D01*
X0192142Y0115655D02*
X0198441Y0115655D01*
X0198441Y0115156D02*
X0192142Y0115156D01*
X0192142Y0114658D02*
X0198441Y0114658D01*
X0198441Y0114159D02*
X0192142Y0114159D01*
X0192142Y0113661D02*
X0198441Y0113661D01*
X0198441Y0113162D02*
X0192142Y0113162D01*
X0192142Y0112664D02*
X0198441Y0112664D01*
X0198441Y0112165D02*
X0192142Y0112165D01*
X0192142Y0111667D02*
X0198441Y0111667D01*
X0198441Y0111168D02*
X0192552Y0111168D01*
X0193051Y0110670D02*
X0198441Y0110670D01*
X0198441Y0110171D02*
X0193549Y0110171D01*
X0194048Y0109672D02*
X0198441Y0109672D01*
X0198441Y0109174D02*
X0194546Y0109174D01*
X0203559Y0109174D02*
X0207454Y0109174D01*
X0207952Y0109672D02*
X0203559Y0109672D01*
X0203559Y0110171D02*
X0208451Y0110171D01*
X0208949Y0110670D02*
X0203559Y0110670D01*
X0203559Y0111168D02*
X0209448Y0111168D01*
X0209858Y0111667D02*
X0203559Y0111667D01*
X0203559Y0112165D02*
X0209858Y0112165D01*
X0209858Y0112664D02*
X0203559Y0112664D01*
X0203559Y0113162D02*
X0209858Y0113162D01*
X0209858Y0113661D02*
X0203559Y0113661D01*
X0203559Y0114159D02*
X0209858Y0114159D01*
X0209858Y0114658D02*
X0203559Y0114658D01*
X0203559Y0115156D02*
X0209858Y0115156D01*
X0209858Y0115655D02*
X0203559Y0115655D01*
X0203559Y0116153D02*
X0209858Y0116153D01*
X0133358Y0144079D02*
X0130602Y0141323D01*
X0127059Y0141323D01*
X0127059Y0156677D01*
X0130602Y0156677D01*
X0133358Y0153921D01*
X0133358Y0144079D01*
X0133349Y0144070D02*
X0127059Y0144070D01*
X0127059Y0144568D02*
X0133358Y0144568D01*
X0133358Y0145067D02*
X0127059Y0145067D01*
X0127059Y0145565D02*
X0133358Y0145565D01*
X0133358Y0146064D02*
X0127059Y0146064D01*
X0127059Y0146562D02*
X0133358Y0146562D01*
X0133358Y0147061D02*
X0127059Y0147061D01*
X0127059Y0147559D02*
X0133358Y0147559D01*
X0133358Y0148058D02*
X0127059Y0148058D01*
X0127059Y0148556D02*
X0133358Y0148556D01*
X0133358Y0149055D02*
X0127059Y0149055D01*
X0127059Y0149553D02*
X0133358Y0149553D01*
X0133358Y0150052D02*
X0127059Y0150052D01*
X0127059Y0150550D02*
X0133358Y0150550D01*
X0133358Y0151049D02*
X0127059Y0151049D01*
X0127059Y0151547D02*
X0133358Y0151547D01*
X0133358Y0152046D02*
X0127059Y0152046D01*
X0127059Y0152544D02*
X0133358Y0152544D01*
X0133358Y0153043D02*
X0127059Y0153043D01*
X0127059Y0153541D02*
X0133358Y0153541D01*
X0133240Y0154040D02*
X0127059Y0154040D01*
X0127059Y0154539D02*
X0132741Y0154539D01*
X0132243Y0155037D02*
X0127059Y0155037D01*
X0127059Y0155536D02*
X0131744Y0155536D01*
X0131245Y0156034D02*
X0127059Y0156034D01*
X0127059Y0156533D02*
X0130747Y0156533D01*
X0121941Y0156533D02*
X0118253Y0156533D01*
X0118398Y0156677D02*
X0121941Y0156677D01*
X0121941Y0141323D01*
X0118398Y0141323D01*
X0115642Y0144079D01*
X0115642Y0153921D01*
X0118398Y0156677D01*
X0117755Y0156034D02*
X0121941Y0156034D01*
X0121941Y0155536D02*
X0117256Y0155536D01*
X0116757Y0155037D02*
X0121941Y0155037D01*
X0121941Y0154539D02*
X0116259Y0154539D01*
X0115760Y0154040D02*
X0121941Y0154040D01*
X0121941Y0153541D02*
X0115642Y0153541D01*
X0115642Y0153043D02*
X0121941Y0153043D01*
X0121941Y0152544D02*
X0115642Y0152544D01*
X0115642Y0152046D02*
X0121941Y0152046D01*
X0121941Y0151547D02*
X0115642Y0151547D01*
X0115642Y0151049D02*
X0121941Y0151049D01*
X0121941Y0150550D02*
X0115642Y0150550D01*
X0115642Y0150052D02*
X0121941Y0150052D01*
X0121941Y0149553D02*
X0115642Y0149553D01*
X0115642Y0149055D02*
X0121941Y0149055D01*
X0121941Y0148556D02*
X0115642Y0148556D01*
X0115642Y0148058D02*
X0121941Y0148058D01*
X0121941Y0147559D02*
X0115642Y0147559D01*
X0115642Y0147061D02*
X0121941Y0147061D01*
X0121941Y0146562D02*
X0115642Y0146562D01*
X0115642Y0146064D02*
X0121941Y0146064D01*
X0121941Y0145565D02*
X0115642Y0145565D01*
X0115642Y0145067D02*
X0121941Y0145067D01*
X0121941Y0144568D02*
X0115642Y0144568D01*
X0115651Y0144070D02*
X0121941Y0144070D01*
X0121941Y0143571D02*
X0116149Y0143571D01*
X0116648Y0143073D02*
X0121941Y0143073D01*
X0121941Y0142574D02*
X0117146Y0142574D01*
X0117645Y0142076D02*
X0121941Y0142076D01*
X0121941Y0141577D02*
X0118143Y0141577D01*
X0127059Y0141577D02*
X0130857Y0141577D01*
X0131355Y0142076D02*
X0127059Y0142076D01*
X0127059Y0142574D02*
X0131854Y0142574D01*
X0132352Y0143073D02*
X0127059Y0143073D01*
X0127059Y0143571D02*
X0132851Y0143571D01*
D39*
X0136000Y0142500D03*
X0123000Y0136500D03*
X0127500Y0131500D03*
X0131000Y0131500D03*
X0134500Y0131500D03*
X0135000Y0122000D03*
X0119000Y0124000D03*
X0115500Y0124000D03*
X0111000Y0126500D03*
X0111000Y0130000D03*
X0111500Y0120000D03*
X0111500Y0116000D03*
X0115500Y0112000D03*
X0119000Y0112000D03*
X0157500Y0108500D03*
X0158500Y0097000D03*
X0158500Y0091000D03*
X0185500Y0111000D03*
X0189000Y0111000D03*
X0189000Y0115000D03*
X0185500Y0115000D03*
X0189000Y0119000D03*
X0182000Y0126500D03*
X0189500Y0129000D03*
X0189500Y0133000D03*
X0182000Y0134500D03*
X0182000Y0130500D03*
X0182000Y0138500D03*
X0182000Y0142500D03*
X0182000Y0146500D03*
X0189500Y0145000D03*
X0189500Y0141000D03*
X0189500Y0137000D03*
X0195500Y0145000D03*
X0210500Y0141000D03*
X0210500Y0137000D03*
X0215000Y0137000D03*
X0215000Y0141000D03*
X0215000Y0133000D03*
X0215000Y0129000D03*
X0210500Y0129000D03*
X0210500Y0133000D03*
X0213500Y0121000D03*
X0218000Y0121000D03*
X0218000Y0116500D03*
X0218000Y0112000D03*
X0213500Y0112000D03*
X0213500Y0116500D03*
X0239000Y0127000D03*
X0245500Y0127000D03*
X0234000Y0139000D03*
X0239000Y0144000D03*
X0245500Y0144000D03*
X0250500Y0166000D03*
X0257000Y0174500D03*
X0268500Y0171500D03*
X0266500Y0183500D03*
X0271000Y0184500D03*
X0266500Y0200500D03*
X0271000Y0204000D03*
X0300000Y0211000D03*
X0300000Y0215000D03*
X0304000Y0215000D03*
X0304000Y0211000D03*
X0308500Y0213000D03*
X0308500Y0217000D03*
X0313000Y0217000D03*
X0313000Y0213000D03*
X0317500Y0211000D03*
X0317500Y0207000D03*
X0317500Y0215000D03*
X0374500Y0198000D03*
X0339500Y0166500D03*
X0349000Y0154000D03*
X0363500Y0142000D03*
X0385500Y0121500D03*
X0382000Y0116000D03*
X0378000Y0116000D03*
X0385500Y0110500D03*
X0357500Y0097500D03*
X0353500Y0108500D03*
X0353500Y0111500D03*
X0338500Y0104000D03*
X0324500Y0104000D03*
X0324500Y0110000D03*
X0324000Y0115000D03*
X0324000Y0119000D03*
X0320500Y0117000D03*
X0324000Y0124000D03*
X0324000Y0131500D03*
X0318500Y0131500D03*
X0316500Y0127000D03*
X0312500Y0127000D03*
X0312500Y0131000D03*
X0308000Y0131000D03*
X0307000Y0122000D03*
X0313000Y0121000D03*
X0297500Y0120000D03*
X0297500Y0115500D03*
X0293500Y0116500D03*
X0293500Y0112000D03*
X0304500Y0102500D03*
X0302500Y0099000D03*
X0306500Y0099000D03*
X0312000Y0099000D03*
X0317500Y0107000D03*
X0310500Y0109000D03*
X0297000Y0099000D03*
X0289000Y0096000D03*
X0279500Y0101500D03*
X0274500Y0097500D03*
X0271000Y0092500D03*
X0271000Y0077500D03*
X0279500Y0060000D03*
X0274500Y0056000D03*
X0278500Y0047000D03*
X0285000Y0037500D03*
X0259000Y0037500D03*
X0237000Y0028000D03*
X0299000Y0073500D03*
X0302500Y0073500D03*
X0309500Y0073500D03*
X0313000Y0073500D03*
X0306500Y0078500D03*
X0341000Y0078500D03*
X0326000Y0037500D03*
X0317000Y0028000D03*
X0358500Y0037500D03*
X0264500Y0110500D03*
X0264500Y0113500D03*
X0293500Y0124500D03*
X0306500Y0157500D03*
X0309500Y0157500D03*
X0309500Y0163000D03*
X0302500Y0166500D03*
X0320000Y0163000D03*
X0226000Y0229500D03*
X0221000Y0235000D03*
X0157500Y0248000D03*
X0128000Y0248000D03*
X0117000Y0259000D03*
X0117000Y0262500D03*
X0117000Y0267500D03*
X0117000Y0270500D03*
X0112000Y0258000D03*
X0094000Y0261000D03*
X0094000Y0265000D03*
X0089500Y0265000D03*
X0089500Y0261000D03*
X0089500Y0269000D03*
X0094000Y0269000D03*
X0075000Y0276500D03*
X0075000Y0280000D03*
X0071500Y0280000D03*
X0071500Y0276500D03*
X0053500Y0278500D03*
X0053500Y0282000D03*
X0049500Y0264500D03*
X0049500Y0259500D03*
X0054500Y0259500D03*
X0041846Y0246654D03*
X0047500Y0244000D03*
X0047500Y0238500D03*
X0052000Y0238500D03*
X0056500Y0238500D03*
X0061000Y0238500D03*
X0065500Y0238500D03*
X0070000Y0238500D03*
X0074500Y0238500D03*
X0076500Y0243000D03*
X0074500Y0247000D03*
X0072000Y0243000D03*
X0067500Y0243000D03*
X0103000Y0288500D03*
X0088000Y0292000D03*
X0221000Y0306500D03*
X0226000Y0295500D03*
X0324500Y0288000D03*
X0329000Y0292000D03*
X0332500Y0296500D03*
X0389500Y0279000D03*
X0176500Y0122000D03*
X0174000Y0122000D03*
X0174000Y0119500D03*
X0176500Y0119500D03*
X0157000Y0028000D03*
X0077000Y0028000D03*
X0039500Y0078000D03*
X0033000Y0078000D03*
X0046000Y0119500D03*
X0046000Y0149000D03*
D40*
X0353000Y0198000D03*
D41*
X0282000Y0194000D03*
X0276000Y0194000D03*
X0121500Y0194000D03*
X0121500Y0188000D03*
X0121500Y0237000D03*
X0121500Y0242500D03*
X0096500Y0242500D03*
X0091000Y0242500D03*
M02*
