G75*
%MOIN*%
%OFA0B0*%
%FSLAX25Y25*%
%IPPOS*%
%LPD*%
%AMOC8*
5,1,8,0,0,1.08239X$1,22.5*
%
%ADD10C,0.06000*%
%ADD11C,0.05937*%
%ADD12C,0.05500*%
%ADD13C,0.10925*%
%ADD14C,0.12268*%
%ADD15C,0.13843*%
%ADD16C,0.07677*%
%ADD17C,0.12661*%
%ADD18C,0.14236*%
%ADD19C,0.10039*%
%ADD20C,0.01600*%
%ADD21C,0.02600*%
%ADD22C,0.03962*%
%ADD23C,0.04000*%
D10*
X0016000Y0192500D03*
X0016000Y0202500D03*
X0242500Y0117500D03*
X0242500Y0107500D03*
X0242500Y0097500D03*
X0242500Y0087500D03*
X0242500Y0077500D03*
X0242500Y0067500D03*
D11*
X0261126Y0027843D03*
X0269000Y0027843D03*
X0276874Y0027843D03*
X0276874Y0008157D03*
X0269000Y0008157D03*
X0261126Y0008157D03*
X0196874Y0008157D03*
X0189000Y0008157D03*
X0181126Y0008157D03*
X0181126Y0027843D03*
X0189000Y0027843D03*
X0196874Y0027843D03*
X0116874Y0027843D03*
X0109000Y0027843D03*
X0101126Y0027843D03*
X0101126Y0008157D03*
X0109000Y0008157D03*
X0116874Y0008157D03*
X0045843Y0060315D03*
X0036000Y0060315D03*
X0026157Y0060315D03*
X0172500Y0208000D03*
X0172500Y0218000D03*
X0172500Y0228000D03*
X0172500Y0238000D03*
X0289484Y0175024D03*
X0299484Y0175024D03*
X0309484Y0175024D03*
X0319484Y0175024D03*
X0329484Y0175024D03*
X0339484Y0175024D03*
X0359484Y0175024D03*
X0369484Y0175024D03*
X0379484Y0175024D03*
X0356874Y0027843D03*
X0349000Y0027843D03*
X0341126Y0027843D03*
X0341126Y0008157D03*
X0349000Y0008157D03*
X0356874Y0008157D03*
D12*
X0321000Y0197000D03*
X0118000Y0314000D03*
X0103000Y0314000D03*
X0088000Y0314000D03*
X0073000Y0314000D03*
X0058000Y0314000D03*
X0022000Y0253500D03*
X0076500Y0156500D03*
X0076500Y0141500D03*
X0076500Y0126500D03*
D13*
X0132996Y0265303D03*
X0151500Y0265303D03*
X0170004Y0265303D03*
X0161500Y0315303D03*
X0141500Y0315303D03*
D14*
X0198701Y0287846D03*
X0198701Y0237846D03*
D15*
X0105862Y0175024D03*
X0105862Y0052976D03*
X0401138Y0052976D03*
X0401138Y0175024D03*
D16*
X0031748Y0269315D03*
X0031748Y0279157D03*
X0012063Y0289000D03*
X0031748Y0298843D03*
X0031748Y0308685D03*
D17*
X0010409Y0030000D03*
X0061591Y0030000D03*
D18*
X0029122Y0100634D03*
X0011406Y0121500D03*
X0029122Y0142366D03*
D19*
X0029122Y0121500D03*
D20*
X0004800Y0024111D02*
X0004800Y0004800D01*
X0098023Y0004800D01*
X0097253Y0005570D01*
X0096557Y0007249D01*
X0096557Y0009066D01*
X0097253Y0010745D01*
X0098538Y0012030D01*
X0100217Y0012726D01*
X0102035Y0012726D01*
X0103714Y0012030D01*
X0104999Y0010745D01*
X0105063Y0010591D01*
X0105127Y0010745D01*
X0106412Y0012030D01*
X0108091Y0012726D01*
X0109909Y0012726D01*
X0111588Y0012030D01*
X0112873Y0010745D01*
X0112937Y0010591D01*
X0113001Y0010745D01*
X0114286Y0012030D01*
X0115965Y0012726D01*
X0117783Y0012726D01*
X0119462Y0012030D01*
X0120747Y0010745D01*
X0121443Y0009066D01*
X0121443Y0007249D01*
X0120747Y0005570D01*
X0119977Y0004800D01*
X0178023Y0004800D01*
X0177253Y0005570D01*
X0176557Y0007249D01*
X0176557Y0009066D01*
X0177253Y0010745D01*
X0178538Y0012030D01*
X0180217Y0012726D01*
X0182035Y0012726D01*
X0183714Y0012030D01*
X0184999Y0010745D01*
X0185063Y0010591D01*
X0185127Y0010745D01*
X0186412Y0012030D01*
X0188091Y0012726D01*
X0189909Y0012726D01*
X0191588Y0012030D01*
X0192873Y0010745D01*
X0192937Y0010591D01*
X0193001Y0010745D01*
X0194286Y0012030D01*
X0195965Y0012726D01*
X0197783Y0012726D01*
X0199462Y0012030D01*
X0200747Y0010745D01*
X0201443Y0009066D01*
X0201443Y0007249D01*
X0200747Y0005570D01*
X0199977Y0004800D01*
X0258023Y0004800D01*
X0257253Y0005570D01*
X0256557Y0007249D01*
X0256557Y0009066D01*
X0257253Y0010745D01*
X0258538Y0012030D01*
X0260217Y0012726D01*
X0262035Y0012726D01*
X0263714Y0012030D01*
X0264999Y0010745D01*
X0265063Y0010591D01*
X0265127Y0010745D01*
X0266412Y0012030D01*
X0268091Y0012726D01*
X0269909Y0012726D01*
X0271588Y0012030D01*
X0272873Y0010745D01*
X0272937Y0010591D01*
X0273001Y0010745D01*
X0274286Y0012030D01*
X0275965Y0012726D01*
X0277783Y0012726D01*
X0279462Y0012030D01*
X0280747Y0010745D01*
X0281443Y0009066D01*
X0281443Y0007249D01*
X0280747Y0005570D01*
X0279977Y0004800D01*
X0338023Y0004800D01*
X0337253Y0005570D01*
X0336557Y0007249D01*
X0336557Y0009066D01*
X0337253Y0010745D01*
X0338538Y0012030D01*
X0340217Y0012726D01*
X0342035Y0012726D01*
X0343714Y0012030D01*
X0344999Y0010745D01*
X0345063Y0010591D01*
X0345127Y0010745D01*
X0346412Y0012030D01*
X0348091Y0012726D01*
X0349909Y0012726D01*
X0351588Y0012030D01*
X0352873Y0010745D01*
X0352937Y0010591D01*
X0353001Y0010745D01*
X0354286Y0012030D01*
X0355965Y0012726D01*
X0357783Y0012726D01*
X0359462Y0012030D01*
X0360747Y0010745D01*
X0361443Y0009066D01*
X0361443Y0007249D01*
X0360747Y0005570D01*
X0359977Y0004800D01*
X0410200Y0004800D01*
X0410200Y0320200D01*
X0351117Y0320200D01*
X0353277Y0318953D01*
X0355417Y0316813D01*
X0356930Y0314192D01*
X0357713Y0311269D01*
X0357713Y0308243D01*
X0356930Y0305320D01*
X0355417Y0302699D01*
X0353277Y0300559D01*
X0350657Y0299046D01*
X0347734Y0298263D01*
X0344707Y0298263D01*
X0341784Y0299046D01*
X0339164Y0300559D01*
X0337024Y0302699D01*
X0335511Y0305320D01*
X0334728Y0308243D01*
X0334728Y0311269D01*
X0335511Y0314192D01*
X0337024Y0316813D01*
X0339164Y0318953D01*
X0341324Y0320200D01*
X0263597Y0320200D01*
X0265758Y0318953D01*
X0267897Y0316813D01*
X0269410Y0314192D01*
X0270194Y0311269D01*
X0270194Y0308243D01*
X0269410Y0305320D01*
X0267897Y0302699D01*
X0265758Y0300559D01*
X0263137Y0299046D01*
X0260214Y0298263D01*
X0257188Y0298263D01*
X0254265Y0299046D01*
X0251644Y0300559D01*
X0249504Y0302699D01*
X0247991Y0305320D01*
X0247208Y0308243D01*
X0247208Y0311269D01*
X0247991Y0314192D01*
X0249504Y0316813D01*
X0251644Y0318953D01*
X0253805Y0320200D01*
X0166874Y0320200D01*
X0166972Y0320102D01*
X0167552Y0319347D01*
X0168028Y0318522D01*
X0168392Y0317643D01*
X0168638Y0316723D01*
X0168720Y0316103D01*
X0162300Y0316103D01*
X0162300Y0314503D01*
X0162300Y0308083D01*
X0162920Y0308165D01*
X0163839Y0308411D01*
X0164719Y0308776D01*
X0165544Y0309252D01*
X0166299Y0309831D01*
X0166972Y0310504D01*
X0167552Y0311260D01*
X0168028Y0312084D01*
X0168392Y0312964D01*
X0168638Y0313883D01*
X0168720Y0314503D01*
X0162300Y0314503D01*
X0160700Y0314503D01*
X0160700Y0308083D01*
X0160080Y0308165D01*
X0159160Y0308411D01*
X0158281Y0308776D01*
X0157456Y0309252D01*
X0156701Y0309831D01*
X0156028Y0310504D01*
X0155448Y0311260D01*
X0154972Y0312084D01*
X0154608Y0312964D01*
X0154362Y0313883D01*
X0154280Y0314503D01*
X0160700Y0314503D01*
X0160700Y0316103D01*
X0154280Y0316103D01*
X0154362Y0316723D01*
X0154608Y0317643D01*
X0154972Y0318522D01*
X0155448Y0319347D01*
X0156028Y0320102D01*
X0156126Y0320200D01*
X0146874Y0320200D01*
X0146972Y0320102D01*
X0147552Y0319347D01*
X0148028Y0318522D01*
X0148392Y0317643D01*
X0148638Y0316723D01*
X0148720Y0316103D01*
X0142300Y0316103D01*
X0142300Y0314503D01*
X0142300Y0308083D01*
X0142920Y0308165D01*
X0143839Y0308411D01*
X0144719Y0308776D01*
X0145544Y0309252D01*
X0146299Y0309831D01*
X0146972Y0310504D01*
X0147552Y0311260D01*
X0148028Y0312084D01*
X0148392Y0312964D01*
X0148638Y0313883D01*
X0148720Y0314503D01*
X0142300Y0314503D01*
X0140700Y0314503D01*
X0140700Y0308083D01*
X0140080Y0308165D01*
X0139160Y0308411D01*
X0138281Y0308776D01*
X0137456Y0309252D01*
X0136701Y0309831D01*
X0136028Y0310504D01*
X0135448Y0311260D01*
X0134972Y0312084D01*
X0134608Y0312964D01*
X0134362Y0313883D01*
X0134280Y0314503D01*
X0140700Y0314503D01*
X0140700Y0316103D01*
X0134280Y0316103D01*
X0134362Y0316723D01*
X0134608Y0317643D01*
X0134972Y0318522D01*
X0135448Y0319347D01*
X0136028Y0320102D01*
X0136126Y0320200D01*
X0069000Y0320200D01*
X0069000Y0315710D01*
X0069312Y0316464D01*
X0070536Y0317688D01*
X0072135Y0318350D01*
X0073865Y0318350D01*
X0075464Y0317688D01*
X0076688Y0316464D01*
X0077350Y0314865D01*
X0077350Y0313135D01*
X0076688Y0311536D01*
X0075464Y0310312D01*
X0073865Y0309650D01*
X0072135Y0309650D01*
X0070536Y0310312D01*
X0069312Y0311536D01*
X0069000Y0312290D01*
X0069000Y0281542D01*
X0069041Y0281643D01*
X0069857Y0282458D01*
X0070923Y0282900D01*
X0072077Y0282900D01*
X0073143Y0282458D01*
X0073250Y0282351D01*
X0073357Y0282458D01*
X0074423Y0282900D01*
X0075577Y0282900D01*
X0076643Y0282458D01*
X0077458Y0281643D01*
X0077900Y0280577D01*
X0077900Y0279423D01*
X0077458Y0278357D01*
X0077351Y0278250D01*
X0077458Y0278143D01*
X0077900Y0277077D01*
X0077900Y0276000D01*
X0108000Y0276000D01*
X0108000Y0248000D01*
X0098000Y0248000D01*
X0098000Y0245775D01*
X0098539Y0245552D01*
X0099552Y0244539D01*
X0100100Y0243216D01*
X0100100Y0241784D01*
X0099552Y0240461D01*
X0098539Y0239448D01*
X0098000Y0239225D01*
X0098000Y0237000D01*
X0108000Y0237000D01*
X0108000Y0227000D01*
X0023000Y0227000D01*
X0023000Y0245000D01*
X0004800Y0245000D01*
X0004800Y0127507D01*
X0005513Y0128219D01*
X0006440Y0128931D01*
X0007453Y0129516D01*
X0008533Y0129963D01*
X0009662Y0130266D01*
X0010606Y0130390D01*
X0010606Y0122300D01*
X0012205Y0122300D01*
X0012205Y0130390D01*
X0013149Y0130266D01*
X0014278Y0129963D01*
X0015358Y0129516D01*
X0016371Y0128931D01*
X0017298Y0128219D01*
X0018125Y0127393D01*
X0018837Y0126465D01*
X0019421Y0125453D01*
X0019868Y0124373D01*
X0020171Y0123244D01*
X0020295Y0122300D01*
X0012206Y0122300D01*
X0012206Y0120700D01*
X0020295Y0120700D01*
X0020171Y0119756D01*
X0019868Y0118627D01*
X0019421Y0117547D01*
X0018837Y0116535D01*
X0018125Y0115607D01*
X0017298Y0114781D01*
X0016371Y0114069D01*
X0015358Y0113484D01*
X0014278Y0113037D01*
X0013149Y0112734D01*
X0012205Y0112610D01*
X0012205Y0120700D01*
X0010606Y0120700D01*
X0010606Y0112610D01*
X0009662Y0112734D01*
X0008533Y0113037D01*
X0007453Y0113484D01*
X0006440Y0114069D01*
X0005513Y0114781D01*
X0004800Y0115493D01*
X0004800Y0035889D01*
X0005037Y0036126D01*
X0005883Y0036775D01*
X0006806Y0037308D01*
X0007790Y0037716D01*
X0008820Y0037992D01*
X0009609Y0038096D01*
X0009609Y0030800D01*
X0011209Y0030800D01*
X0011209Y0038096D01*
X0011999Y0037992D01*
X0013029Y0037716D01*
X0014013Y0037308D01*
X0014936Y0036775D01*
X0015782Y0036126D01*
X0016536Y0035372D01*
X0017184Y0034527D01*
X0017717Y0033604D01*
X0018125Y0032619D01*
X0018401Y0031590D01*
X0018505Y0030800D01*
X0011209Y0030800D01*
X0011209Y0029200D01*
X0011209Y0021904D01*
X0011999Y0022008D01*
X0013029Y0022284D01*
X0014013Y0022692D01*
X0014936Y0023225D01*
X0015782Y0023874D01*
X0016536Y0024628D01*
X0017184Y0025473D01*
X0017717Y0026396D01*
X0018125Y0027381D01*
X0018401Y0028410D01*
X0018505Y0029200D01*
X0011209Y0029200D01*
X0009609Y0029200D01*
X0009609Y0021904D01*
X0008820Y0022008D01*
X0007790Y0022284D01*
X0006806Y0022692D01*
X0005883Y0023225D01*
X0005037Y0023874D01*
X0004800Y0024111D01*
X0004800Y0023978D02*
X0004933Y0023978D01*
X0004800Y0022379D02*
X0007561Y0022379D01*
X0009609Y0022379D02*
X0011209Y0022379D01*
X0011209Y0023978D02*
X0009609Y0023978D01*
X0009609Y0025576D02*
X0011209Y0025576D01*
X0011209Y0027175D02*
X0009609Y0027175D01*
X0009609Y0028773D02*
X0011209Y0028773D01*
X0011209Y0030372D02*
X0060790Y0030372D01*
X0060790Y0030800D02*
X0060790Y0029200D01*
X0053495Y0029200D01*
X0053599Y0028410D01*
X0053875Y0027381D01*
X0054283Y0026396D01*
X0054816Y0025473D01*
X0055464Y0024628D01*
X0056218Y0023874D01*
X0057064Y0023225D01*
X0057987Y0022692D01*
X0058971Y0022284D01*
X0060001Y0022008D01*
X0060791Y0021904D01*
X0060791Y0029200D01*
X0062391Y0029200D01*
X0062391Y0030800D01*
X0069686Y0030800D01*
X0069582Y0031590D01*
X0069306Y0032619D01*
X0068898Y0033604D01*
X0068365Y0034527D01*
X0067717Y0035372D01*
X0066963Y0036126D01*
X0066117Y0036775D01*
X0065194Y0037308D01*
X0064210Y0037716D01*
X0063180Y0037992D01*
X0062391Y0038096D01*
X0062391Y0030800D01*
X0060791Y0030800D01*
X0060791Y0038096D01*
X0060001Y0037992D01*
X0058971Y0037716D01*
X0057987Y0037308D01*
X0057064Y0036775D01*
X0056218Y0036126D01*
X0055464Y0035372D01*
X0054816Y0034527D01*
X0054283Y0033604D01*
X0053875Y0032619D01*
X0053599Y0031590D01*
X0053495Y0030800D01*
X0060790Y0030800D01*
X0060791Y0031970D02*
X0062391Y0031970D01*
X0062391Y0030372D02*
X0097229Y0030372D01*
X0097253Y0030430D02*
X0096557Y0028751D01*
X0096557Y0026934D01*
X0097253Y0025255D01*
X0098538Y0023970D01*
X0100217Y0023274D01*
X0102035Y0023274D01*
X0103714Y0023970D01*
X0104999Y0025255D01*
X0105063Y0025409D01*
X0105127Y0025255D01*
X0106412Y0023970D01*
X0108091Y0023274D01*
X0109909Y0023274D01*
X0111588Y0023970D01*
X0112873Y0025255D01*
X0112937Y0025409D01*
X0113001Y0025255D01*
X0114286Y0023970D01*
X0115965Y0023274D01*
X0117783Y0023274D01*
X0119462Y0023970D01*
X0120747Y0025255D01*
X0121443Y0026934D01*
X0121443Y0028751D01*
X0120747Y0030430D01*
X0119462Y0031716D01*
X0117783Y0032411D01*
X0115965Y0032411D01*
X0114286Y0031716D01*
X0113001Y0030430D01*
X0112937Y0030276D01*
X0112873Y0030430D01*
X0111588Y0031716D01*
X0109909Y0032411D01*
X0108091Y0032411D01*
X0106412Y0031716D01*
X0105127Y0030430D01*
X0105063Y0030276D01*
X0104999Y0030430D01*
X0103714Y0031716D01*
X0102035Y0032411D01*
X0100217Y0032411D01*
X0098538Y0031716D01*
X0097253Y0030430D01*
X0096567Y0028773D02*
X0069630Y0028773D01*
X0069582Y0028410D02*
X0069686Y0029200D01*
X0062391Y0029200D01*
X0062391Y0021904D01*
X0063180Y0022008D01*
X0064210Y0022284D01*
X0065194Y0022692D01*
X0066117Y0023225D01*
X0066963Y0023874D01*
X0067717Y0024628D01*
X0068365Y0025473D01*
X0068898Y0026396D01*
X0069306Y0027381D01*
X0069582Y0028410D01*
X0069221Y0027175D02*
X0096557Y0027175D01*
X0097120Y0025576D02*
X0068425Y0025576D01*
X0067067Y0023978D02*
X0098530Y0023978D01*
X0103722Y0023978D02*
X0106404Y0023978D01*
X0111596Y0023978D02*
X0114278Y0023978D01*
X0119470Y0023978D02*
X0178530Y0023978D01*
X0178538Y0023970D02*
X0180217Y0023274D01*
X0182035Y0023274D01*
X0183714Y0023970D01*
X0184999Y0025255D01*
X0185063Y0025409D01*
X0185127Y0025255D01*
X0186412Y0023970D01*
X0188091Y0023274D01*
X0189909Y0023274D01*
X0191588Y0023970D01*
X0192873Y0025255D01*
X0192937Y0025409D01*
X0193001Y0025255D01*
X0194286Y0023970D01*
X0195965Y0023274D01*
X0197783Y0023274D01*
X0199462Y0023970D01*
X0200747Y0025255D01*
X0201443Y0026934D01*
X0201443Y0028751D01*
X0200747Y0030430D01*
X0199462Y0031716D01*
X0197783Y0032411D01*
X0195965Y0032411D01*
X0194286Y0031716D01*
X0193001Y0030430D01*
X0192937Y0030276D01*
X0192873Y0030430D01*
X0191588Y0031716D01*
X0189909Y0032411D01*
X0188091Y0032411D01*
X0186412Y0031716D01*
X0185127Y0030430D01*
X0185063Y0030276D01*
X0184999Y0030430D01*
X0183714Y0031716D01*
X0182035Y0032411D01*
X0180217Y0032411D01*
X0178538Y0031716D01*
X0177253Y0030430D01*
X0176557Y0028751D01*
X0176557Y0026934D01*
X0177253Y0025255D01*
X0178538Y0023970D01*
X0177120Y0025576D02*
X0120880Y0025576D01*
X0121443Y0027175D02*
X0176557Y0027175D01*
X0176567Y0028773D02*
X0121433Y0028773D01*
X0120771Y0030372D02*
X0177229Y0030372D01*
X0179153Y0031970D02*
X0118847Y0031970D01*
X0114901Y0031970D02*
X0110973Y0031970D01*
X0112897Y0030372D02*
X0112977Y0030372D01*
X0107027Y0031970D02*
X0103099Y0031970D01*
X0105023Y0030372D02*
X0105103Y0030372D01*
X0099153Y0031970D02*
X0069480Y0031970D01*
X0068913Y0033569D02*
X0410200Y0033569D01*
X0410200Y0035167D02*
X0327768Y0035167D01*
X0327643Y0035041D02*
X0328458Y0035857D01*
X0328900Y0036923D01*
X0328900Y0038077D01*
X0328458Y0039143D01*
X0327643Y0039958D01*
X0326577Y0040400D01*
X0325423Y0040400D01*
X0324357Y0039958D01*
X0323541Y0039143D01*
X0323100Y0038077D01*
X0323100Y0036923D01*
X0323541Y0035857D01*
X0324357Y0035041D01*
X0325423Y0034600D01*
X0326577Y0034600D01*
X0327643Y0035041D01*
X0328835Y0036766D02*
X0410200Y0036766D01*
X0410200Y0038364D02*
X0328781Y0038364D01*
X0327632Y0039963D02*
X0410200Y0039963D01*
X0410200Y0041561D02*
X0004800Y0041561D01*
X0004800Y0039963D02*
X0283368Y0039963D01*
X0283357Y0039958D02*
X0282541Y0039143D01*
X0282100Y0038077D01*
X0282100Y0036923D01*
X0282541Y0035857D01*
X0283357Y0035041D01*
X0284423Y0034600D01*
X0285577Y0034600D01*
X0286643Y0035041D01*
X0287458Y0035857D01*
X0287900Y0036923D01*
X0287900Y0038077D01*
X0287458Y0039143D01*
X0286643Y0039958D01*
X0285577Y0040400D01*
X0284423Y0040400D01*
X0283357Y0039958D01*
X0282219Y0038364D02*
X0004800Y0038364D01*
X0004800Y0036766D02*
X0005871Y0036766D01*
X0009609Y0036766D02*
X0011209Y0036766D01*
X0011209Y0035167D02*
X0009609Y0035167D01*
X0009609Y0033569D02*
X0011209Y0033569D01*
X0011209Y0031970D02*
X0009609Y0031970D01*
X0014948Y0036766D02*
X0057052Y0036766D01*
X0055307Y0035167D02*
X0016693Y0035167D01*
X0017732Y0033569D02*
X0054268Y0033569D01*
X0053701Y0031970D02*
X0018299Y0031970D01*
X0018449Y0028773D02*
X0053551Y0028773D01*
X0053960Y0027175D02*
X0018040Y0027175D01*
X0017244Y0025576D02*
X0054756Y0025576D01*
X0056114Y0023978D02*
X0015886Y0023978D01*
X0013258Y0022379D02*
X0058742Y0022379D01*
X0060791Y0022379D02*
X0062391Y0022379D01*
X0062391Y0023978D02*
X0060791Y0023978D01*
X0060791Y0025576D02*
X0062391Y0025576D01*
X0062391Y0027175D02*
X0060791Y0027175D01*
X0060791Y0028773D02*
X0062391Y0028773D01*
X0062391Y0033569D02*
X0060791Y0033569D01*
X0060791Y0035167D02*
X0062391Y0035167D01*
X0062391Y0036766D02*
X0060791Y0036766D01*
X0066129Y0036766D02*
X0282165Y0036766D01*
X0283232Y0035167D02*
X0067874Y0035167D01*
X0064439Y0022379D02*
X0410200Y0022379D01*
X0410200Y0020781D02*
X0004800Y0020781D01*
X0004800Y0019182D02*
X0410200Y0019182D01*
X0410200Y0017584D02*
X0004800Y0017584D01*
X0004800Y0015985D02*
X0410200Y0015985D01*
X0410200Y0014387D02*
X0004800Y0014387D01*
X0004800Y0012788D02*
X0410200Y0012788D01*
X0410200Y0011190D02*
X0360303Y0011190D01*
X0361225Y0009591D02*
X0410200Y0009591D01*
X0410200Y0007993D02*
X0361443Y0007993D01*
X0361088Y0006394D02*
X0410200Y0006394D01*
X0410200Y0023978D02*
X0359470Y0023978D01*
X0359462Y0023970D02*
X0360747Y0025255D01*
X0361443Y0026934D01*
X0361443Y0028751D01*
X0360747Y0030430D01*
X0359462Y0031716D01*
X0357783Y0032411D01*
X0355965Y0032411D01*
X0354286Y0031716D01*
X0353001Y0030430D01*
X0352937Y0030276D01*
X0352873Y0030430D01*
X0351588Y0031716D01*
X0349909Y0032411D01*
X0348091Y0032411D01*
X0346412Y0031716D01*
X0345127Y0030430D01*
X0345063Y0030276D01*
X0344999Y0030430D01*
X0343714Y0031716D01*
X0342035Y0032411D01*
X0340217Y0032411D01*
X0338538Y0031716D01*
X0337253Y0030430D01*
X0336557Y0028751D01*
X0336557Y0026934D01*
X0337253Y0025255D01*
X0338538Y0023970D01*
X0340217Y0023274D01*
X0342035Y0023274D01*
X0343714Y0023970D01*
X0344999Y0025255D01*
X0345063Y0025409D01*
X0345127Y0025255D01*
X0346412Y0023970D01*
X0348091Y0023274D01*
X0349909Y0023274D01*
X0351588Y0023970D01*
X0352873Y0025255D01*
X0352937Y0025409D01*
X0353001Y0025255D01*
X0354286Y0023970D01*
X0355965Y0023274D01*
X0357783Y0023274D01*
X0359462Y0023970D01*
X0360880Y0025576D02*
X0410200Y0025576D01*
X0410200Y0027175D02*
X0361443Y0027175D01*
X0361433Y0028773D02*
X0410200Y0028773D01*
X0410200Y0030372D02*
X0360771Y0030372D01*
X0358847Y0031970D02*
X0410200Y0031970D01*
X0410200Y0043160D02*
X0004800Y0043160D01*
X0004800Y0044758D02*
X0102913Y0044758D01*
X0103053Y0044700D02*
X0104157Y0044404D01*
X0105062Y0044285D01*
X0105062Y0052176D01*
X0106662Y0052176D01*
X0106662Y0044285D01*
X0107567Y0044404D01*
X0108672Y0044700D01*
X0109728Y0045138D01*
X0110718Y0045709D01*
X0111625Y0046405D01*
X0112433Y0047214D01*
X0113129Y0048121D01*
X0113701Y0049111D01*
X0114138Y0050167D01*
X0114434Y0051271D01*
X0114553Y0052176D01*
X0106662Y0052176D01*
X0106662Y0053776D01*
X0114553Y0053776D01*
X0114434Y0054681D01*
X0114138Y0055786D01*
X0113701Y0056842D01*
X0113129Y0057832D01*
X0112433Y0058739D01*
X0111625Y0059547D01*
X0110718Y0060243D01*
X0109728Y0060815D01*
X0108672Y0061253D01*
X0107567Y0061548D01*
X0106662Y0061668D01*
X0106662Y0053776D01*
X0105062Y0053776D01*
X0105062Y0052176D01*
X0097171Y0052176D01*
X0097290Y0051271D01*
X0097586Y0050167D01*
X0098024Y0049111D01*
X0098595Y0048121D01*
X0099291Y0047214D01*
X0100100Y0046405D01*
X0101007Y0045709D01*
X0101997Y0045138D01*
X0103053Y0044700D01*
X0105062Y0044758D02*
X0106662Y0044758D01*
X0106662Y0046357D02*
X0105062Y0046357D01*
X0105062Y0047955D02*
X0106662Y0047955D01*
X0106662Y0049554D02*
X0105062Y0049554D01*
X0105062Y0051152D02*
X0106662Y0051152D01*
X0106662Y0052751D02*
X0400338Y0052751D01*
X0400338Y0052176D02*
X0392447Y0052176D01*
X0392566Y0051271D01*
X0392862Y0050167D01*
X0393299Y0049111D01*
X0393871Y0048121D01*
X0394567Y0047214D01*
X0395375Y0046405D01*
X0396282Y0045709D01*
X0397272Y0045138D01*
X0398328Y0044700D01*
X0399433Y0044404D01*
X0400338Y0044285D01*
X0400338Y0052176D01*
X0401938Y0052176D01*
X0401938Y0044285D01*
X0402843Y0044404D01*
X0403947Y0044700D01*
X0405003Y0045138D01*
X0405993Y0045709D01*
X0406900Y0046405D01*
X0407709Y0047214D01*
X0408405Y0048121D01*
X0408976Y0049111D01*
X0409414Y0050167D01*
X0409710Y0051271D01*
X0409829Y0052176D01*
X0401938Y0052176D01*
X0401938Y0053776D01*
X0409829Y0053776D01*
X0409710Y0054681D01*
X0409414Y0055786D01*
X0408976Y0056842D01*
X0408405Y0057832D01*
X0407709Y0058739D01*
X0406900Y0059547D01*
X0405993Y0060243D01*
X0405003Y0060815D01*
X0403947Y0061253D01*
X0402843Y0061548D01*
X0401938Y0061668D01*
X0401938Y0053776D01*
X0400338Y0053776D01*
X0400338Y0052176D01*
X0400338Y0051152D02*
X0401938Y0051152D01*
X0401938Y0049554D02*
X0400338Y0049554D01*
X0400338Y0047955D02*
X0401938Y0047955D01*
X0401938Y0046357D02*
X0400338Y0046357D01*
X0400338Y0044758D02*
X0401938Y0044758D01*
X0404087Y0044758D02*
X0410200Y0044758D01*
X0410200Y0046357D02*
X0406837Y0046357D01*
X0408278Y0047955D02*
X0410200Y0047955D01*
X0410200Y0049554D02*
X0409160Y0049554D01*
X0409678Y0051152D02*
X0410200Y0051152D01*
X0410200Y0052751D02*
X0401938Y0052751D01*
X0401938Y0054349D02*
X0400338Y0054349D01*
X0400338Y0053776D02*
X0400338Y0061668D01*
X0399433Y0061548D01*
X0398328Y0061253D01*
X0397272Y0060815D01*
X0396282Y0060243D01*
X0395375Y0059547D01*
X0394567Y0058739D01*
X0393871Y0057832D01*
X0393299Y0056842D01*
X0392862Y0055786D01*
X0392566Y0054681D01*
X0392447Y0053776D01*
X0400338Y0053776D01*
X0400338Y0055948D02*
X0401938Y0055948D01*
X0401938Y0057546D02*
X0400338Y0057546D01*
X0400338Y0059145D02*
X0401938Y0059145D01*
X0401938Y0060743D02*
X0400338Y0060743D01*
X0397148Y0060743D02*
X0282331Y0060743D01*
X0282400Y0060577D02*
X0281958Y0061643D01*
X0281143Y0062458D01*
X0280077Y0062900D01*
X0278923Y0062900D01*
X0277857Y0062458D01*
X0277041Y0061643D01*
X0276600Y0060577D01*
X0276600Y0059423D01*
X0277041Y0058357D01*
X0277857Y0057541D01*
X0278923Y0057100D01*
X0280077Y0057100D01*
X0281143Y0057541D01*
X0281958Y0058357D01*
X0282400Y0059423D01*
X0282400Y0060577D01*
X0282285Y0059145D02*
X0394973Y0059145D01*
X0393706Y0057546D02*
X0281148Y0057546D01*
X0277852Y0057546D02*
X0276998Y0057546D01*
X0276958Y0057643D02*
X0276143Y0058458D01*
X0275077Y0058900D01*
X0273923Y0058900D01*
X0272857Y0058458D01*
X0272041Y0057643D01*
X0271600Y0056577D01*
X0271600Y0055423D01*
X0272041Y0054357D01*
X0272857Y0053541D01*
X0273923Y0053100D01*
X0275077Y0053100D01*
X0276143Y0053541D01*
X0276958Y0054357D01*
X0277400Y0055423D01*
X0277400Y0056577D01*
X0276958Y0057643D01*
X0276715Y0059145D02*
X0112027Y0059145D01*
X0113294Y0057546D02*
X0272002Y0057546D01*
X0271600Y0055948D02*
X0114071Y0055948D01*
X0114478Y0054349D02*
X0272049Y0054349D01*
X0276951Y0054349D02*
X0392522Y0054349D01*
X0392929Y0055948D02*
X0277400Y0055948D01*
X0276669Y0060743D02*
X0109852Y0060743D01*
X0106662Y0060743D02*
X0105062Y0060743D01*
X0105062Y0061668D02*
X0104157Y0061548D01*
X0103053Y0061253D01*
X0101997Y0060815D01*
X0101007Y0060243D01*
X0100100Y0059547D01*
X0099291Y0058739D01*
X0098595Y0057832D01*
X0098024Y0056842D01*
X0097586Y0055786D01*
X0097290Y0054681D01*
X0097171Y0053776D01*
X0105062Y0053776D01*
X0105062Y0061668D01*
X0105062Y0059145D02*
X0106662Y0059145D01*
X0106662Y0057546D02*
X0105062Y0057546D01*
X0105062Y0055948D02*
X0106662Y0055948D01*
X0106662Y0054349D02*
X0105062Y0054349D01*
X0105062Y0052751D02*
X0004800Y0052751D01*
X0004800Y0054349D02*
X0097246Y0054349D01*
X0097653Y0055948D02*
X0047238Y0055948D01*
X0046751Y0055746D02*
X0048430Y0056442D01*
X0049716Y0057727D01*
X0050411Y0059406D01*
X0050411Y0061224D01*
X0049716Y0062903D01*
X0048430Y0064188D01*
X0046751Y0064883D01*
X0044934Y0064883D01*
X0043255Y0064188D01*
X0041970Y0062903D01*
X0041274Y0061224D01*
X0041274Y0059406D01*
X0041970Y0057727D01*
X0043255Y0056442D01*
X0044934Y0055746D01*
X0046751Y0055746D01*
X0044447Y0055948D02*
X0037933Y0055948D01*
X0037830Y0055896D02*
X0038499Y0056237D01*
X0039106Y0056678D01*
X0039637Y0057208D01*
X0040078Y0057816D01*
X0040419Y0058484D01*
X0040651Y0059198D01*
X0040768Y0059940D01*
X0040768Y0060131D01*
X0036184Y0060131D01*
X0036184Y0060499D01*
X0035816Y0060499D01*
X0035816Y0060131D01*
X0031231Y0060131D01*
X0031231Y0059940D01*
X0031349Y0059198D01*
X0031581Y0058484D01*
X0031922Y0057816D01*
X0032363Y0057208D01*
X0032894Y0056678D01*
X0033501Y0056237D01*
X0034170Y0055896D01*
X0034883Y0055664D01*
X0035625Y0055546D01*
X0035816Y0055546D01*
X0035816Y0060131D01*
X0036184Y0060131D01*
X0036184Y0055546D01*
X0036375Y0055546D01*
X0037117Y0055664D01*
X0037830Y0055896D01*
X0036184Y0055948D02*
X0035816Y0055948D01*
X0035816Y0057546D02*
X0036184Y0057546D01*
X0036184Y0059145D02*
X0035816Y0059145D01*
X0035816Y0060499D02*
X0031231Y0060499D01*
X0031231Y0060690D01*
X0031349Y0061432D01*
X0031581Y0062145D01*
X0031922Y0062814D01*
X0032363Y0063421D01*
X0032894Y0063952D01*
X0033501Y0064393D01*
X0034170Y0064734D01*
X0034883Y0064966D01*
X0035625Y0065083D01*
X0035816Y0065083D01*
X0035816Y0060499D01*
X0035816Y0060743D02*
X0036184Y0060743D01*
X0036184Y0060499D02*
X0036184Y0065083D01*
X0036375Y0065083D01*
X0037117Y0064966D01*
X0037830Y0064734D01*
X0038499Y0064393D01*
X0039106Y0063952D01*
X0039637Y0063421D01*
X0040078Y0062814D01*
X0040419Y0062145D01*
X0040651Y0061432D01*
X0040768Y0060690D01*
X0040768Y0060499D01*
X0036184Y0060499D01*
X0036184Y0062342D02*
X0035816Y0062342D01*
X0035816Y0063940D02*
X0036184Y0063940D01*
X0039118Y0063940D02*
X0043007Y0063940D01*
X0041737Y0062342D02*
X0040319Y0062342D01*
X0040760Y0060743D02*
X0041274Y0060743D01*
X0041382Y0059145D02*
X0040634Y0059145D01*
X0039883Y0057546D02*
X0042150Y0057546D01*
X0048678Y0063940D02*
X0239554Y0063940D01*
X0239894Y0063600D02*
X0241585Y0062900D01*
X0243415Y0062900D01*
X0245106Y0063600D01*
X0246400Y0064894D01*
X0247100Y0066585D01*
X0247100Y0068415D01*
X0246400Y0070106D01*
X0245106Y0071400D01*
X0243415Y0072100D01*
X0241585Y0072100D01*
X0239894Y0071400D01*
X0238600Y0070106D01*
X0237900Y0068415D01*
X0237900Y0066585D01*
X0238600Y0064894D01*
X0239894Y0063600D01*
X0238333Y0065539D02*
X0004800Y0065539D01*
X0004800Y0067137D02*
X0237900Y0067137D01*
X0238033Y0068736D02*
X0004800Y0068736D01*
X0004800Y0070334D02*
X0238829Y0070334D01*
X0241182Y0071933D02*
X0004800Y0071933D01*
X0004800Y0073532D02*
X0240060Y0073532D01*
X0239894Y0073600D02*
X0241585Y0072900D01*
X0243415Y0072900D01*
X0245106Y0073600D01*
X0246400Y0074894D01*
X0247100Y0076585D01*
X0247100Y0078415D01*
X0246400Y0080106D01*
X0245106Y0081400D01*
X0243415Y0082100D01*
X0241585Y0082100D01*
X0239894Y0081400D01*
X0238600Y0080106D01*
X0237900Y0078415D01*
X0237900Y0076585D01*
X0238600Y0074894D01*
X0239894Y0073600D01*
X0238503Y0075130D02*
X0040149Y0075130D01*
X0040077Y0075100D02*
X0041143Y0075541D01*
X0041958Y0076357D01*
X0042400Y0077423D01*
X0042400Y0078577D01*
X0041958Y0079643D01*
X0041143Y0080458D01*
X0040077Y0080900D01*
X0038923Y0080900D01*
X0037857Y0080458D01*
X0037041Y0079643D01*
X0036600Y0078577D01*
X0036600Y0077423D01*
X0037041Y0076357D01*
X0037857Y0075541D01*
X0038923Y0075100D01*
X0040077Y0075100D01*
X0038851Y0075130D02*
X0033649Y0075130D01*
X0033577Y0075100D02*
X0034643Y0075541D01*
X0035458Y0076357D01*
X0035900Y0077423D01*
X0035900Y0078577D01*
X0035458Y0079643D01*
X0034643Y0080458D01*
X0033577Y0080900D01*
X0032423Y0080900D01*
X0031357Y0080458D01*
X0030541Y0079643D01*
X0030100Y0078577D01*
X0030100Y0077423D01*
X0030541Y0076357D01*
X0031357Y0075541D01*
X0032423Y0075100D01*
X0033577Y0075100D01*
X0032351Y0075130D02*
X0004800Y0075130D01*
X0004800Y0076729D02*
X0030388Y0076729D01*
X0030100Y0078327D02*
X0004800Y0078327D01*
X0004800Y0079926D02*
X0030824Y0079926D01*
X0035176Y0079926D02*
X0037324Y0079926D01*
X0036600Y0078327D02*
X0035900Y0078327D01*
X0035612Y0076729D02*
X0036888Y0076729D01*
X0042112Y0076729D02*
X0237900Y0076729D01*
X0237900Y0078327D02*
X0042400Y0078327D01*
X0041676Y0079926D02*
X0238526Y0079926D01*
X0240195Y0081524D02*
X0004800Y0081524D01*
X0004800Y0083123D02*
X0241048Y0083123D01*
X0241585Y0082900D02*
X0239894Y0083600D01*
X0238600Y0084894D01*
X0237900Y0086585D01*
X0237900Y0088415D01*
X0238600Y0090106D01*
X0239894Y0091400D01*
X0241585Y0092100D01*
X0243415Y0092100D01*
X0245106Y0091400D01*
X0246400Y0090106D01*
X0247100Y0088415D01*
X0247100Y0086585D01*
X0246400Y0084894D01*
X0245106Y0083600D01*
X0243415Y0082900D01*
X0241585Y0082900D01*
X0243952Y0083123D02*
X0410200Y0083123D01*
X0410200Y0084721D02*
X0246226Y0084721D01*
X0246990Y0086320D02*
X0410200Y0086320D01*
X0410200Y0087918D02*
X0247100Y0087918D01*
X0246644Y0089517D02*
X0410200Y0089517D01*
X0410200Y0091115D02*
X0273565Y0091115D01*
X0273458Y0090857D02*
X0273900Y0091923D01*
X0273900Y0093077D01*
X0273458Y0094143D01*
X0272643Y0094958D01*
X0271577Y0095400D01*
X0270423Y0095400D01*
X0269357Y0094958D01*
X0268541Y0094143D01*
X0268100Y0093077D01*
X0268100Y0091923D01*
X0268541Y0090857D01*
X0269357Y0090041D01*
X0270423Y0089600D01*
X0271577Y0089600D01*
X0272643Y0090041D01*
X0273458Y0090857D01*
X0273900Y0092714D02*
X0410200Y0092714D01*
X0410200Y0094312D02*
X0291413Y0094312D01*
X0291458Y0094357D02*
X0291900Y0095423D01*
X0291900Y0096577D01*
X0291458Y0097643D01*
X0290643Y0098458D01*
X0289577Y0098900D01*
X0288423Y0098900D01*
X0287357Y0098458D01*
X0286541Y0097643D01*
X0286100Y0096577D01*
X0286100Y0095423D01*
X0286541Y0094357D01*
X0287357Y0093541D01*
X0288423Y0093100D01*
X0289577Y0093100D01*
X0290643Y0093541D01*
X0291458Y0094357D01*
X0291900Y0095911D02*
X0355019Y0095911D01*
X0355041Y0095857D02*
X0355857Y0095041D01*
X0356923Y0094600D01*
X0358077Y0094600D01*
X0359143Y0095041D01*
X0359958Y0095857D01*
X0360400Y0096923D01*
X0360400Y0098077D01*
X0359958Y0099143D01*
X0359143Y0099958D01*
X0358077Y0100400D01*
X0356923Y0100400D01*
X0355857Y0099958D01*
X0355041Y0099143D01*
X0354600Y0098077D01*
X0354600Y0096923D01*
X0355041Y0095857D01*
X0354600Y0097509D02*
X0314521Y0097509D01*
X0314458Y0097357D02*
X0314900Y0098423D01*
X0314900Y0099577D01*
X0314458Y0100643D01*
X0313643Y0101458D01*
X0312577Y0101900D01*
X0311423Y0101900D01*
X0310357Y0101458D01*
X0309541Y0100643D01*
X0309100Y0099577D01*
X0309100Y0098423D01*
X0309541Y0097357D01*
X0310357Y0096541D01*
X0311423Y0096100D01*
X0312577Y0096100D01*
X0313643Y0096541D01*
X0314458Y0097357D01*
X0314900Y0099108D02*
X0355027Y0099108D01*
X0359973Y0099108D02*
X0410200Y0099108D01*
X0410200Y0100706D02*
X0314395Y0100706D01*
X0309605Y0100706D02*
X0299395Y0100706D01*
X0299458Y0100643D02*
X0298643Y0101458D01*
X0297577Y0101900D01*
X0296423Y0101900D01*
X0295357Y0101458D01*
X0294541Y0100643D01*
X0294100Y0099577D01*
X0294100Y0098423D01*
X0294541Y0097357D01*
X0295357Y0096541D01*
X0296423Y0096100D01*
X0297577Y0096100D01*
X0298643Y0096541D01*
X0299458Y0097357D01*
X0299900Y0098423D01*
X0299900Y0099577D01*
X0299458Y0100643D01*
X0299900Y0099108D02*
X0309100Y0099108D01*
X0309479Y0097509D02*
X0299521Y0097509D01*
X0294479Y0097509D02*
X0291514Y0097509D01*
X0294100Y0099108D02*
X0281209Y0099108D01*
X0281143Y0099041D02*
X0281958Y0099857D01*
X0282400Y0100923D01*
X0282400Y0102077D01*
X0281958Y0103143D01*
X0281143Y0103958D01*
X0280077Y0104400D01*
X0278923Y0104400D01*
X0277857Y0103958D01*
X0277041Y0103143D01*
X0276600Y0102077D01*
X0276600Y0100923D01*
X0277041Y0099857D01*
X0277857Y0099041D01*
X0278923Y0098600D01*
X0280077Y0098600D01*
X0281143Y0099041D01*
X0282310Y0100706D02*
X0294605Y0100706D01*
X0294077Y0109100D02*
X0295143Y0109541D01*
X0295958Y0110357D01*
X0296400Y0111423D01*
X0296400Y0112577D01*
X0295958Y0113643D01*
X0295143Y0114458D01*
X0294077Y0114900D01*
X0292923Y0114900D01*
X0291857Y0114458D01*
X0291041Y0113643D01*
X0290600Y0112577D01*
X0290600Y0111423D01*
X0291041Y0110357D01*
X0291857Y0109541D01*
X0292923Y0109100D01*
X0294077Y0109100D01*
X0295898Y0110297D02*
X0307898Y0110297D01*
X0308041Y0110643D02*
X0307600Y0109577D01*
X0307600Y0108423D01*
X0308041Y0107357D01*
X0308857Y0106541D01*
X0309923Y0106100D01*
X0311077Y0106100D01*
X0312143Y0106541D01*
X0312958Y0107357D01*
X0313400Y0108423D01*
X0313400Y0109577D01*
X0312958Y0110643D01*
X0312143Y0111458D01*
X0311077Y0111900D01*
X0309923Y0111900D01*
X0308857Y0111458D01*
X0308041Y0110643D01*
X0307600Y0108699D02*
X0246982Y0108699D01*
X0247100Y0108415D02*
X0246400Y0110106D01*
X0245106Y0111400D01*
X0243415Y0112100D01*
X0241585Y0112100D01*
X0239894Y0111400D01*
X0238600Y0110106D01*
X0237900Y0108415D01*
X0237900Y0106585D01*
X0238600Y0104894D01*
X0239894Y0103600D01*
X0241585Y0102900D01*
X0243415Y0102900D01*
X0245106Y0103600D01*
X0246400Y0104894D01*
X0247100Y0106585D01*
X0247100Y0108415D01*
X0247100Y0107100D02*
X0308299Y0107100D01*
X0312701Y0107100D02*
X0323923Y0107100D01*
X0325077Y0107100D01*
X0326143Y0107541D01*
X0326958Y0108357D01*
X0327400Y0109423D01*
X0327400Y0110577D01*
X0326958Y0111643D01*
X0326143Y0112458D01*
X0325077Y0112900D01*
X0323923Y0112900D01*
X0322857Y0112458D01*
X0322041Y0111643D01*
X0321600Y0110577D01*
X0321600Y0109423D01*
X0322041Y0108357D01*
X0322857Y0107541D01*
X0323923Y0107100D01*
X0323923Y0106900D02*
X0322857Y0106458D01*
X0322041Y0105643D01*
X0321600Y0104577D01*
X0321600Y0103423D01*
X0322041Y0102357D01*
X0322857Y0101541D01*
X0323923Y0101100D01*
X0325077Y0101100D01*
X0326143Y0101541D01*
X0326958Y0102357D01*
X0327400Y0103423D01*
X0327400Y0104577D01*
X0326958Y0105643D01*
X0326143Y0106458D01*
X0325077Y0106900D01*
X0323923Y0106900D01*
X0325077Y0107100D02*
X0410200Y0107100D01*
X0410200Y0105502D02*
X0341017Y0105502D01*
X0340958Y0105643D02*
X0340143Y0106458D01*
X0339077Y0106900D01*
X0337923Y0106900D01*
X0336857Y0106458D01*
X0336041Y0105643D01*
X0335600Y0104577D01*
X0335600Y0103423D01*
X0336041Y0102357D01*
X0336857Y0101541D01*
X0337923Y0101100D01*
X0339077Y0101100D01*
X0340143Y0101541D01*
X0340958Y0102357D01*
X0341400Y0103423D01*
X0341400Y0104577D01*
X0340958Y0105643D01*
X0341400Y0103903D02*
X0410200Y0103903D01*
X0410200Y0102305D02*
X0340906Y0102305D01*
X0336094Y0102305D02*
X0326906Y0102305D01*
X0327400Y0103903D02*
X0335600Y0103903D01*
X0335983Y0105502D02*
X0327017Y0105502D01*
X0327100Y0108699D02*
X0410200Y0108699D01*
X0410200Y0110297D02*
X0327400Y0110297D01*
X0326705Y0111896D02*
X0410200Y0111896D01*
X0410200Y0113494D02*
X0296020Y0113494D01*
X0296400Y0111896D02*
X0309913Y0111896D01*
X0311087Y0111896D02*
X0322295Y0111896D01*
X0321600Y0110297D02*
X0313102Y0110297D01*
X0313400Y0108699D02*
X0321900Y0108699D01*
X0321983Y0105502D02*
X0246651Y0105502D01*
X0245409Y0103903D02*
X0277802Y0103903D01*
X0276694Y0102305D02*
X0037897Y0102305D01*
X0037888Y0102377D02*
X0037585Y0103507D01*
X0037138Y0104587D01*
X0036553Y0105599D01*
X0035841Y0106527D01*
X0035015Y0107353D01*
X0034087Y0108065D01*
X0033075Y0108649D01*
X0031995Y0109097D01*
X0030866Y0109399D01*
X0029922Y0109524D01*
X0029922Y0101434D01*
X0028322Y0101434D01*
X0028322Y0109524D01*
X0027378Y0109399D01*
X0026249Y0109097D01*
X0025169Y0108649D01*
X0024157Y0108065D01*
X0023229Y0107353D01*
X0022403Y0106527D01*
X0021691Y0105599D01*
X0021106Y0104587D01*
X0020659Y0103507D01*
X0020357Y0102377D01*
X0020232Y0101434D01*
X0028322Y0101434D01*
X0028322Y0099834D01*
X0020232Y0099834D01*
X0020357Y0098890D01*
X0020659Y0097761D01*
X0021106Y0096681D01*
X0021691Y0095669D01*
X0022403Y0094741D01*
X0023229Y0093914D01*
X0024157Y0093203D01*
X0025169Y0092618D01*
X0026249Y0092171D01*
X0027378Y0091868D01*
X0028322Y0091744D01*
X0028322Y0099834D01*
X0029922Y0099834D01*
X0029922Y0101434D01*
X0038012Y0101434D01*
X0037888Y0102377D01*
X0037421Y0103903D02*
X0239591Y0103903D01*
X0238349Y0105502D02*
X0036609Y0105502D01*
X0035268Y0107100D02*
X0237900Y0107100D01*
X0238018Y0108699D02*
X0190800Y0108699D01*
X0190643Y0108541D02*
X0191458Y0109357D01*
X0191900Y0110423D01*
X0191900Y0111577D01*
X0191458Y0112643D01*
X0191101Y0113000D01*
X0191458Y0113357D01*
X0191900Y0114423D01*
X0191900Y0115577D01*
X0191458Y0116643D01*
X0191101Y0117000D01*
X0191458Y0117357D01*
X0191900Y0118423D01*
X0191900Y0119577D01*
X0191458Y0120643D01*
X0190643Y0121458D01*
X0189577Y0121900D01*
X0188423Y0121900D01*
X0187357Y0121458D01*
X0186541Y0120643D01*
X0186100Y0119577D01*
X0186100Y0118423D01*
X0186366Y0117780D01*
X0186077Y0117900D01*
X0184923Y0117900D01*
X0183857Y0117458D01*
X0183041Y0116643D01*
X0182600Y0115577D01*
X0182600Y0114423D01*
X0183041Y0113357D01*
X0183399Y0113000D01*
X0183041Y0112643D01*
X0182600Y0111577D01*
X0182600Y0110423D01*
X0183041Y0109357D01*
X0183857Y0108541D01*
X0184923Y0108100D01*
X0186077Y0108100D01*
X0187143Y0108541D01*
X0187250Y0108649D01*
X0187357Y0108541D01*
X0188423Y0108100D01*
X0189577Y0108100D01*
X0190643Y0108541D01*
X0191848Y0110297D02*
X0211101Y0110297D01*
X0211041Y0110357D02*
X0211857Y0109541D01*
X0212923Y0109100D01*
X0214077Y0109100D01*
X0215143Y0109541D01*
X0215750Y0110149D01*
X0216357Y0109541D01*
X0217423Y0109100D01*
X0218577Y0109100D01*
X0219643Y0109541D01*
X0220458Y0110357D01*
X0220900Y0111423D01*
X0220900Y0112577D01*
X0220458Y0113643D01*
X0219851Y0114250D01*
X0220458Y0114857D01*
X0220900Y0115923D01*
X0220900Y0117077D01*
X0220458Y0118143D01*
X0219851Y0118750D01*
X0220458Y0119357D01*
X0220900Y0120423D01*
X0220900Y0121577D01*
X0220458Y0122643D01*
X0219643Y0123458D01*
X0218577Y0123900D01*
X0217423Y0123900D01*
X0216357Y0123458D01*
X0215750Y0122851D01*
X0215143Y0123458D01*
X0214077Y0123900D01*
X0212923Y0123900D01*
X0211857Y0123458D01*
X0211041Y0122643D01*
X0210600Y0121577D01*
X0210600Y0120423D01*
X0211041Y0119357D01*
X0211649Y0118750D01*
X0211041Y0118143D01*
X0210600Y0117077D01*
X0210600Y0115923D01*
X0211041Y0114857D01*
X0211649Y0114250D01*
X0211041Y0113643D01*
X0210600Y0112577D01*
X0210600Y0111423D01*
X0211041Y0110357D01*
X0210600Y0111896D02*
X0191768Y0111896D01*
X0191515Y0113494D02*
X0210980Y0113494D01*
X0210944Y0115093D02*
X0191900Y0115093D01*
X0191410Y0116691D02*
X0210600Y0116691D01*
X0211189Y0118290D02*
X0191845Y0118290D01*
X0191771Y0119888D02*
X0210822Y0119888D01*
X0210600Y0121487D02*
X0190574Y0121487D01*
X0187426Y0121487D02*
X0179400Y0121487D01*
X0179400Y0121423D02*
X0179400Y0122577D01*
X0178958Y0123643D01*
X0178143Y0124458D01*
X0177077Y0124900D01*
X0175923Y0124900D01*
X0175250Y0124621D01*
X0174577Y0124900D01*
X0173423Y0124900D01*
X0172357Y0124458D01*
X0171541Y0123643D01*
X0171100Y0122577D01*
X0171100Y0121423D01*
X0171379Y0120750D01*
X0171100Y0120077D01*
X0171100Y0118923D01*
X0171541Y0117857D01*
X0172357Y0117041D01*
X0173423Y0116600D01*
X0174577Y0116600D01*
X0175250Y0116879D01*
X0175923Y0116600D01*
X0177077Y0116600D01*
X0178143Y0117041D01*
X0178958Y0117857D01*
X0179400Y0118923D01*
X0179400Y0120077D01*
X0179121Y0120750D01*
X0179400Y0121423D01*
X0179400Y0119888D02*
X0186229Y0119888D01*
X0186155Y0118290D02*
X0179138Y0118290D01*
X0177297Y0116691D02*
X0183090Y0116691D01*
X0182600Y0115093D02*
X0030952Y0115093D01*
X0030439Y0114880D02*
X0032872Y0115888D01*
X0034734Y0117750D01*
X0035742Y0120183D01*
X0035742Y0122817D01*
X0034734Y0125250D01*
X0032872Y0127112D01*
X0030439Y0128120D01*
X0027805Y0128120D01*
X0025372Y0127112D01*
X0023510Y0125250D01*
X0022502Y0122817D01*
X0022502Y0120183D01*
X0023510Y0117750D01*
X0025372Y0115888D01*
X0027805Y0114880D01*
X0030439Y0114880D01*
X0027292Y0115093D02*
X0017610Y0115093D01*
X0018927Y0116691D02*
X0024569Y0116691D01*
X0023287Y0118290D02*
X0019729Y0118290D01*
X0020188Y0119888D02*
X0022625Y0119888D01*
X0022502Y0121487D02*
X0012206Y0121487D01*
X0012205Y0123085D02*
X0010606Y0123085D01*
X0010606Y0124684D02*
X0012205Y0124684D01*
X0012205Y0126282D02*
X0010606Y0126282D01*
X0010606Y0127881D02*
X0012205Y0127881D01*
X0012205Y0129479D02*
X0010606Y0129479D01*
X0007390Y0129479D02*
X0004800Y0129479D01*
X0004800Y0127881D02*
X0005174Y0127881D01*
X0004800Y0131078D02*
X0208321Y0131078D01*
X0208399Y0131000D02*
X0208041Y0130643D01*
X0207600Y0129577D01*
X0207600Y0128423D01*
X0208041Y0127357D01*
X0208857Y0126541D01*
X0209923Y0126100D01*
X0211077Y0126100D01*
X0212143Y0126541D01*
X0212750Y0127149D01*
X0213357Y0126541D01*
X0214423Y0126100D01*
X0215577Y0126100D01*
X0216643Y0126541D01*
X0217458Y0127357D01*
X0217900Y0128423D01*
X0217900Y0129577D01*
X0217458Y0130643D01*
X0217101Y0131000D01*
X0217458Y0131357D01*
X0217900Y0132423D01*
X0217900Y0133577D01*
X0217458Y0134643D01*
X0217101Y0135000D01*
X0217458Y0135357D01*
X0217900Y0136423D01*
X0217900Y0137577D01*
X0217458Y0138643D01*
X0217101Y0139000D01*
X0217458Y0139357D01*
X0217900Y0140423D01*
X0217900Y0141577D01*
X0217458Y0142643D01*
X0216643Y0143458D01*
X0215577Y0143900D01*
X0214423Y0143900D01*
X0213357Y0143458D01*
X0212750Y0142851D01*
X0212143Y0143458D01*
X0211077Y0143900D01*
X0209923Y0143900D01*
X0208857Y0143458D01*
X0208041Y0142643D01*
X0207600Y0141577D01*
X0207600Y0140423D01*
X0208041Y0139357D01*
X0208399Y0139000D01*
X0208041Y0138643D01*
X0207600Y0137577D01*
X0207600Y0136423D01*
X0208041Y0135357D01*
X0208399Y0135000D01*
X0208041Y0134643D01*
X0207600Y0133577D01*
X0207600Y0132423D01*
X0208041Y0131357D01*
X0208399Y0131000D01*
X0207600Y0129479D02*
X0079672Y0129479D01*
X0080188Y0128964D02*
X0078964Y0130188D01*
X0077365Y0130850D01*
X0075635Y0130850D01*
X0074036Y0130188D01*
X0072812Y0128964D01*
X0072150Y0127365D01*
X0072150Y0125635D01*
X0072812Y0124036D01*
X0074036Y0122812D01*
X0075635Y0122150D01*
X0077365Y0122150D01*
X0078964Y0122812D01*
X0080188Y0124036D01*
X0080850Y0125635D01*
X0080850Y0127365D01*
X0080188Y0128964D01*
X0080636Y0127881D02*
X0207825Y0127881D01*
X0209483Y0126282D02*
X0080850Y0126282D01*
X0080456Y0124684D02*
X0133901Y0124684D01*
X0134423Y0124900D02*
X0133357Y0124458D01*
X0132541Y0123643D01*
X0132100Y0122577D01*
X0132100Y0121423D01*
X0132541Y0120357D01*
X0133357Y0119541D01*
X0134423Y0119100D01*
X0135577Y0119100D01*
X0136643Y0119541D01*
X0137458Y0120357D01*
X0137900Y0121423D01*
X0137900Y0122577D01*
X0137458Y0123643D01*
X0136643Y0124458D01*
X0135577Y0124900D01*
X0134423Y0124900D01*
X0136099Y0124684D02*
X0172901Y0124684D01*
X0175099Y0124684D02*
X0175401Y0124684D01*
X0177599Y0124684D02*
X0237215Y0124684D01*
X0237357Y0124541D02*
X0238423Y0124100D01*
X0239577Y0124100D01*
X0240643Y0124541D01*
X0241458Y0125357D01*
X0241900Y0126423D01*
X0241900Y0127577D01*
X0241458Y0128643D01*
X0240643Y0129458D01*
X0239577Y0129900D01*
X0238423Y0129900D01*
X0237357Y0129458D01*
X0236541Y0128643D01*
X0236100Y0127577D01*
X0236100Y0126423D01*
X0236541Y0125357D01*
X0237357Y0124541D01*
X0236158Y0126282D02*
X0216017Y0126282D01*
X0213983Y0126282D02*
X0211517Y0126282D01*
X0211484Y0123085D02*
X0179189Y0123085D01*
X0175703Y0116691D02*
X0174797Y0116691D01*
X0173203Y0116691D02*
X0033675Y0116691D01*
X0034957Y0118290D02*
X0171362Y0118290D01*
X0171100Y0119888D02*
X0136990Y0119888D01*
X0137900Y0121487D02*
X0171100Y0121487D01*
X0171311Y0123085D02*
X0137689Y0123085D01*
X0132311Y0123085D02*
X0079237Y0123085D01*
X0073763Y0123085D02*
X0035630Y0123085D01*
X0035742Y0121487D02*
X0132100Y0121487D01*
X0133010Y0119888D02*
X0035620Y0119888D01*
X0034968Y0124684D02*
X0072544Y0124684D01*
X0072150Y0126282D02*
X0033701Y0126282D01*
X0031015Y0127881D02*
X0072364Y0127881D01*
X0073328Y0129479D02*
X0015421Y0129479D01*
X0017637Y0127881D02*
X0027229Y0127881D01*
X0024543Y0126282D02*
X0018942Y0126282D01*
X0019740Y0124684D02*
X0023276Y0124684D01*
X0022614Y0123085D02*
X0020192Y0123085D01*
X0012205Y0119888D02*
X0010606Y0119888D01*
X0010606Y0118290D02*
X0012205Y0118290D01*
X0012205Y0116691D02*
X0010606Y0116691D01*
X0010606Y0115093D02*
X0012205Y0115093D01*
X0012205Y0113494D02*
X0010606Y0113494D01*
X0007436Y0113494D02*
X0004800Y0113494D01*
X0004800Y0111896D02*
X0182732Y0111896D01*
X0182652Y0110297D02*
X0004800Y0110297D01*
X0004800Y0108699D02*
X0025288Y0108699D01*
X0022976Y0107100D02*
X0004800Y0107100D01*
X0004800Y0105502D02*
X0021635Y0105502D01*
X0020823Y0103903D02*
X0004800Y0103903D01*
X0004800Y0102305D02*
X0020347Y0102305D01*
X0020328Y0099108D02*
X0004800Y0099108D01*
X0004800Y0100706D02*
X0028322Y0100706D01*
X0028322Y0099108D02*
X0029922Y0099108D01*
X0029922Y0099834D02*
X0029922Y0091744D01*
X0030866Y0091868D01*
X0031995Y0092171D01*
X0033075Y0092618D01*
X0034087Y0093203D01*
X0035015Y0093914D01*
X0035841Y0094741D01*
X0036553Y0095669D01*
X0037138Y0096681D01*
X0037585Y0097761D01*
X0037888Y0098890D01*
X0038012Y0099834D01*
X0029922Y0099834D01*
X0029922Y0100706D02*
X0238918Y0100706D01*
X0238839Y0100627D02*
X0238395Y0100016D01*
X0238052Y0099343D01*
X0237818Y0098624D01*
X0237700Y0097878D01*
X0237700Y0097700D01*
X0242300Y0097700D01*
X0242300Y0102300D01*
X0242122Y0102300D01*
X0241376Y0102182D01*
X0240657Y0101948D01*
X0239984Y0101605D01*
X0239373Y0101161D01*
X0238839Y0100627D01*
X0237975Y0099108D02*
X0160494Y0099108D01*
X0160143Y0099458D02*
X0159077Y0099900D01*
X0157923Y0099900D01*
X0156857Y0099458D01*
X0156041Y0098643D01*
X0155600Y0097577D01*
X0155600Y0096423D01*
X0156041Y0095357D01*
X0156857Y0094541D01*
X0157923Y0094100D01*
X0159077Y0094100D01*
X0160143Y0094541D01*
X0160958Y0095357D01*
X0161400Y0096423D01*
X0161400Y0097577D01*
X0160958Y0098643D01*
X0160143Y0099458D01*
X0161400Y0097509D02*
X0242300Y0097509D01*
X0242300Y0097700D02*
X0242300Y0097300D01*
X0242700Y0097300D01*
X0242700Y0097700D01*
X0247300Y0097700D01*
X0247300Y0097878D01*
X0247182Y0098624D01*
X0246948Y0099343D01*
X0246605Y0100016D01*
X0246161Y0100627D01*
X0245627Y0101161D01*
X0245016Y0101605D01*
X0244343Y0101948D01*
X0243624Y0102182D01*
X0242878Y0102300D01*
X0242700Y0102300D01*
X0242700Y0097700D01*
X0242300Y0097700D01*
X0242300Y0097300D02*
X0237700Y0097300D01*
X0237700Y0097122D01*
X0237818Y0096376D01*
X0238052Y0095657D01*
X0238395Y0094984D01*
X0238839Y0094373D01*
X0239373Y0093839D01*
X0239984Y0093395D01*
X0240657Y0093052D01*
X0241376Y0092818D01*
X0242122Y0092700D01*
X0242300Y0092700D01*
X0242300Y0097300D01*
X0242700Y0097300D02*
X0242700Y0092700D01*
X0242878Y0092700D01*
X0243624Y0092818D01*
X0244343Y0093052D01*
X0245016Y0093395D01*
X0245627Y0093839D01*
X0246161Y0094373D01*
X0246605Y0094984D01*
X0246948Y0095657D01*
X0247182Y0096376D01*
X0247300Y0097122D01*
X0247300Y0097300D01*
X0242700Y0097300D01*
X0242700Y0097509D02*
X0271600Y0097509D01*
X0271600Y0098077D02*
X0271600Y0096923D01*
X0272041Y0095857D01*
X0272857Y0095041D01*
X0273923Y0094600D01*
X0275077Y0094600D01*
X0276143Y0095041D01*
X0276958Y0095857D01*
X0277400Y0096923D01*
X0277400Y0098077D01*
X0276958Y0099143D01*
X0276143Y0099958D01*
X0275077Y0100400D01*
X0273923Y0100400D01*
X0272857Y0099958D01*
X0272041Y0099143D01*
X0271600Y0098077D01*
X0272027Y0099108D02*
X0247025Y0099108D01*
X0246082Y0100706D02*
X0276690Y0100706D01*
X0276973Y0099108D02*
X0277791Y0099108D01*
X0277400Y0097509D02*
X0286486Y0097509D01*
X0286100Y0095911D02*
X0276981Y0095911D01*
X0273289Y0094312D02*
X0286587Y0094312D01*
X0282306Y0102305D02*
X0322094Y0102305D01*
X0321600Y0103903D02*
X0281198Y0103903D01*
X0291101Y0110297D02*
X0246208Y0110297D01*
X0243908Y0111896D02*
X0290600Y0111896D01*
X0290980Y0113494D02*
X0244850Y0113494D01*
X0245106Y0113600D02*
X0243415Y0112900D01*
X0241585Y0112900D01*
X0239894Y0113600D01*
X0238600Y0114894D01*
X0237900Y0116585D01*
X0237900Y0118415D01*
X0238600Y0120106D01*
X0239894Y0121400D01*
X0241585Y0122100D01*
X0243415Y0122100D01*
X0245106Y0121400D01*
X0246400Y0120106D01*
X0247100Y0118415D01*
X0247100Y0116585D01*
X0246400Y0114894D01*
X0245106Y0113600D01*
X0246482Y0115093D02*
X0410200Y0115093D01*
X0410200Y0116691D02*
X0247100Y0116691D01*
X0247100Y0118290D02*
X0295109Y0118290D01*
X0295041Y0118357D02*
X0295857Y0117541D01*
X0296923Y0117100D01*
X0298077Y0117100D01*
X0299143Y0117541D01*
X0299958Y0118357D01*
X0300400Y0119423D01*
X0300400Y0120577D01*
X0299958Y0121643D01*
X0299143Y0122458D01*
X0298077Y0122900D01*
X0296923Y0122900D01*
X0295857Y0122458D01*
X0295041Y0121643D01*
X0294600Y0120577D01*
X0294600Y0119423D01*
X0295041Y0118357D01*
X0294600Y0119888D02*
X0246490Y0119888D01*
X0244895Y0121487D02*
X0294977Y0121487D01*
X0295143Y0122041D02*
X0295958Y0122857D01*
X0296400Y0123923D01*
X0296400Y0125077D01*
X0295958Y0126143D01*
X0295143Y0126958D01*
X0294077Y0127400D01*
X0292923Y0127400D01*
X0291857Y0126958D01*
X0291041Y0126143D01*
X0290600Y0125077D01*
X0290600Y0123923D01*
X0291041Y0122857D01*
X0291857Y0122041D01*
X0292923Y0121600D01*
X0294077Y0121600D01*
X0295143Y0122041D01*
X0296053Y0123085D02*
X0304311Y0123085D01*
X0304100Y0122577D02*
X0304100Y0121423D01*
X0304541Y0120357D01*
X0305357Y0119541D01*
X0306423Y0119100D01*
X0307577Y0119100D01*
X0308643Y0119541D01*
X0309458Y0120357D01*
X0309900Y0121423D01*
X0309900Y0122577D01*
X0309458Y0123643D01*
X0308643Y0124458D01*
X0307577Y0124900D01*
X0306423Y0124900D01*
X0305357Y0124458D01*
X0304541Y0123643D01*
X0304100Y0122577D01*
X0304100Y0121487D02*
X0300023Y0121487D01*
X0300400Y0119888D02*
X0305010Y0119888D01*
X0308990Y0119888D02*
X0310322Y0119888D01*
X0310541Y0119357D02*
X0311357Y0118541D01*
X0312423Y0118100D01*
X0313577Y0118100D01*
X0314643Y0118541D01*
X0315458Y0119357D01*
X0315900Y0120423D01*
X0315900Y0121577D01*
X0315458Y0122643D01*
X0314643Y0123458D01*
X0313577Y0123900D01*
X0312423Y0123900D01*
X0311357Y0123458D01*
X0310541Y0122643D01*
X0310100Y0121577D01*
X0310100Y0120423D01*
X0310541Y0119357D01*
X0311965Y0118290D02*
X0299891Y0118290D01*
X0296400Y0124684D02*
X0305901Y0124684D01*
X0308099Y0124684D02*
X0410200Y0124684D01*
X0410200Y0126282D02*
X0295819Y0126282D01*
X0291181Y0126282D02*
X0248342Y0126282D01*
X0248400Y0126423D02*
X0247958Y0125357D01*
X0247143Y0124541D01*
X0246077Y0124100D01*
X0244923Y0124100D01*
X0243857Y0124541D01*
X0243041Y0125357D01*
X0242600Y0126423D01*
X0242600Y0127577D01*
X0243041Y0128643D01*
X0243857Y0129458D01*
X0244923Y0129900D01*
X0246077Y0129900D01*
X0247143Y0129458D01*
X0247958Y0128643D01*
X0248400Y0127577D01*
X0248400Y0126423D01*
X0248274Y0127881D02*
X0410200Y0127881D01*
X0410200Y0129479D02*
X0326081Y0129479D01*
X0326458Y0129857D02*
X0326900Y0130923D01*
X0326900Y0132077D01*
X0326458Y0133143D01*
X0325643Y0133958D01*
X0324577Y0134400D01*
X0323423Y0134400D01*
X0322357Y0133958D01*
X0321541Y0133143D01*
X0321250Y0132439D01*
X0320958Y0133143D01*
X0320143Y0133958D01*
X0319077Y0134400D01*
X0317923Y0134400D01*
X0316857Y0133958D01*
X0316041Y0133143D01*
X0315600Y0132077D01*
X0315600Y0130923D01*
X0316041Y0129857D01*
X0316857Y0129041D01*
X0317923Y0128600D01*
X0319077Y0128600D01*
X0320143Y0129041D01*
X0320958Y0129857D01*
X0321250Y0130561D01*
X0321541Y0129857D01*
X0322357Y0129041D01*
X0323423Y0128600D01*
X0324577Y0128600D01*
X0325643Y0129041D01*
X0326458Y0129857D01*
X0326900Y0131078D02*
X0410200Y0131078D01*
X0410200Y0132676D02*
X0326652Y0132676D01*
X0324879Y0134275D02*
X0410200Y0134275D01*
X0410200Y0135873D02*
X0217672Y0135873D01*
X0217611Y0134275D02*
X0317621Y0134275D01*
X0319379Y0134275D02*
X0323121Y0134275D01*
X0321348Y0132676D02*
X0321152Y0132676D01*
X0320581Y0129479D02*
X0321919Y0129479D01*
X0316419Y0129479D02*
X0310509Y0129479D01*
X0310458Y0129357D02*
X0310900Y0130423D01*
X0310900Y0131577D01*
X0310458Y0132643D01*
X0309643Y0133458D01*
X0308577Y0133900D01*
X0307423Y0133900D01*
X0306357Y0133458D01*
X0305541Y0132643D01*
X0305100Y0131577D01*
X0305100Y0130423D01*
X0305541Y0129357D01*
X0306357Y0128541D01*
X0307423Y0128100D01*
X0308577Y0128100D01*
X0309643Y0128541D01*
X0310458Y0129357D01*
X0310900Y0131078D02*
X0315600Y0131078D01*
X0315848Y0132676D02*
X0310425Y0132676D01*
X0305575Y0132676D02*
X0217900Y0132676D01*
X0217179Y0131078D02*
X0305100Y0131078D01*
X0305491Y0129479D02*
X0247092Y0129479D01*
X0243908Y0129479D02*
X0240592Y0129479D01*
X0241774Y0127881D02*
X0242726Y0127881D01*
X0242658Y0126282D02*
X0241842Y0126282D01*
X0240785Y0124684D02*
X0243715Y0124684D01*
X0247285Y0124684D02*
X0290600Y0124684D01*
X0290947Y0123085D02*
X0220016Y0123085D01*
X0220900Y0121487D02*
X0240105Y0121487D01*
X0238510Y0119888D02*
X0220678Y0119888D01*
X0220311Y0118290D02*
X0237900Y0118290D01*
X0237900Y0116691D02*
X0220900Y0116691D01*
X0220556Y0115093D02*
X0238518Y0115093D01*
X0240150Y0113494D02*
X0220520Y0113494D01*
X0220900Y0111896D02*
X0241092Y0111896D01*
X0238792Y0110297D02*
X0220398Y0110297D01*
X0215984Y0123085D02*
X0215516Y0123085D01*
X0217675Y0127881D02*
X0236226Y0127881D01*
X0237408Y0129479D02*
X0217900Y0129479D01*
X0207600Y0132676D02*
X0004800Y0132676D01*
X0004800Y0134275D02*
X0025352Y0134275D01*
X0025169Y0134351D02*
X0026249Y0133903D01*
X0027378Y0133601D01*
X0028322Y0133476D01*
X0028322Y0141566D01*
X0029922Y0141566D01*
X0029922Y0133476D01*
X0030866Y0133601D01*
X0031995Y0133903D01*
X0033075Y0134351D01*
X0034087Y0134935D01*
X0035015Y0135647D01*
X0035841Y0136473D01*
X0036553Y0137401D01*
X0037138Y0138413D01*
X0037585Y0139493D01*
X0037888Y0140623D01*
X0038012Y0141566D01*
X0029922Y0141566D01*
X0029922Y0143166D01*
X0038012Y0143166D01*
X0037888Y0144110D01*
X0037585Y0145239D01*
X0037138Y0146319D01*
X0036553Y0147331D01*
X0035841Y0148259D01*
X0035015Y0149086D01*
X0034087Y0149797D01*
X0033075Y0150382D01*
X0031995Y0150829D01*
X0030866Y0151132D01*
X0029922Y0151256D01*
X0029922Y0143166D01*
X0028322Y0143166D01*
X0028322Y0141566D01*
X0020232Y0141566D01*
X0020357Y0140623D01*
X0020659Y0139493D01*
X0021106Y0138413D01*
X0021691Y0137401D01*
X0022403Y0136473D01*
X0023229Y0135647D01*
X0024157Y0134935D01*
X0025169Y0134351D01*
X0023003Y0135873D02*
X0004800Y0135873D01*
X0004800Y0137472D02*
X0021650Y0137472D01*
X0020834Y0139070D02*
X0004800Y0139070D01*
X0004800Y0140669D02*
X0020350Y0140669D01*
X0020232Y0143166D02*
X0028322Y0143166D01*
X0028322Y0151256D01*
X0027378Y0151132D01*
X0026249Y0150829D01*
X0025169Y0150382D01*
X0024157Y0149797D01*
X0023229Y0149086D01*
X0022403Y0148259D01*
X0021691Y0147331D01*
X0021106Y0146319D01*
X0020659Y0145239D01*
X0020357Y0144110D01*
X0020232Y0143166D01*
X0020324Y0143866D02*
X0004800Y0143866D01*
X0004800Y0142268D02*
X0028322Y0142268D01*
X0028322Y0143866D02*
X0029922Y0143866D01*
X0029922Y0142268D02*
X0072150Y0142268D01*
X0072150Y0142365D02*
X0072150Y0140635D01*
X0072812Y0139036D01*
X0074036Y0137812D01*
X0075635Y0137150D01*
X0077365Y0137150D01*
X0078964Y0137812D01*
X0080188Y0139036D01*
X0080850Y0140635D01*
X0080850Y0142365D01*
X0080188Y0143964D01*
X0078964Y0145188D01*
X0077365Y0145850D01*
X0075635Y0145850D01*
X0074036Y0145188D01*
X0072812Y0143964D01*
X0072150Y0142365D01*
X0072772Y0143866D02*
X0037920Y0143866D01*
X0037492Y0145465D02*
X0074704Y0145465D01*
X0078296Y0145465D02*
X0410200Y0145465D01*
X0410200Y0147063D02*
X0036708Y0147063D01*
X0035439Y0148662D02*
X0410200Y0148662D01*
X0410200Y0150260D02*
X0033286Y0150260D01*
X0029922Y0150260D02*
X0028322Y0150260D01*
X0028322Y0148662D02*
X0029922Y0148662D01*
X0029922Y0147063D02*
X0028322Y0147063D01*
X0028322Y0145465D02*
X0029922Y0145465D01*
X0029922Y0140669D02*
X0028322Y0140669D01*
X0028322Y0139070D02*
X0029922Y0139070D01*
X0029922Y0137472D02*
X0028322Y0137472D01*
X0028322Y0135873D02*
X0029922Y0135873D01*
X0029922Y0134275D02*
X0028322Y0134275D01*
X0032892Y0134275D02*
X0121124Y0134275D01*
X0121357Y0134041D02*
X0122423Y0133600D01*
X0123577Y0133600D01*
X0124643Y0134041D01*
X0125458Y0134857D01*
X0125900Y0135923D01*
X0125900Y0137077D01*
X0125458Y0138143D01*
X0124643Y0138958D01*
X0123577Y0139400D01*
X0122423Y0139400D01*
X0121357Y0138958D01*
X0120541Y0138143D01*
X0120100Y0137077D01*
X0120100Y0135923D01*
X0120541Y0134857D01*
X0121357Y0134041D01*
X0120121Y0135873D02*
X0035241Y0135873D01*
X0036594Y0137472D02*
X0074857Y0137472D01*
X0072798Y0139070D02*
X0037410Y0139070D01*
X0037894Y0140669D02*
X0072150Y0140669D01*
X0078143Y0137472D02*
X0120264Y0137472D01*
X0121628Y0139070D02*
X0080202Y0139070D01*
X0080850Y0140669D02*
X0133730Y0140669D01*
X0133541Y0140857D02*
X0134357Y0140041D01*
X0135423Y0139600D01*
X0136577Y0139600D01*
X0137643Y0140041D01*
X0138458Y0140857D01*
X0138900Y0141923D01*
X0138900Y0143077D01*
X0138458Y0144143D01*
X0137643Y0144958D01*
X0136577Y0145400D01*
X0135423Y0145400D01*
X0134357Y0144958D01*
X0133541Y0144143D01*
X0133100Y0143077D01*
X0133100Y0141923D01*
X0133541Y0140857D01*
X0133100Y0142268D02*
X0080850Y0142268D01*
X0080228Y0143866D02*
X0133427Y0143866D01*
X0138573Y0143866D02*
X0209841Y0143866D01*
X0211159Y0143866D02*
X0214341Y0143866D01*
X0215659Y0143866D02*
X0361265Y0143866D01*
X0361041Y0143643D02*
X0360600Y0142577D01*
X0360600Y0141423D01*
X0361041Y0140357D01*
X0361857Y0139541D01*
X0362923Y0139100D01*
X0364077Y0139100D01*
X0365143Y0139541D01*
X0365958Y0140357D01*
X0366400Y0141423D01*
X0366400Y0142577D01*
X0365958Y0143643D01*
X0365143Y0144458D01*
X0364077Y0144900D01*
X0362923Y0144900D01*
X0361857Y0144458D01*
X0361041Y0143643D01*
X0360600Y0142268D02*
X0217614Y0142268D01*
X0217900Y0140669D02*
X0360912Y0140669D01*
X0366088Y0140669D02*
X0410200Y0140669D01*
X0410200Y0142268D02*
X0366400Y0142268D01*
X0365735Y0143866D02*
X0410200Y0143866D01*
X0410200Y0139070D02*
X0217172Y0139070D01*
X0217900Y0137472D02*
X0410200Y0137472D01*
X0410200Y0151859D02*
X0350960Y0151859D01*
X0350643Y0151541D02*
X0351458Y0152357D01*
X0351900Y0153423D01*
X0351900Y0154577D01*
X0351458Y0155643D01*
X0350643Y0156458D01*
X0349577Y0156900D01*
X0348423Y0156900D01*
X0347357Y0156458D01*
X0346541Y0155643D01*
X0346100Y0154577D01*
X0346100Y0153423D01*
X0346541Y0152357D01*
X0347357Y0151541D01*
X0348423Y0151100D01*
X0349577Y0151100D01*
X0350643Y0151541D01*
X0351900Y0153457D02*
X0410200Y0153457D01*
X0410200Y0155056D02*
X0351702Y0155056D01*
X0350170Y0156654D02*
X0410200Y0156654D01*
X0410200Y0158253D02*
X0080482Y0158253D01*
X0080188Y0158964D02*
X0078964Y0160188D01*
X0077365Y0160850D01*
X0075635Y0160850D01*
X0074036Y0160188D01*
X0072812Y0158964D01*
X0072150Y0157365D01*
X0072150Y0155635D01*
X0072812Y0154036D01*
X0074036Y0152812D01*
X0075635Y0152150D01*
X0077365Y0152150D01*
X0078964Y0152812D01*
X0080188Y0154036D01*
X0080850Y0155635D01*
X0080850Y0157365D01*
X0080188Y0158964D01*
X0079301Y0159851D02*
X0410200Y0159851D01*
X0410200Y0161450D02*
X0322497Y0161450D01*
X0322458Y0161357D02*
X0322900Y0162423D01*
X0322900Y0163577D01*
X0322458Y0164643D01*
X0321643Y0165458D01*
X0320577Y0165900D01*
X0319423Y0165900D01*
X0318357Y0165458D01*
X0317541Y0164643D01*
X0317100Y0163577D01*
X0317100Y0162423D01*
X0317541Y0161357D01*
X0318357Y0160541D01*
X0319423Y0160100D01*
X0320577Y0160100D01*
X0321643Y0160541D01*
X0322458Y0161357D01*
X0322900Y0163048D02*
X0410200Y0163048D01*
X0410200Y0164647D02*
X0341748Y0164647D01*
X0341958Y0164857D02*
X0342400Y0165923D01*
X0342400Y0167077D01*
X0341958Y0168143D01*
X0341143Y0168958D01*
X0340077Y0169400D01*
X0338923Y0169400D01*
X0337857Y0168958D01*
X0337041Y0168143D01*
X0336600Y0167077D01*
X0336600Y0165923D01*
X0337041Y0164857D01*
X0337857Y0164041D01*
X0338923Y0163600D01*
X0340077Y0163600D01*
X0341143Y0164041D01*
X0341958Y0164857D01*
X0342400Y0166245D02*
X0410200Y0166245D01*
X0410200Y0167844D02*
X0406107Y0167844D01*
X0405993Y0167757D02*
X0406900Y0168453D01*
X0407709Y0169261D01*
X0408405Y0170168D01*
X0408976Y0171158D01*
X0409414Y0172214D01*
X0409710Y0173319D01*
X0409829Y0174224D01*
X0401938Y0174224D01*
X0401938Y0175824D01*
X0400338Y0175824D01*
X0400338Y0183715D01*
X0399433Y0183596D01*
X0398328Y0183300D01*
X0397272Y0182862D01*
X0396282Y0182291D01*
X0395375Y0181595D01*
X0394567Y0180786D01*
X0393871Y0179879D01*
X0393299Y0178889D01*
X0392862Y0177833D01*
X0392566Y0176729D01*
X0392447Y0175824D01*
X0400338Y0175824D01*
X0400338Y0174224D01*
X0392447Y0174224D01*
X0392566Y0173319D01*
X0392862Y0172214D01*
X0393299Y0171158D01*
X0393871Y0170168D01*
X0394567Y0169261D01*
X0395375Y0168453D01*
X0396282Y0167757D01*
X0397272Y0167185D01*
X0398328Y0166747D01*
X0399433Y0166452D01*
X0400338Y0166332D01*
X0400338Y0174224D01*
X0401938Y0174224D01*
X0401938Y0166332D01*
X0402843Y0166452D01*
X0403947Y0166747D01*
X0405003Y0167185D01*
X0405993Y0167757D01*
X0407848Y0169442D02*
X0410200Y0169442D01*
X0410200Y0171041D02*
X0408909Y0171041D01*
X0409528Y0172639D02*
X0410200Y0172639D01*
X0410200Y0174238D02*
X0401938Y0174238D01*
X0401938Y0175824D02*
X0409829Y0175824D01*
X0409710Y0176729D01*
X0409414Y0177833D01*
X0408976Y0178889D01*
X0408405Y0179879D01*
X0407709Y0180786D01*
X0406900Y0181595D01*
X0405993Y0182291D01*
X0405003Y0182862D01*
X0403947Y0183300D01*
X0402843Y0183596D01*
X0401938Y0183715D01*
X0401938Y0175824D01*
X0401938Y0175836D02*
X0400338Y0175836D01*
X0400338Y0174238D02*
X0384053Y0174238D01*
X0384053Y0174115D02*
X0383357Y0172436D01*
X0382072Y0171151D01*
X0380393Y0170455D01*
X0378576Y0170455D01*
X0376896Y0171151D01*
X0375611Y0172436D01*
X0374916Y0174115D01*
X0374916Y0175932D01*
X0375611Y0177611D01*
X0376896Y0178897D01*
X0378576Y0179592D01*
X0380393Y0179592D01*
X0382072Y0178897D01*
X0383357Y0177611D01*
X0384053Y0175932D01*
X0384053Y0174115D01*
X0383441Y0172639D02*
X0392748Y0172639D01*
X0393367Y0171041D02*
X0381807Y0171041D01*
X0377162Y0171041D02*
X0372115Y0171041D01*
X0371983Y0170945D02*
X0372591Y0171386D01*
X0373121Y0171917D01*
X0373563Y0172524D01*
X0373903Y0173193D01*
X0374135Y0173907D01*
X0374253Y0174648D01*
X0374253Y0174839D01*
X0369669Y0174839D01*
X0369669Y0175208D01*
X0374253Y0175208D01*
X0374253Y0175399D01*
X0374135Y0176140D01*
X0373903Y0176854D01*
X0373563Y0177523D01*
X0373121Y0178130D01*
X0372591Y0178661D01*
X0371983Y0179102D01*
X0371315Y0179443D01*
X0370601Y0179675D01*
X0369860Y0179792D01*
X0369669Y0179792D01*
X0369669Y0175208D01*
X0369300Y0175208D01*
X0369300Y0179792D01*
X0369109Y0179792D01*
X0368368Y0179675D01*
X0367654Y0179443D01*
X0366985Y0179102D01*
X0366378Y0178661D01*
X0365847Y0178130D01*
X0365406Y0177523D01*
X0365065Y0176854D01*
X0364833Y0176140D01*
X0364716Y0175399D01*
X0364716Y0175208D01*
X0369300Y0175208D01*
X0369300Y0174839D01*
X0369669Y0174839D01*
X0369669Y0170255D01*
X0369860Y0170255D01*
X0370601Y0170373D01*
X0371315Y0170604D01*
X0371983Y0170945D01*
X0369669Y0171041D02*
X0369300Y0171041D01*
X0369300Y0170255D02*
X0369300Y0174839D01*
X0364716Y0174839D01*
X0364716Y0174648D01*
X0364833Y0173907D01*
X0365065Y0173193D01*
X0365406Y0172524D01*
X0365847Y0171917D01*
X0366378Y0171386D01*
X0366985Y0170945D01*
X0367654Y0170604D01*
X0368368Y0170373D01*
X0369109Y0170255D01*
X0369300Y0170255D01*
X0369300Y0172639D02*
X0369669Y0172639D01*
X0369669Y0174238D02*
X0369300Y0174238D01*
X0369300Y0175836D02*
X0369669Y0175836D01*
X0369669Y0177435D02*
X0369300Y0177435D01*
X0369300Y0179033D02*
X0369669Y0179033D01*
X0372078Y0179033D02*
X0377226Y0179033D01*
X0375538Y0177435D02*
X0373608Y0177435D01*
X0374183Y0175836D02*
X0374916Y0175836D01*
X0374916Y0174238D02*
X0374188Y0174238D01*
X0373621Y0172639D02*
X0375527Y0172639D01*
X0366854Y0171041D02*
X0361807Y0171041D01*
X0362072Y0171151D02*
X0363357Y0172436D01*
X0364053Y0174115D01*
X0364053Y0175932D01*
X0363357Y0177611D01*
X0362072Y0178897D01*
X0360393Y0179592D01*
X0358576Y0179592D01*
X0356896Y0178897D01*
X0355611Y0177611D01*
X0354916Y0175932D01*
X0354916Y0174115D01*
X0355611Y0172436D01*
X0356896Y0171151D01*
X0358576Y0170455D01*
X0360393Y0170455D01*
X0362072Y0171151D01*
X0363441Y0172639D02*
X0365347Y0172639D01*
X0364781Y0174238D02*
X0364053Y0174238D01*
X0364053Y0175836D02*
X0364785Y0175836D01*
X0365361Y0177435D02*
X0363430Y0177435D01*
X0361742Y0179033D02*
X0366890Y0179033D01*
X0357226Y0179033D02*
X0341742Y0179033D01*
X0342072Y0178897D02*
X0340393Y0179592D01*
X0338576Y0179592D01*
X0336896Y0178897D01*
X0335611Y0177611D01*
X0334916Y0175932D01*
X0334916Y0174115D01*
X0335611Y0172436D01*
X0336896Y0171151D01*
X0338576Y0170455D01*
X0340393Y0170455D01*
X0342072Y0171151D01*
X0343357Y0172436D01*
X0344053Y0174115D01*
X0344053Y0175932D01*
X0343357Y0177611D01*
X0342072Y0178897D01*
X0343430Y0177435D02*
X0355538Y0177435D01*
X0354916Y0175836D02*
X0344053Y0175836D01*
X0344053Y0174238D02*
X0354916Y0174238D01*
X0355527Y0172639D02*
X0343441Y0172639D01*
X0341807Y0171041D02*
X0357162Y0171041D01*
X0342082Y0167844D02*
X0396169Y0167844D01*
X0394428Y0169442D02*
X0270543Y0169442D01*
X0270143Y0169041D02*
X0270958Y0169857D01*
X0271400Y0170923D01*
X0271400Y0172077D01*
X0270958Y0173143D01*
X0270143Y0173958D01*
X0269077Y0174400D01*
X0267923Y0174400D01*
X0266857Y0173958D01*
X0266041Y0173143D01*
X0265600Y0172077D01*
X0265600Y0170923D01*
X0266041Y0169857D01*
X0266857Y0169041D01*
X0267923Y0168600D01*
X0269077Y0168600D01*
X0270143Y0169041D01*
X0271400Y0171041D02*
X0287162Y0171041D01*
X0286896Y0171151D02*
X0288576Y0170455D01*
X0290393Y0170455D01*
X0292072Y0171151D01*
X0293357Y0172436D01*
X0294053Y0174115D01*
X0294053Y0175932D01*
X0293357Y0177611D01*
X0292072Y0178897D01*
X0290393Y0179592D01*
X0288576Y0179592D01*
X0286896Y0178897D01*
X0285611Y0177611D01*
X0284916Y0175932D01*
X0284916Y0174115D01*
X0285611Y0172436D01*
X0286896Y0171151D01*
X0285527Y0172639D02*
X0271167Y0172639D01*
X0269469Y0174238D02*
X0284916Y0174238D01*
X0284916Y0175836D02*
X0259585Y0175836D01*
X0259458Y0176143D02*
X0258643Y0176958D01*
X0257577Y0177400D01*
X0256423Y0177400D01*
X0255357Y0176958D01*
X0254541Y0176143D01*
X0254100Y0175077D01*
X0254100Y0173923D01*
X0254541Y0172857D01*
X0255357Y0172041D01*
X0256423Y0171600D01*
X0257577Y0171600D01*
X0258643Y0172041D01*
X0259458Y0172857D01*
X0259900Y0173923D01*
X0259900Y0175077D01*
X0259458Y0176143D01*
X0259900Y0174238D02*
X0267531Y0174238D01*
X0265833Y0172639D02*
X0259240Y0172639D01*
X0254760Y0172639D02*
X0114252Y0172639D01*
X0114138Y0172214D02*
X0114434Y0173319D01*
X0114553Y0174224D01*
X0106662Y0174224D01*
X0106662Y0175824D01*
X0105062Y0175824D01*
X0105062Y0183715D01*
X0104157Y0183596D01*
X0103053Y0183300D01*
X0101997Y0182862D01*
X0101007Y0182291D01*
X0100100Y0181595D01*
X0099291Y0180786D01*
X0098595Y0179879D01*
X0098024Y0178889D01*
X0097586Y0177833D01*
X0097290Y0176729D01*
X0097171Y0175824D01*
X0105062Y0175824D01*
X0105062Y0174224D01*
X0097171Y0174224D01*
X0097290Y0173319D01*
X0097586Y0172214D01*
X0098024Y0171158D01*
X0098595Y0170168D01*
X0099291Y0169261D01*
X0100100Y0168453D01*
X0101007Y0167757D01*
X0101997Y0167185D01*
X0103053Y0166747D01*
X0104157Y0166452D01*
X0105062Y0166332D01*
X0105062Y0174224D01*
X0106662Y0174224D01*
X0106662Y0166332D01*
X0107567Y0166452D01*
X0108672Y0166747D01*
X0109728Y0167185D01*
X0110718Y0167757D01*
X0111625Y0168453D01*
X0112433Y0169261D01*
X0113129Y0170168D01*
X0113701Y0171158D01*
X0114138Y0172214D01*
X0113633Y0171041D02*
X0265600Y0171041D01*
X0266457Y0169442D02*
X0112572Y0169442D01*
X0110831Y0167844D02*
X0248242Y0167844D01*
X0248041Y0167643D02*
X0247600Y0166577D01*
X0247600Y0165423D01*
X0248041Y0164357D01*
X0248857Y0163541D01*
X0249923Y0163100D01*
X0251077Y0163100D01*
X0252143Y0163541D01*
X0252958Y0164357D01*
X0253400Y0165423D01*
X0253400Y0166577D01*
X0252958Y0167643D01*
X0252143Y0168458D01*
X0251077Y0168900D01*
X0249923Y0168900D01*
X0248857Y0168458D01*
X0248041Y0167643D01*
X0247600Y0166245D02*
X0004800Y0166245D01*
X0004800Y0164647D02*
X0247922Y0164647D01*
X0253078Y0164647D02*
X0300252Y0164647D01*
X0300041Y0164857D02*
X0300857Y0164041D01*
X0301923Y0163600D01*
X0303077Y0163600D01*
X0304143Y0164041D01*
X0304958Y0164857D01*
X0305400Y0165923D01*
X0305400Y0167077D01*
X0304958Y0168143D01*
X0304143Y0168958D01*
X0303077Y0169400D01*
X0301923Y0169400D01*
X0300857Y0168958D01*
X0300041Y0168143D01*
X0299600Y0167077D01*
X0299600Y0165923D01*
X0300041Y0164857D01*
X0299600Y0166245D02*
X0253400Y0166245D01*
X0252758Y0167844D02*
X0299918Y0167844D01*
X0299860Y0170255D02*
X0300601Y0170373D01*
X0301315Y0170604D01*
X0301983Y0170945D01*
X0302591Y0171386D01*
X0303121Y0171917D01*
X0303563Y0172524D01*
X0303903Y0173193D01*
X0304135Y0173907D01*
X0304253Y0174648D01*
X0304253Y0174839D01*
X0299669Y0174839D01*
X0299669Y0175208D01*
X0304253Y0175208D01*
X0304253Y0175399D01*
X0304135Y0176140D01*
X0303903Y0176854D01*
X0303563Y0177523D01*
X0303121Y0178130D01*
X0302591Y0178661D01*
X0301983Y0179102D01*
X0301315Y0179443D01*
X0300601Y0179675D01*
X0299860Y0179792D01*
X0299669Y0179792D01*
X0299669Y0175208D01*
X0299300Y0175208D01*
X0299300Y0179792D01*
X0299109Y0179792D01*
X0298368Y0179675D01*
X0297654Y0179443D01*
X0296985Y0179102D01*
X0296378Y0178661D01*
X0295847Y0178130D01*
X0295406Y0177523D01*
X0295065Y0176854D01*
X0294833Y0176140D01*
X0294716Y0175399D01*
X0294716Y0175208D01*
X0299300Y0175208D01*
X0299300Y0174839D01*
X0299669Y0174839D01*
X0299669Y0170255D01*
X0299860Y0170255D01*
X0299300Y0170255D02*
X0299300Y0174839D01*
X0294716Y0174839D01*
X0294716Y0174648D01*
X0294833Y0173907D01*
X0295065Y0173193D01*
X0295406Y0172524D01*
X0295847Y0171917D01*
X0296378Y0171386D01*
X0296985Y0170945D01*
X0297654Y0170604D01*
X0298368Y0170373D01*
X0299109Y0170255D01*
X0299300Y0170255D01*
X0299300Y0171041D02*
X0299669Y0171041D01*
X0299669Y0172639D02*
X0299300Y0172639D01*
X0299300Y0174238D02*
X0299669Y0174238D01*
X0299669Y0175836D02*
X0299300Y0175836D01*
X0299300Y0177435D02*
X0299669Y0177435D01*
X0299669Y0179033D02*
X0299300Y0179033D01*
X0296890Y0179033D02*
X0291742Y0179033D01*
X0293430Y0177435D02*
X0295361Y0177435D01*
X0294785Y0175836D02*
X0294053Y0175836D01*
X0294053Y0174238D02*
X0294781Y0174238D01*
X0295347Y0172639D02*
X0293441Y0172639D01*
X0291807Y0171041D02*
X0296854Y0171041D01*
X0302115Y0171041D02*
X0307162Y0171041D01*
X0306896Y0171151D02*
X0308576Y0170455D01*
X0310393Y0170455D01*
X0312072Y0171151D01*
X0313357Y0172436D01*
X0314053Y0174115D01*
X0314053Y0175932D01*
X0313357Y0177611D01*
X0312072Y0178897D01*
X0310393Y0179592D01*
X0308576Y0179592D01*
X0306896Y0178897D01*
X0305611Y0177611D01*
X0304916Y0175932D01*
X0304916Y0174115D01*
X0305611Y0172436D01*
X0306896Y0171151D01*
X0305527Y0172639D02*
X0303621Y0172639D01*
X0304188Y0174238D02*
X0304916Y0174238D01*
X0304916Y0175836D02*
X0304183Y0175836D01*
X0303608Y0177435D02*
X0305538Y0177435D01*
X0307226Y0179033D02*
X0302078Y0179033D01*
X0311742Y0179033D02*
X0317226Y0179033D01*
X0316896Y0178897D02*
X0315611Y0177611D01*
X0314916Y0175932D01*
X0314916Y0174115D01*
X0315611Y0172436D01*
X0316896Y0171151D01*
X0318576Y0170455D01*
X0320393Y0170455D01*
X0322072Y0171151D01*
X0323357Y0172436D01*
X0324053Y0174115D01*
X0324053Y0175932D01*
X0323357Y0177611D01*
X0322072Y0178897D01*
X0320393Y0179592D01*
X0318576Y0179592D01*
X0316896Y0178897D01*
X0315538Y0177435D02*
X0313430Y0177435D01*
X0314053Y0175836D02*
X0314916Y0175836D01*
X0314916Y0174238D02*
X0314053Y0174238D01*
X0313441Y0172639D02*
X0315527Y0172639D01*
X0317162Y0171041D02*
X0311807Y0171041D01*
X0310077Y0165900D02*
X0308923Y0165900D01*
X0307857Y0165458D01*
X0307041Y0164643D01*
X0306600Y0163577D01*
X0306600Y0162423D01*
X0307041Y0161357D01*
X0307857Y0160541D01*
X0308923Y0160100D01*
X0310077Y0160100D01*
X0311143Y0160541D01*
X0311958Y0161357D01*
X0312400Y0162423D01*
X0312400Y0163577D01*
X0311958Y0164643D01*
X0311143Y0165458D01*
X0310077Y0165900D01*
X0311955Y0164647D02*
X0317545Y0164647D01*
X0317100Y0163048D02*
X0312400Y0163048D01*
X0311997Y0161450D02*
X0317503Y0161450D01*
X0322455Y0164647D02*
X0337252Y0164647D01*
X0336600Y0166245D02*
X0305400Y0166245D01*
X0305082Y0167844D02*
X0336918Y0167844D01*
X0337162Y0171041D02*
X0331807Y0171041D01*
X0332072Y0171151D02*
X0333357Y0172436D01*
X0334053Y0174115D01*
X0334053Y0175932D01*
X0333357Y0177611D01*
X0332072Y0178897D01*
X0330393Y0179592D01*
X0328576Y0179592D01*
X0326896Y0178897D01*
X0325611Y0177611D01*
X0324916Y0175932D01*
X0324916Y0174115D01*
X0325611Y0172436D01*
X0326896Y0171151D01*
X0328576Y0170455D01*
X0330393Y0170455D01*
X0332072Y0171151D01*
X0333441Y0172639D02*
X0335527Y0172639D01*
X0334916Y0174238D02*
X0334053Y0174238D01*
X0334053Y0175836D02*
X0334916Y0175836D01*
X0335538Y0177435D02*
X0333430Y0177435D01*
X0331742Y0179033D02*
X0337226Y0179033D01*
X0327226Y0179033D02*
X0321742Y0179033D01*
X0323430Y0177435D02*
X0325538Y0177435D01*
X0324916Y0175836D02*
X0324053Y0175836D01*
X0324053Y0174238D02*
X0324916Y0174238D01*
X0325527Y0172639D02*
X0323441Y0172639D01*
X0321807Y0171041D02*
X0327162Y0171041D01*
X0307045Y0164647D02*
X0304748Y0164647D01*
X0306600Y0163048D02*
X0004800Y0163048D01*
X0004800Y0161450D02*
X0307003Y0161450D01*
X0287226Y0179033D02*
X0113618Y0179033D01*
X0113701Y0178889D02*
X0113129Y0179879D01*
X0112433Y0180786D01*
X0111625Y0181595D01*
X0110718Y0182291D01*
X0109728Y0182862D01*
X0108672Y0183300D01*
X0107567Y0183596D01*
X0106662Y0183715D01*
X0106662Y0175824D01*
X0114553Y0175824D01*
X0114434Y0176729D01*
X0114138Y0177833D01*
X0113701Y0178889D01*
X0114245Y0177435D02*
X0285538Y0177435D01*
X0273458Y0182857D02*
X0273900Y0183923D01*
X0273900Y0185077D01*
X0273458Y0186143D01*
X0272643Y0186958D01*
X0271577Y0187400D01*
X0270423Y0187400D01*
X0269357Y0186958D01*
X0268541Y0186143D01*
X0268371Y0185730D01*
X0268143Y0185958D01*
X0267077Y0186400D01*
X0265923Y0186400D01*
X0264857Y0185958D01*
X0264041Y0185143D01*
X0263600Y0184077D01*
X0263600Y0182923D01*
X0264041Y0181857D01*
X0264857Y0181041D01*
X0265923Y0180600D01*
X0267077Y0180600D01*
X0268143Y0181041D01*
X0268958Y0181857D01*
X0269129Y0182270D01*
X0269357Y0182041D01*
X0270423Y0181600D01*
X0271577Y0181600D01*
X0272643Y0182041D01*
X0273458Y0182857D01*
X0272832Y0182230D02*
X0396203Y0182230D01*
X0394448Y0180632D02*
X0267154Y0180632D01*
X0265846Y0180632D02*
X0112552Y0180632D01*
X0110797Y0182230D02*
X0263887Y0182230D01*
X0263600Y0183829D02*
X0004800Y0183829D01*
X0004800Y0185427D02*
X0118982Y0185427D01*
X0119461Y0184948D02*
X0120784Y0184400D01*
X0122216Y0184400D01*
X0123539Y0184948D01*
X0124552Y0185961D01*
X0125100Y0187284D01*
X0125100Y0188716D01*
X0124552Y0190039D01*
X0123591Y0191000D01*
X0124552Y0191961D01*
X0125100Y0193284D01*
X0125100Y0194716D01*
X0124552Y0196039D01*
X0123539Y0197052D01*
X0122216Y0197600D01*
X0120784Y0197600D01*
X0119461Y0197052D01*
X0118448Y0196039D01*
X0117900Y0194716D01*
X0117900Y0193284D01*
X0118448Y0191961D01*
X0119409Y0191000D01*
X0118448Y0190039D01*
X0117900Y0188716D01*
X0117900Y0187284D01*
X0118448Y0185961D01*
X0119461Y0184948D01*
X0118007Y0187026D02*
X0004800Y0187026D01*
X0004800Y0188624D02*
X0013370Y0188624D01*
X0013394Y0188600D02*
X0015085Y0187900D01*
X0016915Y0187900D01*
X0018606Y0188600D01*
X0019900Y0189894D01*
X0020600Y0191585D01*
X0020600Y0193415D01*
X0019900Y0195106D01*
X0018606Y0196400D01*
X0016915Y0197100D01*
X0015085Y0197100D01*
X0013394Y0196400D01*
X0012100Y0195106D01*
X0011400Y0193415D01*
X0011400Y0191585D01*
X0012100Y0189894D01*
X0013394Y0188600D01*
X0011964Y0190223D02*
X0004800Y0190223D01*
X0004800Y0191821D02*
X0011400Y0191821D01*
X0011402Y0193420D02*
X0004800Y0193420D01*
X0004800Y0195018D02*
X0012064Y0195018D01*
X0013919Y0196617D02*
X0004800Y0196617D01*
X0004800Y0198215D02*
X0013836Y0198215D01*
X0014157Y0198052D02*
X0014876Y0197818D01*
X0015622Y0197700D01*
X0015800Y0197700D01*
X0015800Y0202300D01*
X0016200Y0202300D01*
X0016200Y0202700D01*
X0020800Y0202700D01*
X0020800Y0202878D01*
X0020682Y0203624D01*
X0020448Y0204343D01*
X0020105Y0205016D01*
X0019661Y0205627D01*
X0019127Y0206161D01*
X0018516Y0206605D01*
X0017843Y0206948D01*
X0017124Y0207182D01*
X0016378Y0207300D01*
X0016200Y0207300D01*
X0016200Y0202700D01*
X0015800Y0202700D01*
X0015800Y0207300D01*
X0015622Y0207300D01*
X0014876Y0207182D01*
X0014157Y0206948D01*
X0013484Y0206605D01*
X0012873Y0206161D01*
X0012339Y0205627D01*
X0011895Y0205016D01*
X0011552Y0204343D01*
X0011318Y0203624D01*
X0011200Y0202878D01*
X0011200Y0202700D01*
X0015800Y0202700D01*
X0015800Y0202300D01*
X0011200Y0202300D01*
X0011200Y0202122D01*
X0011318Y0201376D01*
X0011552Y0200657D01*
X0011895Y0199984D01*
X0012339Y0199373D01*
X0012873Y0198839D01*
X0013484Y0198395D01*
X0014157Y0198052D01*
X0015800Y0198215D02*
X0016200Y0198215D01*
X0016200Y0197700D02*
X0016378Y0197700D01*
X0017124Y0197818D01*
X0017843Y0198052D01*
X0018516Y0198395D01*
X0019127Y0198839D01*
X0019661Y0199373D01*
X0020105Y0199984D01*
X0020448Y0200657D01*
X0020682Y0201376D01*
X0020800Y0202122D01*
X0020800Y0202300D01*
X0016200Y0202300D01*
X0016200Y0197700D01*
X0018164Y0198215D02*
X0264683Y0198215D01*
X0264857Y0198041D02*
X0265923Y0197600D01*
X0267077Y0197600D01*
X0268143Y0198041D01*
X0268958Y0198857D01*
X0269400Y0199923D01*
X0269400Y0201077D01*
X0269102Y0201797D01*
X0269357Y0201541D01*
X0270423Y0201100D01*
X0271577Y0201100D01*
X0272643Y0201541D01*
X0273458Y0202357D01*
X0273900Y0203423D01*
X0273900Y0204577D01*
X0273458Y0205643D01*
X0272643Y0206458D01*
X0271577Y0206900D01*
X0270423Y0206900D01*
X0269357Y0206458D01*
X0268541Y0205643D01*
X0268100Y0204577D01*
X0268100Y0203423D01*
X0268398Y0202703D01*
X0268143Y0202958D01*
X0267077Y0203400D01*
X0265923Y0203400D01*
X0264857Y0202958D01*
X0264041Y0202143D01*
X0263600Y0201077D01*
X0263600Y0199923D01*
X0264041Y0198857D01*
X0264857Y0198041D01*
X0263645Y0199814D02*
X0019982Y0199814D01*
X0020688Y0201412D02*
X0263739Y0201412D01*
X0264984Y0203011D02*
X0020779Y0203011D01*
X0020312Y0204609D02*
X0169430Y0204609D01*
X0169912Y0204127D02*
X0171591Y0203431D01*
X0173409Y0203431D01*
X0175088Y0204127D01*
X0176373Y0205412D01*
X0177068Y0207091D01*
X0177068Y0208909D01*
X0176373Y0210588D01*
X0175088Y0211873D01*
X0173409Y0212568D01*
X0171591Y0212568D01*
X0169912Y0211873D01*
X0168627Y0210588D01*
X0167931Y0208909D01*
X0167931Y0207091D01*
X0168627Y0205412D01*
X0169912Y0204127D01*
X0168297Y0206208D02*
X0019063Y0206208D01*
X0016200Y0206208D02*
X0015800Y0206208D01*
X0015800Y0204609D02*
X0016200Y0204609D01*
X0016200Y0203011D02*
X0015800Y0203011D01*
X0015800Y0201412D02*
X0016200Y0201412D01*
X0016200Y0199814D02*
X0015800Y0199814D01*
X0012018Y0199814D02*
X0004800Y0199814D01*
X0004800Y0201412D02*
X0011312Y0201412D01*
X0011221Y0203011D02*
X0004800Y0203011D01*
X0004800Y0204609D02*
X0011688Y0204609D01*
X0012937Y0206208D02*
X0004800Y0206208D01*
X0004800Y0207806D02*
X0167931Y0207806D01*
X0168137Y0209405D02*
X0004800Y0209405D01*
X0004800Y0211003D02*
X0169043Y0211003D01*
X0169912Y0214127D02*
X0171591Y0213431D01*
X0173409Y0213431D01*
X0175088Y0214127D01*
X0176373Y0215412D01*
X0177068Y0217091D01*
X0177068Y0218909D01*
X0176373Y0220588D01*
X0175088Y0221873D01*
X0173409Y0222568D01*
X0171591Y0222568D01*
X0169912Y0221873D01*
X0168627Y0220588D01*
X0167931Y0218909D01*
X0167931Y0217091D01*
X0168627Y0215412D01*
X0169912Y0214127D01*
X0169839Y0214201D02*
X0004800Y0214201D01*
X0004800Y0215799D02*
X0168467Y0215799D01*
X0167931Y0217398D02*
X0004800Y0217398D01*
X0004800Y0218996D02*
X0167968Y0218996D01*
X0168634Y0220595D02*
X0004800Y0220595D01*
X0004800Y0222193D02*
X0170685Y0222193D01*
X0171383Y0223349D02*
X0172125Y0223231D01*
X0172316Y0223231D01*
X0172316Y0227816D01*
X0172684Y0227816D01*
X0172684Y0223231D01*
X0172875Y0223231D01*
X0173617Y0223349D01*
X0174330Y0223581D01*
X0174999Y0223922D01*
X0175606Y0224363D01*
X0176137Y0224894D01*
X0176578Y0225501D01*
X0176919Y0226170D01*
X0177151Y0226883D01*
X0177268Y0227625D01*
X0177268Y0227816D01*
X0172684Y0227816D01*
X0172684Y0228184D01*
X0177268Y0228184D01*
X0177268Y0228375D01*
X0177151Y0229117D01*
X0176919Y0229830D01*
X0176578Y0230499D01*
X0176137Y0231106D01*
X0175606Y0231637D01*
X0174999Y0232078D01*
X0174330Y0232419D01*
X0173617Y0232651D01*
X0172875Y0232768D01*
X0172684Y0232768D01*
X0172684Y0228184D01*
X0172316Y0228184D01*
X0172316Y0227816D01*
X0167731Y0227816D01*
X0167731Y0227625D01*
X0167849Y0226883D01*
X0168081Y0226170D01*
X0168422Y0225501D01*
X0168863Y0224894D01*
X0169394Y0224363D01*
X0170001Y0223922D01*
X0170670Y0223581D01*
X0171383Y0223349D01*
X0172316Y0223792D02*
X0172684Y0223792D01*
X0172684Y0225390D02*
X0172316Y0225390D01*
X0172316Y0226989D02*
X0172684Y0226989D01*
X0172316Y0228184D02*
X0167731Y0228184D01*
X0167731Y0228375D01*
X0167849Y0229117D01*
X0168081Y0229830D01*
X0168422Y0230499D01*
X0168863Y0231106D01*
X0169394Y0231637D01*
X0170001Y0232078D01*
X0170670Y0232419D01*
X0171383Y0232651D01*
X0172125Y0232768D01*
X0172316Y0232768D01*
X0172316Y0228184D01*
X0172316Y0228587D02*
X0172684Y0228587D01*
X0172684Y0230186D02*
X0172316Y0230186D01*
X0172316Y0231784D02*
X0172684Y0231784D01*
X0173409Y0233431D02*
X0171591Y0233431D01*
X0169912Y0234127D01*
X0168627Y0235412D01*
X0167931Y0237091D01*
X0167931Y0238909D01*
X0168627Y0240588D01*
X0169912Y0241873D01*
X0171591Y0242568D01*
X0173409Y0242568D01*
X0175088Y0241873D01*
X0176373Y0240588D01*
X0177068Y0238909D01*
X0177068Y0237091D01*
X0176373Y0235412D01*
X0175088Y0234127D01*
X0173409Y0233431D01*
X0175404Y0231784D02*
X0193826Y0231784D01*
X0194320Y0231290D02*
X0197162Y0230113D01*
X0200239Y0230113D01*
X0203082Y0231290D01*
X0205257Y0233466D01*
X0206435Y0236308D01*
X0206435Y0239385D01*
X0205257Y0242227D01*
X0203082Y0244403D01*
X0200239Y0245580D01*
X0197162Y0245580D01*
X0194320Y0244403D01*
X0192144Y0242227D01*
X0190967Y0239385D01*
X0190967Y0236308D01*
X0192144Y0233466D01*
X0194320Y0231290D01*
X0196986Y0230186D02*
X0176738Y0230186D01*
X0177235Y0228587D02*
X0223239Y0228587D01*
X0223100Y0228923D02*
X0223541Y0227857D01*
X0224357Y0227041D01*
X0225423Y0226600D01*
X0226577Y0226600D01*
X0227643Y0227041D01*
X0228458Y0227857D01*
X0228900Y0228923D01*
X0228900Y0230077D01*
X0228458Y0231143D01*
X0227643Y0231958D01*
X0226577Y0232400D01*
X0225423Y0232400D01*
X0224357Y0231958D01*
X0223541Y0231143D01*
X0223100Y0230077D01*
X0223100Y0228923D01*
X0223145Y0230186D02*
X0200415Y0230186D01*
X0203576Y0231784D02*
X0224183Y0231784D01*
X0222643Y0232541D02*
X0223458Y0233357D01*
X0223900Y0234423D01*
X0223900Y0235577D01*
X0223458Y0236643D01*
X0222643Y0237458D01*
X0221577Y0237900D01*
X0220423Y0237900D01*
X0219357Y0237458D01*
X0218541Y0236643D01*
X0218100Y0235577D01*
X0218100Y0234423D01*
X0218541Y0233357D01*
X0219357Y0232541D01*
X0220423Y0232100D01*
X0221577Y0232100D01*
X0222643Y0232541D01*
X0223469Y0233383D02*
X0410200Y0233383D01*
X0410200Y0234981D02*
X0223900Y0234981D01*
X0223485Y0236580D02*
X0410200Y0236580D01*
X0410200Y0238178D02*
X0206435Y0238178D01*
X0206435Y0236580D02*
X0218515Y0236580D01*
X0218100Y0234981D02*
X0205885Y0234981D01*
X0205174Y0233383D02*
X0218531Y0233383D01*
X0224485Y0226989D02*
X0177168Y0226989D01*
X0176498Y0225390D02*
X0252088Y0225390D01*
X0251644Y0225134D02*
X0249504Y0222994D01*
X0247991Y0220373D01*
X0247208Y0217450D01*
X0247208Y0214424D01*
X0247991Y0211501D01*
X0249504Y0208880D01*
X0251644Y0206740D01*
X0254265Y0205227D01*
X0257188Y0204444D01*
X0260214Y0204444D01*
X0263137Y0205227D01*
X0265758Y0206740D01*
X0267897Y0208880D01*
X0269410Y0211501D01*
X0270194Y0214424D01*
X0270194Y0217450D01*
X0269410Y0220373D01*
X0267897Y0222994D01*
X0265758Y0225134D01*
X0263137Y0226647D01*
X0260214Y0227430D01*
X0257188Y0227430D01*
X0254265Y0226647D01*
X0251644Y0225134D01*
X0250302Y0223792D02*
X0174744Y0223792D01*
X0174315Y0222193D02*
X0249042Y0222193D01*
X0248119Y0220595D02*
X0176366Y0220595D01*
X0177032Y0218996D02*
X0247622Y0218996D01*
X0247208Y0217398D02*
X0177068Y0217398D01*
X0176533Y0215799D02*
X0247208Y0215799D01*
X0247268Y0214201D02*
X0175161Y0214201D01*
X0175957Y0211003D02*
X0248278Y0211003D01*
X0247696Y0212602D02*
X0004800Y0212602D01*
X0004800Y0223792D02*
X0170256Y0223792D01*
X0168502Y0225390D02*
X0004800Y0225390D01*
X0004800Y0226989D02*
X0167832Y0226989D01*
X0167765Y0228587D02*
X0108000Y0228587D01*
X0108000Y0230186D02*
X0168262Y0230186D01*
X0169596Y0231784D02*
X0108000Y0231784D01*
X0108000Y0233383D02*
X0192227Y0233383D01*
X0191517Y0234981D02*
X0175942Y0234981D01*
X0176857Y0236580D02*
X0190967Y0236580D01*
X0190967Y0238178D02*
X0177068Y0238178D01*
X0176709Y0239777D02*
X0191129Y0239777D01*
X0191791Y0241375D02*
X0175586Y0241375D01*
X0169414Y0241375D02*
X0124931Y0241375D01*
X0125100Y0241784D02*
X0124552Y0240461D01*
X0123841Y0239750D01*
X0124552Y0239039D01*
X0125100Y0237716D01*
X0125100Y0236284D01*
X0124552Y0234961D01*
X0123539Y0233948D01*
X0122216Y0233400D01*
X0120784Y0233400D01*
X0119461Y0233948D01*
X0118448Y0234961D01*
X0117900Y0236284D01*
X0117900Y0237716D01*
X0118448Y0239039D01*
X0119159Y0239750D01*
X0118448Y0240461D01*
X0117900Y0241784D01*
X0117900Y0243216D01*
X0118448Y0244539D01*
X0119461Y0245552D01*
X0120784Y0246100D01*
X0122216Y0246100D01*
X0123539Y0245552D01*
X0124552Y0244539D01*
X0125100Y0243216D01*
X0125100Y0241784D01*
X0125100Y0242974D02*
X0192891Y0242974D01*
X0194729Y0244572D02*
X0124519Y0244572D01*
X0123868Y0239777D02*
X0168291Y0239777D01*
X0167931Y0238178D02*
X0124909Y0238178D01*
X0125100Y0236580D02*
X0168143Y0236580D01*
X0169058Y0234981D02*
X0124560Y0234981D01*
X0118440Y0234981D02*
X0108000Y0234981D01*
X0108000Y0236580D02*
X0117900Y0236580D01*
X0118091Y0238178D02*
X0098000Y0238178D01*
X0098609Y0238178D02*
X0102000Y0238178D01*
X0102000Y0236580D02*
X0029000Y0236580D01*
X0029000Y0238178D02*
X0088891Y0238178D01*
X0088281Y0238431D02*
X0090045Y0237700D01*
X0091955Y0237700D01*
X0093719Y0238431D01*
X0093750Y0238462D01*
X0093781Y0238431D01*
X0095545Y0237700D01*
X0097455Y0237700D01*
X0099219Y0238431D01*
X0100569Y0239781D01*
X0101300Y0241545D01*
X0101300Y0243455D01*
X0100569Y0245219D01*
X0099219Y0246569D01*
X0097455Y0247300D01*
X0095545Y0247300D01*
X0093781Y0246569D01*
X0093750Y0246538D01*
X0093719Y0246569D01*
X0091955Y0247300D01*
X0090045Y0247300D01*
X0088281Y0246569D01*
X0086931Y0245219D01*
X0086200Y0243455D01*
X0086200Y0241545D01*
X0086931Y0239781D01*
X0088281Y0238431D01*
X0086935Y0239777D02*
X0029000Y0239777D01*
X0029000Y0241375D02*
X0086270Y0241375D01*
X0086200Y0242974D02*
X0043676Y0242974D01*
X0044169Y0243178D02*
X0045322Y0244331D01*
X0045946Y0245838D01*
X0045946Y0247469D01*
X0045322Y0248976D01*
X0044169Y0250129D01*
X0042662Y0250754D01*
X0041031Y0250754D01*
X0039524Y0250129D01*
X0038371Y0248976D01*
X0037746Y0247469D01*
X0037746Y0245838D01*
X0038371Y0244331D01*
X0039524Y0243178D01*
X0041031Y0242554D01*
X0042662Y0242554D01*
X0044169Y0243178D01*
X0045422Y0244572D02*
X0086663Y0244572D01*
X0087883Y0246171D02*
X0045946Y0246171D01*
X0045822Y0247769D02*
X0102000Y0247769D01*
X0102000Y0246171D02*
X0099617Y0246171D01*
X0099519Y0244572D02*
X0118481Y0244572D01*
X0117900Y0242974D02*
X0100100Y0242974D01*
X0101300Y0242974D02*
X0102000Y0242974D01*
X0102000Y0244572D02*
X0100837Y0244572D01*
X0101230Y0241375D02*
X0102000Y0241375D01*
X0102000Y0239777D02*
X0100565Y0239777D01*
X0098868Y0239777D02*
X0119132Y0239777D01*
X0118069Y0241375D02*
X0099931Y0241375D01*
X0098000Y0246171D02*
X0155228Y0246171D01*
X0155041Y0246357D02*
X0155857Y0245541D01*
X0156923Y0245100D01*
X0158077Y0245100D01*
X0159143Y0245541D01*
X0159958Y0246357D01*
X0160400Y0247423D01*
X0160400Y0248577D01*
X0159958Y0249643D01*
X0159143Y0250458D01*
X0158077Y0250900D01*
X0156923Y0250900D01*
X0155857Y0250458D01*
X0155041Y0249643D01*
X0154600Y0248577D01*
X0154600Y0247423D01*
X0155041Y0246357D01*
X0154600Y0247769D02*
X0098000Y0247769D01*
X0102000Y0249368D02*
X0044930Y0249368D01*
X0038762Y0249368D02*
X0025717Y0249368D01*
X0025349Y0249000D02*
X0026705Y0250356D01*
X0027550Y0252396D01*
X0027550Y0254604D01*
X0026705Y0256644D01*
X0025144Y0258205D01*
X0023104Y0259050D01*
X0020896Y0259050D01*
X0018856Y0258205D01*
X0017295Y0256644D01*
X0016450Y0254604D01*
X0016450Y0252396D01*
X0017295Y0250356D01*
X0018651Y0249000D01*
X0005000Y0249000D01*
X0005000Y0266108D01*
X0005491Y0264923D01*
X0007671Y0262742D01*
X0010521Y0261562D01*
X0013605Y0261562D01*
X0016455Y0262742D01*
X0018635Y0264923D01*
X0019816Y0267773D01*
X0019816Y0270857D01*
X0018635Y0273707D01*
X0016455Y0275887D01*
X0013605Y0277068D01*
X0010521Y0277068D01*
X0007671Y0275887D01*
X0005491Y0273707D01*
X0005000Y0272522D01*
X0005000Y0305478D01*
X0005491Y0304293D01*
X0007671Y0302113D01*
X0010521Y0300932D01*
X0013605Y0300932D01*
X0016455Y0302113D01*
X0018635Y0304293D01*
X0019816Y0307143D01*
X0019816Y0310227D01*
X0018635Y0313077D01*
X0016455Y0315257D01*
X0013605Y0316438D01*
X0010521Y0316438D01*
X0007671Y0315257D01*
X0005491Y0313077D01*
X0005000Y0311892D01*
X0005000Y0320200D01*
X0064000Y0320200D01*
X0064000Y0271000D01*
X0102000Y0271000D01*
X0102000Y0231000D01*
X0029000Y0231000D01*
X0029000Y0249000D01*
X0025349Y0249000D01*
X0026958Y0250966D02*
X0102000Y0250966D01*
X0102000Y0252565D02*
X0027550Y0252565D01*
X0027550Y0254163D02*
X0102000Y0254163D01*
X0102000Y0255762D02*
X0027070Y0255762D01*
X0025989Y0257360D02*
X0102000Y0257360D01*
X0102000Y0258959D02*
X0023324Y0258959D01*
X0020676Y0258959D02*
X0005000Y0258959D01*
X0005000Y0260557D02*
X0102000Y0260557D01*
X0102000Y0262156D02*
X0015038Y0262156D01*
X0017466Y0263754D02*
X0027920Y0263754D01*
X0027988Y0263687D02*
X0030428Y0262676D01*
X0033069Y0262676D01*
X0035508Y0263687D01*
X0037376Y0265555D01*
X0038387Y0267994D01*
X0038387Y0270635D01*
X0037376Y0273075D01*
X0036215Y0274236D01*
X0037376Y0275397D01*
X0038387Y0277837D01*
X0038387Y0280478D01*
X0037376Y0282918D01*
X0037003Y0283291D01*
X0038320Y0284608D01*
X0039501Y0287458D01*
X0039501Y0290542D01*
X0038320Y0293392D01*
X0037003Y0294709D01*
X0037376Y0295082D01*
X0038387Y0297522D01*
X0038387Y0300163D01*
X0037376Y0302603D01*
X0036215Y0303764D01*
X0037376Y0304925D01*
X0038387Y0307365D01*
X0038387Y0310006D01*
X0037376Y0312445D01*
X0035508Y0314313D01*
X0033069Y0315324D01*
X0030428Y0315324D01*
X0027988Y0314313D01*
X0026120Y0312445D01*
X0025109Y0310006D01*
X0025109Y0307365D01*
X0026120Y0304925D01*
X0027281Y0303764D01*
X0026120Y0302603D01*
X0025109Y0300163D01*
X0025109Y0297522D01*
X0026120Y0295082D01*
X0026493Y0294709D01*
X0025176Y0293392D01*
X0023995Y0290542D01*
X0023995Y0287458D01*
X0025176Y0284608D01*
X0026493Y0283291D01*
X0026120Y0282918D01*
X0025109Y0280478D01*
X0025109Y0277837D01*
X0026120Y0275397D01*
X0027281Y0274236D01*
X0026120Y0273075D01*
X0025109Y0270635D01*
X0025109Y0267994D01*
X0026120Y0265555D01*
X0027988Y0263687D01*
X0026322Y0265353D02*
X0018813Y0265353D01*
X0019475Y0266951D02*
X0025541Y0266951D01*
X0025109Y0268550D02*
X0019816Y0268550D01*
X0019816Y0270148D02*
X0025109Y0270148D01*
X0025570Y0271747D02*
X0019447Y0271747D01*
X0018785Y0273345D02*
X0026390Y0273345D01*
X0026573Y0274944D02*
X0017398Y0274944D01*
X0014873Y0276542D02*
X0025646Y0276542D01*
X0025109Y0278141D02*
X0005000Y0278141D01*
X0005000Y0279739D02*
X0025109Y0279739D01*
X0025466Y0281338D02*
X0005000Y0281338D01*
X0005000Y0282937D02*
X0026139Y0282937D01*
X0025249Y0284535D02*
X0015510Y0284535D01*
X0015736Y0284699D02*
X0016364Y0285327D01*
X0016886Y0286045D01*
X0017288Y0286836D01*
X0017563Y0287680D01*
X0017696Y0288520D01*
X0012543Y0288520D01*
X0012543Y0289480D01*
X0017696Y0289480D01*
X0017563Y0290320D01*
X0017288Y0291164D01*
X0016886Y0291955D01*
X0016364Y0292673D01*
X0015736Y0293301D01*
X0015018Y0293823D01*
X0014227Y0294225D01*
X0013383Y0294500D01*
X0012543Y0294633D01*
X0012543Y0289480D01*
X0011583Y0289480D01*
X0011583Y0294633D01*
X0010743Y0294500D01*
X0009899Y0294225D01*
X0009108Y0293823D01*
X0008390Y0293301D01*
X0007762Y0292673D01*
X0007240Y0291955D01*
X0006838Y0291164D01*
X0006563Y0290320D01*
X0006430Y0289480D01*
X0011583Y0289480D01*
X0011583Y0288520D01*
X0012543Y0288520D01*
X0012543Y0283367D01*
X0013383Y0283500D01*
X0014227Y0283775D01*
X0015018Y0284177D01*
X0015736Y0284699D01*
X0016931Y0286134D02*
X0024544Y0286134D01*
X0023995Y0287732D02*
X0017571Y0287732D01*
X0017365Y0290929D02*
X0024156Y0290929D01*
X0023995Y0289331D02*
X0012543Y0289331D01*
X0011583Y0289331D02*
X0005000Y0289331D01*
X0005000Y0290929D02*
X0006761Y0290929D01*
X0007656Y0292528D02*
X0005000Y0292528D01*
X0005000Y0294126D02*
X0009703Y0294126D01*
X0011583Y0294126D02*
X0012543Y0294126D01*
X0012543Y0292528D02*
X0011583Y0292528D01*
X0011583Y0290929D02*
X0012543Y0290929D01*
X0011583Y0288520D02*
X0006430Y0288520D01*
X0006563Y0287680D01*
X0006838Y0286836D01*
X0007240Y0286045D01*
X0007762Y0285327D01*
X0008390Y0284699D01*
X0009108Y0284177D01*
X0009899Y0283775D01*
X0010743Y0283500D01*
X0011583Y0283367D01*
X0011583Y0288520D01*
X0011583Y0287732D02*
X0012543Y0287732D01*
X0012543Y0286134D02*
X0011583Y0286134D01*
X0011583Y0284535D02*
X0012543Y0284535D01*
X0008616Y0284535D02*
X0005000Y0284535D01*
X0005000Y0286134D02*
X0007195Y0286134D01*
X0006555Y0287732D02*
X0005000Y0287732D01*
X0014423Y0294126D02*
X0025910Y0294126D01*
X0025854Y0295725D02*
X0005000Y0295725D01*
X0005000Y0297323D02*
X0025192Y0297323D01*
X0025109Y0298922D02*
X0005000Y0298922D01*
X0005000Y0300520D02*
X0025257Y0300520D01*
X0025920Y0302119D02*
X0016461Y0302119D01*
X0018059Y0303717D02*
X0027234Y0303717D01*
X0025958Y0305316D02*
X0019059Y0305316D01*
X0019721Y0306914D02*
X0025296Y0306914D01*
X0025109Y0308513D02*
X0019816Y0308513D01*
X0019816Y0310111D02*
X0025153Y0310111D01*
X0025815Y0311710D02*
X0019202Y0311710D01*
X0018404Y0313308D02*
X0026983Y0313308D01*
X0029421Y0314907D02*
X0016805Y0314907D01*
X0007321Y0314907D02*
X0005000Y0314907D01*
X0005000Y0316505D02*
X0053030Y0316505D01*
X0053295Y0317144D02*
X0052450Y0315104D01*
X0052450Y0312896D01*
X0053295Y0310856D01*
X0054856Y0309295D01*
X0056896Y0308450D01*
X0059104Y0308450D01*
X0061144Y0309295D01*
X0062705Y0310856D01*
X0063550Y0312896D01*
X0063550Y0315104D01*
X0062705Y0317144D01*
X0061144Y0318705D01*
X0059104Y0319550D01*
X0056896Y0319550D01*
X0054856Y0318705D01*
X0053295Y0317144D01*
X0054255Y0318104D02*
X0005000Y0318104D01*
X0005000Y0319702D02*
X0064000Y0319702D01*
X0064000Y0318104D02*
X0061745Y0318104D01*
X0062970Y0316505D02*
X0064000Y0316505D01*
X0064000Y0314907D02*
X0063550Y0314907D01*
X0063550Y0313308D02*
X0064000Y0313308D01*
X0064000Y0311710D02*
X0063059Y0311710D01*
X0064000Y0310111D02*
X0061960Y0310111D01*
X0064000Y0308513D02*
X0059255Y0308513D01*
X0056745Y0308513D02*
X0038387Y0308513D01*
X0038343Y0310111D02*
X0054040Y0310111D01*
X0052941Y0311710D02*
X0037681Y0311710D01*
X0036513Y0313308D02*
X0052450Y0313308D01*
X0052450Y0314907D02*
X0034075Y0314907D01*
X0038200Y0306914D02*
X0064000Y0306914D01*
X0064000Y0305316D02*
X0037538Y0305316D01*
X0036262Y0303717D02*
X0064000Y0303717D01*
X0064000Y0302119D02*
X0037577Y0302119D01*
X0038239Y0300520D02*
X0064000Y0300520D01*
X0064000Y0298922D02*
X0038387Y0298922D01*
X0038304Y0297323D02*
X0064000Y0297323D01*
X0064000Y0295725D02*
X0037642Y0295725D01*
X0037586Y0294126D02*
X0064000Y0294126D01*
X0064000Y0292528D02*
X0038678Y0292528D01*
X0039341Y0290929D02*
X0064000Y0290929D01*
X0064000Y0289331D02*
X0039501Y0289331D01*
X0039501Y0287732D02*
X0064000Y0287732D01*
X0064000Y0286134D02*
X0038952Y0286134D01*
X0038247Y0284535D02*
X0064000Y0284535D01*
X0064000Y0282937D02*
X0037357Y0282937D01*
X0038030Y0281338D02*
X0064000Y0281338D01*
X0064000Y0279739D02*
X0038387Y0279739D01*
X0038387Y0278141D02*
X0064000Y0278141D01*
X0064000Y0276542D02*
X0037850Y0276542D01*
X0036923Y0274944D02*
X0064000Y0274944D01*
X0064000Y0273345D02*
X0037106Y0273345D01*
X0037926Y0271747D02*
X0064000Y0271747D01*
X0077900Y0276542D02*
X0387856Y0276542D01*
X0387857Y0276541D02*
X0388923Y0276100D01*
X0390077Y0276100D01*
X0391143Y0276541D01*
X0391958Y0277357D01*
X0392400Y0278423D01*
X0392400Y0279577D01*
X0391958Y0280643D01*
X0391143Y0281458D01*
X0390077Y0281900D01*
X0388923Y0281900D01*
X0387857Y0281458D01*
X0387041Y0280643D01*
X0386600Y0279577D01*
X0386600Y0278423D01*
X0387041Y0277357D01*
X0387857Y0276541D01*
X0386717Y0278141D02*
X0077459Y0278141D01*
X0077900Y0279739D02*
X0386667Y0279739D01*
X0387737Y0281338D02*
X0203252Y0281338D01*
X0203118Y0281236D02*
X0203943Y0281869D01*
X0204679Y0282604D01*
X0205312Y0283429D01*
X0205832Y0284330D01*
X0206230Y0285291D01*
X0206499Y0286295D01*
X0206598Y0287046D01*
X0199501Y0287046D01*
X0199501Y0279949D01*
X0200252Y0280048D01*
X0201257Y0280318D01*
X0202217Y0280716D01*
X0203118Y0281236D01*
X0204934Y0282937D02*
X0410200Y0282937D01*
X0410200Y0284535D02*
X0205917Y0284535D01*
X0206456Y0286134D02*
X0322265Y0286134D01*
X0322041Y0286357D02*
X0322857Y0285541D01*
X0323923Y0285100D01*
X0325077Y0285100D01*
X0326143Y0285541D01*
X0326958Y0286357D01*
X0327400Y0287423D01*
X0327400Y0288577D01*
X0326958Y0289643D01*
X0326143Y0290458D01*
X0325077Y0290900D01*
X0323923Y0290900D01*
X0322857Y0290458D01*
X0322041Y0289643D01*
X0321600Y0288577D01*
X0321600Y0287423D01*
X0322041Y0286357D01*
X0321600Y0287732D02*
X0199501Y0287732D01*
X0199501Y0287046D02*
X0199501Y0288646D01*
X0206598Y0288646D01*
X0206499Y0289398D01*
X0206230Y0290402D01*
X0205832Y0291363D01*
X0205312Y0292264D01*
X0204679Y0293089D01*
X0203943Y0293824D01*
X0203118Y0294457D01*
X0202217Y0294977D01*
X0201257Y0295375D01*
X0200252Y0295645D01*
X0199501Y0295743D01*
X0199501Y0288647D01*
X0197901Y0288647D01*
X0197901Y0295743D01*
X0197150Y0295645D01*
X0196145Y0295375D01*
X0195184Y0294977D01*
X0194284Y0294457D01*
X0193458Y0293824D01*
X0192723Y0293089D01*
X0192090Y0292264D01*
X0191570Y0291363D01*
X0191172Y0290402D01*
X0190903Y0289398D01*
X0190804Y0288646D01*
X0197901Y0288646D01*
X0197901Y0287046D01*
X0199501Y0287046D01*
X0199501Y0286134D02*
X0197901Y0286134D01*
X0197901Y0287046D02*
X0197901Y0279949D01*
X0197150Y0280048D01*
X0196145Y0280318D01*
X0195184Y0280716D01*
X0194284Y0281236D01*
X0193458Y0281869D01*
X0192723Y0282604D01*
X0192090Y0283429D01*
X0191570Y0284330D01*
X0191172Y0285291D01*
X0190903Y0286295D01*
X0190804Y0287046D01*
X0197901Y0287046D01*
X0197901Y0287732D02*
X0105821Y0287732D01*
X0105900Y0287923D02*
X0105458Y0286857D01*
X0104643Y0286041D01*
X0103577Y0285600D01*
X0102423Y0285600D01*
X0101357Y0286041D01*
X0100541Y0286857D01*
X0100100Y0287923D01*
X0100100Y0289077D01*
X0100541Y0290143D01*
X0101357Y0290958D01*
X0102423Y0291400D01*
X0103577Y0291400D01*
X0104643Y0290958D01*
X0105458Y0290143D01*
X0105900Y0289077D01*
X0105900Y0287923D01*
X0105795Y0289331D02*
X0190894Y0289331D01*
X0191390Y0290929D02*
X0104672Y0290929D01*
X0101328Y0290929D02*
X0090695Y0290929D01*
X0090900Y0291423D02*
X0090458Y0290357D01*
X0089643Y0289541D01*
X0088577Y0289100D01*
X0087423Y0289100D01*
X0086357Y0289541D01*
X0085541Y0290357D01*
X0085100Y0291423D01*
X0085100Y0292577D01*
X0085541Y0293643D01*
X0086357Y0294458D01*
X0087423Y0294900D01*
X0088577Y0294900D01*
X0089643Y0294458D01*
X0090458Y0293643D01*
X0090900Y0292577D01*
X0090900Y0291423D01*
X0090900Y0292528D02*
X0192292Y0292528D01*
X0193852Y0294126D02*
X0089975Y0294126D01*
X0086025Y0294126D02*
X0069000Y0294126D01*
X0069000Y0292528D02*
X0085100Y0292528D01*
X0085305Y0290929D02*
X0069000Y0290929D01*
X0069000Y0289331D02*
X0086867Y0289331D01*
X0089133Y0289331D02*
X0100205Y0289331D01*
X0100179Y0287732D02*
X0069000Y0287732D01*
X0069000Y0286134D02*
X0101265Y0286134D01*
X0104735Y0286134D02*
X0190946Y0286134D01*
X0191485Y0284535D02*
X0069000Y0284535D01*
X0069000Y0282937D02*
X0192468Y0282937D01*
X0194150Y0281338D02*
X0077585Y0281338D01*
X0069000Y0295725D02*
X0197758Y0295725D01*
X0197901Y0295725D02*
X0199501Y0295725D01*
X0199644Y0295725D02*
X0223100Y0295725D01*
X0223100Y0296077D02*
X0223100Y0294923D01*
X0223541Y0293857D01*
X0224357Y0293041D01*
X0225423Y0292600D01*
X0226577Y0292600D01*
X0227643Y0293041D01*
X0228458Y0293857D01*
X0228900Y0294923D01*
X0228900Y0296077D01*
X0228458Y0297143D01*
X0227643Y0297958D01*
X0226577Y0298400D01*
X0225423Y0298400D01*
X0224357Y0297958D01*
X0223541Y0297143D01*
X0223100Y0296077D01*
X0223722Y0297323D02*
X0069000Y0297323D01*
X0069000Y0298922D02*
X0254730Y0298922D01*
X0251712Y0300520D02*
X0069000Y0300520D01*
X0069000Y0302119D02*
X0250085Y0302119D01*
X0248916Y0303717D02*
X0221860Y0303717D01*
X0221577Y0303600D02*
X0222643Y0304041D01*
X0223458Y0304857D01*
X0223900Y0305923D01*
X0223900Y0307077D01*
X0223458Y0308143D01*
X0222643Y0308958D01*
X0221577Y0309400D01*
X0220423Y0309400D01*
X0219357Y0308958D01*
X0218541Y0308143D01*
X0218100Y0307077D01*
X0218100Y0305923D01*
X0218541Y0304857D01*
X0219357Y0304041D01*
X0220423Y0303600D01*
X0221577Y0303600D01*
X0220140Y0303717D02*
X0069000Y0303717D01*
X0069000Y0305316D02*
X0218352Y0305316D01*
X0218100Y0306914D02*
X0069000Y0306914D01*
X0069000Y0308513D02*
X0138916Y0308513D01*
X0140700Y0308513D02*
X0142300Y0308513D01*
X0142300Y0310111D02*
X0140700Y0310111D01*
X0140700Y0311710D02*
X0142300Y0311710D01*
X0142300Y0313308D02*
X0140700Y0313308D01*
X0140700Y0314907D02*
X0122333Y0314907D01*
X0122350Y0314865D02*
X0121688Y0316464D01*
X0120464Y0317688D01*
X0118865Y0318350D01*
X0117135Y0318350D01*
X0115536Y0317688D01*
X0114312Y0316464D01*
X0113650Y0314865D01*
X0113650Y0313135D01*
X0114312Y0311536D01*
X0115536Y0310312D01*
X0117135Y0309650D01*
X0118865Y0309650D01*
X0120464Y0310312D01*
X0121688Y0311536D01*
X0122350Y0313135D01*
X0122350Y0314865D01*
X0122350Y0313308D02*
X0134516Y0313308D01*
X0135189Y0311710D02*
X0121760Y0311710D01*
X0119979Y0310111D02*
X0136421Y0310111D01*
X0144084Y0308513D02*
X0158916Y0308513D01*
X0160700Y0308513D02*
X0162300Y0308513D01*
X0162300Y0310111D02*
X0160700Y0310111D01*
X0160700Y0311710D02*
X0162300Y0311710D01*
X0162300Y0313308D02*
X0160700Y0313308D01*
X0160700Y0314907D02*
X0142300Y0314907D01*
X0147811Y0311710D02*
X0155189Y0311710D01*
X0154516Y0313308D02*
X0148484Y0313308D01*
X0148667Y0316505D02*
X0154333Y0316505D01*
X0154799Y0318104D02*
X0148201Y0318104D01*
X0147279Y0319702D02*
X0155721Y0319702D01*
X0162300Y0314907D02*
X0248404Y0314907D01*
X0247754Y0313308D02*
X0168484Y0313308D01*
X0167811Y0311710D02*
X0247326Y0311710D01*
X0247208Y0310111D02*
X0166579Y0310111D01*
X0164084Y0308513D02*
X0218911Y0308513D01*
X0223089Y0308513D02*
X0247208Y0308513D01*
X0247564Y0306914D02*
X0223900Y0306914D01*
X0223648Y0305316D02*
X0247993Y0305316D01*
X0249327Y0316505D02*
X0168667Y0316505D01*
X0168201Y0318104D02*
X0250795Y0318104D01*
X0252943Y0319702D02*
X0167279Y0319702D01*
X0156421Y0310111D02*
X0146579Y0310111D01*
X0134333Y0316505D02*
X0121647Y0316505D01*
X0119460Y0318104D02*
X0134799Y0318104D01*
X0135721Y0319702D02*
X0069000Y0319702D01*
X0069000Y0318104D02*
X0071540Y0318104D01*
X0069353Y0316505D02*
X0069000Y0316505D01*
X0069000Y0311710D02*
X0069240Y0311710D01*
X0069000Y0310111D02*
X0071021Y0310111D01*
X0074979Y0310111D02*
X0086021Y0310111D01*
X0085536Y0310312D02*
X0087135Y0309650D01*
X0088865Y0309650D01*
X0090464Y0310312D01*
X0091688Y0311536D01*
X0092350Y0313135D01*
X0092350Y0314865D01*
X0091688Y0316464D01*
X0090464Y0317688D01*
X0088865Y0318350D01*
X0087135Y0318350D01*
X0085536Y0317688D01*
X0084312Y0316464D01*
X0083650Y0314865D01*
X0083650Y0313135D01*
X0084312Y0311536D01*
X0085536Y0310312D01*
X0084240Y0311710D02*
X0076760Y0311710D01*
X0077350Y0313308D02*
X0083650Y0313308D01*
X0083667Y0314907D02*
X0077333Y0314907D01*
X0076647Y0316505D02*
X0084353Y0316505D01*
X0086540Y0318104D02*
X0074460Y0318104D01*
X0089460Y0318104D02*
X0101540Y0318104D01*
X0102135Y0318350D02*
X0100536Y0317688D01*
X0099312Y0316464D01*
X0098650Y0314865D01*
X0098650Y0313135D01*
X0099312Y0311536D01*
X0100536Y0310312D01*
X0102135Y0309650D01*
X0103865Y0309650D01*
X0105464Y0310312D01*
X0106688Y0311536D01*
X0107350Y0313135D01*
X0107350Y0314865D01*
X0106688Y0316464D01*
X0105464Y0317688D01*
X0103865Y0318350D01*
X0102135Y0318350D01*
X0104460Y0318104D02*
X0116540Y0318104D01*
X0114353Y0316505D02*
X0106647Y0316505D01*
X0107333Y0314907D02*
X0113667Y0314907D01*
X0113650Y0313308D02*
X0107350Y0313308D01*
X0106760Y0311710D02*
X0114240Y0311710D01*
X0116021Y0310111D02*
X0104979Y0310111D01*
X0101021Y0310111D02*
X0089979Y0310111D01*
X0091760Y0311710D02*
X0099240Y0311710D01*
X0098650Y0313308D02*
X0092350Y0313308D01*
X0092333Y0314907D02*
X0098667Y0314907D01*
X0099353Y0316505D02*
X0091647Y0316505D01*
X0108000Y0274944D02*
X0410200Y0274944D01*
X0410200Y0276542D02*
X0391144Y0276542D01*
X0392283Y0278141D02*
X0410200Y0278141D01*
X0410200Y0279739D02*
X0392333Y0279739D01*
X0391263Y0281338D02*
X0410200Y0281338D01*
X0410200Y0286134D02*
X0326735Y0286134D01*
X0327400Y0287732D02*
X0410200Y0287732D01*
X0410200Y0289331D02*
X0330133Y0289331D01*
X0330643Y0289541D02*
X0331458Y0290357D01*
X0331900Y0291423D01*
X0331900Y0292577D01*
X0331458Y0293643D01*
X0331203Y0293898D01*
X0331923Y0293600D01*
X0333077Y0293600D01*
X0334143Y0294041D01*
X0334958Y0294857D01*
X0335400Y0295923D01*
X0335400Y0297077D01*
X0334958Y0298143D01*
X0334143Y0298958D01*
X0333077Y0299400D01*
X0331923Y0299400D01*
X0330857Y0298958D01*
X0330041Y0298143D01*
X0329600Y0297077D01*
X0329600Y0295923D01*
X0330041Y0294857D01*
X0330297Y0294602D01*
X0329577Y0294900D01*
X0328423Y0294900D01*
X0327357Y0294458D01*
X0326541Y0293643D01*
X0326100Y0292577D01*
X0326100Y0291423D01*
X0326541Y0290357D01*
X0327357Y0289541D01*
X0328423Y0289100D01*
X0329577Y0289100D01*
X0330643Y0289541D01*
X0331695Y0290929D02*
X0410200Y0290929D01*
X0410200Y0292528D02*
X0331900Y0292528D01*
X0334227Y0294126D02*
X0410200Y0294126D01*
X0410200Y0295725D02*
X0335318Y0295725D01*
X0335298Y0297323D02*
X0410200Y0297323D01*
X0410200Y0298922D02*
X0350192Y0298922D01*
X0353209Y0300520D02*
X0410200Y0300520D01*
X0410200Y0302119D02*
X0354837Y0302119D01*
X0356005Y0303717D02*
X0410200Y0303717D01*
X0410200Y0305316D02*
X0356928Y0305316D01*
X0357357Y0306914D02*
X0410200Y0306914D01*
X0410200Y0308513D02*
X0357713Y0308513D01*
X0357713Y0310111D02*
X0410200Y0310111D01*
X0410200Y0311710D02*
X0357595Y0311710D01*
X0357167Y0313308D02*
X0410200Y0313308D01*
X0410200Y0314907D02*
X0356518Y0314907D01*
X0355595Y0316505D02*
X0410200Y0316505D01*
X0410200Y0318104D02*
X0354126Y0318104D01*
X0351979Y0319702D02*
X0410200Y0319702D01*
X0410200Y0273345D02*
X0117709Y0273345D01*
X0117577Y0273400D02*
X0116423Y0273400D01*
X0115357Y0272958D01*
X0114541Y0272143D01*
X0114100Y0271077D01*
X0114100Y0269923D01*
X0114482Y0269000D01*
X0114100Y0268077D01*
X0114100Y0266923D01*
X0114541Y0265857D01*
X0115357Y0265041D01*
X0116423Y0264600D01*
X0117577Y0264600D01*
X0118643Y0265041D01*
X0119458Y0265857D01*
X0119900Y0266923D01*
X0119900Y0268077D01*
X0119518Y0269000D01*
X0119900Y0269923D01*
X0119900Y0271077D01*
X0119458Y0272143D01*
X0118643Y0272958D01*
X0117577Y0273400D01*
X0116291Y0273345D02*
X0108000Y0273345D01*
X0108000Y0271747D02*
X0114378Y0271747D01*
X0114100Y0270148D02*
X0108000Y0270148D01*
X0108000Y0268550D02*
X0114296Y0268550D01*
X0114100Y0266951D02*
X0108000Y0266951D01*
X0108000Y0265353D02*
X0115046Y0265353D01*
X0118954Y0265353D02*
X0125933Y0265353D01*
X0125933Y0266708D02*
X0125933Y0263898D01*
X0127009Y0261302D01*
X0128995Y0259316D01*
X0131591Y0258241D01*
X0134401Y0258241D01*
X0136997Y0259316D01*
X0138983Y0261302D01*
X0140059Y0263898D01*
X0140059Y0266708D01*
X0138983Y0269304D01*
X0136997Y0271291D01*
X0134401Y0272366D01*
X0131591Y0272366D01*
X0128995Y0271291D01*
X0127009Y0269304D01*
X0125933Y0266708D01*
X0126034Y0266951D02*
X0119900Y0266951D01*
X0119704Y0268550D02*
X0126696Y0268550D01*
X0127853Y0270148D02*
X0119900Y0270148D01*
X0119622Y0271747D02*
X0130097Y0271747D01*
X0135895Y0271747D02*
X0148601Y0271747D01*
X0147499Y0271291D02*
X0145513Y0269304D01*
X0144437Y0266708D01*
X0144437Y0263898D01*
X0145513Y0261302D01*
X0147499Y0259316D01*
X0150095Y0258241D01*
X0152905Y0258241D01*
X0155501Y0259316D01*
X0157487Y0261302D01*
X0158563Y0263898D01*
X0158563Y0266708D01*
X0157487Y0269304D01*
X0155501Y0271291D01*
X0152905Y0272366D01*
X0150095Y0272366D01*
X0147499Y0271291D01*
X0146357Y0270148D02*
X0138139Y0270148D01*
X0139296Y0268550D02*
X0145200Y0268550D01*
X0144538Y0266951D02*
X0139958Y0266951D01*
X0140059Y0265353D02*
X0144437Y0265353D01*
X0144497Y0263754D02*
X0139999Y0263754D01*
X0139337Y0262156D02*
X0145159Y0262156D01*
X0146258Y0260557D02*
X0138238Y0260557D01*
X0136135Y0258959D02*
X0148361Y0258959D01*
X0154639Y0258959D02*
X0166865Y0258959D01*
X0166003Y0259316D02*
X0168599Y0258241D01*
X0171409Y0258241D01*
X0174005Y0259316D01*
X0175991Y0261302D01*
X0177067Y0263898D01*
X0177067Y0266708D01*
X0175991Y0269304D01*
X0174005Y0271291D01*
X0171409Y0272366D01*
X0168599Y0272366D01*
X0166003Y0271291D01*
X0164017Y0269304D01*
X0162941Y0266708D01*
X0162941Y0263898D01*
X0164017Y0261302D01*
X0166003Y0259316D01*
X0164762Y0260557D02*
X0156742Y0260557D01*
X0157841Y0262156D02*
X0163663Y0262156D01*
X0163001Y0263754D02*
X0158503Y0263754D01*
X0158563Y0265353D02*
X0162941Y0265353D01*
X0163042Y0266951D02*
X0158462Y0266951D01*
X0157800Y0268550D02*
X0163704Y0268550D01*
X0164861Y0270148D02*
X0156643Y0270148D01*
X0154399Y0271747D02*
X0167105Y0271747D01*
X0172903Y0271747D02*
X0410200Y0271747D01*
X0410200Y0270148D02*
X0175147Y0270148D01*
X0176304Y0268550D02*
X0410200Y0268550D01*
X0410200Y0266951D02*
X0176966Y0266951D01*
X0177067Y0265353D02*
X0410200Y0265353D01*
X0410200Y0263754D02*
X0177007Y0263754D01*
X0176345Y0262156D02*
X0410200Y0262156D01*
X0410200Y0260557D02*
X0175246Y0260557D01*
X0173143Y0258959D02*
X0410200Y0258959D01*
X0410200Y0257360D02*
X0108000Y0257360D01*
X0108000Y0255762D02*
X0410200Y0255762D01*
X0410200Y0254163D02*
X0108000Y0254163D01*
X0108000Y0252565D02*
X0410200Y0252565D01*
X0410200Y0250966D02*
X0108000Y0250966D01*
X0108000Y0249368D02*
X0154928Y0249368D01*
X0160072Y0249368D02*
X0410200Y0249368D01*
X0410200Y0247769D02*
X0160400Y0247769D01*
X0159772Y0246171D02*
X0410200Y0246171D01*
X0410200Y0244572D02*
X0202673Y0244572D01*
X0204511Y0242974D02*
X0410200Y0242974D01*
X0410200Y0241375D02*
X0205610Y0241375D01*
X0206272Y0239777D02*
X0410200Y0239777D01*
X0410200Y0231784D02*
X0227817Y0231784D01*
X0228855Y0230186D02*
X0410200Y0230186D01*
X0410200Y0228587D02*
X0228761Y0228587D01*
X0227515Y0226989D02*
X0255541Y0226989D01*
X0261861Y0226989D02*
X0343060Y0226989D01*
X0341784Y0226647D02*
X0344707Y0227430D01*
X0347734Y0227430D01*
X0350657Y0226647D01*
X0353277Y0225134D01*
X0355417Y0222994D01*
X0356930Y0220373D01*
X0357713Y0217450D01*
X0357713Y0214424D01*
X0356930Y0211501D01*
X0355417Y0208880D01*
X0353277Y0206740D01*
X0350657Y0205227D01*
X0347734Y0204444D01*
X0344707Y0204444D01*
X0341784Y0205227D01*
X0339164Y0206740D01*
X0337024Y0208880D01*
X0335511Y0211501D01*
X0334728Y0214424D01*
X0334728Y0217450D01*
X0335511Y0220373D01*
X0337024Y0222994D01*
X0339164Y0225134D01*
X0341784Y0226647D01*
X0339608Y0225390D02*
X0265313Y0225390D01*
X0267100Y0223792D02*
X0337822Y0223792D01*
X0336562Y0222193D02*
X0268360Y0222193D01*
X0269283Y0220595D02*
X0335639Y0220595D01*
X0335142Y0218996D02*
X0269779Y0218996D01*
X0270194Y0217398D02*
X0334728Y0217398D01*
X0334728Y0215799D02*
X0270194Y0215799D01*
X0270134Y0214201D02*
X0334787Y0214201D01*
X0335216Y0212602D02*
X0269705Y0212602D01*
X0269123Y0211003D02*
X0335798Y0211003D01*
X0336721Y0209405D02*
X0268200Y0209405D01*
X0266824Y0207806D02*
X0338098Y0207806D01*
X0340086Y0206208D02*
X0272893Y0206208D01*
X0273886Y0204609D02*
X0344090Y0204609D01*
X0348351Y0204609D02*
X0410200Y0204609D01*
X0410200Y0203011D02*
X0273729Y0203011D01*
X0272331Y0201412D02*
X0351880Y0201412D01*
X0352288Y0201581D02*
X0350971Y0201036D01*
X0349964Y0200029D01*
X0349419Y0198712D01*
X0349419Y0197288D01*
X0349964Y0195971D01*
X0350971Y0194964D01*
X0352288Y0194419D01*
X0353712Y0194419D01*
X0355029Y0194964D01*
X0356036Y0195971D01*
X0356581Y0197288D01*
X0356581Y0198712D01*
X0356036Y0200029D01*
X0355029Y0201036D01*
X0353712Y0201581D01*
X0352288Y0201581D01*
X0354120Y0201412D02*
X0410200Y0201412D01*
X0410200Y0199814D02*
X0356125Y0199814D01*
X0356581Y0198215D02*
X0410200Y0198215D01*
X0410200Y0196617D02*
X0356303Y0196617D01*
X0355083Y0195018D02*
X0410200Y0195018D01*
X0410200Y0193420D02*
X0323572Y0193420D01*
X0323464Y0193312D02*
X0324688Y0194536D01*
X0325350Y0196135D01*
X0325350Y0197865D01*
X0324688Y0199464D01*
X0323464Y0200688D01*
X0321865Y0201350D01*
X0320135Y0201350D01*
X0318536Y0200688D01*
X0317312Y0199464D01*
X0316650Y0197865D01*
X0316650Y0196135D01*
X0317312Y0194536D01*
X0318536Y0193312D01*
X0320135Y0192650D01*
X0321865Y0192650D01*
X0323464Y0193312D01*
X0324888Y0195018D02*
X0350917Y0195018D01*
X0349697Y0196617D02*
X0325350Y0196617D01*
X0325205Y0198215D02*
X0349419Y0198215D01*
X0349875Y0199814D02*
X0324338Y0199814D01*
X0317662Y0199814D02*
X0269355Y0199814D01*
X0269261Y0201412D02*
X0269669Y0201412D01*
X0268271Y0203011D02*
X0268016Y0203011D01*
X0268114Y0204609D02*
X0260831Y0204609D01*
X0256571Y0204609D02*
X0175570Y0204609D01*
X0176703Y0206208D02*
X0252566Y0206208D01*
X0250578Y0207806D02*
X0177068Y0207806D01*
X0176863Y0209405D02*
X0249201Y0209405D01*
X0264835Y0206208D02*
X0269107Y0206208D01*
X0268317Y0198215D02*
X0316795Y0198215D01*
X0316650Y0196617D02*
X0284474Y0196617D01*
X0284039Y0197052D02*
X0282716Y0197600D01*
X0281284Y0197600D01*
X0279961Y0197052D01*
X0279000Y0196091D01*
X0278039Y0197052D01*
X0276716Y0197600D01*
X0275284Y0197600D01*
X0273961Y0197052D01*
X0272948Y0196039D01*
X0272400Y0194716D01*
X0272400Y0193284D01*
X0272948Y0191961D01*
X0273961Y0190948D01*
X0275284Y0190400D01*
X0276716Y0190400D01*
X0278039Y0190948D01*
X0279000Y0191909D01*
X0279961Y0190948D01*
X0281284Y0190400D01*
X0282716Y0190400D01*
X0284039Y0190948D01*
X0285052Y0191961D01*
X0285600Y0193284D01*
X0285600Y0194716D01*
X0285052Y0196039D01*
X0284039Y0197052D01*
X0285475Y0195018D02*
X0317112Y0195018D01*
X0318428Y0193420D02*
X0285600Y0193420D01*
X0284913Y0191821D02*
X0410200Y0191821D01*
X0410200Y0190223D02*
X0124368Y0190223D01*
X0124413Y0191821D02*
X0273087Y0191821D01*
X0272400Y0193420D02*
X0125100Y0193420D01*
X0124975Y0195018D02*
X0272525Y0195018D01*
X0273526Y0196617D02*
X0123974Y0196617D01*
X0119026Y0196617D02*
X0018081Y0196617D01*
X0019936Y0195018D02*
X0118025Y0195018D01*
X0117900Y0193420D02*
X0020598Y0193420D01*
X0020600Y0191821D02*
X0118587Y0191821D01*
X0118632Y0190223D02*
X0020036Y0190223D01*
X0018630Y0188624D02*
X0117900Y0188624D01*
X0124018Y0185427D02*
X0264326Y0185427D01*
X0269520Y0187026D02*
X0124993Y0187026D01*
X0125100Y0188624D02*
X0410200Y0188624D01*
X0410200Y0187026D02*
X0272480Y0187026D01*
X0273755Y0185427D02*
X0410200Y0185427D01*
X0410200Y0183829D02*
X0273861Y0183829D01*
X0269168Y0182230D02*
X0269113Y0182230D01*
X0278913Y0191821D02*
X0279087Y0191821D01*
X0279526Y0196617D02*
X0278474Y0196617D01*
X0254415Y0175836D02*
X0114552Y0175836D01*
X0106662Y0175836D02*
X0105062Y0175836D01*
X0105062Y0174238D02*
X0004800Y0174238D01*
X0004800Y0175836D02*
X0097173Y0175836D01*
X0097479Y0177435D02*
X0004800Y0177435D01*
X0004800Y0179033D02*
X0098107Y0179033D01*
X0099173Y0180632D02*
X0004800Y0180632D01*
X0004800Y0182230D02*
X0100928Y0182230D01*
X0105062Y0182230D02*
X0106662Y0182230D01*
X0106662Y0180632D02*
X0105062Y0180632D01*
X0105062Y0179033D02*
X0106662Y0179033D01*
X0106662Y0177435D02*
X0105062Y0177435D01*
X0106662Y0174238D02*
X0254100Y0174238D01*
X0207886Y0142268D02*
X0138900Y0142268D01*
X0138270Y0140669D02*
X0207600Y0140669D01*
X0208328Y0139070D02*
X0124372Y0139070D01*
X0125736Y0137472D02*
X0207600Y0137472D01*
X0207828Y0135873D02*
X0125879Y0135873D01*
X0124876Y0134275D02*
X0207889Y0134275D01*
X0182985Y0113494D02*
X0015375Y0113494D01*
X0005201Y0115093D02*
X0004800Y0115093D01*
X0004800Y0097509D02*
X0020763Y0097509D01*
X0021551Y0095911D02*
X0004800Y0095911D01*
X0004800Y0094312D02*
X0022832Y0094312D01*
X0025004Y0092714D02*
X0004800Y0092714D01*
X0004800Y0091115D02*
X0155600Y0091115D01*
X0155600Y0091577D02*
X0155600Y0090423D01*
X0156041Y0089357D01*
X0156857Y0088541D01*
X0157923Y0088100D01*
X0159077Y0088100D01*
X0160143Y0088541D01*
X0160958Y0089357D01*
X0161400Y0090423D01*
X0161400Y0091577D01*
X0160958Y0092643D01*
X0160143Y0093458D01*
X0159077Y0093900D01*
X0157923Y0093900D01*
X0156857Y0093458D01*
X0156041Y0092643D01*
X0155600Y0091577D01*
X0156112Y0092714D02*
X0033240Y0092714D01*
X0035412Y0094312D02*
X0157411Y0094312D01*
X0159589Y0094312D02*
X0238900Y0094312D01*
X0237969Y0095911D02*
X0161188Y0095911D01*
X0160888Y0092714D02*
X0242036Y0092714D01*
X0242300Y0092714D02*
X0242700Y0092714D01*
X0242964Y0092714D02*
X0268100Y0092714D01*
X0268435Y0091115D02*
X0245390Y0091115D01*
X0246100Y0094312D02*
X0268711Y0094312D01*
X0272019Y0095911D02*
X0247031Y0095911D01*
X0242700Y0095911D02*
X0242300Y0095911D01*
X0242300Y0094312D02*
X0242700Y0094312D01*
X0239610Y0091115D02*
X0161400Y0091115D01*
X0161024Y0089517D02*
X0238356Y0089517D01*
X0237900Y0087918D02*
X0004800Y0087918D01*
X0004800Y0086320D02*
X0238010Y0086320D01*
X0238774Y0084721D02*
X0004800Y0084721D01*
X0004800Y0089517D02*
X0155975Y0089517D01*
X0155812Y0095911D02*
X0036693Y0095911D01*
X0037481Y0097509D02*
X0155600Y0097509D01*
X0156506Y0099108D02*
X0037916Y0099108D01*
X0029922Y0097509D02*
X0028322Y0097509D01*
X0028322Y0095911D02*
X0029922Y0095911D01*
X0029922Y0094312D02*
X0028322Y0094312D01*
X0028322Y0092714D02*
X0029922Y0092714D01*
X0029922Y0102305D02*
X0028322Y0102305D01*
X0028322Y0103903D02*
X0029922Y0103903D01*
X0029922Y0105502D02*
X0028322Y0105502D01*
X0028322Y0107100D02*
X0029922Y0107100D01*
X0029922Y0108699D02*
X0028322Y0108699D01*
X0032956Y0108699D02*
X0183700Y0108699D01*
X0242300Y0100706D02*
X0242700Y0100706D01*
X0242700Y0099108D02*
X0242300Y0099108D01*
X0244805Y0081524D02*
X0410200Y0081524D01*
X0410200Y0079926D02*
X0343548Y0079926D01*
X0343458Y0080143D02*
X0342643Y0080958D01*
X0341577Y0081400D01*
X0340423Y0081400D01*
X0339357Y0080958D01*
X0338541Y0080143D01*
X0338100Y0079077D01*
X0338100Y0077923D01*
X0338541Y0076857D01*
X0339357Y0076041D01*
X0340423Y0075600D01*
X0341577Y0075600D01*
X0342643Y0076041D01*
X0343458Y0076857D01*
X0343900Y0077923D01*
X0343900Y0079077D01*
X0343458Y0080143D01*
X0343900Y0078327D02*
X0410200Y0078327D01*
X0410200Y0076729D02*
X0343330Y0076729D01*
X0338670Y0076729D02*
X0273819Y0076729D01*
X0273900Y0076923D02*
X0273458Y0075857D01*
X0272643Y0075041D01*
X0271577Y0074600D01*
X0270423Y0074600D01*
X0269357Y0075041D01*
X0268541Y0075857D01*
X0268100Y0076923D01*
X0268100Y0078077D01*
X0268541Y0079143D01*
X0269357Y0079958D01*
X0270423Y0080400D01*
X0271577Y0080400D01*
X0272643Y0079958D01*
X0273458Y0079143D01*
X0273900Y0078077D01*
X0273900Y0076923D01*
X0273796Y0078327D02*
X0338100Y0078327D01*
X0338452Y0079926D02*
X0272676Y0079926D01*
X0269324Y0079926D02*
X0246474Y0079926D01*
X0247100Y0078327D02*
X0268204Y0078327D01*
X0268181Y0076729D02*
X0247100Y0076729D01*
X0246497Y0075130D02*
X0269269Y0075130D01*
X0272731Y0075130D02*
X0410200Y0075130D01*
X0410200Y0073532D02*
X0244940Y0073532D01*
X0243818Y0071933D02*
X0410200Y0071933D01*
X0410200Y0070334D02*
X0246171Y0070334D01*
X0246967Y0068736D02*
X0410200Y0068736D01*
X0410200Y0067137D02*
X0247100Y0067137D01*
X0246667Y0065539D02*
X0410200Y0065539D01*
X0410200Y0063940D02*
X0245446Y0063940D01*
X0277741Y0062342D02*
X0049948Y0062342D01*
X0050411Y0060743D02*
X0101873Y0060743D01*
X0099697Y0059145D02*
X0050303Y0059145D01*
X0049535Y0057546D02*
X0098430Y0057546D01*
X0097322Y0051152D02*
X0004800Y0051152D01*
X0004800Y0049554D02*
X0097840Y0049554D01*
X0098722Y0047955D02*
X0004800Y0047955D01*
X0004800Y0046357D02*
X0100163Y0046357D01*
X0108812Y0044758D02*
X0276640Y0044758D01*
X0276857Y0044541D02*
X0277923Y0044100D01*
X0279077Y0044100D01*
X0280143Y0044541D01*
X0280958Y0045357D01*
X0281400Y0046423D01*
X0281400Y0047577D01*
X0280958Y0048643D01*
X0280143Y0049458D01*
X0279077Y0049900D01*
X0277923Y0049900D01*
X0276857Y0049458D01*
X0276041Y0048643D01*
X0275600Y0047577D01*
X0275600Y0046423D01*
X0276041Y0045357D01*
X0276857Y0044541D01*
X0275627Y0046357D02*
X0111562Y0046357D01*
X0113002Y0047955D02*
X0275757Y0047955D01*
X0277088Y0049554D02*
X0113884Y0049554D01*
X0114402Y0051152D02*
X0392598Y0051152D01*
X0393116Y0049554D02*
X0279913Y0049554D01*
X0281243Y0047955D02*
X0393998Y0047955D01*
X0395438Y0046357D02*
X0281373Y0046357D01*
X0280360Y0044758D02*
X0398188Y0044758D01*
X0409754Y0054349D02*
X0410200Y0054349D01*
X0410200Y0055948D02*
X0409347Y0055948D01*
X0408570Y0057546D02*
X0410200Y0057546D01*
X0410200Y0059145D02*
X0407303Y0059145D01*
X0405127Y0060743D02*
X0410200Y0060743D01*
X0410200Y0062342D02*
X0281259Y0062342D01*
X0286632Y0039963D02*
X0324368Y0039963D01*
X0323219Y0038364D02*
X0287781Y0038364D01*
X0287835Y0036766D02*
X0323165Y0036766D01*
X0324232Y0035167D02*
X0286768Y0035167D01*
X0280747Y0030430D02*
X0279462Y0031716D01*
X0277783Y0032411D01*
X0275965Y0032411D01*
X0274286Y0031716D01*
X0273001Y0030430D01*
X0272937Y0030276D01*
X0272873Y0030430D01*
X0271588Y0031716D01*
X0269909Y0032411D01*
X0268091Y0032411D01*
X0266412Y0031716D01*
X0265127Y0030430D01*
X0265063Y0030276D01*
X0264999Y0030430D01*
X0263714Y0031716D01*
X0262035Y0032411D01*
X0260217Y0032411D01*
X0258538Y0031716D01*
X0257253Y0030430D01*
X0256557Y0028751D01*
X0256557Y0026934D01*
X0257253Y0025255D01*
X0258538Y0023970D01*
X0260217Y0023274D01*
X0262035Y0023274D01*
X0263714Y0023970D01*
X0264999Y0025255D01*
X0265063Y0025409D01*
X0265127Y0025255D01*
X0266412Y0023970D01*
X0268091Y0023274D01*
X0269909Y0023274D01*
X0271588Y0023970D01*
X0272873Y0025255D01*
X0272937Y0025409D01*
X0273001Y0025255D01*
X0274286Y0023970D01*
X0275965Y0023274D01*
X0277783Y0023274D01*
X0279462Y0023970D01*
X0280747Y0025255D01*
X0281443Y0026934D01*
X0281443Y0028751D01*
X0280747Y0030430D01*
X0280771Y0030372D02*
X0337229Y0030372D01*
X0336567Y0028773D02*
X0281433Y0028773D01*
X0281443Y0027175D02*
X0336557Y0027175D01*
X0337120Y0025576D02*
X0280880Y0025576D01*
X0279470Y0023978D02*
X0338530Y0023978D01*
X0343722Y0023978D02*
X0346404Y0023978D01*
X0351596Y0023978D02*
X0354278Y0023978D01*
X0352977Y0030372D02*
X0352897Y0030372D01*
X0350973Y0031970D02*
X0354901Y0031970D01*
X0347027Y0031970D02*
X0343099Y0031970D01*
X0345023Y0030372D02*
X0345103Y0030372D01*
X0339153Y0031970D02*
X0278847Y0031970D01*
X0274901Y0031970D02*
X0270973Y0031970D01*
X0272897Y0030372D02*
X0272977Y0030372D01*
X0267027Y0031970D02*
X0263099Y0031970D01*
X0265023Y0030372D02*
X0265103Y0030372D01*
X0259153Y0031970D02*
X0198847Y0031970D01*
X0200771Y0030372D02*
X0257229Y0030372D01*
X0256567Y0028773D02*
X0201433Y0028773D01*
X0201443Y0027175D02*
X0256557Y0027175D01*
X0257120Y0025576D02*
X0200880Y0025576D01*
X0199470Y0023978D02*
X0258530Y0023978D01*
X0263722Y0023978D02*
X0266404Y0023978D01*
X0271596Y0023978D02*
X0274278Y0023978D01*
X0273445Y0011190D02*
X0272429Y0011190D01*
X0265571Y0011190D02*
X0264555Y0011190D01*
X0257697Y0011190D02*
X0200303Y0011190D01*
X0201225Y0009591D02*
X0256775Y0009591D01*
X0256557Y0007993D02*
X0201443Y0007993D01*
X0201088Y0006394D02*
X0256911Y0006394D01*
X0280303Y0011190D02*
X0337697Y0011190D01*
X0336775Y0009591D02*
X0281225Y0009591D01*
X0281443Y0007993D02*
X0336557Y0007993D01*
X0336911Y0006394D02*
X0281088Y0006394D01*
X0344555Y0011190D02*
X0345571Y0011190D01*
X0352429Y0011190D02*
X0353445Y0011190D01*
X0359981Y0095911D02*
X0410200Y0095911D01*
X0410200Y0097509D02*
X0360400Y0097509D01*
X0315678Y0119888D02*
X0410200Y0119888D01*
X0410200Y0118290D02*
X0314035Y0118290D01*
X0315900Y0121487D02*
X0410200Y0121487D01*
X0410200Y0123085D02*
X0315016Y0123085D01*
X0310984Y0123085D02*
X0309689Y0123085D01*
X0309900Y0121487D02*
X0310100Y0121487D01*
X0347040Y0151859D02*
X0004800Y0151859D01*
X0004800Y0153457D02*
X0073391Y0153457D01*
X0072390Y0155056D02*
X0004800Y0155056D01*
X0004800Y0156654D02*
X0072150Y0156654D01*
X0072518Y0158253D02*
X0004800Y0158253D01*
X0004800Y0159851D02*
X0073699Y0159851D01*
X0080850Y0156654D02*
X0347830Y0156654D01*
X0346298Y0155056D02*
X0080610Y0155056D01*
X0079609Y0153457D02*
X0346100Y0153457D01*
X0381742Y0179033D02*
X0393382Y0179033D01*
X0392755Y0177435D02*
X0383430Y0177435D01*
X0384053Y0175836D02*
X0392448Y0175836D01*
X0400338Y0177435D02*
X0401938Y0177435D01*
X0401938Y0179033D02*
X0400338Y0179033D01*
X0400338Y0180632D02*
X0401938Y0180632D01*
X0401938Y0182230D02*
X0400338Y0182230D01*
X0406072Y0182230D02*
X0410200Y0182230D01*
X0410200Y0180632D02*
X0407827Y0180632D01*
X0408893Y0179033D02*
X0410200Y0179033D01*
X0410200Y0177435D02*
X0409521Y0177435D01*
X0409827Y0175836D02*
X0410200Y0175836D01*
X0401938Y0172639D02*
X0400338Y0172639D01*
X0400338Y0171041D02*
X0401938Y0171041D01*
X0401938Y0169442D02*
X0400338Y0169442D01*
X0400338Y0167844D02*
X0401938Y0167844D01*
X0410200Y0206208D02*
X0352355Y0206208D01*
X0354343Y0207806D02*
X0410200Y0207806D01*
X0410200Y0209405D02*
X0355720Y0209405D01*
X0356643Y0211003D02*
X0410200Y0211003D01*
X0410200Y0212602D02*
X0357225Y0212602D01*
X0357654Y0214201D02*
X0410200Y0214201D01*
X0410200Y0215799D02*
X0357713Y0215799D01*
X0357713Y0217398D02*
X0410200Y0217398D01*
X0410200Y0218996D02*
X0357299Y0218996D01*
X0356802Y0220595D02*
X0410200Y0220595D01*
X0410200Y0222193D02*
X0355879Y0222193D01*
X0354619Y0223792D02*
X0410200Y0223792D01*
X0410200Y0225390D02*
X0352833Y0225390D01*
X0349381Y0226989D02*
X0410200Y0226989D01*
X0327867Y0289331D02*
X0327088Y0289331D01*
X0326305Y0290929D02*
X0206011Y0290929D01*
X0206508Y0289331D02*
X0321912Y0289331D01*
X0326100Y0292528D02*
X0205109Y0292528D01*
X0203550Y0294126D02*
X0223430Y0294126D01*
X0228570Y0294126D02*
X0327025Y0294126D01*
X0329682Y0295725D02*
X0228900Y0295725D01*
X0228278Y0297323D02*
X0329702Y0297323D01*
X0330820Y0298922D02*
X0262672Y0298922D01*
X0265690Y0300520D02*
X0339231Y0300520D01*
X0337604Y0302119D02*
X0267317Y0302119D01*
X0268485Y0303717D02*
X0336436Y0303717D01*
X0335513Y0305316D02*
X0269408Y0305316D01*
X0269838Y0306914D02*
X0335084Y0306914D01*
X0334728Y0308513D02*
X0270194Y0308513D01*
X0270194Y0310111D02*
X0334728Y0310111D01*
X0334846Y0311710D02*
X0270076Y0311710D01*
X0269647Y0313308D02*
X0335274Y0313308D01*
X0335923Y0314907D02*
X0268998Y0314907D01*
X0268075Y0316505D02*
X0336846Y0316505D01*
X0338315Y0318104D02*
X0266606Y0318104D01*
X0264459Y0319702D02*
X0340462Y0319702D01*
X0342249Y0298922D02*
X0334180Y0298922D01*
X0199501Y0294126D02*
X0197901Y0294126D01*
X0197901Y0292528D02*
X0199501Y0292528D01*
X0199501Y0290929D02*
X0197901Y0290929D01*
X0197901Y0289331D02*
X0199501Y0289331D01*
X0199501Y0284535D02*
X0197901Y0284535D01*
X0197901Y0282937D02*
X0199501Y0282937D01*
X0199501Y0281338D02*
X0197901Y0281338D01*
X0129857Y0258959D02*
X0108000Y0258959D01*
X0108000Y0260557D02*
X0127754Y0260557D01*
X0126655Y0262156D02*
X0108000Y0262156D01*
X0108000Y0263754D02*
X0125993Y0263754D01*
X0102000Y0263754D02*
X0035576Y0263754D01*
X0037174Y0265353D02*
X0102000Y0265353D01*
X0102000Y0266951D02*
X0037955Y0266951D01*
X0038387Y0268550D02*
X0102000Y0268550D01*
X0102000Y0270148D02*
X0038387Y0270148D01*
X0018011Y0257360D02*
X0005000Y0257360D01*
X0005000Y0255762D02*
X0016930Y0255762D01*
X0016450Y0254163D02*
X0005000Y0254163D01*
X0005000Y0252565D02*
X0016450Y0252565D01*
X0017042Y0250966D02*
X0005000Y0250966D01*
X0005000Y0249368D02*
X0018283Y0249368D01*
X0023000Y0244572D02*
X0004800Y0244572D01*
X0004800Y0242974D02*
X0023000Y0242974D01*
X0023000Y0241375D02*
X0004800Y0241375D01*
X0004800Y0239777D02*
X0023000Y0239777D01*
X0023000Y0238178D02*
X0004800Y0238178D01*
X0004800Y0236580D02*
X0023000Y0236580D01*
X0023000Y0234981D02*
X0004800Y0234981D01*
X0004800Y0233383D02*
X0023000Y0233383D01*
X0023000Y0231784D02*
X0004800Y0231784D01*
X0004800Y0230186D02*
X0023000Y0230186D01*
X0023000Y0228587D02*
X0004800Y0228587D01*
X0029000Y0231784D02*
X0102000Y0231784D01*
X0102000Y0233383D02*
X0029000Y0233383D01*
X0029000Y0234981D02*
X0102000Y0234981D01*
X0094391Y0238178D02*
X0093109Y0238178D01*
X0040017Y0242974D02*
X0029000Y0242974D01*
X0029000Y0244572D02*
X0038271Y0244572D01*
X0037746Y0246171D02*
X0029000Y0246171D01*
X0029000Y0247769D02*
X0037871Y0247769D01*
X0009088Y0262156D02*
X0005000Y0262156D01*
X0005000Y0263754D02*
X0006660Y0263754D01*
X0005313Y0265353D02*
X0005000Y0265353D01*
X0005000Y0273345D02*
X0005341Y0273345D01*
X0005000Y0274944D02*
X0006728Y0274944D01*
X0005000Y0276542D02*
X0009253Y0276542D01*
X0016470Y0292528D02*
X0024818Y0292528D01*
X0007665Y0302119D02*
X0005000Y0302119D01*
X0005000Y0303717D02*
X0006067Y0303717D01*
X0005067Y0305316D02*
X0005000Y0305316D01*
X0005000Y0313308D02*
X0005722Y0313308D01*
X0004800Y0172639D02*
X0097472Y0172639D01*
X0098091Y0171041D02*
X0004800Y0171041D01*
X0004800Y0169442D02*
X0099152Y0169442D01*
X0100893Y0167844D02*
X0004800Y0167844D01*
X0004800Y0150260D02*
X0024959Y0150260D01*
X0022805Y0148662D02*
X0004800Y0148662D01*
X0004800Y0147063D02*
X0021536Y0147063D01*
X0020753Y0145465D02*
X0004800Y0145465D01*
X0105062Y0167844D02*
X0106662Y0167844D01*
X0106662Y0169442D02*
X0105062Y0169442D01*
X0105062Y0171041D02*
X0106662Y0171041D01*
X0106662Y0172639D02*
X0105062Y0172639D01*
X0028745Y0064188D02*
X0027066Y0064883D01*
X0025249Y0064883D01*
X0023570Y0064188D01*
X0022284Y0062903D01*
X0021589Y0061224D01*
X0021589Y0059406D01*
X0022284Y0057727D01*
X0023570Y0056442D01*
X0025249Y0055746D01*
X0027066Y0055746D01*
X0028745Y0056442D01*
X0030030Y0057727D01*
X0030726Y0059406D01*
X0030726Y0061224D01*
X0030030Y0062903D01*
X0028745Y0064188D01*
X0028993Y0063940D02*
X0032882Y0063940D01*
X0031681Y0062342D02*
X0030263Y0062342D01*
X0030726Y0060743D02*
X0031240Y0060743D01*
X0031366Y0059145D02*
X0030618Y0059145D01*
X0029850Y0057546D02*
X0032117Y0057546D01*
X0034067Y0055948D02*
X0027553Y0055948D01*
X0024762Y0055948D02*
X0004800Y0055948D01*
X0004800Y0057546D02*
X0022465Y0057546D01*
X0021697Y0059145D02*
X0004800Y0059145D01*
X0004800Y0060743D02*
X0021589Y0060743D01*
X0022052Y0062342D02*
X0004800Y0062342D01*
X0004800Y0063940D02*
X0023322Y0063940D01*
X0004800Y0011190D02*
X0097697Y0011190D01*
X0096775Y0009591D02*
X0004800Y0009591D01*
X0004800Y0007993D02*
X0096557Y0007993D01*
X0096911Y0006394D02*
X0004800Y0006394D01*
X0104555Y0011190D02*
X0105571Y0011190D01*
X0112429Y0011190D02*
X0113445Y0011190D01*
X0120303Y0011190D02*
X0177697Y0011190D01*
X0176775Y0009591D02*
X0121225Y0009591D01*
X0121443Y0007993D02*
X0176557Y0007993D01*
X0176911Y0006394D02*
X0121088Y0006394D01*
X0184555Y0011190D02*
X0185571Y0011190D01*
X0192429Y0011190D02*
X0193445Y0011190D01*
X0194278Y0023978D02*
X0191596Y0023978D01*
X0186404Y0023978D02*
X0183722Y0023978D01*
X0185023Y0030372D02*
X0185103Y0030372D01*
X0187027Y0031970D02*
X0183099Y0031970D01*
X0190973Y0031970D02*
X0194901Y0031970D01*
X0192977Y0030372D02*
X0192897Y0030372D01*
D21*
X0157000Y0028000D03*
X0077000Y0028000D03*
X0039500Y0078000D03*
X0033000Y0078000D03*
X0046000Y0119500D03*
X0046000Y0149000D03*
X0111000Y0130000D03*
X0111000Y0126500D03*
X0115500Y0124000D03*
X0119000Y0124000D03*
X0111500Y0120000D03*
X0111500Y0116000D03*
X0115500Y0112000D03*
X0119000Y0112000D03*
X0135000Y0122000D03*
X0134500Y0131500D03*
X0131000Y0131500D03*
X0127500Y0131500D03*
X0123000Y0136500D03*
X0136000Y0142500D03*
X0174000Y0122000D03*
X0176500Y0122000D03*
X0176500Y0119500D03*
X0174000Y0119500D03*
X0182000Y0126500D03*
X0189500Y0129000D03*
X0189500Y0133000D03*
X0182000Y0134500D03*
X0182000Y0130500D03*
X0182000Y0138500D03*
X0182000Y0142500D03*
X0182000Y0146500D03*
X0189500Y0145000D03*
X0189500Y0141000D03*
X0189500Y0137000D03*
X0195500Y0145000D03*
X0210500Y0141000D03*
X0210500Y0137000D03*
X0215000Y0137000D03*
X0215000Y0141000D03*
X0215000Y0133000D03*
X0215000Y0129000D03*
X0210500Y0129000D03*
X0210500Y0133000D03*
X0213500Y0121000D03*
X0218000Y0121000D03*
X0218000Y0116500D03*
X0218000Y0112000D03*
X0213500Y0112000D03*
X0213500Y0116500D03*
X0189000Y0115000D03*
X0185500Y0115000D03*
X0185500Y0111000D03*
X0189000Y0111000D03*
X0189000Y0119000D03*
X0157500Y0108500D03*
X0158500Y0097000D03*
X0158500Y0091000D03*
X0234000Y0139000D03*
X0239000Y0144000D03*
X0245500Y0144000D03*
X0245500Y0127000D03*
X0239000Y0127000D03*
X0264500Y0113500D03*
X0264500Y0110500D03*
X0279500Y0101500D03*
X0274500Y0097500D03*
X0271000Y0092500D03*
X0271000Y0077500D03*
X0289000Y0096000D03*
X0297000Y0099000D03*
X0302500Y0099000D03*
X0306500Y0099000D03*
X0304500Y0102500D03*
X0312000Y0099000D03*
X0317500Y0107000D03*
X0310500Y0109000D03*
X0320500Y0117000D03*
X0324000Y0115000D03*
X0324000Y0119000D03*
X0324000Y0124000D03*
X0324000Y0131500D03*
X0318500Y0131500D03*
X0316500Y0127000D03*
X0312500Y0127000D03*
X0312500Y0131000D03*
X0308000Y0131000D03*
X0307000Y0122000D03*
X0313000Y0121000D03*
X0297500Y0120000D03*
X0297500Y0115500D03*
X0293500Y0116500D03*
X0293500Y0112000D03*
X0293500Y0124500D03*
X0324500Y0110000D03*
X0324500Y0104000D03*
X0338500Y0104000D03*
X0353500Y0108500D03*
X0353500Y0111500D03*
X0357500Y0097500D03*
X0378000Y0116000D03*
X0382000Y0116000D03*
X0385500Y0110500D03*
X0385500Y0121500D03*
X0363500Y0142000D03*
X0349000Y0154000D03*
X0339500Y0166500D03*
X0320000Y0163000D03*
X0309500Y0163000D03*
X0302500Y0166500D03*
X0306500Y0157500D03*
X0309500Y0157500D03*
X0271000Y0184500D03*
X0266500Y0183500D03*
X0257000Y0174500D03*
X0268500Y0171500D03*
X0250500Y0166000D03*
X0266500Y0200500D03*
X0271000Y0204000D03*
X0300000Y0211000D03*
X0300000Y0215000D03*
X0304000Y0215000D03*
X0304000Y0211000D03*
X0308500Y0213000D03*
X0308500Y0217000D03*
X0313000Y0217000D03*
X0313000Y0213000D03*
X0317500Y0211000D03*
X0317500Y0207000D03*
X0317500Y0215000D03*
X0374500Y0198000D03*
X0389500Y0279000D03*
X0332500Y0296500D03*
X0329000Y0292000D03*
X0324500Y0288000D03*
X0226000Y0295500D03*
X0221000Y0306500D03*
X0157500Y0248000D03*
X0128000Y0248000D03*
X0117000Y0259000D03*
X0117000Y0262500D03*
X0117000Y0267500D03*
X0117000Y0270500D03*
X0112000Y0258000D03*
X0094000Y0261000D03*
X0094000Y0265000D03*
X0089500Y0265000D03*
X0089500Y0261000D03*
X0089500Y0269000D03*
X0094000Y0269000D03*
X0075000Y0276500D03*
X0075000Y0280000D03*
X0071500Y0280000D03*
X0071500Y0276500D03*
X0053500Y0278500D03*
X0053500Y0282000D03*
X0049500Y0264500D03*
X0049500Y0259500D03*
X0054500Y0259500D03*
X0041846Y0246654D03*
X0047500Y0244000D03*
X0047500Y0238500D03*
X0052000Y0238500D03*
X0056500Y0238500D03*
X0061000Y0238500D03*
X0065500Y0238500D03*
X0070000Y0238500D03*
X0074500Y0238500D03*
X0076500Y0243000D03*
X0074500Y0247000D03*
X0072000Y0243000D03*
X0067500Y0243000D03*
X0103000Y0288500D03*
X0088000Y0292000D03*
X0221000Y0235000D03*
X0226000Y0229500D03*
X0306500Y0078500D03*
X0309500Y0073500D03*
X0313000Y0073500D03*
X0302500Y0073500D03*
X0299000Y0073500D03*
X0279500Y0060000D03*
X0274500Y0056000D03*
X0278500Y0047000D03*
X0285000Y0037500D03*
X0259000Y0037500D03*
X0237000Y0028000D03*
X0317000Y0028000D03*
X0326000Y0037500D03*
X0358500Y0037500D03*
X0341000Y0078500D03*
D22*
X0353000Y0198000D03*
D23*
X0282000Y0194000D03*
X0276000Y0194000D03*
X0121500Y0194000D03*
X0121500Y0188000D03*
X0121500Y0237000D03*
X0121500Y0242500D03*
X0096500Y0242500D03*
X0091000Y0242500D03*
M02*
