G75*
%MOIN*%
%OFA0B0*%
%FSLAX25Y25*%
%IPPOS*%
%LPD*%
%AMOC8*
5,1,8,0,0,1.08239X$1,22.5*
%
%ADD10C,0.00000*%
%ADD11R,0.04252X0.04134*%
%ADD12R,0.04134X0.04252*%
%ADD13R,0.05118X0.06299*%
%ADD14R,0.06299X0.05118*%
%ADD15R,0.04724X0.01181*%
%ADD16R,0.01181X0.04724*%
%ADD17R,0.04331X0.03937*%
%ADD18R,0.03937X0.04331*%
%ADD19R,0.11614X0.07677*%
%ADD20R,0.01575X0.03150*%
%ADD21R,0.03937X0.01575*%
%ADD22R,0.04724X0.01575*%
%ADD23R,0.02500X0.05000*%
%ADD24C,0.00500*%
D10*
X0000000Y0000000D02*
X0000000Y0325000D01*
X0415000Y0325000D01*
X0415000Y0000000D01*
X0000000Y0000000D01*
X0252008Y0215937D02*
X0252010Y0216101D01*
X0252016Y0216265D01*
X0252026Y0216429D01*
X0252040Y0216593D01*
X0252058Y0216756D01*
X0252080Y0216919D01*
X0252107Y0217081D01*
X0252137Y0217243D01*
X0252171Y0217403D01*
X0252209Y0217563D01*
X0252250Y0217722D01*
X0252296Y0217880D01*
X0252346Y0218036D01*
X0252399Y0218192D01*
X0252456Y0218346D01*
X0252517Y0218498D01*
X0252582Y0218649D01*
X0252651Y0218799D01*
X0252723Y0218946D01*
X0252798Y0219092D01*
X0252878Y0219236D01*
X0252960Y0219378D01*
X0253046Y0219518D01*
X0253136Y0219655D01*
X0253229Y0219791D01*
X0253325Y0219924D01*
X0253425Y0220055D01*
X0253527Y0220183D01*
X0253633Y0220309D01*
X0253742Y0220432D01*
X0253854Y0220552D01*
X0253968Y0220670D01*
X0254086Y0220784D01*
X0254206Y0220896D01*
X0254329Y0221005D01*
X0254455Y0221111D01*
X0254583Y0221213D01*
X0254714Y0221313D01*
X0254847Y0221409D01*
X0254983Y0221502D01*
X0255120Y0221592D01*
X0255260Y0221678D01*
X0255402Y0221760D01*
X0255546Y0221840D01*
X0255692Y0221915D01*
X0255839Y0221987D01*
X0255989Y0222056D01*
X0256140Y0222121D01*
X0256292Y0222182D01*
X0256446Y0222239D01*
X0256602Y0222292D01*
X0256758Y0222342D01*
X0256916Y0222388D01*
X0257075Y0222429D01*
X0257235Y0222467D01*
X0257395Y0222501D01*
X0257557Y0222531D01*
X0257719Y0222558D01*
X0257882Y0222580D01*
X0258045Y0222598D01*
X0258209Y0222612D01*
X0258373Y0222622D01*
X0258537Y0222628D01*
X0258701Y0222630D01*
X0258865Y0222628D01*
X0259029Y0222622D01*
X0259193Y0222612D01*
X0259357Y0222598D01*
X0259520Y0222580D01*
X0259683Y0222558D01*
X0259845Y0222531D01*
X0260007Y0222501D01*
X0260167Y0222467D01*
X0260327Y0222429D01*
X0260486Y0222388D01*
X0260644Y0222342D01*
X0260800Y0222292D01*
X0260956Y0222239D01*
X0261110Y0222182D01*
X0261262Y0222121D01*
X0261413Y0222056D01*
X0261563Y0221987D01*
X0261710Y0221915D01*
X0261856Y0221840D01*
X0262000Y0221760D01*
X0262142Y0221678D01*
X0262282Y0221592D01*
X0262419Y0221502D01*
X0262555Y0221409D01*
X0262688Y0221313D01*
X0262819Y0221213D01*
X0262947Y0221111D01*
X0263073Y0221005D01*
X0263196Y0220896D01*
X0263316Y0220784D01*
X0263434Y0220670D01*
X0263548Y0220552D01*
X0263660Y0220432D01*
X0263769Y0220309D01*
X0263875Y0220183D01*
X0263977Y0220055D01*
X0264077Y0219924D01*
X0264173Y0219791D01*
X0264266Y0219655D01*
X0264356Y0219518D01*
X0264442Y0219378D01*
X0264524Y0219236D01*
X0264604Y0219092D01*
X0264679Y0218946D01*
X0264751Y0218799D01*
X0264820Y0218649D01*
X0264885Y0218498D01*
X0264946Y0218346D01*
X0265003Y0218192D01*
X0265056Y0218036D01*
X0265106Y0217880D01*
X0265152Y0217722D01*
X0265193Y0217563D01*
X0265231Y0217403D01*
X0265265Y0217243D01*
X0265295Y0217081D01*
X0265322Y0216919D01*
X0265344Y0216756D01*
X0265362Y0216593D01*
X0265376Y0216429D01*
X0265386Y0216265D01*
X0265392Y0216101D01*
X0265394Y0215937D01*
X0265392Y0215773D01*
X0265386Y0215609D01*
X0265376Y0215445D01*
X0265362Y0215281D01*
X0265344Y0215118D01*
X0265322Y0214955D01*
X0265295Y0214793D01*
X0265265Y0214631D01*
X0265231Y0214471D01*
X0265193Y0214311D01*
X0265152Y0214152D01*
X0265106Y0213994D01*
X0265056Y0213838D01*
X0265003Y0213682D01*
X0264946Y0213528D01*
X0264885Y0213376D01*
X0264820Y0213225D01*
X0264751Y0213075D01*
X0264679Y0212928D01*
X0264604Y0212782D01*
X0264524Y0212638D01*
X0264442Y0212496D01*
X0264356Y0212356D01*
X0264266Y0212219D01*
X0264173Y0212083D01*
X0264077Y0211950D01*
X0263977Y0211819D01*
X0263875Y0211691D01*
X0263769Y0211565D01*
X0263660Y0211442D01*
X0263548Y0211322D01*
X0263434Y0211204D01*
X0263316Y0211090D01*
X0263196Y0210978D01*
X0263073Y0210869D01*
X0262947Y0210763D01*
X0262819Y0210661D01*
X0262688Y0210561D01*
X0262555Y0210465D01*
X0262419Y0210372D01*
X0262282Y0210282D01*
X0262142Y0210196D01*
X0262000Y0210114D01*
X0261856Y0210034D01*
X0261710Y0209959D01*
X0261563Y0209887D01*
X0261413Y0209818D01*
X0261262Y0209753D01*
X0261110Y0209692D01*
X0260956Y0209635D01*
X0260800Y0209582D01*
X0260644Y0209532D01*
X0260486Y0209486D01*
X0260327Y0209445D01*
X0260167Y0209407D01*
X0260007Y0209373D01*
X0259845Y0209343D01*
X0259683Y0209316D01*
X0259520Y0209294D01*
X0259357Y0209276D01*
X0259193Y0209262D01*
X0259029Y0209252D01*
X0258865Y0209246D01*
X0258701Y0209244D01*
X0258537Y0209246D01*
X0258373Y0209252D01*
X0258209Y0209262D01*
X0258045Y0209276D01*
X0257882Y0209294D01*
X0257719Y0209316D01*
X0257557Y0209343D01*
X0257395Y0209373D01*
X0257235Y0209407D01*
X0257075Y0209445D01*
X0256916Y0209486D01*
X0256758Y0209532D01*
X0256602Y0209582D01*
X0256446Y0209635D01*
X0256292Y0209692D01*
X0256140Y0209753D01*
X0255989Y0209818D01*
X0255839Y0209887D01*
X0255692Y0209959D01*
X0255546Y0210034D01*
X0255402Y0210114D01*
X0255260Y0210196D01*
X0255120Y0210282D01*
X0254983Y0210372D01*
X0254847Y0210465D01*
X0254714Y0210561D01*
X0254583Y0210661D01*
X0254455Y0210763D01*
X0254329Y0210869D01*
X0254206Y0210978D01*
X0254086Y0211090D01*
X0253968Y0211204D01*
X0253854Y0211322D01*
X0253742Y0211442D01*
X0253633Y0211565D01*
X0253527Y0211691D01*
X0253425Y0211819D01*
X0253325Y0211950D01*
X0253229Y0212083D01*
X0253136Y0212219D01*
X0253046Y0212356D01*
X0252960Y0212496D01*
X0252878Y0212638D01*
X0252798Y0212782D01*
X0252723Y0212928D01*
X0252651Y0213075D01*
X0252582Y0213225D01*
X0252517Y0213376D01*
X0252456Y0213528D01*
X0252399Y0213682D01*
X0252346Y0213838D01*
X0252296Y0213994D01*
X0252250Y0214152D01*
X0252209Y0214311D01*
X0252171Y0214471D01*
X0252137Y0214631D01*
X0252107Y0214793D01*
X0252080Y0214955D01*
X0252058Y0215118D01*
X0252040Y0215281D01*
X0252026Y0215445D01*
X0252016Y0215609D01*
X0252010Y0215773D01*
X0252008Y0215937D01*
X0339527Y0215937D02*
X0339529Y0216101D01*
X0339535Y0216265D01*
X0339545Y0216429D01*
X0339559Y0216593D01*
X0339577Y0216756D01*
X0339599Y0216919D01*
X0339626Y0217081D01*
X0339656Y0217243D01*
X0339690Y0217403D01*
X0339728Y0217563D01*
X0339769Y0217722D01*
X0339815Y0217880D01*
X0339865Y0218036D01*
X0339918Y0218192D01*
X0339975Y0218346D01*
X0340036Y0218498D01*
X0340101Y0218649D01*
X0340170Y0218799D01*
X0340242Y0218946D01*
X0340317Y0219092D01*
X0340397Y0219236D01*
X0340479Y0219378D01*
X0340565Y0219518D01*
X0340655Y0219655D01*
X0340748Y0219791D01*
X0340844Y0219924D01*
X0340944Y0220055D01*
X0341046Y0220183D01*
X0341152Y0220309D01*
X0341261Y0220432D01*
X0341373Y0220552D01*
X0341487Y0220670D01*
X0341605Y0220784D01*
X0341725Y0220896D01*
X0341848Y0221005D01*
X0341974Y0221111D01*
X0342102Y0221213D01*
X0342233Y0221313D01*
X0342366Y0221409D01*
X0342502Y0221502D01*
X0342639Y0221592D01*
X0342779Y0221678D01*
X0342921Y0221760D01*
X0343065Y0221840D01*
X0343211Y0221915D01*
X0343358Y0221987D01*
X0343508Y0222056D01*
X0343659Y0222121D01*
X0343811Y0222182D01*
X0343965Y0222239D01*
X0344121Y0222292D01*
X0344277Y0222342D01*
X0344435Y0222388D01*
X0344594Y0222429D01*
X0344754Y0222467D01*
X0344914Y0222501D01*
X0345076Y0222531D01*
X0345238Y0222558D01*
X0345401Y0222580D01*
X0345564Y0222598D01*
X0345728Y0222612D01*
X0345892Y0222622D01*
X0346056Y0222628D01*
X0346220Y0222630D01*
X0346384Y0222628D01*
X0346548Y0222622D01*
X0346712Y0222612D01*
X0346876Y0222598D01*
X0347039Y0222580D01*
X0347202Y0222558D01*
X0347364Y0222531D01*
X0347526Y0222501D01*
X0347686Y0222467D01*
X0347846Y0222429D01*
X0348005Y0222388D01*
X0348163Y0222342D01*
X0348319Y0222292D01*
X0348475Y0222239D01*
X0348629Y0222182D01*
X0348781Y0222121D01*
X0348932Y0222056D01*
X0349082Y0221987D01*
X0349229Y0221915D01*
X0349375Y0221840D01*
X0349519Y0221760D01*
X0349661Y0221678D01*
X0349801Y0221592D01*
X0349938Y0221502D01*
X0350074Y0221409D01*
X0350207Y0221313D01*
X0350338Y0221213D01*
X0350466Y0221111D01*
X0350592Y0221005D01*
X0350715Y0220896D01*
X0350835Y0220784D01*
X0350953Y0220670D01*
X0351067Y0220552D01*
X0351179Y0220432D01*
X0351288Y0220309D01*
X0351394Y0220183D01*
X0351496Y0220055D01*
X0351596Y0219924D01*
X0351692Y0219791D01*
X0351785Y0219655D01*
X0351875Y0219518D01*
X0351961Y0219378D01*
X0352043Y0219236D01*
X0352123Y0219092D01*
X0352198Y0218946D01*
X0352270Y0218799D01*
X0352339Y0218649D01*
X0352404Y0218498D01*
X0352465Y0218346D01*
X0352522Y0218192D01*
X0352575Y0218036D01*
X0352625Y0217880D01*
X0352671Y0217722D01*
X0352712Y0217563D01*
X0352750Y0217403D01*
X0352784Y0217243D01*
X0352814Y0217081D01*
X0352841Y0216919D01*
X0352863Y0216756D01*
X0352881Y0216593D01*
X0352895Y0216429D01*
X0352905Y0216265D01*
X0352911Y0216101D01*
X0352913Y0215937D01*
X0352911Y0215773D01*
X0352905Y0215609D01*
X0352895Y0215445D01*
X0352881Y0215281D01*
X0352863Y0215118D01*
X0352841Y0214955D01*
X0352814Y0214793D01*
X0352784Y0214631D01*
X0352750Y0214471D01*
X0352712Y0214311D01*
X0352671Y0214152D01*
X0352625Y0213994D01*
X0352575Y0213838D01*
X0352522Y0213682D01*
X0352465Y0213528D01*
X0352404Y0213376D01*
X0352339Y0213225D01*
X0352270Y0213075D01*
X0352198Y0212928D01*
X0352123Y0212782D01*
X0352043Y0212638D01*
X0351961Y0212496D01*
X0351875Y0212356D01*
X0351785Y0212219D01*
X0351692Y0212083D01*
X0351596Y0211950D01*
X0351496Y0211819D01*
X0351394Y0211691D01*
X0351288Y0211565D01*
X0351179Y0211442D01*
X0351067Y0211322D01*
X0350953Y0211204D01*
X0350835Y0211090D01*
X0350715Y0210978D01*
X0350592Y0210869D01*
X0350466Y0210763D01*
X0350338Y0210661D01*
X0350207Y0210561D01*
X0350074Y0210465D01*
X0349938Y0210372D01*
X0349801Y0210282D01*
X0349661Y0210196D01*
X0349519Y0210114D01*
X0349375Y0210034D01*
X0349229Y0209959D01*
X0349082Y0209887D01*
X0348932Y0209818D01*
X0348781Y0209753D01*
X0348629Y0209692D01*
X0348475Y0209635D01*
X0348319Y0209582D01*
X0348163Y0209532D01*
X0348005Y0209486D01*
X0347846Y0209445D01*
X0347686Y0209407D01*
X0347526Y0209373D01*
X0347364Y0209343D01*
X0347202Y0209316D01*
X0347039Y0209294D01*
X0346876Y0209276D01*
X0346712Y0209262D01*
X0346548Y0209252D01*
X0346384Y0209246D01*
X0346220Y0209244D01*
X0346056Y0209246D01*
X0345892Y0209252D01*
X0345728Y0209262D01*
X0345564Y0209276D01*
X0345401Y0209294D01*
X0345238Y0209316D01*
X0345076Y0209343D01*
X0344914Y0209373D01*
X0344754Y0209407D01*
X0344594Y0209445D01*
X0344435Y0209486D01*
X0344277Y0209532D01*
X0344121Y0209582D01*
X0343965Y0209635D01*
X0343811Y0209692D01*
X0343659Y0209753D01*
X0343508Y0209818D01*
X0343358Y0209887D01*
X0343211Y0209959D01*
X0343065Y0210034D01*
X0342921Y0210114D01*
X0342779Y0210196D01*
X0342639Y0210282D01*
X0342502Y0210372D01*
X0342366Y0210465D01*
X0342233Y0210561D01*
X0342102Y0210661D01*
X0341974Y0210763D01*
X0341848Y0210869D01*
X0341725Y0210978D01*
X0341605Y0211090D01*
X0341487Y0211204D01*
X0341373Y0211322D01*
X0341261Y0211442D01*
X0341152Y0211565D01*
X0341046Y0211691D01*
X0340944Y0211819D01*
X0340844Y0211950D01*
X0340748Y0212083D01*
X0340655Y0212219D01*
X0340565Y0212356D01*
X0340479Y0212496D01*
X0340397Y0212638D01*
X0340317Y0212782D01*
X0340242Y0212928D01*
X0340170Y0213075D01*
X0340101Y0213225D01*
X0340036Y0213376D01*
X0339975Y0213528D01*
X0339918Y0213682D01*
X0339865Y0213838D01*
X0339815Y0213994D01*
X0339769Y0214152D01*
X0339728Y0214311D01*
X0339690Y0214471D01*
X0339656Y0214631D01*
X0339626Y0214793D01*
X0339599Y0214955D01*
X0339577Y0215118D01*
X0339559Y0215281D01*
X0339545Y0215445D01*
X0339535Y0215609D01*
X0339529Y0215773D01*
X0339527Y0215937D01*
X0339527Y0309756D02*
X0339529Y0309920D01*
X0339535Y0310084D01*
X0339545Y0310248D01*
X0339559Y0310412D01*
X0339577Y0310575D01*
X0339599Y0310738D01*
X0339626Y0310900D01*
X0339656Y0311062D01*
X0339690Y0311222D01*
X0339728Y0311382D01*
X0339769Y0311541D01*
X0339815Y0311699D01*
X0339865Y0311855D01*
X0339918Y0312011D01*
X0339975Y0312165D01*
X0340036Y0312317D01*
X0340101Y0312468D01*
X0340170Y0312618D01*
X0340242Y0312765D01*
X0340317Y0312911D01*
X0340397Y0313055D01*
X0340479Y0313197D01*
X0340565Y0313337D01*
X0340655Y0313474D01*
X0340748Y0313610D01*
X0340844Y0313743D01*
X0340944Y0313874D01*
X0341046Y0314002D01*
X0341152Y0314128D01*
X0341261Y0314251D01*
X0341373Y0314371D01*
X0341487Y0314489D01*
X0341605Y0314603D01*
X0341725Y0314715D01*
X0341848Y0314824D01*
X0341974Y0314930D01*
X0342102Y0315032D01*
X0342233Y0315132D01*
X0342366Y0315228D01*
X0342502Y0315321D01*
X0342639Y0315411D01*
X0342779Y0315497D01*
X0342921Y0315579D01*
X0343065Y0315659D01*
X0343211Y0315734D01*
X0343358Y0315806D01*
X0343508Y0315875D01*
X0343659Y0315940D01*
X0343811Y0316001D01*
X0343965Y0316058D01*
X0344121Y0316111D01*
X0344277Y0316161D01*
X0344435Y0316207D01*
X0344594Y0316248D01*
X0344754Y0316286D01*
X0344914Y0316320D01*
X0345076Y0316350D01*
X0345238Y0316377D01*
X0345401Y0316399D01*
X0345564Y0316417D01*
X0345728Y0316431D01*
X0345892Y0316441D01*
X0346056Y0316447D01*
X0346220Y0316449D01*
X0346384Y0316447D01*
X0346548Y0316441D01*
X0346712Y0316431D01*
X0346876Y0316417D01*
X0347039Y0316399D01*
X0347202Y0316377D01*
X0347364Y0316350D01*
X0347526Y0316320D01*
X0347686Y0316286D01*
X0347846Y0316248D01*
X0348005Y0316207D01*
X0348163Y0316161D01*
X0348319Y0316111D01*
X0348475Y0316058D01*
X0348629Y0316001D01*
X0348781Y0315940D01*
X0348932Y0315875D01*
X0349082Y0315806D01*
X0349229Y0315734D01*
X0349375Y0315659D01*
X0349519Y0315579D01*
X0349661Y0315497D01*
X0349801Y0315411D01*
X0349938Y0315321D01*
X0350074Y0315228D01*
X0350207Y0315132D01*
X0350338Y0315032D01*
X0350466Y0314930D01*
X0350592Y0314824D01*
X0350715Y0314715D01*
X0350835Y0314603D01*
X0350953Y0314489D01*
X0351067Y0314371D01*
X0351179Y0314251D01*
X0351288Y0314128D01*
X0351394Y0314002D01*
X0351496Y0313874D01*
X0351596Y0313743D01*
X0351692Y0313610D01*
X0351785Y0313474D01*
X0351875Y0313337D01*
X0351961Y0313197D01*
X0352043Y0313055D01*
X0352123Y0312911D01*
X0352198Y0312765D01*
X0352270Y0312618D01*
X0352339Y0312468D01*
X0352404Y0312317D01*
X0352465Y0312165D01*
X0352522Y0312011D01*
X0352575Y0311855D01*
X0352625Y0311699D01*
X0352671Y0311541D01*
X0352712Y0311382D01*
X0352750Y0311222D01*
X0352784Y0311062D01*
X0352814Y0310900D01*
X0352841Y0310738D01*
X0352863Y0310575D01*
X0352881Y0310412D01*
X0352895Y0310248D01*
X0352905Y0310084D01*
X0352911Y0309920D01*
X0352913Y0309756D01*
X0352911Y0309592D01*
X0352905Y0309428D01*
X0352895Y0309264D01*
X0352881Y0309100D01*
X0352863Y0308937D01*
X0352841Y0308774D01*
X0352814Y0308612D01*
X0352784Y0308450D01*
X0352750Y0308290D01*
X0352712Y0308130D01*
X0352671Y0307971D01*
X0352625Y0307813D01*
X0352575Y0307657D01*
X0352522Y0307501D01*
X0352465Y0307347D01*
X0352404Y0307195D01*
X0352339Y0307044D01*
X0352270Y0306894D01*
X0352198Y0306747D01*
X0352123Y0306601D01*
X0352043Y0306457D01*
X0351961Y0306315D01*
X0351875Y0306175D01*
X0351785Y0306038D01*
X0351692Y0305902D01*
X0351596Y0305769D01*
X0351496Y0305638D01*
X0351394Y0305510D01*
X0351288Y0305384D01*
X0351179Y0305261D01*
X0351067Y0305141D01*
X0350953Y0305023D01*
X0350835Y0304909D01*
X0350715Y0304797D01*
X0350592Y0304688D01*
X0350466Y0304582D01*
X0350338Y0304480D01*
X0350207Y0304380D01*
X0350074Y0304284D01*
X0349938Y0304191D01*
X0349801Y0304101D01*
X0349661Y0304015D01*
X0349519Y0303933D01*
X0349375Y0303853D01*
X0349229Y0303778D01*
X0349082Y0303706D01*
X0348932Y0303637D01*
X0348781Y0303572D01*
X0348629Y0303511D01*
X0348475Y0303454D01*
X0348319Y0303401D01*
X0348163Y0303351D01*
X0348005Y0303305D01*
X0347846Y0303264D01*
X0347686Y0303226D01*
X0347526Y0303192D01*
X0347364Y0303162D01*
X0347202Y0303135D01*
X0347039Y0303113D01*
X0346876Y0303095D01*
X0346712Y0303081D01*
X0346548Y0303071D01*
X0346384Y0303065D01*
X0346220Y0303063D01*
X0346056Y0303065D01*
X0345892Y0303071D01*
X0345728Y0303081D01*
X0345564Y0303095D01*
X0345401Y0303113D01*
X0345238Y0303135D01*
X0345076Y0303162D01*
X0344914Y0303192D01*
X0344754Y0303226D01*
X0344594Y0303264D01*
X0344435Y0303305D01*
X0344277Y0303351D01*
X0344121Y0303401D01*
X0343965Y0303454D01*
X0343811Y0303511D01*
X0343659Y0303572D01*
X0343508Y0303637D01*
X0343358Y0303706D01*
X0343211Y0303778D01*
X0343065Y0303853D01*
X0342921Y0303933D01*
X0342779Y0304015D01*
X0342639Y0304101D01*
X0342502Y0304191D01*
X0342366Y0304284D01*
X0342233Y0304380D01*
X0342102Y0304480D01*
X0341974Y0304582D01*
X0341848Y0304688D01*
X0341725Y0304797D01*
X0341605Y0304909D01*
X0341487Y0305023D01*
X0341373Y0305141D01*
X0341261Y0305261D01*
X0341152Y0305384D01*
X0341046Y0305510D01*
X0340944Y0305638D01*
X0340844Y0305769D01*
X0340748Y0305902D01*
X0340655Y0306038D01*
X0340565Y0306175D01*
X0340479Y0306315D01*
X0340397Y0306457D01*
X0340317Y0306601D01*
X0340242Y0306747D01*
X0340170Y0306894D01*
X0340101Y0307044D01*
X0340036Y0307195D01*
X0339975Y0307347D01*
X0339918Y0307501D01*
X0339865Y0307657D01*
X0339815Y0307813D01*
X0339769Y0307971D01*
X0339728Y0308130D01*
X0339690Y0308290D01*
X0339656Y0308450D01*
X0339626Y0308612D01*
X0339599Y0308774D01*
X0339577Y0308937D01*
X0339559Y0309100D01*
X0339545Y0309264D01*
X0339535Y0309428D01*
X0339529Y0309592D01*
X0339527Y0309756D01*
X0252008Y0309756D02*
X0252010Y0309920D01*
X0252016Y0310084D01*
X0252026Y0310248D01*
X0252040Y0310412D01*
X0252058Y0310575D01*
X0252080Y0310738D01*
X0252107Y0310900D01*
X0252137Y0311062D01*
X0252171Y0311222D01*
X0252209Y0311382D01*
X0252250Y0311541D01*
X0252296Y0311699D01*
X0252346Y0311855D01*
X0252399Y0312011D01*
X0252456Y0312165D01*
X0252517Y0312317D01*
X0252582Y0312468D01*
X0252651Y0312618D01*
X0252723Y0312765D01*
X0252798Y0312911D01*
X0252878Y0313055D01*
X0252960Y0313197D01*
X0253046Y0313337D01*
X0253136Y0313474D01*
X0253229Y0313610D01*
X0253325Y0313743D01*
X0253425Y0313874D01*
X0253527Y0314002D01*
X0253633Y0314128D01*
X0253742Y0314251D01*
X0253854Y0314371D01*
X0253968Y0314489D01*
X0254086Y0314603D01*
X0254206Y0314715D01*
X0254329Y0314824D01*
X0254455Y0314930D01*
X0254583Y0315032D01*
X0254714Y0315132D01*
X0254847Y0315228D01*
X0254983Y0315321D01*
X0255120Y0315411D01*
X0255260Y0315497D01*
X0255402Y0315579D01*
X0255546Y0315659D01*
X0255692Y0315734D01*
X0255839Y0315806D01*
X0255989Y0315875D01*
X0256140Y0315940D01*
X0256292Y0316001D01*
X0256446Y0316058D01*
X0256602Y0316111D01*
X0256758Y0316161D01*
X0256916Y0316207D01*
X0257075Y0316248D01*
X0257235Y0316286D01*
X0257395Y0316320D01*
X0257557Y0316350D01*
X0257719Y0316377D01*
X0257882Y0316399D01*
X0258045Y0316417D01*
X0258209Y0316431D01*
X0258373Y0316441D01*
X0258537Y0316447D01*
X0258701Y0316449D01*
X0258865Y0316447D01*
X0259029Y0316441D01*
X0259193Y0316431D01*
X0259357Y0316417D01*
X0259520Y0316399D01*
X0259683Y0316377D01*
X0259845Y0316350D01*
X0260007Y0316320D01*
X0260167Y0316286D01*
X0260327Y0316248D01*
X0260486Y0316207D01*
X0260644Y0316161D01*
X0260800Y0316111D01*
X0260956Y0316058D01*
X0261110Y0316001D01*
X0261262Y0315940D01*
X0261413Y0315875D01*
X0261563Y0315806D01*
X0261710Y0315734D01*
X0261856Y0315659D01*
X0262000Y0315579D01*
X0262142Y0315497D01*
X0262282Y0315411D01*
X0262419Y0315321D01*
X0262555Y0315228D01*
X0262688Y0315132D01*
X0262819Y0315032D01*
X0262947Y0314930D01*
X0263073Y0314824D01*
X0263196Y0314715D01*
X0263316Y0314603D01*
X0263434Y0314489D01*
X0263548Y0314371D01*
X0263660Y0314251D01*
X0263769Y0314128D01*
X0263875Y0314002D01*
X0263977Y0313874D01*
X0264077Y0313743D01*
X0264173Y0313610D01*
X0264266Y0313474D01*
X0264356Y0313337D01*
X0264442Y0313197D01*
X0264524Y0313055D01*
X0264604Y0312911D01*
X0264679Y0312765D01*
X0264751Y0312618D01*
X0264820Y0312468D01*
X0264885Y0312317D01*
X0264946Y0312165D01*
X0265003Y0312011D01*
X0265056Y0311855D01*
X0265106Y0311699D01*
X0265152Y0311541D01*
X0265193Y0311382D01*
X0265231Y0311222D01*
X0265265Y0311062D01*
X0265295Y0310900D01*
X0265322Y0310738D01*
X0265344Y0310575D01*
X0265362Y0310412D01*
X0265376Y0310248D01*
X0265386Y0310084D01*
X0265392Y0309920D01*
X0265394Y0309756D01*
X0265392Y0309592D01*
X0265386Y0309428D01*
X0265376Y0309264D01*
X0265362Y0309100D01*
X0265344Y0308937D01*
X0265322Y0308774D01*
X0265295Y0308612D01*
X0265265Y0308450D01*
X0265231Y0308290D01*
X0265193Y0308130D01*
X0265152Y0307971D01*
X0265106Y0307813D01*
X0265056Y0307657D01*
X0265003Y0307501D01*
X0264946Y0307347D01*
X0264885Y0307195D01*
X0264820Y0307044D01*
X0264751Y0306894D01*
X0264679Y0306747D01*
X0264604Y0306601D01*
X0264524Y0306457D01*
X0264442Y0306315D01*
X0264356Y0306175D01*
X0264266Y0306038D01*
X0264173Y0305902D01*
X0264077Y0305769D01*
X0263977Y0305638D01*
X0263875Y0305510D01*
X0263769Y0305384D01*
X0263660Y0305261D01*
X0263548Y0305141D01*
X0263434Y0305023D01*
X0263316Y0304909D01*
X0263196Y0304797D01*
X0263073Y0304688D01*
X0262947Y0304582D01*
X0262819Y0304480D01*
X0262688Y0304380D01*
X0262555Y0304284D01*
X0262419Y0304191D01*
X0262282Y0304101D01*
X0262142Y0304015D01*
X0262000Y0303933D01*
X0261856Y0303853D01*
X0261710Y0303778D01*
X0261563Y0303706D01*
X0261413Y0303637D01*
X0261262Y0303572D01*
X0261110Y0303511D01*
X0260956Y0303454D01*
X0260800Y0303401D01*
X0260644Y0303351D01*
X0260486Y0303305D01*
X0260327Y0303264D01*
X0260167Y0303226D01*
X0260007Y0303192D01*
X0259845Y0303162D01*
X0259683Y0303135D01*
X0259520Y0303113D01*
X0259357Y0303095D01*
X0259193Y0303081D01*
X0259029Y0303071D01*
X0258865Y0303065D01*
X0258701Y0303063D01*
X0258537Y0303065D01*
X0258373Y0303071D01*
X0258209Y0303081D01*
X0258045Y0303095D01*
X0257882Y0303113D01*
X0257719Y0303135D01*
X0257557Y0303162D01*
X0257395Y0303192D01*
X0257235Y0303226D01*
X0257075Y0303264D01*
X0256916Y0303305D01*
X0256758Y0303351D01*
X0256602Y0303401D01*
X0256446Y0303454D01*
X0256292Y0303511D01*
X0256140Y0303572D01*
X0255989Y0303637D01*
X0255839Y0303706D01*
X0255692Y0303778D01*
X0255546Y0303853D01*
X0255402Y0303933D01*
X0255260Y0304015D01*
X0255120Y0304101D01*
X0254983Y0304191D01*
X0254847Y0304284D01*
X0254714Y0304380D01*
X0254583Y0304480D01*
X0254455Y0304582D01*
X0254329Y0304688D01*
X0254206Y0304797D01*
X0254086Y0304909D01*
X0253968Y0305023D01*
X0253854Y0305141D01*
X0253742Y0305261D01*
X0253633Y0305384D01*
X0253527Y0305510D01*
X0253425Y0305638D01*
X0253325Y0305769D01*
X0253229Y0305902D01*
X0253136Y0306038D01*
X0253046Y0306175D01*
X0252960Y0306315D01*
X0252878Y0306457D01*
X0252798Y0306601D01*
X0252723Y0306747D01*
X0252651Y0306894D01*
X0252582Y0307044D01*
X0252517Y0307195D01*
X0252456Y0307347D01*
X0252399Y0307501D01*
X0252346Y0307657D01*
X0252296Y0307813D01*
X0252250Y0307971D01*
X0252209Y0308130D01*
X0252171Y0308290D01*
X0252137Y0308450D01*
X0252107Y0308612D01*
X0252080Y0308774D01*
X0252058Y0308937D01*
X0252040Y0309100D01*
X0252026Y0309264D01*
X0252016Y0309428D01*
X0252010Y0309592D01*
X0252008Y0309756D01*
X0028795Y0289000D02*
X0028797Y0289108D01*
X0028803Y0289217D01*
X0028813Y0289325D01*
X0028827Y0289432D01*
X0028845Y0289539D01*
X0028866Y0289646D01*
X0028892Y0289751D01*
X0028922Y0289856D01*
X0028955Y0289959D01*
X0028992Y0290061D01*
X0029033Y0290161D01*
X0029077Y0290260D01*
X0029126Y0290358D01*
X0029177Y0290453D01*
X0029232Y0290546D01*
X0029291Y0290638D01*
X0029353Y0290727D01*
X0029418Y0290814D01*
X0029486Y0290898D01*
X0029557Y0290980D01*
X0029631Y0291059D01*
X0029708Y0291135D01*
X0029788Y0291209D01*
X0029871Y0291279D01*
X0029956Y0291347D01*
X0030043Y0291411D01*
X0030133Y0291472D01*
X0030225Y0291530D01*
X0030319Y0291584D01*
X0030415Y0291635D01*
X0030512Y0291682D01*
X0030612Y0291726D01*
X0030713Y0291766D01*
X0030815Y0291802D01*
X0030918Y0291834D01*
X0031023Y0291863D01*
X0031129Y0291887D01*
X0031235Y0291908D01*
X0031342Y0291925D01*
X0031450Y0291938D01*
X0031558Y0291947D01*
X0031667Y0291952D01*
X0031775Y0291953D01*
X0031884Y0291950D01*
X0031992Y0291943D01*
X0032100Y0291932D01*
X0032207Y0291917D01*
X0032314Y0291898D01*
X0032420Y0291875D01*
X0032525Y0291849D01*
X0032630Y0291818D01*
X0032732Y0291784D01*
X0032834Y0291746D01*
X0032934Y0291704D01*
X0033033Y0291659D01*
X0033130Y0291610D01*
X0033224Y0291557D01*
X0033317Y0291501D01*
X0033408Y0291442D01*
X0033497Y0291379D01*
X0033583Y0291314D01*
X0033667Y0291245D01*
X0033748Y0291173D01*
X0033826Y0291098D01*
X0033902Y0291020D01*
X0033975Y0290939D01*
X0034045Y0290856D01*
X0034111Y0290771D01*
X0034175Y0290683D01*
X0034235Y0290592D01*
X0034292Y0290500D01*
X0034345Y0290405D01*
X0034395Y0290309D01*
X0034441Y0290211D01*
X0034484Y0290111D01*
X0034523Y0290010D01*
X0034558Y0289907D01*
X0034590Y0289804D01*
X0034617Y0289699D01*
X0034641Y0289593D01*
X0034661Y0289486D01*
X0034677Y0289379D01*
X0034689Y0289271D01*
X0034697Y0289163D01*
X0034701Y0289054D01*
X0034701Y0288946D01*
X0034697Y0288837D01*
X0034689Y0288729D01*
X0034677Y0288621D01*
X0034661Y0288514D01*
X0034641Y0288407D01*
X0034617Y0288301D01*
X0034590Y0288196D01*
X0034558Y0288093D01*
X0034523Y0287990D01*
X0034484Y0287889D01*
X0034441Y0287789D01*
X0034395Y0287691D01*
X0034345Y0287595D01*
X0034292Y0287500D01*
X0034235Y0287408D01*
X0034175Y0287317D01*
X0034111Y0287229D01*
X0034045Y0287144D01*
X0033975Y0287061D01*
X0033902Y0286980D01*
X0033826Y0286902D01*
X0033748Y0286827D01*
X0033667Y0286755D01*
X0033583Y0286686D01*
X0033497Y0286621D01*
X0033408Y0286558D01*
X0033317Y0286499D01*
X0033225Y0286443D01*
X0033130Y0286390D01*
X0033033Y0286341D01*
X0032934Y0286296D01*
X0032834Y0286254D01*
X0032732Y0286216D01*
X0032630Y0286182D01*
X0032525Y0286151D01*
X0032420Y0286125D01*
X0032314Y0286102D01*
X0032207Y0286083D01*
X0032100Y0286068D01*
X0031992Y0286057D01*
X0031884Y0286050D01*
X0031775Y0286047D01*
X0031667Y0286048D01*
X0031558Y0286053D01*
X0031450Y0286062D01*
X0031342Y0286075D01*
X0031235Y0286092D01*
X0031129Y0286113D01*
X0031023Y0286137D01*
X0030918Y0286166D01*
X0030815Y0286198D01*
X0030713Y0286234D01*
X0030612Y0286274D01*
X0030512Y0286318D01*
X0030415Y0286365D01*
X0030319Y0286416D01*
X0030225Y0286470D01*
X0030133Y0286528D01*
X0030043Y0286589D01*
X0029956Y0286653D01*
X0029871Y0286721D01*
X0029788Y0286791D01*
X0029708Y0286865D01*
X0029631Y0286941D01*
X0029557Y0287020D01*
X0029486Y0287102D01*
X0029418Y0287186D01*
X0029353Y0287273D01*
X0029291Y0287362D01*
X0029232Y0287454D01*
X0029177Y0287547D01*
X0029126Y0287642D01*
X0029077Y0287740D01*
X0029033Y0287839D01*
X0028992Y0287939D01*
X0028955Y0288041D01*
X0028922Y0288144D01*
X0028892Y0288249D01*
X0028866Y0288354D01*
X0028845Y0288461D01*
X0028827Y0288568D01*
X0028813Y0288675D01*
X0028803Y0288783D01*
X0028797Y0288892D01*
X0028795Y0289000D01*
X0009110Y0269315D02*
X0009112Y0269423D01*
X0009118Y0269532D01*
X0009128Y0269640D01*
X0009142Y0269747D01*
X0009160Y0269854D01*
X0009181Y0269961D01*
X0009207Y0270066D01*
X0009237Y0270171D01*
X0009270Y0270274D01*
X0009307Y0270376D01*
X0009348Y0270476D01*
X0009392Y0270575D01*
X0009441Y0270673D01*
X0009492Y0270768D01*
X0009547Y0270861D01*
X0009606Y0270953D01*
X0009668Y0271042D01*
X0009733Y0271129D01*
X0009801Y0271213D01*
X0009872Y0271295D01*
X0009946Y0271374D01*
X0010023Y0271450D01*
X0010103Y0271524D01*
X0010186Y0271594D01*
X0010271Y0271662D01*
X0010358Y0271726D01*
X0010448Y0271787D01*
X0010540Y0271845D01*
X0010634Y0271899D01*
X0010730Y0271950D01*
X0010827Y0271997D01*
X0010927Y0272041D01*
X0011028Y0272081D01*
X0011130Y0272117D01*
X0011233Y0272149D01*
X0011338Y0272178D01*
X0011444Y0272202D01*
X0011550Y0272223D01*
X0011657Y0272240D01*
X0011765Y0272253D01*
X0011873Y0272262D01*
X0011982Y0272267D01*
X0012090Y0272268D01*
X0012199Y0272265D01*
X0012307Y0272258D01*
X0012415Y0272247D01*
X0012522Y0272232D01*
X0012629Y0272213D01*
X0012735Y0272190D01*
X0012840Y0272164D01*
X0012945Y0272133D01*
X0013047Y0272099D01*
X0013149Y0272061D01*
X0013249Y0272019D01*
X0013348Y0271974D01*
X0013445Y0271925D01*
X0013539Y0271872D01*
X0013632Y0271816D01*
X0013723Y0271757D01*
X0013812Y0271694D01*
X0013898Y0271629D01*
X0013982Y0271560D01*
X0014063Y0271488D01*
X0014141Y0271413D01*
X0014217Y0271335D01*
X0014290Y0271254D01*
X0014360Y0271171D01*
X0014426Y0271086D01*
X0014490Y0270998D01*
X0014550Y0270907D01*
X0014607Y0270815D01*
X0014660Y0270720D01*
X0014710Y0270624D01*
X0014756Y0270526D01*
X0014799Y0270426D01*
X0014838Y0270325D01*
X0014873Y0270222D01*
X0014905Y0270119D01*
X0014932Y0270014D01*
X0014956Y0269908D01*
X0014976Y0269801D01*
X0014992Y0269694D01*
X0015004Y0269586D01*
X0015012Y0269478D01*
X0015016Y0269369D01*
X0015016Y0269261D01*
X0015012Y0269152D01*
X0015004Y0269044D01*
X0014992Y0268936D01*
X0014976Y0268829D01*
X0014956Y0268722D01*
X0014932Y0268616D01*
X0014905Y0268511D01*
X0014873Y0268408D01*
X0014838Y0268305D01*
X0014799Y0268204D01*
X0014756Y0268104D01*
X0014710Y0268006D01*
X0014660Y0267910D01*
X0014607Y0267815D01*
X0014550Y0267723D01*
X0014490Y0267632D01*
X0014426Y0267544D01*
X0014360Y0267459D01*
X0014290Y0267376D01*
X0014217Y0267295D01*
X0014141Y0267217D01*
X0014063Y0267142D01*
X0013982Y0267070D01*
X0013898Y0267001D01*
X0013812Y0266936D01*
X0013723Y0266873D01*
X0013632Y0266814D01*
X0013540Y0266758D01*
X0013445Y0266705D01*
X0013348Y0266656D01*
X0013249Y0266611D01*
X0013149Y0266569D01*
X0013047Y0266531D01*
X0012945Y0266497D01*
X0012840Y0266466D01*
X0012735Y0266440D01*
X0012629Y0266417D01*
X0012522Y0266398D01*
X0012415Y0266383D01*
X0012307Y0266372D01*
X0012199Y0266365D01*
X0012090Y0266362D01*
X0011982Y0266363D01*
X0011873Y0266368D01*
X0011765Y0266377D01*
X0011657Y0266390D01*
X0011550Y0266407D01*
X0011444Y0266428D01*
X0011338Y0266452D01*
X0011233Y0266481D01*
X0011130Y0266513D01*
X0011028Y0266549D01*
X0010927Y0266589D01*
X0010827Y0266633D01*
X0010730Y0266680D01*
X0010634Y0266731D01*
X0010540Y0266785D01*
X0010448Y0266843D01*
X0010358Y0266904D01*
X0010271Y0266968D01*
X0010186Y0267036D01*
X0010103Y0267106D01*
X0010023Y0267180D01*
X0009946Y0267256D01*
X0009872Y0267335D01*
X0009801Y0267417D01*
X0009733Y0267501D01*
X0009668Y0267588D01*
X0009606Y0267677D01*
X0009547Y0267769D01*
X0009492Y0267862D01*
X0009441Y0267957D01*
X0009392Y0268055D01*
X0009348Y0268154D01*
X0009307Y0268254D01*
X0009270Y0268356D01*
X0009237Y0268459D01*
X0009207Y0268564D01*
X0009181Y0268669D01*
X0009160Y0268776D01*
X0009142Y0268883D01*
X0009128Y0268990D01*
X0009118Y0269098D01*
X0009112Y0269207D01*
X0009110Y0269315D01*
X0009110Y0308685D02*
X0009112Y0308793D01*
X0009118Y0308902D01*
X0009128Y0309010D01*
X0009142Y0309117D01*
X0009160Y0309224D01*
X0009181Y0309331D01*
X0009207Y0309436D01*
X0009237Y0309541D01*
X0009270Y0309644D01*
X0009307Y0309746D01*
X0009348Y0309846D01*
X0009392Y0309945D01*
X0009441Y0310043D01*
X0009492Y0310138D01*
X0009547Y0310231D01*
X0009606Y0310323D01*
X0009668Y0310412D01*
X0009733Y0310499D01*
X0009801Y0310583D01*
X0009872Y0310665D01*
X0009946Y0310744D01*
X0010023Y0310820D01*
X0010103Y0310894D01*
X0010186Y0310964D01*
X0010271Y0311032D01*
X0010358Y0311096D01*
X0010448Y0311157D01*
X0010540Y0311215D01*
X0010634Y0311269D01*
X0010730Y0311320D01*
X0010827Y0311367D01*
X0010927Y0311411D01*
X0011028Y0311451D01*
X0011130Y0311487D01*
X0011233Y0311519D01*
X0011338Y0311548D01*
X0011444Y0311572D01*
X0011550Y0311593D01*
X0011657Y0311610D01*
X0011765Y0311623D01*
X0011873Y0311632D01*
X0011982Y0311637D01*
X0012090Y0311638D01*
X0012199Y0311635D01*
X0012307Y0311628D01*
X0012415Y0311617D01*
X0012522Y0311602D01*
X0012629Y0311583D01*
X0012735Y0311560D01*
X0012840Y0311534D01*
X0012945Y0311503D01*
X0013047Y0311469D01*
X0013149Y0311431D01*
X0013249Y0311389D01*
X0013348Y0311344D01*
X0013445Y0311295D01*
X0013539Y0311242D01*
X0013632Y0311186D01*
X0013723Y0311127D01*
X0013812Y0311064D01*
X0013898Y0310999D01*
X0013982Y0310930D01*
X0014063Y0310858D01*
X0014141Y0310783D01*
X0014217Y0310705D01*
X0014290Y0310624D01*
X0014360Y0310541D01*
X0014426Y0310456D01*
X0014490Y0310368D01*
X0014550Y0310277D01*
X0014607Y0310185D01*
X0014660Y0310090D01*
X0014710Y0309994D01*
X0014756Y0309896D01*
X0014799Y0309796D01*
X0014838Y0309695D01*
X0014873Y0309592D01*
X0014905Y0309489D01*
X0014932Y0309384D01*
X0014956Y0309278D01*
X0014976Y0309171D01*
X0014992Y0309064D01*
X0015004Y0308956D01*
X0015012Y0308848D01*
X0015016Y0308739D01*
X0015016Y0308631D01*
X0015012Y0308522D01*
X0015004Y0308414D01*
X0014992Y0308306D01*
X0014976Y0308199D01*
X0014956Y0308092D01*
X0014932Y0307986D01*
X0014905Y0307881D01*
X0014873Y0307778D01*
X0014838Y0307675D01*
X0014799Y0307574D01*
X0014756Y0307474D01*
X0014710Y0307376D01*
X0014660Y0307280D01*
X0014607Y0307185D01*
X0014550Y0307093D01*
X0014490Y0307002D01*
X0014426Y0306914D01*
X0014360Y0306829D01*
X0014290Y0306746D01*
X0014217Y0306665D01*
X0014141Y0306587D01*
X0014063Y0306512D01*
X0013982Y0306440D01*
X0013898Y0306371D01*
X0013812Y0306306D01*
X0013723Y0306243D01*
X0013632Y0306184D01*
X0013540Y0306128D01*
X0013445Y0306075D01*
X0013348Y0306026D01*
X0013249Y0305981D01*
X0013149Y0305939D01*
X0013047Y0305901D01*
X0012945Y0305867D01*
X0012840Y0305836D01*
X0012735Y0305810D01*
X0012629Y0305787D01*
X0012522Y0305768D01*
X0012415Y0305753D01*
X0012307Y0305742D01*
X0012199Y0305735D01*
X0012090Y0305732D01*
X0011982Y0305733D01*
X0011873Y0305738D01*
X0011765Y0305747D01*
X0011657Y0305760D01*
X0011550Y0305777D01*
X0011444Y0305798D01*
X0011338Y0305822D01*
X0011233Y0305851D01*
X0011130Y0305883D01*
X0011028Y0305919D01*
X0010927Y0305959D01*
X0010827Y0306003D01*
X0010730Y0306050D01*
X0010634Y0306101D01*
X0010540Y0306155D01*
X0010448Y0306213D01*
X0010358Y0306274D01*
X0010271Y0306338D01*
X0010186Y0306406D01*
X0010103Y0306476D01*
X0010023Y0306550D01*
X0009946Y0306626D01*
X0009872Y0306705D01*
X0009801Y0306787D01*
X0009733Y0306871D01*
X0009668Y0306958D01*
X0009606Y0307047D01*
X0009547Y0307139D01*
X0009492Y0307232D01*
X0009441Y0307327D01*
X0009392Y0307425D01*
X0009348Y0307524D01*
X0009307Y0307624D01*
X0009270Y0307726D01*
X0009237Y0307829D01*
X0009207Y0307934D01*
X0009181Y0308039D01*
X0009160Y0308146D01*
X0009142Y0308253D01*
X0009128Y0308360D01*
X0009118Y0308468D01*
X0009112Y0308577D01*
X0009110Y0308685D01*
D11*
X0061000Y0251445D03*
X0061000Y0244555D03*
X0112000Y0262555D03*
X0112000Y0269445D03*
X0239000Y0138945D03*
X0239000Y0132055D03*
X0300500Y0085445D03*
X0300500Y0078555D03*
X0312000Y0078555D03*
X0312000Y0085445D03*
X0380000Y0103555D03*
X0380000Y0110445D03*
X0380000Y0121555D03*
X0380000Y0128445D03*
X0308000Y0145555D03*
X0308000Y0152445D03*
D12*
X0304445Y0192000D03*
X0297555Y0192000D03*
X0252445Y0139000D03*
X0245555Y0139000D03*
X0269555Y0112000D03*
X0276445Y0112000D03*
X0341555Y0110000D03*
X0348445Y0110000D03*
X0192445Y0104000D03*
X0185555Y0104000D03*
X0170945Y0091000D03*
X0164055Y0091000D03*
X0147445Y0136500D03*
X0140555Y0136500D03*
X0061445Y0264500D03*
X0054555Y0264500D03*
D13*
X0074563Y0263500D03*
X0082437Y0263500D03*
X0168063Y0144500D03*
X0168063Y0137000D03*
X0175937Y0137000D03*
X0175937Y0144500D03*
X0175937Y0129500D03*
X0168063Y0129500D03*
X0196063Y0131000D03*
X0203937Y0131000D03*
X0203937Y0139000D03*
X0196063Y0139000D03*
X0124937Y0118000D03*
X0117063Y0118000D03*
D14*
X0117000Y0129063D03*
X0117000Y0136937D03*
X0054000Y0244063D03*
X0054000Y0251937D03*
X0311500Y0206937D03*
X0311500Y0199063D03*
D15*
X0331441Y0129764D03*
X0331441Y0127795D03*
X0331441Y0125827D03*
X0331441Y0123858D03*
X0331441Y0121890D03*
X0331441Y0119921D03*
X0331441Y0117953D03*
X0331441Y0115984D03*
X0331441Y0114016D03*
X0331441Y0112047D03*
X0331441Y0110079D03*
X0331441Y0108110D03*
X0331441Y0106142D03*
X0331441Y0104173D03*
X0331441Y0102205D03*
X0331441Y0100236D03*
X0286559Y0100236D03*
X0286559Y0102205D03*
X0286559Y0104173D03*
X0286559Y0106142D03*
X0286559Y0108110D03*
X0286559Y0110079D03*
X0286559Y0112047D03*
X0286559Y0114016D03*
X0286559Y0115984D03*
X0286559Y0117953D03*
X0286559Y0119921D03*
X0286559Y0121890D03*
X0286559Y0123858D03*
X0286559Y0125827D03*
X0286559Y0127795D03*
X0286559Y0129764D03*
D16*
X0294236Y0137441D03*
X0296205Y0137441D03*
X0298173Y0137441D03*
X0300142Y0137441D03*
X0302110Y0137441D03*
X0304079Y0137441D03*
X0306047Y0137441D03*
X0308016Y0137441D03*
X0309984Y0137441D03*
X0311953Y0137441D03*
X0313921Y0137441D03*
X0315890Y0137441D03*
X0317858Y0137441D03*
X0319827Y0137441D03*
X0321795Y0137441D03*
X0323764Y0137441D03*
X0323764Y0092559D03*
X0321795Y0092559D03*
X0319827Y0092559D03*
X0317858Y0092559D03*
X0315890Y0092559D03*
X0313921Y0092559D03*
X0311953Y0092559D03*
X0309984Y0092559D03*
X0308016Y0092559D03*
X0306047Y0092559D03*
X0304079Y0092559D03*
X0302110Y0092559D03*
X0300142Y0092559D03*
X0298173Y0092559D03*
X0296205Y0092559D03*
X0294236Y0092559D03*
D17*
X0326000Y0061846D03*
X0326000Y0055154D03*
X0259500Y0122154D03*
X0259500Y0128846D03*
X0314000Y0145654D03*
X0320000Y0145654D03*
X0320000Y0152346D03*
X0314000Y0152346D03*
X0337000Y0142346D03*
X0337000Y0135654D03*
X0193500Y0209154D03*
X0187500Y0209154D03*
X0187500Y0215846D03*
X0193500Y0215846D03*
X0164000Y0247654D03*
X0164000Y0254346D03*
X0036000Y0253346D03*
X0036000Y0246654D03*
X0164500Y0115346D03*
X0164500Y0108654D03*
D18*
X0164346Y0103000D03*
X0164154Y0097000D03*
X0170846Y0097000D03*
X0157654Y0103000D03*
X0146846Y0124500D03*
X0147346Y0130500D03*
X0140654Y0130500D03*
X0140154Y0124500D03*
X0140654Y0142500D03*
X0147346Y0142500D03*
X0245654Y0132000D03*
X0252346Y0132000D03*
X0270654Y0128000D03*
X0277346Y0128000D03*
X0277346Y0122000D03*
X0270654Y0122000D03*
X0341654Y0121000D03*
X0341654Y0127000D03*
X0348346Y0127000D03*
X0348346Y0121000D03*
X0345846Y0097500D03*
X0339154Y0097500D03*
X0317846Y0037500D03*
X0311154Y0037500D03*
X0322654Y0028000D03*
X0329346Y0028000D03*
X0249346Y0028000D03*
X0242654Y0028000D03*
X0169346Y0028000D03*
X0162654Y0028000D03*
X0089346Y0028000D03*
X0082654Y0028000D03*
X0045846Y0072500D03*
X0039154Y0072500D03*
X0032846Y0072500D03*
X0026154Y0072500D03*
X0329654Y0198000D03*
X0336346Y0198000D03*
D19*
X0366500Y0124465D03*
X0366500Y0107535D03*
D20*
X0178740Y0103988D03*
X0175000Y0103988D03*
X0171260Y0103988D03*
X0171260Y0115012D03*
X0175000Y0115012D03*
X0178740Y0115012D03*
X0134339Y0126382D03*
X0131780Y0126382D03*
X0129220Y0126382D03*
X0126661Y0126382D03*
X0126661Y0136618D03*
X0129220Y0136618D03*
X0131780Y0136618D03*
X0134339Y0136618D03*
D21*
X0284854Y0198161D03*
X0284854Y0200720D03*
X0284854Y0203280D03*
X0284854Y0205839D03*
X0304146Y0205839D03*
X0304146Y0203280D03*
X0304146Y0200720D03*
X0304146Y0198161D03*
X0087646Y0247661D03*
X0087646Y0250220D03*
X0087646Y0252780D03*
X0087646Y0255339D03*
X0068354Y0255339D03*
X0068354Y0252780D03*
X0068354Y0250220D03*
X0068354Y0247661D03*
D22*
X0060870Y0269750D03*
X0060870Y0272250D03*
X0060870Y0274750D03*
X0060870Y0277250D03*
X0060870Y0279750D03*
X0060870Y0282250D03*
X0060870Y0284750D03*
X0060870Y0287250D03*
X0082130Y0287250D03*
X0082130Y0284750D03*
X0082130Y0282250D03*
X0082130Y0279750D03*
X0082130Y0277250D03*
X0082130Y0274750D03*
X0082130Y0272250D03*
X0082130Y0269750D03*
D23*
X0118201Y0149000D03*
X0130799Y0149000D03*
X0194701Y0116500D03*
X0207299Y0116500D03*
D24*
X0209858Y0116652D02*
X0203559Y0116652D01*
X0203559Y0117150D02*
X0209858Y0117150D01*
X0209858Y0117649D02*
X0203559Y0117649D01*
X0203559Y0118147D02*
X0209858Y0118147D01*
X0209858Y0118646D02*
X0203559Y0118646D01*
X0203559Y0119144D02*
X0209858Y0119144D01*
X0209858Y0119643D02*
X0203559Y0119643D01*
X0203559Y0120141D02*
X0209858Y0120141D01*
X0209858Y0120640D02*
X0203559Y0120640D01*
X0203559Y0121138D02*
X0209858Y0121138D01*
X0209858Y0121421D02*
X0207102Y0124177D01*
X0203559Y0124177D01*
X0203559Y0108823D01*
X0207102Y0108823D01*
X0209858Y0111579D01*
X0209858Y0121421D01*
X0209643Y0121637D02*
X0203559Y0121637D01*
X0203559Y0122135D02*
X0209144Y0122135D01*
X0208646Y0122634D02*
X0203559Y0122634D01*
X0203559Y0123132D02*
X0208147Y0123132D01*
X0207649Y0123631D02*
X0203559Y0123631D01*
X0203559Y0124129D02*
X0207150Y0124129D01*
X0198441Y0124129D02*
X0194850Y0124129D01*
X0194898Y0124177D02*
X0192142Y0121421D01*
X0192142Y0111579D01*
X0194898Y0108823D01*
X0198441Y0108823D01*
X0198441Y0124177D01*
X0194898Y0124177D01*
X0194351Y0123631D02*
X0198441Y0123631D01*
X0198441Y0123132D02*
X0193853Y0123132D01*
X0193354Y0122634D02*
X0198441Y0122634D01*
X0198441Y0122135D02*
X0192856Y0122135D01*
X0192357Y0121637D02*
X0198441Y0121637D01*
X0198441Y0121138D02*
X0192142Y0121138D01*
X0192142Y0120640D02*
X0198441Y0120640D01*
X0198441Y0120141D02*
X0192142Y0120141D01*
X0192142Y0119643D02*
X0198441Y0119643D01*
X0198441Y0119144D02*
X0192142Y0119144D01*
X0192142Y0118646D02*
X0198441Y0118646D01*
X0198441Y0118147D02*
X0192142Y0118147D01*
X0192142Y0117649D02*
X0198441Y0117649D01*
X0198441Y0117150D02*
X0192142Y0117150D01*
X0192142Y0116652D02*
X0198441Y0116652D01*
X0198441Y0116153D02*
X0192142Y0116153D01*
X0192142Y0115655D02*
X0198441Y0115655D01*
X0198441Y0115156D02*
X0192142Y0115156D01*
X0192142Y0114658D02*
X0198441Y0114658D01*
X0198441Y0114159D02*
X0192142Y0114159D01*
X0192142Y0113661D02*
X0198441Y0113661D01*
X0198441Y0113162D02*
X0192142Y0113162D01*
X0192142Y0112664D02*
X0198441Y0112664D01*
X0198441Y0112165D02*
X0192142Y0112165D01*
X0192142Y0111667D02*
X0198441Y0111667D01*
X0198441Y0111168D02*
X0192552Y0111168D01*
X0193051Y0110670D02*
X0198441Y0110670D01*
X0198441Y0110171D02*
X0193549Y0110171D01*
X0194048Y0109672D02*
X0198441Y0109672D01*
X0198441Y0109174D02*
X0194546Y0109174D01*
X0203559Y0109174D02*
X0207454Y0109174D01*
X0207952Y0109672D02*
X0203559Y0109672D01*
X0203559Y0110171D02*
X0208451Y0110171D01*
X0208949Y0110670D02*
X0203559Y0110670D01*
X0203559Y0111168D02*
X0209448Y0111168D01*
X0209858Y0111667D02*
X0203559Y0111667D01*
X0203559Y0112165D02*
X0209858Y0112165D01*
X0209858Y0112664D02*
X0203559Y0112664D01*
X0203559Y0113162D02*
X0209858Y0113162D01*
X0209858Y0113661D02*
X0203559Y0113661D01*
X0203559Y0114159D02*
X0209858Y0114159D01*
X0209858Y0114658D02*
X0203559Y0114658D01*
X0203559Y0115156D02*
X0209858Y0115156D01*
X0209858Y0115655D02*
X0203559Y0115655D01*
X0203559Y0116153D02*
X0209858Y0116153D01*
X0133358Y0144079D02*
X0133358Y0153921D01*
X0130602Y0156677D01*
X0127059Y0156677D01*
X0127059Y0141323D01*
X0130602Y0141323D01*
X0133358Y0144079D01*
X0133349Y0144070D02*
X0127059Y0144070D01*
X0127059Y0144568D02*
X0133358Y0144568D01*
X0133358Y0145067D02*
X0127059Y0145067D01*
X0127059Y0145565D02*
X0133358Y0145565D01*
X0133358Y0146064D02*
X0127059Y0146064D01*
X0127059Y0146562D02*
X0133358Y0146562D01*
X0133358Y0147061D02*
X0127059Y0147061D01*
X0127059Y0147559D02*
X0133358Y0147559D01*
X0133358Y0148058D02*
X0127059Y0148058D01*
X0127059Y0148556D02*
X0133358Y0148556D01*
X0133358Y0149055D02*
X0127059Y0149055D01*
X0127059Y0149553D02*
X0133358Y0149553D01*
X0133358Y0150052D02*
X0127059Y0150052D01*
X0127059Y0150550D02*
X0133358Y0150550D01*
X0133358Y0151049D02*
X0127059Y0151049D01*
X0127059Y0151547D02*
X0133358Y0151547D01*
X0133358Y0152046D02*
X0127059Y0152046D01*
X0127059Y0152544D02*
X0133358Y0152544D01*
X0133358Y0153043D02*
X0127059Y0153043D01*
X0127059Y0153541D02*
X0133358Y0153541D01*
X0133240Y0154040D02*
X0127059Y0154040D01*
X0127059Y0154539D02*
X0132741Y0154539D01*
X0132243Y0155037D02*
X0127059Y0155037D01*
X0127059Y0155536D02*
X0131744Y0155536D01*
X0131245Y0156034D02*
X0127059Y0156034D01*
X0127059Y0156533D02*
X0130747Y0156533D01*
X0121941Y0156533D02*
X0118253Y0156533D01*
X0118398Y0156677D02*
X0115642Y0153921D01*
X0115642Y0144079D01*
X0118398Y0141323D01*
X0121941Y0141323D01*
X0121941Y0156677D01*
X0118398Y0156677D01*
X0117755Y0156034D02*
X0121941Y0156034D01*
X0121941Y0155536D02*
X0117256Y0155536D01*
X0116757Y0155037D02*
X0121941Y0155037D01*
X0121941Y0154539D02*
X0116259Y0154539D01*
X0115760Y0154040D02*
X0121941Y0154040D01*
X0121941Y0153541D02*
X0115642Y0153541D01*
X0115642Y0153043D02*
X0121941Y0153043D01*
X0121941Y0152544D02*
X0115642Y0152544D01*
X0115642Y0152046D02*
X0121941Y0152046D01*
X0121941Y0151547D02*
X0115642Y0151547D01*
X0115642Y0151049D02*
X0121941Y0151049D01*
X0121941Y0150550D02*
X0115642Y0150550D01*
X0115642Y0150052D02*
X0121941Y0150052D01*
X0121941Y0149553D02*
X0115642Y0149553D01*
X0115642Y0149055D02*
X0121941Y0149055D01*
X0121941Y0148556D02*
X0115642Y0148556D01*
X0115642Y0148058D02*
X0121941Y0148058D01*
X0121941Y0147559D02*
X0115642Y0147559D01*
X0115642Y0147061D02*
X0121941Y0147061D01*
X0121941Y0146562D02*
X0115642Y0146562D01*
X0115642Y0146064D02*
X0121941Y0146064D01*
X0121941Y0145565D02*
X0115642Y0145565D01*
X0115642Y0145067D02*
X0121941Y0145067D01*
X0121941Y0144568D02*
X0115642Y0144568D01*
X0115651Y0144070D02*
X0121941Y0144070D01*
X0121941Y0143571D02*
X0116149Y0143571D01*
X0116648Y0143073D02*
X0121941Y0143073D01*
X0121941Y0142574D02*
X0117146Y0142574D01*
X0117645Y0142076D02*
X0121941Y0142076D01*
X0121941Y0141577D02*
X0118143Y0141577D01*
X0127059Y0141577D02*
X0130857Y0141577D01*
X0131355Y0142076D02*
X0127059Y0142076D01*
X0127059Y0142574D02*
X0131854Y0142574D01*
X0132352Y0143073D02*
X0127059Y0143073D01*
X0127059Y0143571D02*
X0132851Y0143571D01*
M02*
