%
M48
M72
T01C0.0100
T02C0.0236
T03C0.0240
T04C0.0350
T05C0.0394
T06C0.0400
T07C0.0512
T08C0.0591
T09C0.0669
T10C0.0728
T11C0.0827
T12C0.0866
T13C0.0984
T14C0.1024
T15C0.1339
%
T01
X7700Y2800
X3950Y7800
X3300Y7800
X4600Y11950
X4600Y14900
X11100Y13000
X11100Y12650
X11550Y12400
X11900Y12400
X11150Y12000
X11150Y11600
X11550Y11200
X11900Y11200
X13500Y12200
X13450Y13150
X13100Y13150
X12750Y13150
X12300Y13650
X13600Y14250
X17400Y12200
X17650Y12200
X17650Y11950
X17400Y11950
X18200Y12650
X18950Y12900
X18950Y13300
X18200Y13450
X18200Y13050
X18200Y13850
X18200Y14250
X18200Y14650
X18950Y14500
X18950Y14100
X18950Y13700
X19550Y14500
X21050Y14100
X21050Y13700
X21500Y13700
X21500Y14100
X21500Y13300
X21500Y12900
X21050Y12900
X21050Y13300
X21350Y12100
X21800Y12100
X21800Y11650
X21800Y11200
X21350Y11200
X21350Y11650
X18900Y11500
X18550Y11500
X18550Y11100
X18900Y11100
X18900Y11900
X15750Y10850
X15850Y9700
X15850Y9100
X23400Y13900
X23900Y14400
X24550Y14400
X24550Y12700
X23900Y12700
X26450Y11350
X26450Y11050
X27950Y10150
X27450Y9750
X27100Y9250
X27100Y7750
X28900Y9600
X29700Y9900
X30250Y9900
X30650Y9900
X30450Y10250
X31200Y9900
X31750Y10700
X31050Y10900
X32050Y11700
X32400Y11500
X32400Y11900
X32400Y12400
X32400Y13150
X31850Y13150
X31650Y12700
X31250Y12700
X31250Y13100
X30800Y13100
X30700Y12200
X31300Y12100
X29750Y12000
X29750Y11550
X29350Y11650
X29350Y11200
X29350Y12450
X32450Y11000
X32450Y10400
X33850Y10400
X35350Y10850
X35350Y11150
X35750Y9750
X37800Y11600
X38200Y11600
X38550Y11050
X38550Y12150
X36350Y14200
X34900Y15400
X33950Y16650
X32000Y16300
X30950Y16300
X30250Y16650
X30650Y15750
X30950Y15750
X27100Y18450
X26650Y18350
X25700Y17450
X26850Y17150
X25050Y16600
X26650Y20050
X27100Y20400
X30000Y21100
X30000Y21500
X30400Y21500
X30400Y21100
X30850Y21300
X30850Y21700
X31300Y21700
X31300Y21300
X31750Y21100
X31750Y20700
X31750Y21500
X37450Y19800
X38950Y27900
X33250Y29650
X32900Y29200
X32450Y28800
X22600Y29550
X22100Y30650
X15750Y24800
X12800Y24800
X11700Y25900
X11700Y26250
X11700Y26750
X11700Y27050
X11200Y25800
X9400Y26100
X9400Y26500
X8950Y26500
X8950Y26100
X8950Y26900
X9400Y26900
X7500Y27650
X7500Y28000
X7150Y28000
X7150Y27650
X5350Y27850
X5350Y28200
X4950Y26450
X4950Y25950
X5450Y25950
X4185Y24665
X4750Y24400
X4750Y23850
X5200Y23850
X5650Y23850
X6100Y23850
X6550Y23850
X7000Y23850
X7450Y23850
X7650Y24300
X7450Y24700
X7200Y24300
X6750Y24300
X10300Y28850
X8800Y29200
X22100Y23500
X22600Y22950
X30650Y7850
X30950Y7350
X31300Y7350
X30250Y7350
X29900Y7350
X27950Y6000
X27450Y5600
X27850Y4700
X28500Y3750
X25900Y3750
X23700Y2800
X31700Y2800
X32600Y3750
X35850Y3750
X34100Y7850
X15700Y2800
T02
X35300Y19800
T03
X28200Y19400
X27600Y19400
X12150Y19400
X12150Y18800
X12150Y23700
X12150Y24250
X9650Y24250
X9100Y24250
T04
X2200Y25350
X5800Y31400
X7300Y31400
X8800Y31400
X10300Y31400
X11800Y31400
X32100Y19700
X7650Y15650
X7650Y14150
X7650Y12650
T05
X4584Y6031
X3600Y6031
X2616Y6031
X10113Y2784
X10900Y2784
X11687Y2784
X11687Y816
X10900Y816
X10113Y816
X18113Y816
X18900Y816
X19687Y816
X19687Y2784
X18900Y2784
X18113Y2784
X26113Y2784
X26900Y2784
X27687Y2784
X27687Y816
X26900Y816
X26113Y816
X34113Y816
X34900Y816
X35687Y816
X35687Y2784
X34900Y2784
X34113Y2784
X33948Y17502
X32948Y17502
X31948Y17502
X30948Y17502
X29948Y17502
X28948Y17502
X35948Y17502
X36948Y17502
X37948Y17502
X17250Y20800
X17250Y21800
X17250Y22800
X17250Y23800
T06
X1600Y20250
X1600Y19250
X24250Y11750
X24250Y10750
X24250Y9750
X24250Y8750
X24250Y7750
X24250Y6750
T07
X3175Y26931
X3175Y27916
X1206Y28900
X3175Y29884
X3175Y30869
T08
X1206Y30869
X3175Y28900
X1206Y26931
T09
X2912Y12150
T10
X13300Y26530
X15150Y26530
X17000Y26530
X16150Y31530
X14150Y31530
T11
X19870Y28785
X19870Y23785
T12
X1041Y3000
X6159Y3000
T13
X10586Y5298
X10586Y17502
X40114Y17502
X40114Y5298
T14
X2912Y10063
X1141Y12150
X2912Y14237
T15
X25870Y21594
X34622Y21594
X34622Y30976
X25870Y30976
M30
