G75*
%MOIN*%
%OFA0B0*%
%FSLAX25Y25*%
%IPPOS*%
%LPD*%
%AMOC8*
5,1,8,0,0,1.08239X$1,22.5*
%
%ADD10C,0.00000*%
%ADD11C,0.00300*%
%ADD12C,0.01000*%
%ADD13C,0.00400*%
%ADD14C,0.00800*%
%ADD15R,0.04724X0.00787*%
%ADD16R,0.00787X0.04724*%
%ADD17C,0.00500*%
D10*
X0000000Y0000000D02*
X0000000Y0325000D01*
X0415000Y0325000D01*
X0415000Y0000000D01*
X0000000Y0000000D01*
X0252008Y0215937D02*
X0252010Y0216101D01*
X0252016Y0216265D01*
X0252026Y0216429D01*
X0252040Y0216593D01*
X0252058Y0216756D01*
X0252080Y0216919D01*
X0252107Y0217081D01*
X0252137Y0217243D01*
X0252171Y0217403D01*
X0252209Y0217563D01*
X0252250Y0217722D01*
X0252296Y0217880D01*
X0252346Y0218036D01*
X0252399Y0218192D01*
X0252456Y0218346D01*
X0252517Y0218498D01*
X0252582Y0218649D01*
X0252651Y0218799D01*
X0252723Y0218946D01*
X0252798Y0219092D01*
X0252878Y0219236D01*
X0252960Y0219378D01*
X0253046Y0219518D01*
X0253136Y0219655D01*
X0253229Y0219791D01*
X0253325Y0219924D01*
X0253425Y0220055D01*
X0253527Y0220183D01*
X0253633Y0220309D01*
X0253742Y0220432D01*
X0253854Y0220552D01*
X0253968Y0220670D01*
X0254086Y0220784D01*
X0254206Y0220896D01*
X0254329Y0221005D01*
X0254455Y0221111D01*
X0254583Y0221213D01*
X0254714Y0221313D01*
X0254847Y0221409D01*
X0254983Y0221502D01*
X0255120Y0221592D01*
X0255260Y0221678D01*
X0255402Y0221760D01*
X0255546Y0221840D01*
X0255692Y0221915D01*
X0255839Y0221987D01*
X0255989Y0222056D01*
X0256140Y0222121D01*
X0256292Y0222182D01*
X0256446Y0222239D01*
X0256602Y0222292D01*
X0256758Y0222342D01*
X0256916Y0222388D01*
X0257075Y0222429D01*
X0257235Y0222467D01*
X0257395Y0222501D01*
X0257557Y0222531D01*
X0257719Y0222558D01*
X0257882Y0222580D01*
X0258045Y0222598D01*
X0258209Y0222612D01*
X0258373Y0222622D01*
X0258537Y0222628D01*
X0258701Y0222630D01*
X0258865Y0222628D01*
X0259029Y0222622D01*
X0259193Y0222612D01*
X0259357Y0222598D01*
X0259520Y0222580D01*
X0259683Y0222558D01*
X0259845Y0222531D01*
X0260007Y0222501D01*
X0260167Y0222467D01*
X0260327Y0222429D01*
X0260486Y0222388D01*
X0260644Y0222342D01*
X0260800Y0222292D01*
X0260956Y0222239D01*
X0261110Y0222182D01*
X0261262Y0222121D01*
X0261413Y0222056D01*
X0261563Y0221987D01*
X0261710Y0221915D01*
X0261856Y0221840D01*
X0262000Y0221760D01*
X0262142Y0221678D01*
X0262282Y0221592D01*
X0262419Y0221502D01*
X0262555Y0221409D01*
X0262688Y0221313D01*
X0262819Y0221213D01*
X0262947Y0221111D01*
X0263073Y0221005D01*
X0263196Y0220896D01*
X0263316Y0220784D01*
X0263434Y0220670D01*
X0263548Y0220552D01*
X0263660Y0220432D01*
X0263769Y0220309D01*
X0263875Y0220183D01*
X0263977Y0220055D01*
X0264077Y0219924D01*
X0264173Y0219791D01*
X0264266Y0219655D01*
X0264356Y0219518D01*
X0264442Y0219378D01*
X0264524Y0219236D01*
X0264604Y0219092D01*
X0264679Y0218946D01*
X0264751Y0218799D01*
X0264820Y0218649D01*
X0264885Y0218498D01*
X0264946Y0218346D01*
X0265003Y0218192D01*
X0265056Y0218036D01*
X0265106Y0217880D01*
X0265152Y0217722D01*
X0265193Y0217563D01*
X0265231Y0217403D01*
X0265265Y0217243D01*
X0265295Y0217081D01*
X0265322Y0216919D01*
X0265344Y0216756D01*
X0265362Y0216593D01*
X0265376Y0216429D01*
X0265386Y0216265D01*
X0265392Y0216101D01*
X0265394Y0215937D01*
X0265392Y0215773D01*
X0265386Y0215609D01*
X0265376Y0215445D01*
X0265362Y0215281D01*
X0265344Y0215118D01*
X0265322Y0214955D01*
X0265295Y0214793D01*
X0265265Y0214631D01*
X0265231Y0214471D01*
X0265193Y0214311D01*
X0265152Y0214152D01*
X0265106Y0213994D01*
X0265056Y0213838D01*
X0265003Y0213682D01*
X0264946Y0213528D01*
X0264885Y0213376D01*
X0264820Y0213225D01*
X0264751Y0213075D01*
X0264679Y0212928D01*
X0264604Y0212782D01*
X0264524Y0212638D01*
X0264442Y0212496D01*
X0264356Y0212356D01*
X0264266Y0212219D01*
X0264173Y0212083D01*
X0264077Y0211950D01*
X0263977Y0211819D01*
X0263875Y0211691D01*
X0263769Y0211565D01*
X0263660Y0211442D01*
X0263548Y0211322D01*
X0263434Y0211204D01*
X0263316Y0211090D01*
X0263196Y0210978D01*
X0263073Y0210869D01*
X0262947Y0210763D01*
X0262819Y0210661D01*
X0262688Y0210561D01*
X0262555Y0210465D01*
X0262419Y0210372D01*
X0262282Y0210282D01*
X0262142Y0210196D01*
X0262000Y0210114D01*
X0261856Y0210034D01*
X0261710Y0209959D01*
X0261563Y0209887D01*
X0261413Y0209818D01*
X0261262Y0209753D01*
X0261110Y0209692D01*
X0260956Y0209635D01*
X0260800Y0209582D01*
X0260644Y0209532D01*
X0260486Y0209486D01*
X0260327Y0209445D01*
X0260167Y0209407D01*
X0260007Y0209373D01*
X0259845Y0209343D01*
X0259683Y0209316D01*
X0259520Y0209294D01*
X0259357Y0209276D01*
X0259193Y0209262D01*
X0259029Y0209252D01*
X0258865Y0209246D01*
X0258701Y0209244D01*
X0258537Y0209246D01*
X0258373Y0209252D01*
X0258209Y0209262D01*
X0258045Y0209276D01*
X0257882Y0209294D01*
X0257719Y0209316D01*
X0257557Y0209343D01*
X0257395Y0209373D01*
X0257235Y0209407D01*
X0257075Y0209445D01*
X0256916Y0209486D01*
X0256758Y0209532D01*
X0256602Y0209582D01*
X0256446Y0209635D01*
X0256292Y0209692D01*
X0256140Y0209753D01*
X0255989Y0209818D01*
X0255839Y0209887D01*
X0255692Y0209959D01*
X0255546Y0210034D01*
X0255402Y0210114D01*
X0255260Y0210196D01*
X0255120Y0210282D01*
X0254983Y0210372D01*
X0254847Y0210465D01*
X0254714Y0210561D01*
X0254583Y0210661D01*
X0254455Y0210763D01*
X0254329Y0210869D01*
X0254206Y0210978D01*
X0254086Y0211090D01*
X0253968Y0211204D01*
X0253854Y0211322D01*
X0253742Y0211442D01*
X0253633Y0211565D01*
X0253527Y0211691D01*
X0253425Y0211819D01*
X0253325Y0211950D01*
X0253229Y0212083D01*
X0253136Y0212219D01*
X0253046Y0212356D01*
X0252960Y0212496D01*
X0252878Y0212638D01*
X0252798Y0212782D01*
X0252723Y0212928D01*
X0252651Y0213075D01*
X0252582Y0213225D01*
X0252517Y0213376D01*
X0252456Y0213528D01*
X0252399Y0213682D01*
X0252346Y0213838D01*
X0252296Y0213994D01*
X0252250Y0214152D01*
X0252209Y0214311D01*
X0252171Y0214471D01*
X0252137Y0214631D01*
X0252107Y0214793D01*
X0252080Y0214955D01*
X0252058Y0215118D01*
X0252040Y0215281D01*
X0252026Y0215445D01*
X0252016Y0215609D01*
X0252010Y0215773D01*
X0252008Y0215937D01*
X0339527Y0215937D02*
X0339529Y0216101D01*
X0339535Y0216265D01*
X0339545Y0216429D01*
X0339559Y0216593D01*
X0339577Y0216756D01*
X0339599Y0216919D01*
X0339626Y0217081D01*
X0339656Y0217243D01*
X0339690Y0217403D01*
X0339728Y0217563D01*
X0339769Y0217722D01*
X0339815Y0217880D01*
X0339865Y0218036D01*
X0339918Y0218192D01*
X0339975Y0218346D01*
X0340036Y0218498D01*
X0340101Y0218649D01*
X0340170Y0218799D01*
X0340242Y0218946D01*
X0340317Y0219092D01*
X0340397Y0219236D01*
X0340479Y0219378D01*
X0340565Y0219518D01*
X0340655Y0219655D01*
X0340748Y0219791D01*
X0340844Y0219924D01*
X0340944Y0220055D01*
X0341046Y0220183D01*
X0341152Y0220309D01*
X0341261Y0220432D01*
X0341373Y0220552D01*
X0341487Y0220670D01*
X0341605Y0220784D01*
X0341725Y0220896D01*
X0341848Y0221005D01*
X0341974Y0221111D01*
X0342102Y0221213D01*
X0342233Y0221313D01*
X0342366Y0221409D01*
X0342502Y0221502D01*
X0342639Y0221592D01*
X0342779Y0221678D01*
X0342921Y0221760D01*
X0343065Y0221840D01*
X0343211Y0221915D01*
X0343358Y0221987D01*
X0343508Y0222056D01*
X0343659Y0222121D01*
X0343811Y0222182D01*
X0343965Y0222239D01*
X0344121Y0222292D01*
X0344277Y0222342D01*
X0344435Y0222388D01*
X0344594Y0222429D01*
X0344754Y0222467D01*
X0344914Y0222501D01*
X0345076Y0222531D01*
X0345238Y0222558D01*
X0345401Y0222580D01*
X0345564Y0222598D01*
X0345728Y0222612D01*
X0345892Y0222622D01*
X0346056Y0222628D01*
X0346220Y0222630D01*
X0346384Y0222628D01*
X0346548Y0222622D01*
X0346712Y0222612D01*
X0346876Y0222598D01*
X0347039Y0222580D01*
X0347202Y0222558D01*
X0347364Y0222531D01*
X0347526Y0222501D01*
X0347686Y0222467D01*
X0347846Y0222429D01*
X0348005Y0222388D01*
X0348163Y0222342D01*
X0348319Y0222292D01*
X0348475Y0222239D01*
X0348629Y0222182D01*
X0348781Y0222121D01*
X0348932Y0222056D01*
X0349082Y0221987D01*
X0349229Y0221915D01*
X0349375Y0221840D01*
X0349519Y0221760D01*
X0349661Y0221678D01*
X0349801Y0221592D01*
X0349938Y0221502D01*
X0350074Y0221409D01*
X0350207Y0221313D01*
X0350338Y0221213D01*
X0350466Y0221111D01*
X0350592Y0221005D01*
X0350715Y0220896D01*
X0350835Y0220784D01*
X0350953Y0220670D01*
X0351067Y0220552D01*
X0351179Y0220432D01*
X0351288Y0220309D01*
X0351394Y0220183D01*
X0351496Y0220055D01*
X0351596Y0219924D01*
X0351692Y0219791D01*
X0351785Y0219655D01*
X0351875Y0219518D01*
X0351961Y0219378D01*
X0352043Y0219236D01*
X0352123Y0219092D01*
X0352198Y0218946D01*
X0352270Y0218799D01*
X0352339Y0218649D01*
X0352404Y0218498D01*
X0352465Y0218346D01*
X0352522Y0218192D01*
X0352575Y0218036D01*
X0352625Y0217880D01*
X0352671Y0217722D01*
X0352712Y0217563D01*
X0352750Y0217403D01*
X0352784Y0217243D01*
X0352814Y0217081D01*
X0352841Y0216919D01*
X0352863Y0216756D01*
X0352881Y0216593D01*
X0352895Y0216429D01*
X0352905Y0216265D01*
X0352911Y0216101D01*
X0352913Y0215937D01*
X0352911Y0215773D01*
X0352905Y0215609D01*
X0352895Y0215445D01*
X0352881Y0215281D01*
X0352863Y0215118D01*
X0352841Y0214955D01*
X0352814Y0214793D01*
X0352784Y0214631D01*
X0352750Y0214471D01*
X0352712Y0214311D01*
X0352671Y0214152D01*
X0352625Y0213994D01*
X0352575Y0213838D01*
X0352522Y0213682D01*
X0352465Y0213528D01*
X0352404Y0213376D01*
X0352339Y0213225D01*
X0352270Y0213075D01*
X0352198Y0212928D01*
X0352123Y0212782D01*
X0352043Y0212638D01*
X0351961Y0212496D01*
X0351875Y0212356D01*
X0351785Y0212219D01*
X0351692Y0212083D01*
X0351596Y0211950D01*
X0351496Y0211819D01*
X0351394Y0211691D01*
X0351288Y0211565D01*
X0351179Y0211442D01*
X0351067Y0211322D01*
X0350953Y0211204D01*
X0350835Y0211090D01*
X0350715Y0210978D01*
X0350592Y0210869D01*
X0350466Y0210763D01*
X0350338Y0210661D01*
X0350207Y0210561D01*
X0350074Y0210465D01*
X0349938Y0210372D01*
X0349801Y0210282D01*
X0349661Y0210196D01*
X0349519Y0210114D01*
X0349375Y0210034D01*
X0349229Y0209959D01*
X0349082Y0209887D01*
X0348932Y0209818D01*
X0348781Y0209753D01*
X0348629Y0209692D01*
X0348475Y0209635D01*
X0348319Y0209582D01*
X0348163Y0209532D01*
X0348005Y0209486D01*
X0347846Y0209445D01*
X0347686Y0209407D01*
X0347526Y0209373D01*
X0347364Y0209343D01*
X0347202Y0209316D01*
X0347039Y0209294D01*
X0346876Y0209276D01*
X0346712Y0209262D01*
X0346548Y0209252D01*
X0346384Y0209246D01*
X0346220Y0209244D01*
X0346056Y0209246D01*
X0345892Y0209252D01*
X0345728Y0209262D01*
X0345564Y0209276D01*
X0345401Y0209294D01*
X0345238Y0209316D01*
X0345076Y0209343D01*
X0344914Y0209373D01*
X0344754Y0209407D01*
X0344594Y0209445D01*
X0344435Y0209486D01*
X0344277Y0209532D01*
X0344121Y0209582D01*
X0343965Y0209635D01*
X0343811Y0209692D01*
X0343659Y0209753D01*
X0343508Y0209818D01*
X0343358Y0209887D01*
X0343211Y0209959D01*
X0343065Y0210034D01*
X0342921Y0210114D01*
X0342779Y0210196D01*
X0342639Y0210282D01*
X0342502Y0210372D01*
X0342366Y0210465D01*
X0342233Y0210561D01*
X0342102Y0210661D01*
X0341974Y0210763D01*
X0341848Y0210869D01*
X0341725Y0210978D01*
X0341605Y0211090D01*
X0341487Y0211204D01*
X0341373Y0211322D01*
X0341261Y0211442D01*
X0341152Y0211565D01*
X0341046Y0211691D01*
X0340944Y0211819D01*
X0340844Y0211950D01*
X0340748Y0212083D01*
X0340655Y0212219D01*
X0340565Y0212356D01*
X0340479Y0212496D01*
X0340397Y0212638D01*
X0340317Y0212782D01*
X0340242Y0212928D01*
X0340170Y0213075D01*
X0340101Y0213225D01*
X0340036Y0213376D01*
X0339975Y0213528D01*
X0339918Y0213682D01*
X0339865Y0213838D01*
X0339815Y0213994D01*
X0339769Y0214152D01*
X0339728Y0214311D01*
X0339690Y0214471D01*
X0339656Y0214631D01*
X0339626Y0214793D01*
X0339599Y0214955D01*
X0339577Y0215118D01*
X0339559Y0215281D01*
X0339545Y0215445D01*
X0339535Y0215609D01*
X0339529Y0215773D01*
X0339527Y0215937D01*
X0339527Y0309756D02*
X0339529Y0309920D01*
X0339535Y0310084D01*
X0339545Y0310248D01*
X0339559Y0310412D01*
X0339577Y0310575D01*
X0339599Y0310738D01*
X0339626Y0310900D01*
X0339656Y0311062D01*
X0339690Y0311222D01*
X0339728Y0311382D01*
X0339769Y0311541D01*
X0339815Y0311699D01*
X0339865Y0311855D01*
X0339918Y0312011D01*
X0339975Y0312165D01*
X0340036Y0312317D01*
X0340101Y0312468D01*
X0340170Y0312618D01*
X0340242Y0312765D01*
X0340317Y0312911D01*
X0340397Y0313055D01*
X0340479Y0313197D01*
X0340565Y0313337D01*
X0340655Y0313474D01*
X0340748Y0313610D01*
X0340844Y0313743D01*
X0340944Y0313874D01*
X0341046Y0314002D01*
X0341152Y0314128D01*
X0341261Y0314251D01*
X0341373Y0314371D01*
X0341487Y0314489D01*
X0341605Y0314603D01*
X0341725Y0314715D01*
X0341848Y0314824D01*
X0341974Y0314930D01*
X0342102Y0315032D01*
X0342233Y0315132D01*
X0342366Y0315228D01*
X0342502Y0315321D01*
X0342639Y0315411D01*
X0342779Y0315497D01*
X0342921Y0315579D01*
X0343065Y0315659D01*
X0343211Y0315734D01*
X0343358Y0315806D01*
X0343508Y0315875D01*
X0343659Y0315940D01*
X0343811Y0316001D01*
X0343965Y0316058D01*
X0344121Y0316111D01*
X0344277Y0316161D01*
X0344435Y0316207D01*
X0344594Y0316248D01*
X0344754Y0316286D01*
X0344914Y0316320D01*
X0345076Y0316350D01*
X0345238Y0316377D01*
X0345401Y0316399D01*
X0345564Y0316417D01*
X0345728Y0316431D01*
X0345892Y0316441D01*
X0346056Y0316447D01*
X0346220Y0316449D01*
X0346384Y0316447D01*
X0346548Y0316441D01*
X0346712Y0316431D01*
X0346876Y0316417D01*
X0347039Y0316399D01*
X0347202Y0316377D01*
X0347364Y0316350D01*
X0347526Y0316320D01*
X0347686Y0316286D01*
X0347846Y0316248D01*
X0348005Y0316207D01*
X0348163Y0316161D01*
X0348319Y0316111D01*
X0348475Y0316058D01*
X0348629Y0316001D01*
X0348781Y0315940D01*
X0348932Y0315875D01*
X0349082Y0315806D01*
X0349229Y0315734D01*
X0349375Y0315659D01*
X0349519Y0315579D01*
X0349661Y0315497D01*
X0349801Y0315411D01*
X0349938Y0315321D01*
X0350074Y0315228D01*
X0350207Y0315132D01*
X0350338Y0315032D01*
X0350466Y0314930D01*
X0350592Y0314824D01*
X0350715Y0314715D01*
X0350835Y0314603D01*
X0350953Y0314489D01*
X0351067Y0314371D01*
X0351179Y0314251D01*
X0351288Y0314128D01*
X0351394Y0314002D01*
X0351496Y0313874D01*
X0351596Y0313743D01*
X0351692Y0313610D01*
X0351785Y0313474D01*
X0351875Y0313337D01*
X0351961Y0313197D01*
X0352043Y0313055D01*
X0352123Y0312911D01*
X0352198Y0312765D01*
X0352270Y0312618D01*
X0352339Y0312468D01*
X0352404Y0312317D01*
X0352465Y0312165D01*
X0352522Y0312011D01*
X0352575Y0311855D01*
X0352625Y0311699D01*
X0352671Y0311541D01*
X0352712Y0311382D01*
X0352750Y0311222D01*
X0352784Y0311062D01*
X0352814Y0310900D01*
X0352841Y0310738D01*
X0352863Y0310575D01*
X0352881Y0310412D01*
X0352895Y0310248D01*
X0352905Y0310084D01*
X0352911Y0309920D01*
X0352913Y0309756D01*
X0352911Y0309592D01*
X0352905Y0309428D01*
X0352895Y0309264D01*
X0352881Y0309100D01*
X0352863Y0308937D01*
X0352841Y0308774D01*
X0352814Y0308612D01*
X0352784Y0308450D01*
X0352750Y0308290D01*
X0352712Y0308130D01*
X0352671Y0307971D01*
X0352625Y0307813D01*
X0352575Y0307657D01*
X0352522Y0307501D01*
X0352465Y0307347D01*
X0352404Y0307195D01*
X0352339Y0307044D01*
X0352270Y0306894D01*
X0352198Y0306747D01*
X0352123Y0306601D01*
X0352043Y0306457D01*
X0351961Y0306315D01*
X0351875Y0306175D01*
X0351785Y0306038D01*
X0351692Y0305902D01*
X0351596Y0305769D01*
X0351496Y0305638D01*
X0351394Y0305510D01*
X0351288Y0305384D01*
X0351179Y0305261D01*
X0351067Y0305141D01*
X0350953Y0305023D01*
X0350835Y0304909D01*
X0350715Y0304797D01*
X0350592Y0304688D01*
X0350466Y0304582D01*
X0350338Y0304480D01*
X0350207Y0304380D01*
X0350074Y0304284D01*
X0349938Y0304191D01*
X0349801Y0304101D01*
X0349661Y0304015D01*
X0349519Y0303933D01*
X0349375Y0303853D01*
X0349229Y0303778D01*
X0349082Y0303706D01*
X0348932Y0303637D01*
X0348781Y0303572D01*
X0348629Y0303511D01*
X0348475Y0303454D01*
X0348319Y0303401D01*
X0348163Y0303351D01*
X0348005Y0303305D01*
X0347846Y0303264D01*
X0347686Y0303226D01*
X0347526Y0303192D01*
X0347364Y0303162D01*
X0347202Y0303135D01*
X0347039Y0303113D01*
X0346876Y0303095D01*
X0346712Y0303081D01*
X0346548Y0303071D01*
X0346384Y0303065D01*
X0346220Y0303063D01*
X0346056Y0303065D01*
X0345892Y0303071D01*
X0345728Y0303081D01*
X0345564Y0303095D01*
X0345401Y0303113D01*
X0345238Y0303135D01*
X0345076Y0303162D01*
X0344914Y0303192D01*
X0344754Y0303226D01*
X0344594Y0303264D01*
X0344435Y0303305D01*
X0344277Y0303351D01*
X0344121Y0303401D01*
X0343965Y0303454D01*
X0343811Y0303511D01*
X0343659Y0303572D01*
X0343508Y0303637D01*
X0343358Y0303706D01*
X0343211Y0303778D01*
X0343065Y0303853D01*
X0342921Y0303933D01*
X0342779Y0304015D01*
X0342639Y0304101D01*
X0342502Y0304191D01*
X0342366Y0304284D01*
X0342233Y0304380D01*
X0342102Y0304480D01*
X0341974Y0304582D01*
X0341848Y0304688D01*
X0341725Y0304797D01*
X0341605Y0304909D01*
X0341487Y0305023D01*
X0341373Y0305141D01*
X0341261Y0305261D01*
X0341152Y0305384D01*
X0341046Y0305510D01*
X0340944Y0305638D01*
X0340844Y0305769D01*
X0340748Y0305902D01*
X0340655Y0306038D01*
X0340565Y0306175D01*
X0340479Y0306315D01*
X0340397Y0306457D01*
X0340317Y0306601D01*
X0340242Y0306747D01*
X0340170Y0306894D01*
X0340101Y0307044D01*
X0340036Y0307195D01*
X0339975Y0307347D01*
X0339918Y0307501D01*
X0339865Y0307657D01*
X0339815Y0307813D01*
X0339769Y0307971D01*
X0339728Y0308130D01*
X0339690Y0308290D01*
X0339656Y0308450D01*
X0339626Y0308612D01*
X0339599Y0308774D01*
X0339577Y0308937D01*
X0339559Y0309100D01*
X0339545Y0309264D01*
X0339535Y0309428D01*
X0339529Y0309592D01*
X0339527Y0309756D01*
X0252008Y0309756D02*
X0252010Y0309920D01*
X0252016Y0310084D01*
X0252026Y0310248D01*
X0252040Y0310412D01*
X0252058Y0310575D01*
X0252080Y0310738D01*
X0252107Y0310900D01*
X0252137Y0311062D01*
X0252171Y0311222D01*
X0252209Y0311382D01*
X0252250Y0311541D01*
X0252296Y0311699D01*
X0252346Y0311855D01*
X0252399Y0312011D01*
X0252456Y0312165D01*
X0252517Y0312317D01*
X0252582Y0312468D01*
X0252651Y0312618D01*
X0252723Y0312765D01*
X0252798Y0312911D01*
X0252878Y0313055D01*
X0252960Y0313197D01*
X0253046Y0313337D01*
X0253136Y0313474D01*
X0253229Y0313610D01*
X0253325Y0313743D01*
X0253425Y0313874D01*
X0253527Y0314002D01*
X0253633Y0314128D01*
X0253742Y0314251D01*
X0253854Y0314371D01*
X0253968Y0314489D01*
X0254086Y0314603D01*
X0254206Y0314715D01*
X0254329Y0314824D01*
X0254455Y0314930D01*
X0254583Y0315032D01*
X0254714Y0315132D01*
X0254847Y0315228D01*
X0254983Y0315321D01*
X0255120Y0315411D01*
X0255260Y0315497D01*
X0255402Y0315579D01*
X0255546Y0315659D01*
X0255692Y0315734D01*
X0255839Y0315806D01*
X0255989Y0315875D01*
X0256140Y0315940D01*
X0256292Y0316001D01*
X0256446Y0316058D01*
X0256602Y0316111D01*
X0256758Y0316161D01*
X0256916Y0316207D01*
X0257075Y0316248D01*
X0257235Y0316286D01*
X0257395Y0316320D01*
X0257557Y0316350D01*
X0257719Y0316377D01*
X0257882Y0316399D01*
X0258045Y0316417D01*
X0258209Y0316431D01*
X0258373Y0316441D01*
X0258537Y0316447D01*
X0258701Y0316449D01*
X0258865Y0316447D01*
X0259029Y0316441D01*
X0259193Y0316431D01*
X0259357Y0316417D01*
X0259520Y0316399D01*
X0259683Y0316377D01*
X0259845Y0316350D01*
X0260007Y0316320D01*
X0260167Y0316286D01*
X0260327Y0316248D01*
X0260486Y0316207D01*
X0260644Y0316161D01*
X0260800Y0316111D01*
X0260956Y0316058D01*
X0261110Y0316001D01*
X0261262Y0315940D01*
X0261413Y0315875D01*
X0261563Y0315806D01*
X0261710Y0315734D01*
X0261856Y0315659D01*
X0262000Y0315579D01*
X0262142Y0315497D01*
X0262282Y0315411D01*
X0262419Y0315321D01*
X0262555Y0315228D01*
X0262688Y0315132D01*
X0262819Y0315032D01*
X0262947Y0314930D01*
X0263073Y0314824D01*
X0263196Y0314715D01*
X0263316Y0314603D01*
X0263434Y0314489D01*
X0263548Y0314371D01*
X0263660Y0314251D01*
X0263769Y0314128D01*
X0263875Y0314002D01*
X0263977Y0313874D01*
X0264077Y0313743D01*
X0264173Y0313610D01*
X0264266Y0313474D01*
X0264356Y0313337D01*
X0264442Y0313197D01*
X0264524Y0313055D01*
X0264604Y0312911D01*
X0264679Y0312765D01*
X0264751Y0312618D01*
X0264820Y0312468D01*
X0264885Y0312317D01*
X0264946Y0312165D01*
X0265003Y0312011D01*
X0265056Y0311855D01*
X0265106Y0311699D01*
X0265152Y0311541D01*
X0265193Y0311382D01*
X0265231Y0311222D01*
X0265265Y0311062D01*
X0265295Y0310900D01*
X0265322Y0310738D01*
X0265344Y0310575D01*
X0265362Y0310412D01*
X0265376Y0310248D01*
X0265386Y0310084D01*
X0265392Y0309920D01*
X0265394Y0309756D01*
X0265392Y0309592D01*
X0265386Y0309428D01*
X0265376Y0309264D01*
X0265362Y0309100D01*
X0265344Y0308937D01*
X0265322Y0308774D01*
X0265295Y0308612D01*
X0265265Y0308450D01*
X0265231Y0308290D01*
X0265193Y0308130D01*
X0265152Y0307971D01*
X0265106Y0307813D01*
X0265056Y0307657D01*
X0265003Y0307501D01*
X0264946Y0307347D01*
X0264885Y0307195D01*
X0264820Y0307044D01*
X0264751Y0306894D01*
X0264679Y0306747D01*
X0264604Y0306601D01*
X0264524Y0306457D01*
X0264442Y0306315D01*
X0264356Y0306175D01*
X0264266Y0306038D01*
X0264173Y0305902D01*
X0264077Y0305769D01*
X0263977Y0305638D01*
X0263875Y0305510D01*
X0263769Y0305384D01*
X0263660Y0305261D01*
X0263548Y0305141D01*
X0263434Y0305023D01*
X0263316Y0304909D01*
X0263196Y0304797D01*
X0263073Y0304688D01*
X0262947Y0304582D01*
X0262819Y0304480D01*
X0262688Y0304380D01*
X0262555Y0304284D01*
X0262419Y0304191D01*
X0262282Y0304101D01*
X0262142Y0304015D01*
X0262000Y0303933D01*
X0261856Y0303853D01*
X0261710Y0303778D01*
X0261563Y0303706D01*
X0261413Y0303637D01*
X0261262Y0303572D01*
X0261110Y0303511D01*
X0260956Y0303454D01*
X0260800Y0303401D01*
X0260644Y0303351D01*
X0260486Y0303305D01*
X0260327Y0303264D01*
X0260167Y0303226D01*
X0260007Y0303192D01*
X0259845Y0303162D01*
X0259683Y0303135D01*
X0259520Y0303113D01*
X0259357Y0303095D01*
X0259193Y0303081D01*
X0259029Y0303071D01*
X0258865Y0303065D01*
X0258701Y0303063D01*
X0258537Y0303065D01*
X0258373Y0303071D01*
X0258209Y0303081D01*
X0258045Y0303095D01*
X0257882Y0303113D01*
X0257719Y0303135D01*
X0257557Y0303162D01*
X0257395Y0303192D01*
X0257235Y0303226D01*
X0257075Y0303264D01*
X0256916Y0303305D01*
X0256758Y0303351D01*
X0256602Y0303401D01*
X0256446Y0303454D01*
X0256292Y0303511D01*
X0256140Y0303572D01*
X0255989Y0303637D01*
X0255839Y0303706D01*
X0255692Y0303778D01*
X0255546Y0303853D01*
X0255402Y0303933D01*
X0255260Y0304015D01*
X0255120Y0304101D01*
X0254983Y0304191D01*
X0254847Y0304284D01*
X0254714Y0304380D01*
X0254583Y0304480D01*
X0254455Y0304582D01*
X0254329Y0304688D01*
X0254206Y0304797D01*
X0254086Y0304909D01*
X0253968Y0305023D01*
X0253854Y0305141D01*
X0253742Y0305261D01*
X0253633Y0305384D01*
X0253527Y0305510D01*
X0253425Y0305638D01*
X0253325Y0305769D01*
X0253229Y0305902D01*
X0253136Y0306038D01*
X0253046Y0306175D01*
X0252960Y0306315D01*
X0252878Y0306457D01*
X0252798Y0306601D01*
X0252723Y0306747D01*
X0252651Y0306894D01*
X0252582Y0307044D01*
X0252517Y0307195D01*
X0252456Y0307347D01*
X0252399Y0307501D01*
X0252346Y0307657D01*
X0252296Y0307813D01*
X0252250Y0307971D01*
X0252209Y0308130D01*
X0252171Y0308290D01*
X0252137Y0308450D01*
X0252107Y0308612D01*
X0252080Y0308774D01*
X0252058Y0308937D01*
X0252040Y0309100D01*
X0252026Y0309264D01*
X0252016Y0309428D01*
X0252010Y0309592D01*
X0252008Y0309756D01*
X0028795Y0289000D02*
X0028797Y0289108D01*
X0028803Y0289217D01*
X0028813Y0289325D01*
X0028827Y0289432D01*
X0028845Y0289539D01*
X0028866Y0289646D01*
X0028892Y0289751D01*
X0028922Y0289856D01*
X0028955Y0289959D01*
X0028992Y0290061D01*
X0029033Y0290161D01*
X0029077Y0290260D01*
X0029126Y0290358D01*
X0029177Y0290453D01*
X0029232Y0290546D01*
X0029291Y0290638D01*
X0029353Y0290727D01*
X0029418Y0290814D01*
X0029486Y0290898D01*
X0029557Y0290980D01*
X0029631Y0291059D01*
X0029708Y0291135D01*
X0029788Y0291209D01*
X0029871Y0291279D01*
X0029956Y0291347D01*
X0030043Y0291411D01*
X0030133Y0291472D01*
X0030225Y0291530D01*
X0030319Y0291584D01*
X0030415Y0291635D01*
X0030512Y0291682D01*
X0030612Y0291726D01*
X0030713Y0291766D01*
X0030815Y0291802D01*
X0030918Y0291834D01*
X0031023Y0291863D01*
X0031129Y0291887D01*
X0031235Y0291908D01*
X0031342Y0291925D01*
X0031450Y0291938D01*
X0031558Y0291947D01*
X0031667Y0291952D01*
X0031775Y0291953D01*
X0031884Y0291950D01*
X0031992Y0291943D01*
X0032100Y0291932D01*
X0032207Y0291917D01*
X0032314Y0291898D01*
X0032420Y0291875D01*
X0032525Y0291849D01*
X0032630Y0291818D01*
X0032732Y0291784D01*
X0032834Y0291746D01*
X0032934Y0291704D01*
X0033033Y0291659D01*
X0033130Y0291610D01*
X0033224Y0291557D01*
X0033317Y0291501D01*
X0033408Y0291442D01*
X0033497Y0291379D01*
X0033583Y0291314D01*
X0033667Y0291245D01*
X0033748Y0291173D01*
X0033826Y0291098D01*
X0033902Y0291020D01*
X0033975Y0290939D01*
X0034045Y0290856D01*
X0034111Y0290771D01*
X0034175Y0290683D01*
X0034235Y0290592D01*
X0034292Y0290500D01*
X0034345Y0290405D01*
X0034395Y0290309D01*
X0034441Y0290211D01*
X0034484Y0290111D01*
X0034523Y0290010D01*
X0034558Y0289907D01*
X0034590Y0289804D01*
X0034617Y0289699D01*
X0034641Y0289593D01*
X0034661Y0289486D01*
X0034677Y0289379D01*
X0034689Y0289271D01*
X0034697Y0289163D01*
X0034701Y0289054D01*
X0034701Y0288946D01*
X0034697Y0288837D01*
X0034689Y0288729D01*
X0034677Y0288621D01*
X0034661Y0288514D01*
X0034641Y0288407D01*
X0034617Y0288301D01*
X0034590Y0288196D01*
X0034558Y0288093D01*
X0034523Y0287990D01*
X0034484Y0287889D01*
X0034441Y0287789D01*
X0034395Y0287691D01*
X0034345Y0287595D01*
X0034292Y0287500D01*
X0034235Y0287408D01*
X0034175Y0287317D01*
X0034111Y0287229D01*
X0034045Y0287144D01*
X0033975Y0287061D01*
X0033902Y0286980D01*
X0033826Y0286902D01*
X0033748Y0286827D01*
X0033667Y0286755D01*
X0033583Y0286686D01*
X0033497Y0286621D01*
X0033408Y0286558D01*
X0033317Y0286499D01*
X0033225Y0286443D01*
X0033130Y0286390D01*
X0033033Y0286341D01*
X0032934Y0286296D01*
X0032834Y0286254D01*
X0032732Y0286216D01*
X0032630Y0286182D01*
X0032525Y0286151D01*
X0032420Y0286125D01*
X0032314Y0286102D01*
X0032207Y0286083D01*
X0032100Y0286068D01*
X0031992Y0286057D01*
X0031884Y0286050D01*
X0031775Y0286047D01*
X0031667Y0286048D01*
X0031558Y0286053D01*
X0031450Y0286062D01*
X0031342Y0286075D01*
X0031235Y0286092D01*
X0031129Y0286113D01*
X0031023Y0286137D01*
X0030918Y0286166D01*
X0030815Y0286198D01*
X0030713Y0286234D01*
X0030612Y0286274D01*
X0030512Y0286318D01*
X0030415Y0286365D01*
X0030319Y0286416D01*
X0030225Y0286470D01*
X0030133Y0286528D01*
X0030043Y0286589D01*
X0029956Y0286653D01*
X0029871Y0286721D01*
X0029788Y0286791D01*
X0029708Y0286865D01*
X0029631Y0286941D01*
X0029557Y0287020D01*
X0029486Y0287102D01*
X0029418Y0287186D01*
X0029353Y0287273D01*
X0029291Y0287362D01*
X0029232Y0287454D01*
X0029177Y0287547D01*
X0029126Y0287642D01*
X0029077Y0287740D01*
X0029033Y0287839D01*
X0028992Y0287939D01*
X0028955Y0288041D01*
X0028922Y0288144D01*
X0028892Y0288249D01*
X0028866Y0288354D01*
X0028845Y0288461D01*
X0028827Y0288568D01*
X0028813Y0288675D01*
X0028803Y0288783D01*
X0028797Y0288892D01*
X0028795Y0289000D01*
X0009110Y0269315D02*
X0009112Y0269423D01*
X0009118Y0269532D01*
X0009128Y0269640D01*
X0009142Y0269747D01*
X0009160Y0269854D01*
X0009181Y0269961D01*
X0009207Y0270066D01*
X0009237Y0270171D01*
X0009270Y0270274D01*
X0009307Y0270376D01*
X0009348Y0270476D01*
X0009392Y0270575D01*
X0009441Y0270673D01*
X0009492Y0270768D01*
X0009547Y0270861D01*
X0009606Y0270953D01*
X0009668Y0271042D01*
X0009733Y0271129D01*
X0009801Y0271213D01*
X0009872Y0271295D01*
X0009946Y0271374D01*
X0010023Y0271450D01*
X0010103Y0271524D01*
X0010186Y0271594D01*
X0010271Y0271662D01*
X0010358Y0271726D01*
X0010448Y0271787D01*
X0010540Y0271845D01*
X0010634Y0271899D01*
X0010730Y0271950D01*
X0010827Y0271997D01*
X0010927Y0272041D01*
X0011028Y0272081D01*
X0011130Y0272117D01*
X0011233Y0272149D01*
X0011338Y0272178D01*
X0011444Y0272202D01*
X0011550Y0272223D01*
X0011657Y0272240D01*
X0011765Y0272253D01*
X0011873Y0272262D01*
X0011982Y0272267D01*
X0012090Y0272268D01*
X0012199Y0272265D01*
X0012307Y0272258D01*
X0012415Y0272247D01*
X0012522Y0272232D01*
X0012629Y0272213D01*
X0012735Y0272190D01*
X0012840Y0272164D01*
X0012945Y0272133D01*
X0013047Y0272099D01*
X0013149Y0272061D01*
X0013249Y0272019D01*
X0013348Y0271974D01*
X0013445Y0271925D01*
X0013539Y0271872D01*
X0013632Y0271816D01*
X0013723Y0271757D01*
X0013812Y0271694D01*
X0013898Y0271629D01*
X0013982Y0271560D01*
X0014063Y0271488D01*
X0014141Y0271413D01*
X0014217Y0271335D01*
X0014290Y0271254D01*
X0014360Y0271171D01*
X0014426Y0271086D01*
X0014490Y0270998D01*
X0014550Y0270907D01*
X0014607Y0270815D01*
X0014660Y0270720D01*
X0014710Y0270624D01*
X0014756Y0270526D01*
X0014799Y0270426D01*
X0014838Y0270325D01*
X0014873Y0270222D01*
X0014905Y0270119D01*
X0014932Y0270014D01*
X0014956Y0269908D01*
X0014976Y0269801D01*
X0014992Y0269694D01*
X0015004Y0269586D01*
X0015012Y0269478D01*
X0015016Y0269369D01*
X0015016Y0269261D01*
X0015012Y0269152D01*
X0015004Y0269044D01*
X0014992Y0268936D01*
X0014976Y0268829D01*
X0014956Y0268722D01*
X0014932Y0268616D01*
X0014905Y0268511D01*
X0014873Y0268408D01*
X0014838Y0268305D01*
X0014799Y0268204D01*
X0014756Y0268104D01*
X0014710Y0268006D01*
X0014660Y0267910D01*
X0014607Y0267815D01*
X0014550Y0267723D01*
X0014490Y0267632D01*
X0014426Y0267544D01*
X0014360Y0267459D01*
X0014290Y0267376D01*
X0014217Y0267295D01*
X0014141Y0267217D01*
X0014063Y0267142D01*
X0013982Y0267070D01*
X0013898Y0267001D01*
X0013812Y0266936D01*
X0013723Y0266873D01*
X0013632Y0266814D01*
X0013540Y0266758D01*
X0013445Y0266705D01*
X0013348Y0266656D01*
X0013249Y0266611D01*
X0013149Y0266569D01*
X0013047Y0266531D01*
X0012945Y0266497D01*
X0012840Y0266466D01*
X0012735Y0266440D01*
X0012629Y0266417D01*
X0012522Y0266398D01*
X0012415Y0266383D01*
X0012307Y0266372D01*
X0012199Y0266365D01*
X0012090Y0266362D01*
X0011982Y0266363D01*
X0011873Y0266368D01*
X0011765Y0266377D01*
X0011657Y0266390D01*
X0011550Y0266407D01*
X0011444Y0266428D01*
X0011338Y0266452D01*
X0011233Y0266481D01*
X0011130Y0266513D01*
X0011028Y0266549D01*
X0010927Y0266589D01*
X0010827Y0266633D01*
X0010730Y0266680D01*
X0010634Y0266731D01*
X0010540Y0266785D01*
X0010448Y0266843D01*
X0010358Y0266904D01*
X0010271Y0266968D01*
X0010186Y0267036D01*
X0010103Y0267106D01*
X0010023Y0267180D01*
X0009946Y0267256D01*
X0009872Y0267335D01*
X0009801Y0267417D01*
X0009733Y0267501D01*
X0009668Y0267588D01*
X0009606Y0267677D01*
X0009547Y0267769D01*
X0009492Y0267862D01*
X0009441Y0267957D01*
X0009392Y0268055D01*
X0009348Y0268154D01*
X0009307Y0268254D01*
X0009270Y0268356D01*
X0009237Y0268459D01*
X0009207Y0268564D01*
X0009181Y0268669D01*
X0009160Y0268776D01*
X0009142Y0268883D01*
X0009128Y0268990D01*
X0009118Y0269098D01*
X0009112Y0269207D01*
X0009110Y0269315D01*
X0009110Y0308685D02*
X0009112Y0308793D01*
X0009118Y0308902D01*
X0009128Y0309010D01*
X0009142Y0309117D01*
X0009160Y0309224D01*
X0009181Y0309331D01*
X0009207Y0309436D01*
X0009237Y0309541D01*
X0009270Y0309644D01*
X0009307Y0309746D01*
X0009348Y0309846D01*
X0009392Y0309945D01*
X0009441Y0310043D01*
X0009492Y0310138D01*
X0009547Y0310231D01*
X0009606Y0310323D01*
X0009668Y0310412D01*
X0009733Y0310499D01*
X0009801Y0310583D01*
X0009872Y0310665D01*
X0009946Y0310744D01*
X0010023Y0310820D01*
X0010103Y0310894D01*
X0010186Y0310964D01*
X0010271Y0311032D01*
X0010358Y0311096D01*
X0010448Y0311157D01*
X0010540Y0311215D01*
X0010634Y0311269D01*
X0010730Y0311320D01*
X0010827Y0311367D01*
X0010927Y0311411D01*
X0011028Y0311451D01*
X0011130Y0311487D01*
X0011233Y0311519D01*
X0011338Y0311548D01*
X0011444Y0311572D01*
X0011550Y0311593D01*
X0011657Y0311610D01*
X0011765Y0311623D01*
X0011873Y0311632D01*
X0011982Y0311637D01*
X0012090Y0311638D01*
X0012199Y0311635D01*
X0012307Y0311628D01*
X0012415Y0311617D01*
X0012522Y0311602D01*
X0012629Y0311583D01*
X0012735Y0311560D01*
X0012840Y0311534D01*
X0012945Y0311503D01*
X0013047Y0311469D01*
X0013149Y0311431D01*
X0013249Y0311389D01*
X0013348Y0311344D01*
X0013445Y0311295D01*
X0013539Y0311242D01*
X0013632Y0311186D01*
X0013723Y0311127D01*
X0013812Y0311064D01*
X0013898Y0310999D01*
X0013982Y0310930D01*
X0014063Y0310858D01*
X0014141Y0310783D01*
X0014217Y0310705D01*
X0014290Y0310624D01*
X0014360Y0310541D01*
X0014426Y0310456D01*
X0014490Y0310368D01*
X0014550Y0310277D01*
X0014607Y0310185D01*
X0014660Y0310090D01*
X0014710Y0309994D01*
X0014756Y0309896D01*
X0014799Y0309796D01*
X0014838Y0309695D01*
X0014873Y0309592D01*
X0014905Y0309489D01*
X0014932Y0309384D01*
X0014956Y0309278D01*
X0014976Y0309171D01*
X0014992Y0309064D01*
X0015004Y0308956D01*
X0015012Y0308848D01*
X0015016Y0308739D01*
X0015016Y0308631D01*
X0015012Y0308522D01*
X0015004Y0308414D01*
X0014992Y0308306D01*
X0014976Y0308199D01*
X0014956Y0308092D01*
X0014932Y0307986D01*
X0014905Y0307881D01*
X0014873Y0307778D01*
X0014838Y0307675D01*
X0014799Y0307574D01*
X0014756Y0307474D01*
X0014710Y0307376D01*
X0014660Y0307280D01*
X0014607Y0307185D01*
X0014550Y0307093D01*
X0014490Y0307002D01*
X0014426Y0306914D01*
X0014360Y0306829D01*
X0014290Y0306746D01*
X0014217Y0306665D01*
X0014141Y0306587D01*
X0014063Y0306512D01*
X0013982Y0306440D01*
X0013898Y0306371D01*
X0013812Y0306306D01*
X0013723Y0306243D01*
X0013632Y0306184D01*
X0013540Y0306128D01*
X0013445Y0306075D01*
X0013348Y0306026D01*
X0013249Y0305981D01*
X0013149Y0305939D01*
X0013047Y0305901D01*
X0012945Y0305867D01*
X0012840Y0305836D01*
X0012735Y0305810D01*
X0012629Y0305787D01*
X0012522Y0305768D01*
X0012415Y0305753D01*
X0012307Y0305742D01*
X0012199Y0305735D01*
X0012090Y0305732D01*
X0011982Y0305733D01*
X0011873Y0305738D01*
X0011765Y0305747D01*
X0011657Y0305760D01*
X0011550Y0305777D01*
X0011444Y0305798D01*
X0011338Y0305822D01*
X0011233Y0305851D01*
X0011130Y0305883D01*
X0011028Y0305919D01*
X0010927Y0305959D01*
X0010827Y0306003D01*
X0010730Y0306050D01*
X0010634Y0306101D01*
X0010540Y0306155D01*
X0010448Y0306213D01*
X0010358Y0306274D01*
X0010271Y0306338D01*
X0010186Y0306406D01*
X0010103Y0306476D01*
X0010023Y0306550D01*
X0009946Y0306626D01*
X0009872Y0306705D01*
X0009801Y0306787D01*
X0009733Y0306871D01*
X0009668Y0306958D01*
X0009606Y0307047D01*
X0009547Y0307139D01*
X0009492Y0307232D01*
X0009441Y0307327D01*
X0009392Y0307425D01*
X0009348Y0307524D01*
X0009307Y0307624D01*
X0009270Y0307726D01*
X0009237Y0307829D01*
X0009207Y0307934D01*
X0009181Y0308039D01*
X0009160Y0308146D01*
X0009142Y0308253D01*
X0009128Y0308360D01*
X0009118Y0308468D01*
X0009112Y0308577D01*
X0009110Y0308685D01*
D11*
X0049150Y0319650D02*
X0051002Y0319650D01*
X0051619Y0320267D01*
X0051619Y0322736D01*
X0051002Y0323353D01*
X0049150Y0323353D01*
X0049150Y0319650D01*
X0052833Y0319650D02*
X0052833Y0322119D01*
X0054068Y0323353D01*
X0055302Y0322119D01*
X0055302Y0319650D01*
X0055302Y0321502D02*
X0052833Y0321502D01*
X0056516Y0323353D02*
X0058985Y0323353D01*
X0057751Y0323353D02*
X0057751Y0319650D01*
X0060199Y0319650D02*
X0060199Y0322119D01*
X0061434Y0323353D01*
X0062668Y0322119D01*
X0062668Y0319650D01*
X0062668Y0321502D02*
X0060199Y0321502D01*
X0068150Y0321502D02*
X0070002Y0321502D01*
X0070619Y0320884D01*
X0070619Y0320267D01*
X0070002Y0319650D01*
X0068150Y0319650D01*
X0068150Y0323353D01*
X0070002Y0323353D01*
X0070619Y0322736D01*
X0070619Y0322119D01*
X0070002Y0321502D01*
X0071833Y0322736D02*
X0071833Y0320267D01*
X0072450Y0319650D01*
X0073685Y0319650D01*
X0074302Y0320267D01*
X0075516Y0319650D02*
X0075516Y0323353D01*
X0074302Y0322736D02*
X0073685Y0323353D01*
X0072450Y0323353D01*
X0071833Y0322736D01*
X0075516Y0320884D02*
X0077985Y0323353D01*
X0076133Y0321502D02*
X0077985Y0319650D01*
X0085150Y0319650D02*
X0085150Y0323353D01*
X0088833Y0323353D02*
X0088833Y0319650D01*
X0087619Y0319650D02*
X0085150Y0319650D01*
X0088833Y0320884D02*
X0090685Y0320884D01*
X0091302Y0321502D01*
X0091302Y0322736D01*
X0090685Y0323353D01*
X0088833Y0323353D01*
X0090068Y0320884D02*
X0091302Y0319650D01*
X0098150Y0320267D02*
X0098767Y0319650D01*
X0100002Y0319650D01*
X0100619Y0320267D01*
X0100619Y0320884D01*
X0100002Y0321502D01*
X0098767Y0321502D01*
X0098150Y0322119D01*
X0098150Y0322736D01*
X0098767Y0323353D01*
X0100002Y0323353D01*
X0100619Y0322736D01*
X0101833Y0322736D02*
X0103068Y0321502D01*
X0103068Y0319650D01*
X0103068Y0321502D02*
X0104302Y0322736D01*
X0104302Y0323353D01*
X0105516Y0322736D02*
X0105516Y0322119D01*
X0106133Y0321502D01*
X0107368Y0321502D01*
X0107985Y0320884D01*
X0107985Y0320267D01*
X0107368Y0319650D01*
X0106133Y0319650D01*
X0105516Y0320267D01*
X0105516Y0322736D02*
X0106133Y0323353D01*
X0107368Y0323353D01*
X0107985Y0322736D01*
X0101833Y0322736D02*
X0101833Y0323353D01*
X0104767Y0306853D02*
X0104150Y0306236D01*
X0104150Y0305619D01*
X0104767Y0305002D01*
X0106002Y0305002D01*
X0106619Y0304384D01*
X0106619Y0303767D01*
X0106002Y0303150D01*
X0104767Y0303150D01*
X0104150Y0303767D01*
X0104767Y0306853D02*
X0106002Y0306853D01*
X0106619Y0306236D01*
X0107833Y0305619D02*
X0107833Y0303767D01*
X0108450Y0303150D01*
X0110302Y0303150D01*
X0110302Y0305619D01*
X0111516Y0305619D02*
X0113368Y0305619D01*
X0113985Y0305002D01*
X0113985Y0303767D01*
X0113368Y0303150D01*
X0111516Y0303150D01*
X0111516Y0301916D02*
X0111516Y0305619D01*
X0115199Y0305619D02*
X0115199Y0301916D01*
X0115199Y0303150D02*
X0117051Y0303150D01*
X0117668Y0303767D01*
X0117668Y0305002D01*
X0117051Y0305619D01*
X0115199Y0305619D01*
X0118883Y0306853D02*
X0119500Y0306853D01*
X0119500Y0303150D01*
X0118883Y0303150D02*
X0120117Y0303150D01*
X0121338Y0303767D02*
X0121955Y0303150D01*
X0123807Y0303150D01*
X0123807Y0302533D02*
X0123190Y0301916D01*
X0122572Y0301916D01*
X0123807Y0302533D02*
X0123807Y0305619D01*
X0121338Y0305619D02*
X0121338Y0303767D01*
X0118485Y0277853D02*
X0117251Y0277236D01*
X0116016Y0276002D01*
X0117868Y0276002D01*
X0118485Y0275384D01*
X0118485Y0274767D01*
X0117868Y0274150D01*
X0116633Y0274150D01*
X0116016Y0274767D01*
X0116016Y0276002D01*
X0114802Y0274150D02*
X0112333Y0274150D01*
X0113568Y0274150D02*
X0113568Y0277853D01*
X0112333Y0276619D01*
X0111119Y0277236D02*
X0110502Y0277853D01*
X0109267Y0277853D01*
X0108650Y0277236D01*
X0108650Y0274767D01*
X0109267Y0274150D01*
X0110502Y0274150D01*
X0111119Y0274767D01*
X0070350Y0266818D02*
X0070350Y0265584D01*
X0069733Y0264967D01*
X0069116Y0264967D01*
X0068498Y0265584D01*
X0068498Y0266818D01*
X0069116Y0267436D01*
X0069733Y0267436D01*
X0070350Y0266818D01*
X0068498Y0266818D02*
X0067881Y0267436D01*
X0067264Y0267436D01*
X0066647Y0266818D01*
X0066647Y0265584D01*
X0067264Y0264967D01*
X0067881Y0264967D01*
X0068498Y0265584D01*
X0070350Y0263752D02*
X0070350Y0261284D01*
X0070350Y0262518D02*
X0066647Y0262518D01*
X0067881Y0261284D01*
X0067264Y0260069D02*
X0066647Y0259452D01*
X0066647Y0258218D01*
X0067264Y0257601D01*
X0069733Y0257601D01*
X0070350Y0258218D01*
X0070350Y0259452D01*
X0069733Y0260069D01*
X0046436Y0262236D02*
X0043967Y0259767D01*
X0043967Y0259150D01*
X0042752Y0259150D02*
X0040284Y0259150D01*
X0041518Y0259150D02*
X0041518Y0262853D01*
X0040284Y0261619D01*
X0039069Y0262236D02*
X0038452Y0262853D01*
X0037218Y0262853D01*
X0036601Y0262236D01*
X0036601Y0259767D01*
X0037218Y0259150D01*
X0038452Y0259150D01*
X0039069Y0259767D01*
X0043967Y0262853D02*
X0046436Y0262853D01*
X0046436Y0262236D01*
X0039436Y0242353D02*
X0038201Y0241736D01*
X0036967Y0240502D01*
X0038818Y0240502D01*
X0039436Y0239884D01*
X0039436Y0239267D01*
X0038818Y0238650D01*
X0037584Y0238650D01*
X0036967Y0239267D01*
X0036967Y0240502D01*
X0035752Y0241119D02*
X0035752Y0241736D01*
X0035135Y0242353D01*
X0033901Y0242353D01*
X0033284Y0241736D01*
X0032069Y0241736D02*
X0032069Y0240502D01*
X0031452Y0239884D01*
X0029601Y0239884D01*
X0030835Y0239884D02*
X0032069Y0238650D01*
X0033284Y0238650D02*
X0035752Y0241119D01*
X0035752Y0238650D02*
X0033284Y0238650D01*
X0032069Y0241736D02*
X0031452Y0242353D01*
X0029601Y0242353D01*
X0029601Y0238650D01*
X0044500Y0235295D02*
X0044500Y0232826D01*
X0045118Y0232209D01*
X0046352Y0232209D01*
X0046969Y0232826D01*
X0048184Y0232826D02*
X0048801Y0232209D01*
X0050035Y0232209D01*
X0050652Y0232826D01*
X0050652Y0233443D01*
X0050035Y0234061D01*
X0049418Y0234061D01*
X0050035Y0234061D02*
X0050652Y0234678D01*
X0050652Y0235295D01*
X0050035Y0235912D01*
X0048801Y0235912D01*
X0048184Y0235295D01*
X0046969Y0235295D02*
X0046352Y0235912D01*
X0045118Y0235912D01*
X0044500Y0235295D01*
X0059150Y0235236D02*
X0059150Y0232767D01*
X0059767Y0232150D01*
X0061002Y0232150D01*
X0061619Y0232767D01*
X0062833Y0232150D02*
X0065302Y0234619D01*
X0065302Y0235236D01*
X0064685Y0235853D01*
X0063450Y0235853D01*
X0062833Y0235236D01*
X0061619Y0235236D02*
X0061002Y0235853D01*
X0059767Y0235853D01*
X0059150Y0235236D01*
X0062833Y0232150D02*
X0065302Y0232150D01*
X0010802Y0253384D02*
X0010802Y0255853D01*
X0010802Y0253384D02*
X0009568Y0252150D01*
X0008333Y0253384D01*
X0008333Y0255853D01*
X0007119Y0255853D02*
X0004650Y0255853D01*
X0004650Y0254002D01*
X0005884Y0254619D01*
X0006502Y0254619D01*
X0007119Y0254002D01*
X0007119Y0252767D01*
X0006502Y0252150D01*
X0005267Y0252150D01*
X0004650Y0252767D01*
X0121248Y0164393D02*
X0121248Y0160689D01*
X0123717Y0160689D01*
X0124932Y0160689D02*
X0127400Y0160689D01*
X0126166Y0160689D02*
X0126166Y0164393D01*
X0124932Y0163158D01*
X0139650Y0151353D02*
X0141502Y0151353D01*
X0142119Y0150736D01*
X0142119Y0149502D01*
X0141502Y0148884D01*
X0139650Y0148884D01*
X0139650Y0147650D02*
X0139650Y0151353D01*
X0140884Y0148884D02*
X0142119Y0147650D01*
X0143333Y0147650D02*
X0145802Y0147650D01*
X0144568Y0147650D02*
X0144568Y0151353D01*
X0143333Y0150119D01*
X0147016Y0150119D02*
X0147633Y0149502D01*
X0148868Y0149502D01*
X0149485Y0148884D01*
X0149485Y0148267D01*
X0148868Y0147650D01*
X0147633Y0147650D01*
X0147016Y0148267D01*
X0147016Y0148884D01*
X0147633Y0149502D01*
X0147016Y0150119D02*
X0147016Y0150736D01*
X0147633Y0151353D01*
X0148868Y0151353D01*
X0149485Y0150736D01*
X0149485Y0150119D01*
X0148868Y0149502D01*
X0151147Y0143251D02*
X0154850Y0143251D01*
X0154850Y0144485D02*
X0154850Y0142016D01*
X0154850Y0140802D02*
X0154850Y0138333D01*
X0152381Y0140802D01*
X0151764Y0140802D01*
X0151147Y0140185D01*
X0151147Y0138950D01*
X0151764Y0138333D01*
X0151764Y0137119D02*
X0151147Y0136502D01*
X0151147Y0135267D01*
X0151764Y0134650D01*
X0154233Y0134650D01*
X0154850Y0135267D01*
X0154850Y0136502D01*
X0154233Y0137119D01*
X0157284Y0138236D02*
X0157284Y0135767D01*
X0157901Y0135150D01*
X0159135Y0135150D01*
X0159752Y0135767D01*
X0160967Y0135767D02*
X0160967Y0135150D01*
X0160967Y0135767D02*
X0163436Y0138236D01*
X0163436Y0138853D01*
X0160967Y0138853D01*
X0159752Y0138236D02*
X0159135Y0138853D01*
X0157901Y0138853D01*
X0157284Y0138236D01*
X0157901Y0142650D02*
X0159135Y0142650D01*
X0159752Y0143267D01*
X0160967Y0143267D02*
X0160967Y0143884D01*
X0161584Y0144502D01*
X0162818Y0144502D01*
X0163436Y0143884D01*
X0163436Y0143267D01*
X0162818Y0142650D01*
X0161584Y0142650D01*
X0160967Y0143267D01*
X0161584Y0144502D02*
X0160967Y0145119D01*
X0160967Y0145736D01*
X0161584Y0146353D01*
X0162818Y0146353D01*
X0163436Y0145736D01*
X0163436Y0145119D01*
X0162818Y0144502D01*
X0159752Y0145736D02*
X0159135Y0146353D01*
X0157901Y0146353D01*
X0157284Y0145736D01*
X0157284Y0143267D01*
X0157901Y0142650D01*
X0152381Y0142016D02*
X0151147Y0143251D01*
X0151647Y0133485D02*
X0151647Y0131016D01*
X0153498Y0131016D01*
X0152881Y0132251D01*
X0152881Y0132868D01*
X0153498Y0133485D01*
X0154733Y0133485D01*
X0155350Y0132868D01*
X0155350Y0131633D01*
X0154733Y0131016D01*
X0155350Y0129802D02*
X0155350Y0127333D01*
X0155350Y0126119D02*
X0154116Y0124884D01*
X0154116Y0125502D02*
X0154116Y0123650D01*
X0155350Y0123650D02*
X0151647Y0123650D01*
X0151647Y0125502D01*
X0152264Y0126119D01*
X0153498Y0126119D01*
X0154116Y0125502D01*
X0152881Y0127333D02*
X0151647Y0128568D01*
X0155350Y0128568D01*
X0157284Y0128267D02*
X0157901Y0127650D01*
X0159135Y0127650D01*
X0159752Y0128267D01*
X0160967Y0128267D02*
X0161584Y0127650D01*
X0162818Y0127650D01*
X0163436Y0128267D01*
X0163436Y0128884D01*
X0162818Y0129502D01*
X0160967Y0129502D01*
X0160967Y0128267D01*
X0160967Y0129502D02*
X0162201Y0130736D01*
X0163436Y0131353D01*
X0159752Y0130736D02*
X0159135Y0131353D01*
X0157901Y0131353D01*
X0157284Y0130736D01*
X0157284Y0128267D01*
X0148485Y0120353D02*
X0148485Y0119736D01*
X0146016Y0117267D01*
X0146016Y0116650D01*
X0144802Y0116650D02*
X0142333Y0116650D01*
X0141119Y0116650D02*
X0139884Y0117884D01*
X0140502Y0117884D02*
X0138650Y0117884D01*
X0138650Y0116650D02*
X0138650Y0120353D01*
X0140502Y0120353D01*
X0141119Y0119736D01*
X0141119Y0118502D01*
X0140502Y0117884D01*
X0142333Y0119119D02*
X0143568Y0120353D01*
X0143568Y0116650D01*
X0146016Y0120353D02*
X0148485Y0120353D01*
X0153284Y0114853D02*
X0155135Y0114853D01*
X0155752Y0114236D01*
X0155752Y0113002D01*
X0155135Y0112384D01*
X0153284Y0112384D01*
X0153284Y0111150D02*
X0153284Y0114853D01*
X0154518Y0112384D02*
X0155752Y0111150D01*
X0156967Y0111767D02*
X0157584Y0111150D01*
X0158818Y0111150D01*
X0159436Y0111767D01*
X0159436Y0112384D01*
X0158818Y0113002D01*
X0158201Y0113002D01*
X0158818Y0113002D02*
X0159436Y0113619D01*
X0159436Y0114236D01*
X0158818Y0114853D01*
X0157584Y0114853D01*
X0156967Y0114236D01*
X0152868Y0104853D02*
X0151633Y0104853D01*
X0151016Y0104236D01*
X0152868Y0104853D02*
X0153485Y0104236D01*
X0153485Y0103619D01*
X0151016Y0101150D01*
X0153485Y0101150D01*
X0152868Y0098853D02*
X0153485Y0098236D01*
X0151016Y0095767D01*
X0151633Y0095150D01*
X0152868Y0095150D01*
X0153485Y0095767D01*
X0153485Y0098236D01*
X0152868Y0098853D02*
X0151633Y0098853D01*
X0151016Y0098236D01*
X0151016Y0095767D01*
X0149802Y0095150D02*
X0147333Y0095150D01*
X0146119Y0095150D02*
X0144884Y0096384D01*
X0145502Y0096384D02*
X0143650Y0096384D01*
X0143650Y0095150D02*
X0143650Y0098853D01*
X0145502Y0098853D01*
X0146119Y0098236D01*
X0146119Y0097002D01*
X0145502Y0096384D01*
X0147333Y0097619D02*
X0148568Y0098853D01*
X0148568Y0095150D01*
X0148568Y0101150D02*
X0148568Y0104853D01*
X0147333Y0103619D01*
X0146119Y0104236D02*
X0146119Y0103002D01*
X0145502Y0102384D01*
X0143650Y0102384D01*
X0143650Y0101150D02*
X0143650Y0104853D01*
X0145502Y0104853D01*
X0146119Y0104236D01*
X0144884Y0102384D02*
X0146119Y0101150D01*
X0147333Y0101150D02*
X0149802Y0101150D01*
X0162718Y0086353D02*
X0162101Y0085736D01*
X0162101Y0083267D01*
X0162718Y0082650D01*
X0163952Y0082650D01*
X0164569Y0083267D01*
X0165784Y0082650D02*
X0168252Y0082650D01*
X0167018Y0082650D02*
X0167018Y0086353D01*
X0165784Y0085119D01*
X0164569Y0085736D02*
X0163952Y0086353D01*
X0162718Y0086353D01*
X0169467Y0085736D02*
X0169467Y0083267D01*
X0171936Y0085736D01*
X0171936Y0083267D01*
X0171318Y0082650D01*
X0170084Y0082650D01*
X0169467Y0083267D01*
X0169467Y0085736D02*
X0170084Y0086353D01*
X0171318Y0086353D01*
X0171936Y0085736D01*
X0196650Y0102767D02*
X0196650Y0105236D01*
X0197267Y0105853D01*
X0198502Y0105853D01*
X0199119Y0105236D01*
X0200333Y0105236D02*
X0200333Y0104619D01*
X0200950Y0104002D01*
X0202802Y0104002D01*
X0202802Y0105236D02*
X0202185Y0105853D01*
X0200950Y0105853D01*
X0200333Y0105236D01*
X0200333Y0102767D02*
X0200950Y0102150D01*
X0202185Y0102150D01*
X0202802Y0102767D01*
X0202802Y0105236D01*
X0199119Y0102767D02*
X0198502Y0102150D01*
X0197267Y0102150D01*
X0196650Y0102767D01*
X0222248Y0115189D02*
X0222248Y0118893D01*
X0222248Y0115189D02*
X0224717Y0115189D01*
X0225932Y0115189D02*
X0228400Y0117658D01*
X0228400Y0118275D01*
X0227783Y0118893D01*
X0226549Y0118893D01*
X0225932Y0118275D01*
X0225932Y0115189D02*
X0228400Y0115189D01*
X0227936Y0128650D02*
X0225467Y0128650D01*
X0227936Y0131119D01*
X0227936Y0131736D01*
X0227318Y0132353D01*
X0226084Y0132353D01*
X0225467Y0131736D01*
X0224252Y0131736D02*
X0223635Y0132353D01*
X0222401Y0132353D01*
X0221784Y0131736D01*
X0220569Y0131736D02*
X0219952Y0132353D01*
X0218718Y0132353D01*
X0218101Y0131736D01*
X0218101Y0129267D01*
X0218718Y0128650D01*
X0219952Y0128650D01*
X0220569Y0129267D01*
X0221784Y0128650D02*
X0224252Y0131119D01*
X0224252Y0131736D01*
X0224252Y0128650D02*
X0221784Y0128650D01*
X0228784Y0133267D02*
X0228784Y0135736D01*
X0229401Y0136353D01*
X0230635Y0136353D01*
X0231252Y0135736D01*
X0232467Y0135119D02*
X0233701Y0136353D01*
X0233701Y0132650D01*
X0232467Y0132650D02*
X0234936Y0132650D01*
X0231252Y0133267D02*
X0230635Y0132650D01*
X0229401Y0132650D01*
X0228784Y0133267D01*
X0227318Y0137150D02*
X0226084Y0137150D01*
X0225467Y0137767D01*
X0224252Y0137150D02*
X0221784Y0137150D01*
X0224252Y0139619D01*
X0224252Y0140236D01*
X0223635Y0140853D01*
X0222401Y0140853D01*
X0221784Y0140236D01*
X0220569Y0140236D02*
X0219952Y0140853D01*
X0218718Y0140853D01*
X0218101Y0140236D01*
X0218101Y0137767D01*
X0218718Y0137150D01*
X0219952Y0137150D01*
X0220569Y0137767D01*
X0225467Y0140236D02*
X0226084Y0140853D01*
X0227318Y0140853D01*
X0227936Y0140236D01*
X0227936Y0139619D01*
X0227318Y0139002D01*
X0227936Y0138384D01*
X0227936Y0137767D01*
X0227318Y0137150D01*
X0227318Y0139002D02*
X0226701Y0139002D01*
X0244650Y0147267D02*
X0245267Y0146650D01*
X0246502Y0146650D01*
X0247119Y0147267D01*
X0248333Y0146650D02*
X0250802Y0146650D01*
X0249568Y0146650D02*
X0249568Y0150353D01*
X0248333Y0149119D01*
X0247119Y0149736D02*
X0246502Y0150353D01*
X0245267Y0150353D01*
X0244650Y0149736D01*
X0244650Y0147267D01*
X0252016Y0147267D02*
X0252633Y0146650D01*
X0253868Y0146650D01*
X0254485Y0147267D01*
X0254485Y0147884D01*
X0253868Y0148502D01*
X0253251Y0148502D01*
X0253868Y0148502D02*
X0254485Y0149119D01*
X0254485Y0149736D01*
X0253868Y0150353D01*
X0252633Y0150353D01*
X0252016Y0149736D01*
X0257150Y0136853D02*
X0259002Y0136853D01*
X0259619Y0136236D01*
X0259619Y0135002D01*
X0259002Y0134384D01*
X0257150Y0134384D01*
X0257150Y0133150D02*
X0257150Y0136853D01*
X0258384Y0134384D02*
X0259619Y0133150D01*
X0260833Y0133150D02*
X0263302Y0133150D01*
X0262068Y0133150D02*
X0262068Y0136853D01*
X0260833Y0135619D01*
X0270150Y0135353D02*
X0270150Y0131650D01*
X0270150Y0132884D02*
X0272002Y0132884D01*
X0272619Y0133502D01*
X0272619Y0134736D01*
X0272002Y0135353D01*
X0270150Y0135353D01*
X0271384Y0132884D02*
X0272619Y0131650D01*
X0273833Y0131650D02*
X0276302Y0134119D01*
X0276302Y0134736D01*
X0275685Y0135353D01*
X0274450Y0135353D01*
X0273833Y0134736D01*
X0273833Y0131650D02*
X0276302Y0131650D01*
X0277516Y0132267D02*
X0278133Y0131650D01*
X0279368Y0131650D01*
X0279985Y0132267D01*
X0279985Y0134736D01*
X0279368Y0135353D01*
X0278133Y0135353D01*
X0277516Y0134736D01*
X0277516Y0134119D01*
X0278133Y0133502D01*
X0279985Y0133502D01*
X0281150Y0138650D02*
X0282384Y0138650D01*
X0281767Y0138650D02*
X0281767Y0142353D01*
X0281150Y0142353D02*
X0282384Y0142353D01*
X0283605Y0141736D02*
X0283605Y0139267D01*
X0284223Y0138650D01*
X0285457Y0138650D01*
X0286074Y0139267D01*
X0287289Y0138650D02*
X0289757Y0141119D01*
X0289757Y0141736D01*
X0289140Y0142353D01*
X0287906Y0142353D01*
X0287289Y0141736D01*
X0286074Y0141736D02*
X0285457Y0142353D01*
X0284223Y0142353D01*
X0283605Y0141736D01*
X0287289Y0138650D02*
X0289757Y0138650D01*
X0299647Y0144767D02*
X0300264Y0144150D01*
X0302733Y0144150D01*
X0303350Y0144767D01*
X0303350Y0146002D01*
X0302733Y0146619D01*
X0303350Y0147833D02*
X0300881Y0150302D01*
X0300264Y0150302D01*
X0299647Y0149685D01*
X0299647Y0148450D01*
X0300264Y0147833D01*
X0300264Y0146619D02*
X0299647Y0146002D01*
X0299647Y0144767D01*
X0303350Y0147833D02*
X0303350Y0150302D01*
X0302733Y0151516D02*
X0303350Y0152133D01*
X0303350Y0153368D01*
X0302733Y0153985D01*
X0301498Y0153985D01*
X0300881Y0153368D01*
X0300881Y0152751D01*
X0301498Y0151516D01*
X0299647Y0151516D01*
X0299647Y0153985D01*
X0312150Y0156650D02*
X0312150Y0160353D01*
X0314002Y0160353D01*
X0314619Y0159736D01*
X0314619Y0158502D01*
X0314002Y0157884D01*
X0312150Y0157884D01*
X0313384Y0157884D02*
X0314619Y0156650D01*
X0315833Y0157267D02*
X0315833Y0157884D01*
X0316450Y0158502D01*
X0317685Y0158502D01*
X0318302Y0157884D01*
X0318302Y0157267D01*
X0317685Y0156650D01*
X0316450Y0156650D01*
X0315833Y0157267D01*
X0316450Y0158502D02*
X0315833Y0159119D01*
X0315833Y0159736D01*
X0316450Y0160353D01*
X0317685Y0160353D01*
X0318302Y0159736D01*
X0318302Y0159119D01*
X0317685Y0158502D01*
X0324647Y0152701D02*
X0328350Y0152701D01*
X0328350Y0151467D02*
X0328350Y0153936D01*
X0325881Y0151467D02*
X0324647Y0152701D01*
X0325264Y0150252D02*
X0324647Y0149635D01*
X0324647Y0148401D01*
X0325264Y0147784D01*
X0325264Y0146569D02*
X0326498Y0146569D01*
X0327116Y0145952D01*
X0327116Y0144101D01*
X0327116Y0145335D02*
X0328350Y0146569D01*
X0328350Y0147784D02*
X0325881Y0150252D01*
X0325264Y0150252D01*
X0328350Y0150252D02*
X0328350Y0147784D01*
X0325264Y0146569D02*
X0324647Y0145952D01*
X0324647Y0144101D01*
X0328350Y0144101D01*
X0332601Y0146150D02*
X0332601Y0149853D01*
X0334452Y0149853D01*
X0335069Y0149236D01*
X0335069Y0148002D01*
X0334452Y0147384D01*
X0332601Y0147384D01*
X0333835Y0147384D02*
X0335069Y0146150D01*
X0336284Y0146150D02*
X0338752Y0148619D01*
X0338752Y0149236D01*
X0338135Y0149853D01*
X0336901Y0149853D01*
X0336284Y0149236D01*
X0336284Y0146150D02*
X0338752Y0146150D01*
X0339967Y0146767D02*
X0340584Y0146150D01*
X0341818Y0146150D01*
X0342436Y0146767D01*
X0342436Y0149236D01*
X0339967Y0146767D01*
X0339967Y0149236D01*
X0340584Y0149853D01*
X0341818Y0149853D01*
X0342436Y0149236D01*
X0343002Y0134353D02*
X0341150Y0134353D01*
X0341150Y0130650D01*
X0341150Y0131884D02*
X0343002Y0131884D01*
X0343619Y0132502D01*
X0343619Y0133736D01*
X0343002Y0134353D01*
X0344833Y0133736D02*
X0345450Y0134353D01*
X0346685Y0134353D01*
X0347302Y0133736D01*
X0347302Y0133119D01*
X0344833Y0130650D01*
X0347302Y0130650D01*
X0348516Y0130650D02*
X0350985Y0133119D01*
X0350985Y0133736D01*
X0350368Y0134353D01*
X0349133Y0134353D01*
X0348516Y0133736D01*
X0348516Y0130650D02*
X0350985Y0130650D01*
X0343619Y0130650D02*
X0342384Y0131884D01*
X0342002Y0117353D02*
X0342619Y0116736D01*
X0342619Y0115502D01*
X0342002Y0114884D01*
X0340150Y0114884D01*
X0340150Y0113650D02*
X0340150Y0117353D01*
X0342002Y0117353D01*
X0343833Y0116736D02*
X0344450Y0117353D01*
X0345685Y0117353D01*
X0346302Y0116736D01*
X0346302Y0116119D01*
X0343833Y0113650D01*
X0346302Y0113650D01*
X0347516Y0114267D02*
X0348133Y0113650D01*
X0349368Y0113650D01*
X0349985Y0114267D01*
X0349985Y0114884D01*
X0349368Y0115502D01*
X0348751Y0115502D01*
X0349368Y0115502D02*
X0349985Y0116119D01*
X0349985Y0116736D01*
X0349368Y0117353D01*
X0348133Y0117353D01*
X0347516Y0116736D01*
X0342619Y0113650D02*
X0341384Y0114884D01*
X0342267Y0106353D02*
X0341650Y0105736D01*
X0341650Y0103267D01*
X0342267Y0102650D01*
X0343502Y0102650D01*
X0344119Y0103267D01*
X0345333Y0102650D02*
X0347802Y0105119D01*
X0347802Y0105736D01*
X0347185Y0106353D01*
X0345950Y0106353D01*
X0345333Y0105736D01*
X0344119Y0105736D02*
X0343502Y0106353D01*
X0342267Y0106353D01*
X0345333Y0102650D02*
X0347802Y0102650D01*
X0349016Y0103267D02*
X0349633Y0102650D01*
X0350868Y0102650D01*
X0351485Y0103267D01*
X0351485Y0103884D01*
X0350868Y0104502D01*
X0349016Y0104502D01*
X0349016Y0103267D01*
X0349016Y0104502D02*
X0350251Y0105736D01*
X0351485Y0106353D01*
X0347485Y0092853D02*
X0345016Y0092853D01*
X0343802Y0092236D02*
X0343185Y0092853D01*
X0341950Y0092853D01*
X0341333Y0092236D01*
X0340119Y0092236D02*
X0340119Y0091002D01*
X0339502Y0090384D01*
X0337650Y0090384D01*
X0337650Y0089150D02*
X0337650Y0092853D01*
X0339502Y0092853D01*
X0340119Y0092236D01*
X0338884Y0090384D02*
X0340119Y0089150D01*
X0341333Y0089150D02*
X0343802Y0091619D01*
X0343802Y0092236D01*
X0345016Y0089767D02*
X0345016Y0089150D01*
X0345016Y0089767D02*
X0347485Y0092236D01*
X0347485Y0092853D01*
X0343802Y0089150D02*
X0341333Y0089150D01*
X0326985Y0084236D02*
X0326985Y0083619D01*
X0324516Y0081150D01*
X0326985Y0081150D01*
X0326985Y0084236D02*
X0326368Y0084853D01*
X0325133Y0084853D01*
X0324516Y0084236D01*
X0322068Y0084853D02*
X0322068Y0081150D01*
X0323302Y0081150D02*
X0320833Y0081150D01*
X0319619Y0081767D02*
X0319002Y0081150D01*
X0317767Y0081150D01*
X0317150Y0081767D01*
X0317150Y0084236D01*
X0317767Y0084853D01*
X0319002Y0084853D01*
X0319619Y0084236D01*
X0320833Y0083619D02*
X0322068Y0084853D01*
X0295985Y0081150D02*
X0293516Y0081150D01*
X0292302Y0081150D02*
X0289833Y0081150D01*
X0291068Y0081150D02*
X0291068Y0084853D01*
X0289833Y0083619D01*
X0288619Y0084236D02*
X0288002Y0084853D01*
X0286767Y0084853D01*
X0286150Y0084236D01*
X0286150Y0081767D01*
X0286767Y0081150D01*
X0288002Y0081150D01*
X0288619Y0081767D01*
X0293516Y0083619D02*
X0294751Y0084853D01*
X0294751Y0081150D01*
X0276318Y0104650D02*
X0276318Y0108353D01*
X0274467Y0106502D01*
X0276936Y0106502D01*
X0273252Y0107119D02*
X0273252Y0107736D01*
X0272635Y0108353D01*
X0271401Y0108353D01*
X0270784Y0107736D01*
X0269569Y0107736D02*
X0268952Y0108353D01*
X0267718Y0108353D01*
X0267101Y0107736D01*
X0267101Y0105267D01*
X0267718Y0104650D01*
X0268952Y0104650D01*
X0269569Y0105267D01*
X0270784Y0104650D02*
X0273252Y0107119D01*
X0273252Y0104650D02*
X0270784Y0104650D01*
X0271069Y0115150D02*
X0269835Y0116384D01*
X0270452Y0116384D02*
X0268601Y0116384D01*
X0268601Y0115150D02*
X0268601Y0118853D01*
X0270452Y0118853D01*
X0271069Y0118236D01*
X0271069Y0117002D01*
X0270452Y0116384D01*
X0272284Y0115150D02*
X0274752Y0117619D01*
X0274752Y0118236D01*
X0274135Y0118853D01*
X0272901Y0118853D01*
X0272284Y0118236D01*
X0272284Y0115150D02*
X0274752Y0115150D01*
X0275967Y0115767D02*
X0275967Y0116384D01*
X0276584Y0117002D01*
X0277818Y0117002D01*
X0278436Y0116384D01*
X0278436Y0115767D01*
X0277818Y0115150D01*
X0276584Y0115150D01*
X0275967Y0115767D01*
X0276584Y0117002D02*
X0275967Y0117619D01*
X0275967Y0118236D01*
X0276584Y0118853D01*
X0277818Y0118853D01*
X0278436Y0118236D01*
X0278436Y0117619D01*
X0277818Y0117002D01*
X0254802Y0127736D02*
X0252333Y0125267D01*
X0252333Y0124650D01*
X0251119Y0124650D02*
X0249884Y0125884D01*
X0250502Y0125884D02*
X0248650Y0125884D01*
X0248650Y0124650D02*
X0248650Y0128353D01*
X0250502Y0128353D01*
X0251119Y0127736D01*
X0251119Y0126502D01*
X0250502Y0125884D01*
X0252333Y0128353D02*
X0254802Y0128353D01*
X0254802Y0127736D01*
X0288767Y0188150D02*
X0290002Y0188150D01*
X0290619Y0188767D01*
X0291833Y0190002D02*
X0294302Y0190002D01*
X0293685Y0191853D02*
X0291833Y0190002D01*
X0290619Y0191236D02*
X0290002Y0191853D01*
X0288767Y0191853D01*
X0288150Y0191236D01*
X0288150Y0188767D01*
X0288767Y0188150D01*
X0293685Y0188150D02*
X0293685Y0191853D01*
X0308284Y0191267D02*
X0308901Y0190650D01*
X0310135Y0190650D01*
X0310752Y0191267D01*
X0311967Y0191267D02*
X0312584Y0190650D01*
X0313818Y0190650D01*
X0314436Y0191267D01*
X0314436Y0192502D01*
X0313818Y0193119D01*
X0313201Y0193119D01*
X0311967Y0192502D01*
X0311967Y0194353D01*
X0314436Y0194353D01*
X0310752Y0193736D02*
X0310135Y0194353D01*
X0308901Y0194353D01*
X0308284Y0193736D01*
X0308284Y0191267D01*
X0318150Y0191353D02*
X0318150Y0189502D01*
X0319384Y0190119D01*
X0320002Y0190119D01*
X0320619Y0189502D01*
X0320619Y0188267D01*
X0320002Y0187650D01*
X0318767Y0187650D01*
X0318150Y0188267D01*
X0318150Y0191353D02*
X0320619Y0191353D01*
X0321833Y0191353D02*
X0321833Y0188884D01*
X0323068Y0187650D01*
X0324302Y0188884D01*
X0324302Y0191353D01*
X0330101Y0191384D02*
X0331952Y0191384D01*
X0332569Y0192002D01*
X0332569Y0193236D01*
X0331952Y0193853D01*
X0330101Y0193853D01*
X0330101Y0190150D01*
X0331335Y0191384D02*
X0332569Y0190150D01*
X0333784Y0190150D02*
X0336252Y0192619D01*
X0336252Y0193236D01*
X0335635Y0193853D01*
X0334401Y0193853D01*
X0333784Y0193236D01*
X0333784Y0190150D02*
X0336252Y0190150D01*
X0337467Y0190767D02*
X0338084Y0190150D01*
X0339318Y0190150D01*
X0339936Y0190767D01*
X0339936Y0192002D01*
X0339318Y0192619D01*
X0338701Y0192619D01*
X0337467Y0192002D01*
X0337467Y0193853D01*
X0339936Y0193853D01*
X0363366Y0134852D02*
X0363366Y0134235D01*
X0364600Y0133000D01*
X0364600Y0131149D01*
X0364600Y0133000D02*
X0365835Y0134235D01*
X0365835Y0134852D01*
X0367049Y0133618D02*
X0368283Y0134852D01*
X0368283Y0131149D01*
X0367049Y0131149D02*
X0369518Y0131149D01*
X0385150Y0127736D02*
X0385150Y0125267D01*
X0385767Y0124650D01*
X0387002Y0124650D01*
X0387619Y0125267D01*
X0388833Y0124650D02*
X0391302Y0124650D01*
X0390068Y0124650D02*
X0390068Y0128353D01*
X0388833Y0127119D01*
X0387619Y0127736D02*
X0387002Y0128353D01*
X0385767Y0128353D01*
X0385150Y0127736D01*
X0392516Y0128353D02*
X0392516Y0126502D01*
X0393751Y0127119D01*
X0394368Y0127119D01*
X0394985Y0126502D01*
X0394985Y0125267D01*
X0394368Y0124650D01*
X0393133Y0124650D01*
X0392516Y0125267D01*
X0392516Y0128353D02*
X0394985Y0128353D01*
X0394368Y0107353D02*
X0392516Y0105502D01*
X0394985Y0105502D01*
X0394368Y0107353D02*
X0394368Y0103650D01*
X0391302Y0103650D02*
X0388833Y0103650D01*
X0390068Y0103650D02*
X0390068Y0107353D01*
X0388833Y0106119D01*
X0387619Y0106736D02*
X0387002Y0107353D01*
X0385767Y0107353D01*
X0385150Y0106736D01*
X0385150Y0104267D01*
X0385767Y0103650D01*
X0387002Y0103650D01*
X0387619Y0104267D01*
X0339751Y0061353D02*
X0339751Y0057650D01*
X0340985Y0057650D02*
X0338516Y0057650D01*
X0337302Y0057650D02*
X0334833Y0057650D01*
X0333619Y0057650D02*
X0332384Y0058884D01*
X0333002Y0058884D02*
X0331150Y0058884D01*
X0331150Y0057650D02*
X0331150Y0061353D01*
X0333002Y0061353D01*
X0333619Y0060736D01*
X0333619Y0059502D01*
X0333002Y0058884D01*
X0334833Y0060119D02*
X0336068Y0061353D01*
X0336068Y0057650D01*
X0338516Y0060119D02*
X0339751Y0061353D01*
X0317802Y0044736D02*
X0317185Y0045353D01*
X0315950Y0045353D01*
X0315333Y0044736D01*
X0315333Y0044119D01*
X0315950Y0043502D01*
X0317802Y0043502D01*
X0317802Y0044736D02*
X0317802Y0042267D01*
X0317185Y0041650D01*
X0315950Y0041650D01*
X0315333Y0042267D01*
X0314119Y0041650D02*
X0312884Y0042884D01*
X0313502Y0042884D02*
X0311650Y0042884D01*
X0311650Y0041650D02*
X0311650Y0045353D01*
X0313502Y0045353D01*
X0314119Y0044736D01*
X0314119Y0043502D01*
X0313502Y0042884D01*
X0322650Y0023353D02*
X0324502Y0023353D01*
X0325119Y0022736D01*
X0325119Y0021502D01*
X0324502Y0020884D01*
X0322650Y0020884D01*
X0322650Y0019650D02*
X0322650Y0023353D01*
X0323884Y0020884D02*
X0325119Y0019650D01*
X0326333Y0020267D02*
X0326950Y0019650D01*
X0328185Y0019650D01*
X0328802Y0020267D01*
X0328802Y0020884D01*
X0328185Y0021502D01*
X0326333Y0021502D01*
X0326333Y0020267D01*
X0326333Y0021502D02*
X0327568Y0022736D01*
X0328802Y0023353D01*
X0248802Y0023353D02*
X0246333Y0023353D01*
X0246333Y0021502D01*
X0247568Y0022119D01*
X0248185Y0022119D01*
X0248802Y0021502D01*
X0248802Y0020267D01*
X0248185Y0019650D01*
X0246950Y0019650D01*
X0246333Y0020267D01*
X0245119Y0019650D02*
X0243884Y0020884D01*
X0244502Y0020884D02*
X0242650Y0020884D01*
X0242650Y0019650D02*
X0242650Y0023353D01*
X0244502Y0023353D01*
X0245119Y0022736D01*
X0245119Y0021502D01*
X0244502Y0020884D01*
X0168802Y0021502D02*
X0166333Y0021502D01*
X0168185Y0023353D01*
X0168185Y0019650D01*
X0165119Y0019650D02*
X0163884Y0020884D01*
X0164502Y0020884D02*
X0162650Y0020884D01*
X0162650Y0019650D02*
X0162650Y0023353D01*
X0164502Y0023353D01*
X0165119Y0022736D01*
X0165119Y0021502D01*
X0164502Y0020884D01*
X0088802Y0019650D02*
X0086333Y0019650D01*
X0088802Y0022119D01*
X0088802Y0022736D01*
X0088185Y0023353D01*
X0086950Y0023353D01*
X0086333Y0022736D01*
X0085119Y0022736D02*
X0085119Y0021502D01*
X0084502Y0020884D01*
X0082650Y0020884D01*
X0082650Y0019650D02*
X0082650Y0023353D01*
X0084502Y0023353D01*
X0085119Y0022736D01*
X0083884Y0020884D02*
X0085119Y0019650D01*
X0059368Y0070650D02*
X0058133Y0070650D01*
X0057516Y0071267D01*
X0056302Y0070650D02*
X0053833Y0070650D01*
X0052619Y0070650D02*
X0051384Y0071884D01*
X0052002Y0071884D02*
X0050150Y0071884D01*
X0050150Y0070650D02*
X0050150Y0074353D01*
X0052002Y0074353D01*
X0052619Y0073736D01*
X0052619Y0072502D01*
X0052002Y0071884D01*
X0053833Y0073119D02*
X0055068Y0074353D01*
X0055068Y0070650D01*
X0057516Y0073119D02*
X0058133Y0072502D01*
X0059985Y0072502D01*
X0059985Y0073736D02*
X0059368Y0074353D01*
X0058133Y0074353D01*
X0057516Y0073736D01*
X0057516Y0073119D01*
X0059985Y0073736D02*
X0059985Y0071267D01*
X0059368Y0070650D01*
X0021985Y0071267D02*
X0021985Y0071884D01*
X0021368Y0072502D01*
X0019516Y0072502D01*
X0019516Y0071267D01*
X0020133Y0070650D01*
X0021368Y0070650D01*
X0021985Y0071267D01*
X0020751Y0073736D02*
X0019516Y0072502D01*
X0020751Y0073736D02*
X0021985Y0074353D01*
X0017068Y0074353D02*
X0017068Y0070650D01*
X0018302Y0070650D02*
X0015833Y0070650D01*
X0014619Y0070650D02*
X0013384Y0071884D01*
X0014002Y0071884D02*
X0012150Y0071884D01*
X0012150Y0070650D02*
X0012150Y0074353D01*
X0014002Y0074353D01*
X0014619Y0073736D01*
X0014619Y0072502D01*
X0014002Y0071884D01*
X0015833Y0073119D02*
X0017068Y0074353D01*
X0083650Y0125767D02*
X0084267Y0125150D01*
X0085502Y0125150D01*
X0086119Y0125767D01*
X0086119Y0126384D01*
X0085502Y0127002D01*
X0084884Y0127002D01*
X0085502Y0127002D02*
X0086119Y0127619D01*
X0086119Y0128236D01*
X0085502Y0128853D01*
X0084267Y0128853D01*
X0083650Y0128236D01*
X0087333Y0127619D02*
X0088568Y0125150D01*
X0089802Y0127619D01*
X0091016Y0128236D02*
X0091633Y0128853D01*
X0092868Y0128853D01*
X0093485Y0128236D01*
X0093485Y0127619D01*
X0092868Y0127002D01*
X0093485Y0126384D01*
X0093485Y0125767D01*
X0092868Y0125150D01*
X0091633Y0125150D01*
X0091016Y0125767D01*
X0092251Y0127002D02*
X0092868Y0127002D01*
X0102150Y0133267D02*
X0102150Y0135736D01*
X0102767Y0136353D01*
X0104002Y0136353D01*
X0104619Y0135736D01*
X0105833Y0135736D02*
X0106450Y0136353D01*
X0107685Y0136353D01*
X0108302Y0135736D01*
X0108302Y0135119D01*
X0105833Y0132650D01*
X0108302Y0132650D01*
X0109516Y0133267D02*
X0111985Y0135736D01*
X0111985Y0133267D01*
X0111368Y0132650D01*
X0110133Y0132650D01*
X0109516Y0133267D01*
X0109516Y0135736D01*
X0110133Y0136353D01*
X0111368Y0136353D01*
X0111985Y0135736D01*
X0104619Y0133267D02*
X0104002Y0132650D01*
X0102767Y0132650D01*
X0102150Y0133267D01*
X0093485Y0140267D02*
X0092868Y0139650D01*
X0091633Y0139650D01*
X0091016Y0140267D01*
X0091016Y0141502D02*
X0092251Y0142119D01*
X0092868Y0142119D01*
X0093485Y0141502D01*
X0093485Y0140267D01*
X0091016Y0141502D02*
X0091016Y0143353D01*
X0093485Y0143353D01*
X0089802Y0143353D02*
X0089802Y0140884D01*
X0088568Y0139650D01*
X0087333Y0140884D01*
X0087333Y0143353D01*
X0086119Y0143353D02*
X0083650Y0143353D01*
X0083650Y0141502D01*
X0084884Y0142119D01*
X0085502Y0142119D01*
X0086119Y0141502D01*
X0086119Y0140267D01*
X0085502Y0139650D01*
X0084267Y0139650D01*
X0083650Y0140267D01*
X0085650Y0155150D02*
X0085650Y0158853D01*
X0087502Y0158853D01*
X0088119Y0158236D01*
X0088119Y0157002D01*
X0087502Y0156384D01*
X0085650Y0156384D01*
X0089333Y0155767D02*
X0089333Y0158236D01*
X0089950Y0158853D01*
X0091185Y0158853D01*
X0091802Y0158236D01*
X0091802Y0157002D02*
X0090568Y0157002D01*
X0091802Y0157002D02*
X0091802Y0155767D01*
X0091185Y0155150D01*
X0089950Y0155150D01*
X0089333Y0155767D01*
X0116718Y0108853D02*
X0116101Y0108236D01*
X0116101Y0105767D01*
X0116718Y0105150D01*
X0117952Y0105150D01*
X0118569Y0105767D01*
X0119784Y0105150D02*
X0122252Y0105150D01*
X0121018Y0105150D02*
X0121018Y0108853D01*
X0119784Y0107619D01*
X0118569Y0108236D02*
X0117952Y0108853D01*
X0116718Y0108853D01*
X0123467Y0108236D02*
X0123467Y0107619D01*
X0124084Y0107002D01*
X0125936Y0107002D01*
X0125936Y0108236D02*
X0125318Y0108853D01*
X0124084Y0108853D01*
X0123467Y0108236D01*
X0125936Y0108236D02*
X0125936Y0105767D01*
X0125318Y0105150D01*
X0124084Y0105150D01*
X0123467Y0105767D01*
X0190150Y0201150D02*
X0190150Y0204853D01*
X0192002Y0204853D01*
X0192619Y0204236D01*
X0192619Y0203002D01*
X0192002Y0202384D01*
X0190150Y0202384D01*
X0191384Y0202384D02*
X0192619Y0201150D01*
X0193833Y0201150D02*
X0196302Y0201150D01*
X0195068Y0201150D02*
X0195068Y0204853D01*
X0193833Y0203619D01*
X0197516Y0204236D02*
X0198133Y0204853D01*
X0199368Y0204853D01*
X0199985Y0204236D01*
X0199985Y0203619D01*
X0199368Y0203002D01*
X0199985Y0202384D01*
X0199985Y0201767D01*
X0199368Y0201150D01*
X0198133Y0201150D01*
X0197516Y0201767D01*
X0198751Y0203002D02*
X0199368Y0203002D01*
X0191868Y0221150D02*
X0191868Y0224853D01*
X0190016Y0223002D01*
X0192485Y0223002D01*
X0188802Y0221150D02*
X0186333Y0221150D01*
X0185119Y0221150D02*
X0183884Y0222384D01*
X0184502Y0222384D02*
X0182650Y0222384D01*
X0182650Y0221150D02*
X0182650Y0224853D01*
X0184502Y0224853D01*
X0185119Y0224236D01*
X0185119Y0223002D01*
X0184502Y0222384D01*
X0186333Y0223619D02*
X0187568Y0224853D01*
X0187568Y0221150D01*
X0179485Y0249650D02*
X0177016Y0249650D01*
X0178251Y0249650D02*
X0178251Y0253353D01*
X0177016Y0252119D01*
X0175802Y0252119D02*
X0175185Y0251502D01*
X0175802Y0250884D01*
X0175802Y0250267D01*
X0175185Y0249650D01*
X0173950Y0249650D01*
X0173333Y0250267D01*
X0172119Y0249650D02*
X0170884Y0250884D01*
X0171502Y0250884D02*
X0169650Y0250884D01*
X0169650Y0249650D02*
X0169650Y0253353D01*
X0171502Y0253353D01*
X0172119Y0252736D01*
X0172119Y0251502D01*
X0171502Y0250884D01*
X0173333Y0252736D02*
X0173950Y0253353D01*
X0175185Y0253353D01*
X0175802Y0252736D01*
X0175802Y0252119D01*
X0175185Y0251502D02*
X0174568Y0251502D01*
D12*
X0292139Y0130748D02*
X0292141Y0130815D01*
X0292147Y0130881D01*
X0292157Y0130947D01*
X0292171Y0131012D01*
X0292188Y0131076D01*
X0292210Y0131139D01*
X0292235Y0131201D01*
X0292264Y0131261D01*
X0292297Y0131319D01*
X0292332Y0131375D01*
X0292372Y0131429D01*
X0292414Y0131480D01*
X0292459Y0131529D01*
X0292507Y0131575D01*
X0292558Y0131618D01*
X0292611Y0131658D01*
X0292667Y0131695D01*
X0292725Y0131728D01*
X0292784Y0131758D01*
X0292845Y0131784D01*
X0292908Y0131807D01*
X0292972Y0131825D01*
X0293037Y0131840D01*
X0293103Y0131851D01*
X0293169Y0131858D01*
X0293235Y0131861D01*
X0293302Y0131860D01*
X0293368Y0131855D01*
X0293434Y0131846D01*
X0293500Y0131833D01*
X0293564Y0131816D01*
X0293627Y0131796D01*
X0293689Y0131771D01*
X0293750Y0131743D01*
X0293809Y0131712D01*
X0293865Y0131677D01*
X0293920Y0131639D01*
X0293972Y0131597D01*
X0294021Y0131552D01*
X0294068Y0131505D01*
X0294112Y0131455D01*
X0294152Y0131402D01*
X0294190Y0131347D01*
X0294224Y0131290D01*
X0294255Y0131231D01*
X0294282Y0131170D01*
X0294305Y0131108D01*
X0294325Y0131044D01*
X0294341Y0130979D01*
X0294353Y0130914D01*
X0294361Y0130848D01*
X0294365Y0130781D01*
X0294365Y0130715D01*
X0294361Y0130648D01*
X0294353Y0130582D01*
X0294341Y0130517D01*
X0294325Y0130452D01*
X0294305Y0130388D01*
X0294282Y0130326D01*
X0294255Y0130265D01*
X0294224Y0130206D01*
X0294190Y0130149D01*
X0294152Y0130094D01*
X0294112Y0130041D01*
X0294068Y0129991D01*
X0294021Y0129944D01*
X0293972Y0129899D01*
X0293920Y0129857D01*
X0293865Y0129819D01*
X0293808Y0129784D01*
X0293750Y0129753D01*
X0293689Y0129725D01*
X0293627Y0129700D01*
X0293564Y0129680D01*
X0293500Y0129663D01*
X0293434Y0129650D01*
X0293368Y0129641D01*
X0293302Y0129636D01*
X0293235Y0129635D01*
X0293169Y0129638D01*
X0293103Y0129645D01*
X0293037Y0129656D01*
X0292972Y0129671D01*
X0292908Y0129689D01*
X0292845Y0129712D01*
X0292784Y0129738D01*
X0292725Y0129768D01*
X0292667Y0129801D01*
X0292611Y0129838D01*
X0292558Y0129878D01*
X0292507Y0129921D01*
X0292459Y0129967D01*
X0292414Y0130016D01*
X0292372Y0130067D01*
X0292332Y0130121D01*
X0292297Y0130177D01*
X0292264Y0130235D01*
X0292235Y0130295D01*
X0292210Y0130357D01*
X0292188Y0130420D01*
X0292171Y0130484D01*
X0292157Y0130549D01*
X0292147Y0130615D01*
X0292141Y0130681D01*
X0292139Y0130748D01*
X0248750Y0123750D02*
X0248750Y0112500D01*
X0236250Y0112500D01*
X0248750Y0112500D02*
X0248750Y0061250D01*
X0236250Y0061250D01*
X0236250Y0123750D01*
X0248750Y0123750D01*
D13*
X0187205Y0095234D02*
X0184135Y0095234D01*
X0186437Y0097536D01*
X0186437Y0092932D01*
X0182601Y0093700D02*
X0181833Y0092932D01*
X0180299Y0092932D01*
X0179531Y0093700D01*
X0179531Y0096769D01*
X0180299Y0097536D01*
X0181833Y0097536D01*
X0182601Y0096769D01*
X0177997Y0097536D02*
X0176462Y0097536D01*
X0177230Y0097536D02*
X0177230Y0092932D01*
X0177997Y0092932D02*
X0176462Y0092932D01*
X0237450Y0056453D02*
X0237450Y0054051D01*
X0238051Y0053450D01*
X0239252Y0053450D01*
X0239852Y0054051D01*
X0241133Y0053450D02*
X0241133Y0057053D01*
X0243535Y0053450D01*
X0243535Y0057053D01*
X0244816Y0055852D02*
X0246017Y0057053D01*
X0246017Y0053450D01*
X0244816Y0053450D02*
X0247218Y0053450D01*
X0239852Y0056453D02*
X0239252Y0057053D01*
X0238051Y0057053D01*
X0237450Y0056453D01*
X0113106Y0142720D02*
X0110037Y0142720D01*
X0111572Y0142720D02*
X0111572Y0147324D01*
X0110037Y0145789D01*
X0108502Y0146556D02*
X0107735Y0147324D01*
X0106200Y0147324D01*
X0105433Y0146556D01*
X0105433Y0143487D01*
X0106200Y0142720D01*
X0107735Y0142720D01*
X0108502Y0143487D01*
X0103898Y0142720D02*
X0102364Y0142720D01*
X0103131Y0142720D02*
X0103131Y0147324D01*
X0102364Y0147324D02*
X0103898Y0147324D01*
X0103963Y0249783D02*
X0104730Y0250550D01*
X0104730Y0251317D01*
X0103963Y0252085D01*
X0101661Y0252085D01*
X0101661Y0250550D01*
X0102428Y0249783D01*
X0103963Y0249783D01*
X0101661Y0252085D02*
X0103195Y0253619D01*
X0104730Y0254387D01*
X0100126Y0253619D02*
X0099359Y0254387D01*
X0097824Y0254387D01*
X0097057Y0253619D01*
X0097057Y0250550D01*
X0097824Y0249783D01*
X0099359Y0249783D01*
X0100126Y0250550D01*
X0095522Y0249783D02*
X0093987Y0249783D01*
X0094755Y0249783D02*
X0094755Y0254387D01*
X0095522Y0254387D02*
X0093987Y0254387D01*
X0060561Y0290661D02*
X0059026Y0290661D01*
X0058259Y0291428D01*
X0056724Y0291428D02*
X0055957Y0290661D01*
X0054422Y0290661D01*
X0053655Y0291428D01*
X0053655Y0294497D01*
X0054422Y0295265D01*
X0055957Y0295265D01*
X0056724Y0294497D01*
X0058259Y0294497D02*
X0059026Y0295265D01*
X0060561Y0295265D01*
X0061328Y0294497D01*
X0061328Y0293730D01*
X0060561Y0292963D01*
X0061328Y0292195D01*
X0061328Y0291428D01*
X0060561Y0290661D01*
X0060561Y0292963D02*
X0059794Y0292963D01*
X0052120Y0295265D02*
X0050586Y0295265D01*
X0051353Y0295265D02*
X0051353Y0290661D01*
X0050586Y0290661D02*
X0052120Y0290661D01*
X0279135Y0214721D02*
X0280670Y0214721D01*
X0279903Y0214721D02*
X0279903Y0210117D01*
X0280670Y0210117D02*
X0279135Y0210117D01*
X0282205Y0210885D02*
X0282972Y0210117D01*
X0284507Y0210117D01*
X0285274Y0210885D01*
X0286809Y0210885D02*
X0286809Y0210117D01*
X0286809Y0210885D02*
X0289878Y0213954D01*
X0289878Y0214721D01*
X0286809Y0214721D01*
X0285274Y0213954D02*
X0284507Y0214721D01*
X0282972Y0214721D01*
X0282205Y0213954D01*
X0282205Y0210885D01*
D14*
X0291677Y0133898D02*
X0326323Y0133898D01*
X0327898Y0132323D01*
X0327898Y0097677D01*
X0326323Y0096102D01*
X0291677Y0096102D01*
X0290102Y0097677D01*
X0290102Y0132323D01*
X0291677Y0133898D01*
D15*
X0287740Y0129764D03*
X0287740Y0127795D03*
X0287740Y0125827D03*
X0287740Y0123858D03*
X0287740Y0121890D03*
X0287740Y0119921D03*
X0287740Y0117953D03*
X0287740Y0115984D03*
X0287740Y0114016D03*
X0287740Y0112047D03*
X0287740Y0110079D03*
X0287740Y0108110D03*
X0287740Y0106142D03*
X0287740Y0104173D03*
X0287740Y0102205D03*
X0287740Y0100236D03*
X0330260Y0100236D03*
X0330260Y0102205D03*
X0330260Y0104173D03*
X0330260Y0106142D03*
X0330260Y0108110D03*
X0330260Y0110079D03*
X0330260Y0112047D03*
X0330260Y0114016D03*
X0330260Y0115984D03*
X0330260Y0117953D03*
X0330260Y0119921D03*
X0330260Y0121890D03*
X0330260Y0123858D03*
X0330260Y0125827D03*
X0330260Y0127795D03*
X0330260Y0129764D03*
D16*
X0323764Y0136260D03*
X0321795Y0136260D03*
X0319827Y0136260D03*
X0317858Y0136260D03*
X0315890Y0136260D03*
X0313921Y0136260D03*
X0311953Y0136260D03*
X0309984Y0136260D03*
X0308016Y0136260D03*
X0306047Y0136260D03*
X0304079Y0136260D03*
X0302110Y0136260D03*
X0300142Y0136260D03*
X0298173Y0136260D03*
X0296205Y0136260D03*
X0294236Y0136260D03*
X0294236Y0093740D03*
X0296205Y0093740D03*
X0298173Y0093740D03*
X0300142Y0093740D03*
X0302110Y0093740D03*
X0304079Y0093740D03*
X0306047Y0093740D03*
X0308016Y0093740D03*
X0309984Y0093740D03*
X0311953Y0093740D03*
X0313921Y0093740D03*
X0315890Y0093740D03*
X0317858Y0093740D03*
X0319827Y0093740D03*
X0321795Y0093740D03*
X0323764Y0093740D03*
D17*
X0359807Y0106157D02*
X0359807Y0125843D01*
X0373193Y0125843D02*
X0373193Y0106157D01*
X0300406Y0196094D02*
X0296469Y0196094D01*
X0292335Y0196094D01*
X0288594Y0196094D01*
X0288594Y0207906D01*
X0300406Y0207906D01*
X0300406Y0196094D01*
X0296469Y0196094D02*
X0296467Y0196184D01*
X0296461Y0196274D01*
X0296451Y0196364D01*
X0296438Y0196453D01*
X0296420Y0196541D01*
X0296399Y0196629D01*
X0296373Y0196716D01*
X0296344Y0196801D01*
X0296312Y0196885D01*
X0296275Y0196968D01*
X0296235Y0197048D01*
X0296192Y0197128D01*
X0296145Y0197205D01*
X0296095Y0197280D01*
X0296042Y0197352D01*
X0295985Y0197423D01*
X0295926Y0197490D01*
X0295864Y0197556D01*
X0295798Y0197618D01*
X0295731Y0197677D01*
X0295660Y0197734D01*
X0295588Y0197787D01*
X0295513Y0197837D01*
X0295436Y0197884D01*
X0295356Y0197927D01*
X0295276Y0197967D01*
X0295193Y0198004D01*
X0295109Y0198036D01*
X0295024Y0198065D01*
X0294937Y0198091D01*
X0294849Y0198112D01*
X0294761Y0198130D01*
X0294672Y0198143D01*
X0294582Y0198153D01*
X0294492Y0198159D01*
X0294402Y0198161D01*
X0294312Y0198159D01*
X0294222Y0198153D01*
X0294132Y0198143D01*
X0294043Y0198130D01*
X0293955Y0198112D01*
X0293867Y0198091D01*
X0293780Y0198065D01*
X0293695Y0198036D01*
X0293611Y0198004D01*
X0293528Y0197967D01*
X0293448Y0197927D01*
X0293369Y0197884D01*
X0293291Y0197837D01*
X0293216Y0197787D01*
X0293144Y0197734D01*
X0293073Y0197677D01*
X0293006Y0197618D01*
X0292940Y0197556D01*
X0292878Y0197490D01*
X0292819Y0197423D01*
X0292762Y0197352D01*
X0292709Y0197280D01*
X0292659Y0197205D01*
X0292612Y0197128D01*
X0292569Y0197048D01*
X0292529Y0196968D01*
X0292492Y0196885D01*
X0292460Y0196801D01*
X0292431Y0196716D01*
X0292405Y0196629D01*
X0292384Y0196541D01*
X0292366Y0196453D01*
X0292353Y0196364D01*
X0292343Y0196274D01*
X0292337Y0196184D01*
X0292335Y0196094D01*
X0208874Y0123390D02*
X0207890Y0124374D01*
X0194110Y0124374D01*
X0193126Y0123390D01*
X0193126Y0109610D01*
X0194110Y0108626D01*
X0207890Y0108626D01*
X0208874Y0109610D01*
X0208874Y0123390D01*
X0180709Y0112650D02*
X0180709Y0111075D01*
X0180709Y0107925D01*
X0180709Y0106350D01*
X0169291Y0106350D01*
X0169291Y0112650D01*
X0180709Y0112650D01*
X0180709Y0111075D02*
X0180630Y0111073D01*
X0180552Y0111067D01*
X0180474Y0111057D01*
X0180397Y0111044D01*
X0180320Y0111026D01*
X0180245Y0111005D01*
X0180170Y0110980D01*
X0180097Y0110951D01*
X0180026Y0110919D01*
X0179956Y0110883D01*
X0179888Y0110844D01*
X0179822Y0110801D01*
X0179758Y0110755D01*
X0179697Y0110707D01*
X0179638Y0110655D01*
X0179582Y0110600D01*
X0179528Y0110542D01*
X0179478Y0110482D01*
X0179430Y0110419D01*
X0179386Y0110355D01*
X0179345Y0110288D01*
X0179307Y0110219D01*
X0179273Y0110148D01*
X0179243Y0110075D01*
X0179216Y0110002D01*
X0179193Y0109927D01*
X0179173Y0109850D01*
X0179158Y0109773D01*
X0179146Y0109696D01*
X0179138Y0109618D01*
X0179134Y0109539D01*
X0179134Y0109461D01*
X0179138Y0109382D01*
X0179146Y0109304D01*
X0179158Y0109227D01*
X0179173Y0109150D01*
X0179193Y0109073D01*
X0179216Y0108998D01*
X0179243Y0108925D01*
X0179273Y0108852D01*
X0179307Y0108781D01*
X0179345Y0108712D01*
X0179386Y0108645D01*
X0179430Y0108581D01*
X0179478Y0108518D01*
X0179528Y0108458D01*
X0179582Y0108400D01*
X0179638Y0108345D01*
X0179697Y0108293D01*
X0179758Y0108245D01*
X0179822Y0108199D01*
X0179888Y0108156D01*
X0179956Y0108117D01*
X0180026Y0108081D01*
X0180097Y0108049D01*
X0180170Y0108020D01*
X0180245Y0107995D01*
X0180320Y0107974D01*
X0180397Y0107956D01*
X0180474Y0107943D01*
X0180552Y0107933D01*
X0180630Y0107927D01*
X0180709Y0107925D01*
X0136209Y0128350D02*
X0136209Y0134650D01*
X0124791Y0134650D01*
X0124791Y0132681D01*
X0124791Y0130122D01*
X0124791Y0128350D01*
X0124791Y0130122D02*
X0124862Y0130124D01*
X0124932Y0130130D01*
X0125002Y0130139D01*
X0125071Y0130153D01*
X0125139Y0130170D01*
X0125207Y0130191D01*
X0125273Y0130216D01*
X0125337Y0130244D01*
X0125400Y0130276D01*
X0125461Y0130312D01*
X0125520Y0130350D01*
X0125577Y0130392D01*
X0125632Y0130437D01*
X0125684Y0130485D01*
X0125733Y0130535D01*
X0125779Y0130588D01*
X0125822Y0130644D01*
X0125863Y0130702D01*
X0125900Y0130762D01*
X0125933Y0130824D01*
X0125963Y0130888D01*
X0125990Y0130953D01*
X0126013Y0131020D01*
X0126032Y0131088D01*
X0126047Y0131157D01*
X0126059Y0131226D01*
X0126067Y0131296D01*
X0126071Y0131367D01*
X0126071Y0131437D01*
X0126067Y0131508D01*
X0126059Y0131578D01*
X0126047Y0131647D01*
X0126032Y0131716D01*
X0126013Y0131784D01*
X0125990Y0131851D01*
X0125963Y0131916D01*
X0125933Y0131980D01*
X0125900Y0132042D01*
X0125863Y0132102D01*
X0125822Y0132160D01*
X0125779Y0132216D01*
X0125733Y0132269D01*
X0125684Y0132319D01*
X0125632Y0132367D01*
X0125577Y0132412D01*
X0125520Y0132454D01*
X0125461Y0132492D01*
X0125400Y0132528D01*
X0125337Y0132560D01*
X0125273Y0132588D01*
X0125207Y0132613D01*
X0125139Y0132634D01*
X0125071Y0132651D01*
X0125002Y0132665D01*
X0124932Y0132674D01*
X0124862Y0132680D01*
X0124791Y0132682D01*
X0131390Y0141126D02*
X0117610Y0141126D01*
X0116626Y0142110D01*
X0116626Y0155890D01*
X0117610Y0156874D01*
X0131390Y0156874D01*
X0132374Y0155890D01*
X0132374Y0142110D01*
X0131390Y0141126D01*
X0083906Y0245594D02*
X0072094Y0245594D01*
X0072094Y0257406D01*
X0076031Y0257406D01*
X0080165Y0257406D01*
X0083906Y0257406D01*
X0083906Y0245594D01*
X0080165Y0257406D02*
X0080163Y0257316D01*
X0080157Y0257226D01*
X0080147Y0257136D01*
X0080134Y0257047D01*
X0080116Y0256959D01*
X0080095Y0256871D01*
X0080069Y0256784D01*
X0080040Y0256699D01*
X0080008Y0256615D01*
X0079971Y0256532D01*
X0079931Y0256452D01*
X0079888Y0256373D01*
X0079841Y0256295D01*
X0079791Y0256220D01*
X0079738Y0256148D01*
X0079681Y0256077D01*
X0079622Y0256010D01*
X0079560Y0255944D01*
X0079494Y0255882D01*
X0079427Y0255823D01*
X0079356Y0255766D01*
X0079284Y0255713D01*
X0079209Y0255663D01*
X0079132Y0255616D01*
X0079052Y0255573D01*
X0078972Y0255533D01*
X0078889Y0255496D01*
X0078805Y0255464D01*
X0078720Y0255435D01*
X0078633Y0255409D01*
X0078545Y0255388D01*
X0078457Y0255370D01*
X0078368Y0255357D01*
X0078278Y0255347D01*
X0078188Y0255341D01*
X0078098Y0255339D01*
X0078008Y0255341D01*
X0077918Y0255347D01*
X0077828Y0255357D01*
X0077739Y0255370D01*
X0077651Y0255388D01*
X0077563Y0255409D01*
X0077476Y0255435D01*
X0077391Y0255464D01*
X0077307Y0255496D01*
X0077224Y0255533D01*
X0077144Y0255573D01*
X0077065Y0255616D01*
X0076987Y0255663D01*
X0076912Y0255713D01*
X0076840Y0255766D01*
X0076769Y0255823D01*
X0076702Y0255882D01*
X0076636Y0255944D01*
X0076574Y0256010D01*
X0076515Y0256077D01*
X0076458Y0256148D01*
X0076405Y0256220D01*
X0076355Y0256295D01*
X0076308Y0256373D01*
X0076265Y0256452D01*
X0076225Y0256532D01*
X0076188Y0256615D01*
X0076156Y0256699D01*
X0076127Y0256784D01*
X0076101Y0256871D01*
X0076080Y0256959D01*
X0076062Y0257047D01*
X0076049Y0257136D01*
X0076039Y0257226D01*
X0076033Y0257316D01*
X0076031Y0257406D01*
X0079177Y0268854D02*
X0063823Y0268854D01*
X0063823Y0288146D01*
X0068941Y0288146D01*
X0074650Y0288146D01*
X0079177Y0288146D01*
X0079177Y0268854D01*
X0074649Y0288146D02*
X0074647Y0288041D01*
X0074641Y0287935D01*
X0074631Y0287830D01*
X0074618Y0287726D01*
X0074600Y0287622D01*
X0074579Y0287518D01*
X0074554Y0287416D01*
X0074525Y0287314D01*
X0074493Y0287214D01*
X0074456Y0287115D01*
X0074416Y0287017D01*
X0074373Y0286921D01*
X0074326Y0286827D01*
X0074275Y0286734D01*
X0074222Y0286644D01*
X0074164Y0286555D01*
X0074104Y0286468D01*
X0074040Y0286384D01*
X0073974Y0286303D01*
X0073904Y0286223D01*
X0073832Y0286147D01*
X0073756Y0286073D01*
X0073678Y0286002D01*
X0073598Y0285934D01*
X0073515Y0285868D01*
X0073430Y0285806D01*
X0073342Y0285748D01*
X0073252Y0285692D01*
X0073161Y0285640D01*
X0073067Y0285591D01*
X0072972Y0285546D01*
X0072875Y0285504D01*
X0072777Y0285466D01*
X0072677Y0285432D01*
X0072576Y0285401D01*
X0072474Y0285374D01*
X0072371Y0285351D01*
X0072267Y0285331D01*
X0072163Y0285316D01*
X0072058Y0285304D01*
X0071953Y0285296D01*
X0071848Y0285292D01*
X0071742Y0285292D01*
X0071637Y0285296D01*
X0071532Y0285304D01*
X0071427Y0285316D01*
X0071323Y0285331D01*
X0071219Y0285351D01*
X0071116Y0285374D01*
X0071014Y0285401D01*
X0070913Y0285432D01*
X0070813Y0285466D01*
X0070715Y0285504D01*
X0070618Y0285546D01*
X0070523Y0285591D01*
X0070429Y0285640D01*
X0070338Y0285692D01*
X0070248Y0285748D01*
X0070160Y0285806D01*
X0070075Y0285868D01*
X0069992Y0285934D01*
X0069912Y0286002D01*
X0069834Y0286073D01*
X0069758Y0286147D01*
X0069686Y0286223D01*
X0069616Y0286303D01*
X0069550Y0286384D01*
X0069486Y0286468D01*
X0069426Y0286555D01*
X0069368Y0286644D01*
X0069315Y0286734D01*
X0069264Y0286827D01*
X0069217Y0286921D01*
X0069174Y0287017D01*
X0069134Y0287115D01*
X0069097Y0287214D01*
X0069065Y0287314D01*
X0069036Y0287416D01*
X0069011Y0287518D01*
X0068990Y0287622D01*
X0068972Y0287726D01*
X0068959Y0287830D01*
X0068949Y0287935D01*
X0068943Y0288041D01*
X0068941Y0288146D01*
M02*
