G75*
%MOIN*%
%OFA0B0*%
%FSLAX25Y25*%
%IPPOS*%
%LPD*%
%AMOC8*
5,1,8,0,0,1.08239X$1,22.5*
%
%ADD10C,0.00000*%
%ADD11C,0.00300*%
%ADD12C,0.01200*%
%ADD13C,0.01000*%
%ADD14C,0.00400*%
%ADD15C,0.00500*%
%ADD16C,0.00700*%
D10*
X0000000Y0000000D02*
X0000000Y0325000D01*
X0415000Y0325000D01*
X0415000Y0000000D01*
X0000000Y0000000D01*
X0252008Y0215937D02*
X0252010Y0216101D01*
X0252016Y0216265D01*
X0252026Y0216429D01*
X0252040Y0216593D01*
X0252058Y0216756D01*
X0252080Y0216919D01*
X0252107Y0217081D01*
X0252137Y0217243D01*
X0252171Y0217403D01*
X0252209Y0217563D01*
X0252250Y0217722D01*
X0252296Y0217880D01*
X0252346Y0218036D01*
X0252399Y0218192D01*
X0252456Y0218346D01*
X0252517Y0218498D01*
X0252582Y0218649D01*
X0252651Y0218799D01*
X0252723Y0218946D01*
X0252798Y0219092D01*
X0252878Y0219236D01*
X0252960Y0219378D01*
X0253046Y0219518D01*
X0253136Y0219655D01*
X0253229Y0219791D01*
X0253325Y0219924D01*
X0253425Y0220055D01*
X0253527Y0220183D01*
X0253633Y0220309D01*
X0253742Y0220432D01*
X0253854Y0220552D01*
X0253968Y0220670D01*
X0254086Y0220784D01*
X0254206Y0220896D01*
X0254329Y0221005D01*
X0254455Y0221111D01*
X0254583Y0221213D01*
X0254714Y0221313D01*
X0254847Y0221409D01*
X0254983Y0221502D01*
X0255120Y0221592D01*
X0255260Y0221678D01*
X0255402Y0221760D01*
X0255546Y0221840D01*
X0255692Y0221915D01*
X0255839Y0221987D01*
X0255989Y0222056D01*
X0256140Y0222121D01*
X0256292Y0222182D01*
X0256446Y0222239D01*
X0256602Y0222292D01*
X0256758Y0222342D01*
X0256916Y0222388D01*
X0257075Y0222429D01*
X0257235Y0222467D01*
X0257395Y0222501D01*
X0257557Y0222531D01*
X0257719Y0222558D01*
X0257882Y0222580D01*
X0258045Y0222598D01*
X0258209Y0222612D01*
X0258373Y0222622D01*
X0258537Y0222628D01*
X0258701Y0222630D01*
X0258865Y0222628D01*
X0259029Y0222622D01*
X0259193Y0222612D01*
X0259357Y0222598D01*
X0259520Y0222580D01*
X0259683Y0222558D01*
X0259845Y0222531D01*
X0260007Y0222501D01*
X0260167Y0222467D01*
X0260327Y0222429D01*
X0260486Y0222388D01*
X0260644Y0222342D01*
X0260800Y0222292D01*
X0260956Y0222239D01*
X0261110Y0222182D01*
X0261262Y0222121D01*
X0261413Y0222056D01*
X0261563Y0221987D01*
X0261710Y0221915D01*
X0261856Y0221840D01*
X0262000Y0221760D01*
X0262142Y0221678D01*
X0262282Y0221592D01*
X0262419Y0221502D01*
X0262555Y0221409D01*
X0262688Y0221313D01*
X0262819Y0221213D01*
X0262947Y0221111D01*
X0263073Y0221005D01*
X0263196Y0220896D01*
X0263316Y0220784D01*
X0263434Y0220670D01*
X0263548Y0220552D01*
X0263660Y0220432D01*
X0263769Y0220309D01*
X0263875Y0220183D01*
X0263977Y0220055D01*
X0264077Y0219924D01*
X0264173Y0219791D01*
X0264266Y0219655D01*
X0264356Y0219518D01*
X0264442Y0219378D01*
X0264524Y0219236D01*
X0264604Y0219092D01*
X0264679Y0218946D01*
X0264751Y0218799D01*
X0264820Y0218649D01*
X0264885Y0218498D01*
X0264946Y0218346D01*
X0265003Y0218192D01*
X0265056Y0218036D01*
X0265106Y0217880D01*
X0265152Y0217722D01*
X0265193Y0217563D01*
X0265231Y0217403D01*
X0265265Y0217243D01*
X0265295Y0217081D01*
X0265322Y0216919D01*
X0265344Y0216756D01*
X0265362Y0216593D01*
X0265376Y0216429D01*
X0265386Y0216265D01*
X0265392Y0216101D01*
X0265394Y0215937D01*
X0265392Y0215773D01*
X0265386Y0215609D01*
X0265376Y0215445D01*
X0265362Y0215281D01*
X0265344Y0215118D01*
X0265322Y0214955D01*
X0265295Y0214793D01*
X0265265Y0214631D01*
X0265231Y0214471D01*
X0265193Y0214311D01*
X0265152Y0214152D01*
X0265106Y0213994D01*
X0265056Y0213838D01*
X0265003Y0213682D01*
X0264946Y0213528D01*
X0264885Y0213376D01*
X0264820Y0213225D01*
X0264751Y0213075D01*
X0264679Y0212928D01*
X0264604Y0212782D01*
X0264524Y0212638D01*
X0264442Y0212496D01*
X0264356Y0212356D01*
X0264266Y0212219D01*
X0264173Y0212083D01*
X0264077Y0211950D01*
X0263977Y0211819D01*
X0263875Y0211691D01*
X0263769Y0211565D01*
X0263660Y0211442D01*
X0263548Y0211322D01*
X0263434Y0211204D01*
X0263316Y0211090D01*
X0263196Y0210978D01*
X0263073Y0210869D01*
X0262947Y0210763D01*
X0262819Y0210661D01*
X0262688Y0210561D01*
X0262555Y0210465D01*
X0262419Y0210372D01*
X0262282Y0210282D01*
X0262142Y0210196D01*
X0262000Y0210114D01*
X0261856Y0210034D01*
X0261710Y0209959D01*
X0261563Y0209887D01*
X0261413Y0209818D01*
X0261262Y0209753D01*
X0261110Y0209692D01*
X0260956Y0209635D01*
X0260800Y0209582D01*
X0260644Y0209532D01*
X0260486Y0209486D01*
X0260327Y0209445D01*
X0260167Y0209407D01*
X0260007Y0209373D01*
X0259845Y0209343D01*
X0259683Y0209316D01*
X0259520Y0209294D01*
X0259357Y0209276D01*
X0259193Y0209262D01*
X0259029Y0209252D01*
X0258865Y0209246D01*
X0258701Y0209244D01*
X0258537Y0209246D01*
X0258373Y0209252D01*
X0258209Y0209262D01*
X0258045Y0209276D01*
X0257882Y0209294D01*
X0257719Y0209316D01*
X0257557Y0209343D01*
X0257395Y0209373D01*
X0257235Y0209407D01*
X0257075Y0209445D01*
X0256916Y0209486D01*
X0256758Y0209532D01*
X0256602Y0209582D01*
X0256446Y0209635D01*
X0256292Y0209692D01*
X0256140Y0209753D01*
X0255989Y0209818D01*
X0255839Y0209887D01*
X0255692Y0209959D01*
X0255546Y0210034D01*
X0255402Y0210114D01*
X0255260Y0210196D01*
X0255120Y0210282D01*
X0254983Y0210372D01*
X0254847Y0210465D01*
X0254714Y0210561D01*
X0254583Y0210661D01*
X0254455Y0210763D01*
X0254329Y0210869D01*
X0254206Y0210978D01*
X0254086Y0211090D01*
X0253968Y0211204D01*
X0253854Y0211322D01*
X0253742Y0211442D01*
X0253633Y0211565D01*
X0253527Y0211691D01*
X0253425Y0211819D01*
X0253325Y0211950D01*
X0253229Y0212083D01*
X0253136Y0212219D01*
X0253046Y0212356D01*
X0252960Y0212496D01*
X0252878Y0212638D01*
X0252798Y0212782D01*
X0252723Y0212928D01*
X0252651Y0213075D01*
X0252582Y0213225D01*
X0252517Y0213376D01*
X0252456Y0213528D01*
X0252399Y0213682D01*
X0252346Y0213838D01*
X0252296Y0213994D01*
X0252250Y0214152D01*
X0252209Y0214311D01*
X0252171Y0214471D01*
X0252137Y0214631D01*
X0252107Y0214793D01*
X0252080Y0214955D01*
X0252058Y0215118D01*
X0252040Y0215281D01*
X0252026Y0215445D01*
X0252016Y0215609D01*
X0252010Y0215773D01*
X0252008Y0215937D01*
X0339527Y0215937D02*
X0339529Y0216101D01*
X0339535Y0216265D01*
X0339545Y0216429D01*
X0339559Y0216593D01*
X0339577Y0216756D01*
X0339599Y0216919D01*
X0339626Y0217081D01*
X0339656Y0217243D01*
X0339690Y0217403D01*
X0339728Y0217563D01*
X0339769Y0217722D01*
X0339815Y0217880D01*
X0339865Y0218036D01*
X0339918Y0218192D01*
X0339975Y0218346D01*
X0340036Y0218498D01*
X0340101Y0218649D01*
X0340170Y0218799D01*
X0340242Y0218946D01*
X0340317Y0219092D01*
X0340397Y0219236D01*
X0340479Y0219378D01*
X0340565Y0219518D01*
X0340655Y0219655D01*
X0340748Y0219791D01*
X0340844Y0219924D01*
X0340944Y0220055D01*
X0341046Y0220183D01*
X0341152Y0220309D01*
X0341261Y0220432D01*
X0341373Y0220552D01*
X0341487Y0220670D01*
X0341605Y0220784D01*
X0341725Y0220896D01*
X0341848Y0221005D01*
X0341974Y0221111D01*
X0342102Y0221213D01*
X0342233Y0221313D01*
X0342366Y0221409D01*
X0342502Y0221502D01*
X0342639Y0221592D01*
X0342779Y0221678D01*
X0342921Y0221760D01*
X0343065Y0221840D01*
X0343211Y0221915D01*
X0343358Y0221987D01*
X0343508Y0222056D01*
X0343659Y0222121D01*
X0343811Y0222182D01*
X0343965Y0222239D01*
X0344121Y0222292D01*
X0344277Y0222342D01*
X0344435Y0222388D01*
X0344594Y0222429D01*
X0344754Y0222467D01*
X0344914Y0222501D01*
X0345076Y0222531D01*
X0345238Y0222558D01*
X0345401Y0222580D01*
X0345564Y0222598D01*
X0345728Y0222612D01*
X0345892Y0222622D01*
X0346056Y0222628D01*
X0346220Y0222630D01*
X0346384Y0222628D01*
X0346548Y0222622D01*
X0346712Y0222612D01*
X0346876Y0222598D01*
X0347039Y0222580D01*
X0347202Y0222558D01*
X0347364Y0222531D01*
X0347526Y0222501D01*
X0347686Y0222467D01*
X0347846Y0222429D01*
X0348005Y0222388D01*
X0348163Y0222342D01*
X0348319Y0222292D01*
X0348475Y0222239D01*
X0348629Y0222182D01*
X0348781Y0222121D01*
X0348932Y0222056D01*
X0349082Y0221987D01*
X0349229Y0221915D01*
X0349375Y0221840D01*
X0349519Y0221760D01*
X0349661Y0221678D01*
X0349801Y0221592D01*
X0349938Y0221502D01*
X0350074Y0221409D01*
X0350207Y0221313D01*
X0350338Y0221213D01*
X0350466Y0221111D01*
X0350592Y0221005D01*
X0350715Y0220896D01*
X0350835Y0220784D01*
X0350953Y0220670D01*
X0351067Y0220552D01*
X0351179Y0220432D01*
X0351288Y0220309D01*
X0351394Y0220183D01*
X0351496Y0220055D01*
X0351596Y0219924D01*
X0351692Y0219791D01*
X0351785Y0219655D01*
X0351875Y0219518D01*
X0351961Y0219378D01*
X0352043Y0219236D01*
X0352123Y0219092D01*
X0352198Y0218946D01*
X0352270Y0218799D01*
X0352339Y0218649D01*
X0352404Y0218498D01*
X0352465Y0218346D01*
X0352522Y0218192D01*
X0352575Y0218036D01*
X0352625Y0217880D01*
X0352671Y0217722D01*
X0352712Y0217563D01*
X0352750Y0217403D01*
X0352784Y0217243D01*
X0352814Y0217081D01*
X0352841Y0216919D01*
X0352863Y0216756D01*
X0352881Y0216593D01*
X0352895Y0216429D01*
X0352905Y0216265D01*
X0352911Y0216101D01*
X0352913Y0215937D01*
X0352911Y0215773D01*
X0352905Y0215609D01*
X0352895Y0215445D01*
X0352881Y0215281D01*
X0352863Y0215118D01*
X0352841Y0214955D01*
X0352814Y0214793D01*
X0352784Y0214631D01*
X0352750Y0214471D01*
X0352712Y0214311D01*
X0352671Y0214152D01*
X0352625Y0213994D01*
X0352575Y0213838D01*
X0352522Y0213682D01*
X0352465Y0213528D01*
X0352404Y0213376D01*
X0352339Y0213225D01*
X0352270Y0213075D01*
X0352198Y0212928D01*
X0352123Y0212782D01*
X0352043Y0212638D01*
X0351961Y0212496D01*
X0351875Y0212356D01*
X0351785Y0212219D01*
X0351692Y0212083D01*
X0351596Y0211950D01*
X0351496Y0211819D01*
X0351394Y0211691D01*
X0351288Y0211565D01*
X0351179Y0211442D01*
X0351067Y0211322D01*
X0350953Y0211204D01*
X0350835Y0211090D01*
X0350715Y0210978D01*
X0350592Y0210869D01*
X0350466Y0210763D01*
X0350338Y0210661D01*
X0350207Y0210561D01*
X0350074Y0210465D01*
X0349938Y0210372D01*
X0349801Y0210282D01*
X0349661Y0210196D01*
X0349519Y0210114D01*
X0349375Y0210034D01*
X0349229Y0209959D01*
X0349082Y0209887D01*
X0348932Y0209818D01*
X0348781Y0209753D01*
X0348629Y0209692D01*
X0348475Y0209635D01*
X0348319Y0209582D01*
X0348163Y0209532D01*
X0348005Y0209486D01*
X0347846Y0209445D01*
X0347686Y0209407D01*
X0347526Y0209373D01*
X0347364Y0209343D01*
X0347202Y0209316D01*
X0347039Y0209294D01*
X0346876Y0209276D01*
X0346712Y0209262D01*
X0346548Y0209252D01*
X0346384Y0209246D01*
X0346220Y0209244D01*
X0346056Y0209246D01*
X0345892Y0209252D01*
X0345728Y0209262D01*
X0345564Y0209276D01*
X0345401Y0209294D01*
X0345238Y0209316D01*
X0345076Y0209343D01*
X0344914Y0209373D01*
X0344754Y0209407D01*
X0344594Y0209445D01*
X0344435Y0209486D01*
X0344277Y0209532D01*
X0344121Y0209582D01*
X0343965Y0209635D01*
X0343811Y0209692D01*
X0343659Y0209753D01*
X0343508Y0209818D01*
X0343358Y0209887D01*
X0343211Y0209959D01*
X0343065Y0210034D01*
X0342921Y0210114D01*
X0342779Y0210196D01*
X0342639Y0210282D01*
X0342502Y0210372D01*
X0342366Y0210465D01*
X0342233Y0210561D01*
X0342102Y0210661D01*
X0341974Y0210763D01*
X0341848Y0210869D01*
X0341725Y0210978D01*
X0341605Y0211090D01*
X0341487Y0211204D01*
X0341373Y0211322D01*
X0341261Y0211442D01*
X0341152Y0211565D01*
X0341046Y0211691D01*
X0340944Y0211819D01*
X0340844Y0211950D01*
X0340748Y0212083D01*
X0340655Y0212219D01*
X0340565Y0212356D01*
X0340479Y0212496D01*
X0340397Y0212638D01*
X0340317Y0212782D01*
X0340242Y0212928D01*
X0340170Y0213075D01*
X0340101Y0213225D01*
X0340036Y0213376D01*
X0339975Y0213528D01*
X0339918Y0213682D01*
X0339865Y0213838D01*
X0339815Y0213994D01*
X0339769Y0214152D01*
X0339728Y0214311D01*
X0339690Y0214471D01*
X0339656Y0214631D01*
X0339626Y0214793D01*
X0339599Y0214955D01*
X0339577Y0215118D01*
X0339559Y0215281D01*
X0339545Y0215445D01*
X0339535Y0215609D01*
X0339529Y0215773D01*
X0339527Y0215937D01*
X0339527Y0309756D02*
X0339529Y0309920D01*
X0339535Y0310084D01*
X0339545Y0310248D01*
X0339559Y0310412D01*
X0339577Y0310575D01*
X0339599Y0310738D01*
X0339626Y0310900D01*
X0339656Y0311062D01*
X0339690Y0311222D01*
X0339728Y0311382D01*
X0339769Y0311541D01*
X0339815Y0311699D01*
X0339865Y0311855D01*
X0339918Y0312011D01*
X0339975Y0312165D01*
X0340036Y0312317D01*
X0340101Y0312468D01*
X0340170Y0312618D01*
X0340242Y0312765D01*
X0340317Y0312911D01*
X0340397Y0313055D01*
X0340479Y0313197D01*
X0340565Y0313337D01*
X0340655Y0313474D01*
X0340748Y0313610D01*
X0340844Y0313743D01*
X0340944Y0313874D01*
X0341046Y0314002D01*
X0341152Y0314128D01*
X0341261Y0314251D01*
X0341373Y0314371D01*
X0341487Y0314489D01*
X0341605Y0314603D01*
X0341725Y0314715D01*
X0341848Y0314824D01*
X0341974Y0314930D01*
X0342102Y0315032D01*
X0342233Y0315132D01*
X0342366Y0315228D01*
X0342502Y0315321D01*
X0342639Y0315411D01*
X0342779Y0315497D01*
X0342921Y0315579D01*
X0343065Y0315659D01*
X0343211Y0315734D01*
X0343358Y0315806D01*
X0343508Y0315875D01*
X0343659Y0315940D01*
X0343811Y0316001D01*
X0343965Y0316058D01*
X0344121Y0316111D01*
X0344277Y0316161D01*
X0344435Y0316207D01*
X0344594Y0316248D01*
X0344754Y0316286D01*
X0344914Y0316320D01*
X0345076Y0316350D01*
X0345238Y0316377D01*
X0345401Y0316399D01*
X0345564Y0316417D01*
X0345728Y0316431D01*
X0345892Y0316441D01*
X0346056Y0316447D01*
X0346220Y0316449D01*
X0346384Y0316447D01*
X0346548Y0316441D01*
X0346712Y0316431D01*
X0346876Y0316417D01*
X0347039Y0316399D01*
X0347202Y0316377D01*
X0347364Y0316350D01*
X0347526Y0316320D01*
X0347686Y0316286D01*
X0347846Y0316248D01*
X0348005Y0316207D01*
X0348163Y0316161D01*
X0348319Y0316111D01*
X0348475Y0316058D01*
X0348629Y0316001D01*
X0348781Y0315940D01*
X0348932Y0315875D01*
X0349082Y0315806D01*
X0349229Y0315734D01*
X0349375Y0315659D01*
X0349519Y0315579D01*
X0349661Y0315497D01*
X0349801Y0315411D01*
X0349938Y0315321D01*
X0350074Y0315228D01*
X0350207Y0315132D01*
X0350338Y0315032D01*
X0350466Y0314930D01*
X0350592Y0314824D01*
X0350715Y0314715D01*
X0350835Y0314603D01*
X0350953Y0314489D01*
X0351067Y0314371D01*
X0351179Y0314251D01*
X0351288Y0314128D01*
X0351394Y0314002D01*
X0351496Y0313874D01*
X0351596Y0313743D01*
X0351692Y0313610D01*
X0351785Y0313474D01*
X0351875Y0313337D01*
X0351961Y0313197D01*
X0352043Y0313055D01*
X0352123Y0312911D01*
X0352198Y0312765D01*
X0352270Y0312618D01*
X0352339Y0312468D01*
X0352404Y0312317D01*
X0352465Y0312165D01*
X0352522Y0312011D01*
X0352575Y0311855D01*
X0352625Y0311699D01*
X0352671Y0311541D01*
X0352712Y0311382D01*
X0352750Y0311222D01*
X0352784Y0311062D01*
X0352814Y0310900D01*
X0352841Y0310738D01*
X0352863Y0310575D01*
X0352881Y0310412D01*
X0352895Y0310248D01*
X0352905Y0310084D01*
X0352911Y0309920D01*
X0352913Y0309756D01*
X0352911Y0309592D01*
X0352905Y0309428D01*
X0352895Y0309264D01*
X0352881Y0309100D01*
X0352863Y0308937D01*
X0352841Y0308774D01*
X0352814Y0308612D01*
X0352784Y0308450D01*
X0352750Y0308290D01*
X0352712Y0308130D01*
X0352671Y0307971D01*
X0352625Y0307813D01*
X0352575Y0307657D01*
X0352522Y0307501D01*
X0352465Y0307347D01*
X0352404Y0307195D01*
X0352339Y0307044D01*
X0352270Y0306894D01*
X0352198Y0306747D01*
X0352123Y0306601D01*
X0352043Y0306457D01*
X0351961Y0306315D01*
X0351875Y0306175D01*
X0351785Y0306038D01*
X0351692Y0305902D01*
X0351596Y0305769D01*
X0351496Y0305638D01*
X0351394Y0305510D01*
X0351288Y0305384D01*
X0351179Y0305261D01*
X0351067Y0305141D01*
X0350953Y0305023D01*
X0350835Y0304909D01*
X0350715Y0304797D01*
X0350592Y0304688D01*
X0350466Y0304582D01*
X0350338Y0304480D01*
X0350207Y0304380D01*
X0350074Y0304284D01*
X0349938Y0304191D01*
X0349801Y0304101D01*
X0349661Y0304015D01*
X0349519Y0303933D01*
X0349375Y0303853D01*
X0349229Y0303778D01*
X0349082Y0303706D01*
X0348932Y0303637D01*
X0348781Y0303572D01*
X0348629Y0303511D01*
X0348475Y0303454D01*
X0348319Y0303401D01*
X0348163Y0303351D01*
X0348005Y0303305D01*
X0347846Y0303264D01*
X0347686Y0303226D01*
X0347526Y0303192D01*
X0347364Y0303162D01*
X0347202Y0303135D01*
X0347039Y0303113D01*
X0346876Y0303095D01*
X0346712Y0303081D01*
X0346548Y0303071D01*
X0346384Y0303065D01*
X0346220Y0303063D01*
X0346056Y0303065D01*
X0345892Y0303071D01*
X0345728Y0303081D01*
X0345564Y0303095D01*
X0345401Y0303113D01*
X0345238Y0303135D01*
X0345076Y0303162D01*
X0344914Y0303192D01*
X0344754Y0303226D01*
X0344594Y0303264D01*
X0344435Y0303305D01*
X0344277Y0303351D01*
X0344121Y0303401D01*
X0343965Y0303454D01*
X0343811Y0303511D01*
X0343659Y0303572D01*
X0343508Y0303637D01*
X0343358Y0303706D01*
X0343211Y0303778D01*
X0343065Y0303853D01*
X0342921Y0303933D01*
X0342779Y0304015D01*
X0342639Y0304101D01*
X0342502Y0304191D01*
X0342366Y0304284D01*
X0342233Y0304380D01*
X0342102Y0304480D01*
X0341974Y0304582D01*
X0341848Y0304688D01*
X0341725Y0304797D01*
X0341605Y0304909D01*
X0341487Y0305023D01*
X0341373Y0305141D01*
X0341261Y0305261D01*
X0341152Y0305384D01*
X0341046Y0305510D01*
X0340944Y0305638D01*
X0340844Y0305769D01*
X0340748Y0305902D01*
X0340655Y0306038D01*
X0340565Y0306175D01*
X0340479Y0306315D01*
X0340397Y0306457D01*
X0340317Y0306601D01*
X0340242Y0306747D01*
X0340170Y0306894D01*
X0340101Y0307044D01*
X0340036Y0307195D01*
X0339975Y0307347D01*
X0339918Y0307501D01*
X0339865Y0307657D01*
X0339815Y0307813D01*
X0339769Y0307971D01*
X0339728Y0308130D01*
X0339690Y0308290D01*
X0339656Y0308450D01*
X0339626Y0308612D01*
X0339599Y0308774D01*
X0339577Y0308937D01*
X0339559Y0309100D01*
X0339545Y0309264D01*
X0339535Y0309428D01*
X0339529Y0309592D01*
X0339527Y0309756D01*
X0252008Y0309756D02*
X0252010Y0309920D01*
X0252016Y0310084D01*
X0252026Y0310248D01*
X0252040Y0310412D01*
X0252058Y0310575D01*
X0252080Y0310738D01*
X0252107Y0310900D01*
X0252137Y0311062D01*
X0252171Y0311222D01*
X0252209Y0311382D01*
X0252250Y0311541D01*
X0252296Y0311699D01*
X0252346Y0311855D01*
X0252399Y0312011D01*
X0252456Y0312165D01*
X0252517Y0312317D01*
X0252582Y0312468D01*
X0252651Y0312618D01*
X0252723Y0312765D01*
X0252798Y0312911D01*
X0252878Y0313055D01*
X0252960Y0313197D01*
X0253046Y0313337D01*
X0253136Y0313474D01*
X0253229Y0313610D01*
X0253325Y0313743D01*
X0253425Y0313874D01*
X0253527Y0314002D01*
X0253633Y0314128D01*
X0253742Y0314251D01*
X0253854Y0314371D01*
X0253968Y0314489D01*
X0254086Y0314603D01*
X0254206Y0314715D01*
X0254329Y0314824D01*
X0254455Y0314930D01*
X0254583Y0315032D01*
X0254714Y0315132D01*
X0254847Y0315228D01*
X0254983Y0315321D01*
X0255120Y0315411D01*
X0255260Y0315497D01*
X0255402Y0315579D01*
X0255546Y0315659D01*
X0255692Y0315734D01*
X0255839Y0315806D01*
X0255989Y0315875D01*
X0256140Y0315940D01*
X0256292Y0316001D01*
X0256446Y0316058D01*
X0256602Y0316111D01*
X0256758Y0316161D01*
X0256916Y0316207D01*
X0257075Y0316248D01*
X0257235Y0316286D01*
X0257395Y0316320D01*
X0257557Y0316350D01*
X0257719Y0316377D01*
X0257882Y0316399D01*
X0258045Y0316417D01*
X0258209Y0316431D01*
X0258373Y0316441D01*
X0258537Y0316447D01*
X0258701Y0316449D01*
X0258865Y0316447D01*
X0259029Y0316441D01*
X0259193Y0316431D01*
X0259357Y0316417D01*
X0259520Y0316399D01*
X0259683Y0316377D01*
X0259845Y0316350D01*
X0260007Y0316320D01*
X0260167Y0316286D01*
X0260327Y0316248D01*
X0260486Y0316207D01*
X0260644Y0316161D01*
X0260800Y0316111D01*
X0260956Y0316058D01*
X0261110Y0316001D01*
X0261262Y0315940D01*
X0261413Y0315875D01*
X0261563Y0315806D01*
X0261710Y0315734D01*
X0261856Y0315659D01*
X0262000Y0315579D01*
X0262142Y0315497D01*
X0262282Y0315411D01*
X0262419Y0315321D01*
X0262555Y0315228D01*
X0262688Y0315132D01*
X0262819Y0315032D01*
X0262947Y0314930D01*
X0263073Y0314824D01*
X0263196Y0314715D01*
X0263316Y0314603D01*
X0263434Y0314489D01*
X0263548Y0314371D01*
X0263660Y0314251D01*
X0263769Y0314128D01*
X0263875Y0314002D01*
X0263977Y0313874D01*
X0264077Y0313743D01*
X0264173Y0313610D01*
X0264266Y0313474D01*
X0264356Y0313337D01*
X0264442Y0313197D01*
X0264524Y0313055D01*
X0264604Y0312911D01*
X0264679Y0312765D01*
X0264751Y0312618D01*
X0264820Y0312468D01*
X0264885Y0312317D01*
X0264946Y0312165D01*
X0265003Y0312011D01*
X0265056Y0311855D01*
X0265106Y0311699D01*
X0265152Y0311541D01*
X0265193Y0311382D01*
X0265231Y0311222D01*
X0265265Y0311062D01*
X0265295Y0310900D01*
X0265322Y0310738D01*
X0265344Y0310575D01*
X0265362Y0310412D01*
X0265376Y0310248D01*
X0265386Y0310084D01*
X0265392Y0309920D01*
X0265394Y0309756D01*
X0265392Y0309592D01*
X0265386Y0309428D01*
X0265376Y0309264D01*
X0265362Y0309100D01*
X0265344Y0308937D01*
X0265322Y0308774D01*
X0265295Y0308612D01*
X0265265Y0308450D01*
X0265231Y0308290D01*
X0265193Y0308130D01*
X0265152Y0307971D01*
X0265106Y0307813D01*
X0265056Y0307657D01*
X0265003Y0307501D01*
X0264946Y0307347D01*
X0264885Y0307195D01*
X0264820Y0307044D01*
X0264751Y0306894D01*
X0264679Y0306747D01*
X0264604Y0306601D01*
X0264524Y0306457D01*
X0264442Y0306315D01*
X0264356Y0306175D01*
X0264266Y0306038D01*
X0264173Y0305902D01*
X0264077Y0305769D01*
X0263977Y0305638D01*
X0263875Y0305510D01*
X0263769Y0305384D01*
X0263660Y0305261D01*
X0263548Y0305141D01*
X0263434Y0305023D01*
X0263316Y0304909D01*
X0263196Y0304797D01*
X0263073Y0304688D01*
X0262947Y0304582D01*
X0262819Y0304480D01*
X0262688Y0304380D01*
X0262555Y0304284D01*
X0262419Y0304191D01*
X0262282Y0304101D01*
X0262142Y0304015D01*
X0262000Y0303933D01*
X0261856Y0303853D01*
X0261710Y0303778D01*
X0261563Y0303706D01*
X0261413Y0303637D01*
X0261262Y0303572D01*
X0261110Y0303511D01*
X0260956Y0303454D01*
X0260800Y0303401D01*
X0260644Y0303351D01*
X0260486Y0303305D01*
X0260327Y0303264D01*
X0260167Y0303226D01*
X0260007Y0303192D01*
X0259845Y0303162D01*
X0259683Y0303135D01*
X0259520Y0303113D01*
X0259357Y0303095D01*
X0259193Y0303081D01*
X0259029Y0303071D01*
X0258865Y0303065D01*
X0258701Y0303063D01*
X0258537Y0303065D01*
X0258373Y0303071D01*
X0258209Y0303081D01*
X0258045Y0303095D01*
X0257882Y0303113D01*
X0257719Y0303135D01*
X0257557Y0303162D01*
X0257395Y0303192D01*
X0257235Y0303226D01*
X0257075Y0303264D01*
X0256916Y0303305D01*
X0256758Y0303351D01*
X0256602Y0303401D01*
X0256446Y0303454D01*
X0256292Y0303511D01*
X0256140Y0303572D01*
X0255989Y0303637D01*
X0255839Y0303706D01*
X0255692Y0303778D01*
X0255546Y0303853D01*
X0255402Y0303933D01*
X0255260Y0304015D01*
X0255120Y0304101D01*
X0254983Y0304191D01*
X0254847Y0304284D01*
X0254714Y0304380D01*
X0254583Y0304480D01*
X0254455Y0304582D01*
X0254329Y0304688D01*
X0254206Y0304797D01*
X0254086Y0304909D01*
X0253968Y0305023D01*
X0253854Y0305141D01*
X0253742Y0305261D01*
X0253633Y0305384D01*
X0253527Y0305510D01*
X0253425Y0305638D01*
X0253325Y0305769D01*
X0253229Y0305902D01*
X0253136Y0306038D01*
X0253046Y0306175D01*
X0252960Y0306315D01*
X0252878Y0306457D01*
X0252798Y0306601D01*
X0252723Y0306747D01*
X0252651Y0306894D01*
X0252582Y0307044D01*
X0252517Y0307195D01*
X0252456Y0307347D01*
X0252399Y0307501D01*
X0252346Y0307657D01*
X0252296Y0307813D01*
X0252250Y0307971D01*
X0252209Y0308130D01*
X0252171Y0308290D01*
X0252137Y0308450D01*
X0252107Y0308612D01*
X0252080Y0308774D01*
X0252058Y0308937D01*
X0252040Y0309100D01*
X0252026Y0309264D01*
X0252016Y0309428D01*
X0252010Y0309592D01*
X0252008Y0309756D01*
X0028795Y0289000D02*
X0028797Y0289108D01*
X0028803Y0289217D01*
X0028813Y0289325D01*
X0028827Y0289432D01*
X0028845Y0289539D01*
X0028866Y0289646D01*
X0028892Y0289751D01*
X0028922Y0289856D01*
X0028955Y0289959D01*
X0028992Y0290061D01*
X0029033Y0290161D01*
X0029077Y0290260D01*
X0029126Y0290358D01*
X0029177Y0290453D01*
X0029232Y0290546D01*
X0029291Y0290638D01*
X0029353Y0290727D01*
X0029418Y0290814D01*
X0029486Y0290898D01*
X0029557Y0290980D01*
X0029631Y0291059D01*
X0029708Y0291135D01*
X0029788Y0291209D01*
X0029871Y0291279D01*
X0029956Y0291347D01*
X0030043Y0291411D01*
X0030133Y0291472D01*
X0030225Y0291530D01*
X0030319Y0291584D01*
X0030415Y0291635D01*
X0030512Y0291682D01*
X0030612Y0291726D01*
X0030713Y0291766D01*
X0030815Y0291802D01*
X0030918Y0291834D01*
X0031023Y0291863D01*
X0031129Y0291887D01*
X0031235Y0291908D01*
X0031342Y0291925D01*
X0031450Y0291938D01*
X0031558Y0291947D01*
X0031667Y0291952D01*
X0031775Y0291953D01*
X0031884Y0291950D01*
X0031992Y0291943D01*
X0032100Y0291932D01*
X0032207Y0291917D01*
X0032314Y0291898D01*
X0032420Y0291875D01*
X0032525Y0291849D01*
X0032630Y0291818D01*
X0032732Y0291784D01*
X0032834Y0291746D01*
X0032934Y0291704D01*
X0033033Y0291659D01*
X0033130Y0291610D01*
X0033224Y0291557D01*
X0033317Y0291501D01*
X0033408Y0291442D01*
X0033497Y0291379D01*
X0033583Y0291314D01*
X0033667Y0291245D01*
X0033748Y0291173D01*
X0033826Y0291098D01*
X0033902Y0291020D01*
X0033975Y0290939D01*
X0034045Y0290856D01*
X0034111Y0290771D01*
X0034175Y0290683D01*
X0034235Y0290592D01*
X0034292Y0290500D01*
X0034345Y0290405D01*
X0034395Y0290309D01*
X0034441Y0290211D01*
X0034484Y0290111D01*
X0034523Y0290010D01*
X0034558Y0289907D01*
X0034590Y0289804D01*
X0034617Y0289699D01*
X0034641Y0289593D01*
X0034661Y0289486D01*
X0034677Y0289379D01*
X0034689Y0289271D01*
X0034697Y0289163D01*
X0034701Y0289054D01*
X0034701Y0288946D01*
X0034697Y0288837D01*
X0034689Y0288729D01*
X0034677Y0288621D01*
X0034661Y0288514D01*
X0034641Y0288407D01*
X0034617Y0288301D01*
X0034590Y0288196D01*
X0034558Y0288093D01*
X0034523Y0287990D01*
X0034484Y0287889D01*
X0034441Y0287789D01*
X0034395Y0287691D01*
X0034345Y0287595D01*
X0034292Y0287500D01*
X0034235Y0287408D01*
X0034175Y0287317D01*
X0034111Y0287229D01*
X0034045Y0287144D01*
X0033975Y0287061D01*
X0033902Y0286980D01*
X0033826Y0286902D01*
X0033748Y0286827D01*
X0033667Y0286755D01*
X0033583Y0286686D01*
X0033497Y0286621D01*
X0033408Y0286558D01*
X0033317Y0286499D01*
X0033225Y0286443D01*
X0033130Y0286390D01*
X0033033Y0286341D01*
X0032934Y0286296D01*
X0032834Y0286254D01*
X0032732Y0286216D01*
X0032630Y0286182D01*
X0032525Y0286151D01*
X0032420Y0286125D01*
X0032314Y0286102D01*
X0032207Y0286083D01*
X0032100Y0286068D01*
X0031992Y0286057D01*
X0031884Y0286050D01*
X0031775Y0286047D01*
X0031667Y0286048D01*
X0031558Y0286053D01*
X0031450Y0286062D01*
X0031342Y0286075D01*
X0031235Y0286092D01*
X0031129Y0286113D01*
X0031023Y0286137D01*
X0030918Y0286166D01*
X0030815Y0286198D01*
X0030713Y0286234D01*
X0030612Y0286274D01*
X0030512Y0286318D01*
X0030415Y0286365D01*
X0030319Y0286416D01*
X0030225Y0286470D01*
X0030133Y0286528D01*
X0030043Y0286589D01*
X0029956Y0286653D01*
X0029871Y0286721D01*
X0029788Y0286791D01*
X0029708Y0286865D01*
X0029631Y0286941D01*
X0029557Y0287020D01*
X0029486Y0287102D01*
X0029418Y0287186D01*
X0029353Y0287273D01*
X0029291Y0287362D01*
X0029232Y0287454D01*
X0029177Y0287547D01*
X0029126Y0287642D01*
X0029077Y0287740D01*
X0029033Y0287839D01*
X0028992Y0287939D01*
X0028955Y0288041D01*
X0028922Y0288144D01*
X0028892Y0288249D01*
X0028866Y0288354D01*
X0028845Y0288461D01*
X0028827Y0288568D01*
X0028813Y0288675D01*
X0028803Y0288783D01*
X0028797Y0288892D01*
X0028795Y0289000D01*
X0009110Y0269315D02*
X0009112Y0269423D01*
X0009118Y0269532D01*
X0009128Y0269640D01*
X0009142Y0269747D01*
X0009160Y0269854D01*
X0009181Y0269961D01*
X0009207Y0270066D01*
X0009237Y0270171D01*
X0009270Y0270274D01*
X0009307Y0270376D01*
X0009348Y0270476D01*
X0009392Y0270575D01*
X0009441Y0270673D01*
X0009492Y0270768D01*
X0009547Y0270861D01*
X0009606Y0270953D01*
X0009668Y0271042D01*
X0009733Y0271129D01*
X0009801Y0271213D01*
X0009872Y0271295D01*
X0009946Y0271374D01*
X0010023Y0271450D01*
X0010103Y0271524D01*
X0010186Y0271594D01*
X0010271Y0271662D01*
X0010358Y0271726D01*
X0010448Y0271787D01*
X0010540Y0271845D01*
X0010634Y0271899D01*
X0010730Y0271950D01*
X0010827Y0271997D01*
X0010927Y0272041D01*
X0011028Y0272081D01*
X0011130Y0272117D01*
X0011233Y0272149D01*
X0011338Y0272178D01*
X0011444Y0272202D01*
X0011550Y0272223D01*
X0011657Y0272240D01*
X0011765Y0272253D01*
X0011873Y0272262D01*
X0011982Y0272267D01*
X0012090Y0272268D01*
X0012199Y0272265D01*
X0012307Y0272258D01*
X0012415Y0272247D01*
X0012522Y0272232D01*
X0012629Y0272213D01*
X0012735Y0272190D01*
X0012840Y0272164D01*
X0012945Y0272133D01*
X0013047Y0272099D01*
X0013149Y0272061D01*
X0013249Y0272019D01*
X0013348Y0271974D01*
X0013445Y0271925D01*
X0013539Y0271872D01*
X0013632Y0271816D01*
X0013723Y0271757D01*
X0013812Y0271694D01*
X0013898Y0271629D01*
X0013982Y0271560D01*
X0014063Y0271488D01*
X0014141Y0271413D01*
X0014217Y0271335D01*
X0014290Y0271254D01*
X0014360Y0271171D01*
X0014426Y0271086D01*
X0014490Y0270998D01*
X0014550Y0270907D01*
X0014607Y0270815D01*
X0014660Y0270720D01*
X0014710Y0270624D01*
X0014756Y0270526D01*
X0014799Y0270426D01*
X0014838Y0270325D01*
X0014873Y0270222D01*
X0014905Y0270119D01*
X0014932Y0270014D01*
X0014956Y0269908D01*
X0014976Y0269801D01*
X0014992Y0269694D01*
X0015004Y0269586D01*
X0015012Y0269478D01*
X0015016Y0269369D01*
X0015016Y0269261D01*
X0015012Y0269152D01*
X0015004Y0269044D01*
X0014992Y0268936D01*
X0014976Y0268829D01*
X0014956Y0268722D01*
X0014932Y0268616D01*
X0014905Y0268511D01*
X0014873Y0268408D01*
X0014838Y0268305D01*
X0014799Y0268204D01*
X0014756Y0268104D01*
X0014710Y0268006D01*
X0014660Y0267910D01*
X0014607Y0267815D01*
X0014550Y0267723D01*
X0014490Y0267632D01*
X0014426Y0267544D01*
X0014360Y0267459D01*
X0014290Y0267376D01*
X0014217Y0267295D01*
X0014141Y0267217D01*
X0014063Y0267142D01*
X0013982Y0267070D01*
X0013898Y0267001D01*
X0013812Y0266936D01*
X0013723Y0266873D01*
X0013632Y0266814D01*
X0013540Y0266758D01*
X0013445Y0266705D01*
X0013348Y0266656D01*
X0013249Y0266611D01*
X0013149Y0266569D01*
X0013047Y0266531D01*
X0012945Y0266497D01*
X0012840Y0266466D01*
X0012735Y0266440D01*
X0012629Y0266417D01*
X0012522Y0266398D01*
X0012415Y0266383D01*
X0012307Y0266372D01*
X0012199Y0266365D01*
X0012090Y0266362D01*
X0011982Y0266363D01*
X0011873Y0266368D01*
X0011765Y0266377D01*
X0011657Y0266390D01*
X0011550Y0266407D01*
X0011444Y0266428D01*
X0011338Y0266452D01*
X0011233Y0266481D01*
X0011130Y0266513D01*
X0011028Y0266549D01*
X0010927Y0266589D01*
X0010827Y0266633D01*
X0010730Y0266680D01*
X0010634Y0266731D01*
X0010540Y0266785D01*
X0010448Y0266843D01*
X0010358Y0266904D01*
X0010271Y0266968D01*
X0010186Y0267036D01*
X0010103Y0267106D01*
X0010023Y0267180D01*
X0009946Y0267256D01*
X0009872Y0267335D01*
X0009801Y0267417D01*
X0009733Y0267501D01*
X0009668Y0267588D01*
X0009606Y0267677D01*
X0009547Y0267769D01*
X0009492Y0267862D01*
X0009441Y0267957D01*
X0009392Y0268055D01*
X0009348Y0268154D01*
X0009307Y0268254D01*
X0009270Y0268356D01*
X0009237Y0268459D01*
X0009207Y0268564D01*
X0009181Y0268669D01*
X0009160Y0268776D01*
X0009142Y0268883D01*
X0009128Y0268990D01*
X0009118Y0269098D01*
X0009112Y0269207D01*
X0009110Y0269315D01*
X0009110Y0308685D02*
X0009112Y0308793D01*
X0009118Y0308902D01*
X0009128Y0309010D01*
X0009142Y0309117D01*
X0009160Y0309224D01*
X0009181Y0309331D01*
X0009207Y0309436D01*
X0009237Y0309541D01*
X0009270Y0309644D01*
X0009307Y0309746D01*
X0009348Y0309846D01*
X0009392Y0309945D01*
X0009441Y0310043D01*
X0009492Y0310138D01*
X0009547Y0310231D01*
X0009606Y0310323D01*
X0009668Y0310412D01*
X0009733Y0310499D01*
X0009801Y0310583D01*
X0009872Y0310665D01*
X0009946Y0310744D01*
X0010023Y0310820D01*
X0010103Y0310894D01*
X0010186Y0310964D01*
X0010271Y0311032D01*
X0010358Y0311096D01*
X0010448Y0311157D01*
X0010540Y0311215D01*
X0010634Y0311269D01*
X0010730Y0311320D01*
X0010827Y0311367D01*
X0010927Y0311411D01*
X0011028Y0311451D01*
X0011130Y0311487D01*
X0011233Y0311519D01*
X0011338Y0311548D01*
X0011444Y0311572D01*
X0011550Y0311593D01*
X0011657Y0311610D01*
X0011765Y0311623D01*
X0011873Y0311632D01*
X0011982Y0311637D01*
X0012090Y0311638D01*
X0012199Y0311635D01*
X0012307Y0311628D01*
X0012415Y0311617D01*
X0012522Y0311602D01*
X0012629Y0311583D01*
X0012735Y0311560D01*
X0012840Y0311534D01*
X0012945Y0311503D01*
X0013047Y0311469D01*
X0013149Y0311431D01*
X0013249Y0311389D01*
X0013348Y0311344D01*
X0013445Y0311295D01*
X0013539Y0311242D01*
X0013632Y0311186D01*
X0013723Y0311127D01*
X0013812Y0311064D01*
X0013898Y0310999D01*
X0013982Y0310930D01*
X0014063Y0310858D01*
X0014141Y0310783D01*
X0014217Y0310705D01*
X0014290Y0310624D01*
X0014360Y0310541D01*
X0014426Y0310456D01*
X0014490Y0310368D01*
X0014550Y0310277D01*
X0014607Y0310185D01*
X0014660Y0310090D01*
X0014710Y0309994D01*
X0014756Y0309896D01*
X0014799Y0309796D01*
X0014838Y0309695D01*
X0014873Y0309592D01*
X0014905Y0309489D01*
X0014932Y0309384D01*
X0014956Y0309278D01*
X0014976Y0309171D01*
X0014992Y0309064D01*
X0015004Y0308956D01*
X0015012Y0308848D01*
X0015016Y0308739D01*
X0015016Y0308631D01*
X0015012Y0308522D01*
X0015004Y0308414D01*
X0014992Y0308306D01*
X0014976Y0308199D01*
X0014956Y0308092D01*
X0014932Y0307986D01*
X0014905Y0307881D01*
X0014873Y0307778D01*
X0014838Y0307675D01*
X0014799Y0307574D01*
X0014756Y0307474D01*
X0014710Y0307376D01*
X0014660Y0307280D01*
X0014607Y0307185D01*
X0014550Y0307093D01*
X0014490Y0307002D01*
X0014426Y0306914D01*
X0014360Y0306829D01*
X0014290Y0306746D01*
X0014217Y0306665D01*
X0014141Y0306587D01*
X0014063Y0306512D01*
X0013982Y0306440D01*
X0013898Y0306371D01*
X0013812Y0306306D01*
X0013723Y0306243D01*
X0013632Y0306184D01*
X0013540Y0306128D01*
X0013445Y0306075D01*
X0013348Y0306026D01*
X0013249Y0305981D01*
X0013149Y0305939D01*
X0013047Y0305901D01*
X0012945Y0305867D01*
X0012840Y0305836D01*
X0012735Y0305810D01*
X0012629Y0305787D01*
X0012522Y0305768D01*
X0012415Y0305753D01*
X0012307Y0305742D01*
X0012199Y0305735D01*
X0012090Y0305732D01*
X0011982Y0305733D01*
X0011873Y0305738D01*
X0011765Y0305747D01*
X0011657Y0305760D01*
X0011550Y0305777D01*
X0011444Y0305798D01*
X0011338Y0305822D01*
X0011233Y0305851D01*
X0011130Y0305883D01*
X0011028Y0305919D01*
X0010927Y0305959D01*
X0010827Y0306003D01*
X0010730Y0306050D01*
X0010634Y0306101D01*
X0010540Y0306155D01*
X0010448Y0306213D01*
X0010358Y0306274D01*
X0010271Y0306338D01*
X0010186Y0306406D01*
X0010103Y0306476D01*
X0010023Y0306550D01*
X0009946Y0306626D01*
X0009872Y0306705D01*
X0009801Y0306787D01*
X0009733Y0306871D01*
X0009668Y0306958D01*
X0009606Y0307047D01*
X0009547Y0307139D01*
X0009492Y0307232D01*
X0009441Y0307327D01*
X0009392Y0307425D01*
X0009348Y0307524D01*
X0009307Y0307624D01*
X0009270Y0307726D01*
X0009237Y0307829D01*
X0009207Y0307934D01*
X0009181Y0308039D01*
X0009160Y0308146D01*
X0009142Y0308253D01*
X0009128Y0308360D01*
X0009118Y0308468D01*
X0009112Y0308577D01*
X0009110Y0308685D01*
D11*
X0049332Y0319650D02*
X0049332Y0322119D01*
X0050566Y0323353D01*
X0051801Y0322119D01*
X0051801Y0319650D01*
X0051801Y0321502D02*
X0049332Y0321502D01*
X0053015Y0323353D02*
X0055484Y0323353D01*
X0054249Y0323353D02*
X0054249Y0319650D01*
X0056698Y0319650D02*
X0056698Y0322119D01*
X0057932Y0323353D01*
X0059167Y0322119D01*
X0059167Y0319650D01*
X0060381Y0320267D02*
X0060381Y0322736D01*
X0060998Y0323353D01*
X0062850Y0323353D01*
X0062850Y0319650D01*
X0060998Y0319650D01*
X0060381Y0320267D01*
X0059167Y0321502D02*
X0056698Y0321502D01*
X0068015Y0323353D02*
X0070484Y0320884D01*
X0069867Y0321502D02*
X0068015Y0319650D01*
X0070484Y0319650D02*
X0070484Y0323353D01*
X0071698Y0322736D02*
X0072315Y0323353D01*
X0073550Y0323353D01*
X0074167Y0322736D01*
X0074167Y0320267D01*
X0073550Y0319650D01*
X0072315Y0319650D01*
X0071698Y0320267D01*
X0075381Y0320267D02*
X0075998Y0319650D01*
X0077850Y0319650D01*
X0077850Y0323353D01*
X0075998Y0323353D01*
X0075381Y0322736D01*
X0075381Y0322119D01*
X0075998Y0321502D01*
X0077850Y0321502D01*
X0075998Y0321502D02*
X0075381Y0320884D01*
X0075381Y0320267D01*
X0084698Y0319650D02*
X0085932Y0320884D01*
X0085315Y0320884D02*
X0087167Y0320884D01*
X0087167Y0319650D02*
X0087167Y0323353D01*
X0085315Y0323353D01*
X0084698Y0322736D01*
X0084698Y0321502D01*
X0085315Y0320884D01*
X0088381Y0319650D02*
X0090850Y0319650D01*
X0090850Y0323353D01*
X0098015Y0322736D02*
X0098632Y0323353D01*
X0099867Y0323353D01*
X0100484Y0322736D01*
X0100484Y0322119D01*
X0099867Y0321502D01*
X0098632Y0321502D01*
X0098015Y0320884D01*
X0098015Y0320267D01*
X0098632Y0319650D01*
X0099867Y0319650D01*
X0100484Y0320267D01*
X0102932Y0319650D02*
X0102932Y0321502D01*
X0101698Y0322736D01*
X0101698Y0323353D01*
X0102932Y0321502D02*
X0104167Y0322736D01*
X0104167Y0323353D01*
X0105381Y0322736D02*
X0105998Y0323353D01*
X0107233Y0323353D01*
X0107850Y0322736D01*
X0107850Y0322119D01*
X0107233Y0321502D01*
X0105998Y0321502D01*
X0105381Y0320884D01*
X0105381Y0320267D01*
X0105998Y0319650D01*
X0107233Y0319650D01*
X0107850Y0320267D01*
X0108500Y0306853D02*
X0108500Y0303150D01*
X0109117Y0303150D02*
X0107883Y0303150D01*
X0106662Y0303767D02*
X0106045Y0303150D01*
X0104193Y0303150D01*
X0104193Y0302533D02*
X0104810Y0301916D01*
X0105428Y0301916D01*
X0104193Y0302533D02*
X0104193Y0305619D01*
X0106662Y0305619D02*
X0106662Y0303767D01*
X0108500Y0306853D02*
X0109117Y0306853D01*
X0110949Y0305619D02*
X0110332Y0305002D01*
X0110332Y0303767D01*
X0110949Y0303150D01*
X0112801Y0303150D01*
X0112801Y0301916D02*
X0112801Y0305619D01*
X0110949Y0305619D01*
X0114015Y0305002D02*
X0114015Y0303767D01*
X0114632Y0303150D01*
X0116484Y0303150D01*
X0117698Y0303150D02*
X0117698Y0305619D01*
X0116484Y0305619D02*
X0114632Y0305619D01*
X0114015Y0305002D01*
X0116484Y0305619D02*
X0116484Y0301916D01*
X0117698Y0303150D02*
X0119550Y0303150D01*
X0120167Y0303767D01*
X0120167Y0305619D01*
X0121381Y0306236D02*
X0121998Y0306853D01*
X0123233Y0306853D01*
X0123850Y0306236D01*
X0123850Y0305619D01*
X0123233Y0305002D01*
X0121998Y0305002D01*
X0121381Y0304384D01*
X0121381Y0303767D01*
X0121998Y0303150D01*
X0123233Y0303150D01*
X0123850Y0303767D01*
X0131500Y0257353D02*
X0131500Y0253650D01*
X0132117Y0253650D02*
X0130883Y0253650D01*
X0129662Y0254267D02*
X0129045Y0253650D01*
X0127193Y0253650D01*
X0127193Y0253033D02*
X0127810Y0252416D01*
X0128428Y0252416D01*
X0127193Y0253033D02*
X0127193Y0256119D01*
X0129662Y0256119D02*
X0129662Y0254267D01*
X0131500Y0257353D02*
X0132117Y0257353D01*
X0133949Y0256119D02*
X0133332Y0255502D01*
X0133332Y0254267D01*
X0133949Y0253650D01*
X0135801Y0253650D01*
X0135801Y0252416D02*
X0135801Y0256119D01*
X0133949Y0256119D01*
X0137015Y0255502D02*
X0137015Y0254267D01*
X0137632Y0253650D01*
X0139484Y0253650D01*
X0140698Y0253650D02*
X0140698Y0256119D01*
X0139484Y0256119D02*
X0139484Y0252416D01*
X0140698Y0253650D02*
X0142550Y0253650D01*
X0143167Y0254267D01*
X0143167Y0256119D01*
X0144381Y0256736D02*
X0144998Y0257353D01*
X0146233Y0257353D01*
X0146850Y0256736D01*
X0146850Y0256119D01*
X0146233Y0255502D01*
X0144998Y0255502D01*
X0144381Y0254884D01*
X0144381Y0254267D01*
X0144998Y0253650D01*
X0146233Y0253650D01*
X0146850Y0254267D01*
X0139484Y0256119D02*
X0137632Y0256119D01*
X0137015Y0255502D01*
X0092350Y0255353D02*
X0092350Y0251650D01*
X0090498Y0251650D01*
X0089881Y0252267D01*
X0089881Y0254736D01*
X0090498Y0255353D01*
X0092350Y0255353D01*
X0088667Y0254119D02*
X0087432Y0255353D01*
X0086198Y0254119D01*
X0086198Y0251650D01*
X0084984Y0252267D02*
X0084367Y0251650D01*
X0083132Y0251650D01*
X0082515Y0252267D01*
X0084984Y0252267D02*
X0084984Y0254736D01*
X0084367Y0255353D01*
X0083132Y0255353D01*
X0082515Y0254736D01*
X0086198Y0253502D02*
X0088667Y0253502D01*
X0088667Y0254119D02*
X0088667Y0251650D01*
X0077617Y0251650D02*
X0077617Y0255353D01*
X0073934Y0255353D02*
X0072083Y0255353D01*
X0071466Y0254736D01*
X0071466Y0252267D01*
X0072083Y0251650D01*
X0073934Y0251650D01*
X0073934Y0255353D01*
X0070251Y0254736D02*
X0070251Y0252267D01*
X0069634Y0251650D01*
X0068400Y0251650D01*
X0067782Y0252267D01*
X0067782Y0254736D01*
X0068400Y0255353D01*
X0069634Y0255353D01*
X0070251Y0254736D01*
X0075149Y0251650D02*
X0077617Y0251650D01*
X0062885Y0252267D02*
X0062268Y0251650D01*
X0061033Y0251650D01*
X0060416Y0252267D01*
X0060416Y0254736D01*
X0061033Y0255353D01*
X0062268Y0255353D01*
X0062885Y0254736D01*
X0062885Y0252267D01*
X0059202Y0252267D02*
X0058585Y0251650D01*
X0056733Y0251650D01*
X0056733Y0254119D01*
X0055519Y0254119D02*
X0054284Y0254119D01*
X0054901Y0254736D02*
X0054901Y0252267D01*
X0054284Y0251650D01*
X0059202Y0252267D02*
X0059202Y0254119D01*
X0014350Y0254002D02*
X0013116Y0254619D01*
X0012498Y0254619D01*
X0011881Y0254002D01*
X0011881Y0252767D01*
X0012498Y0252150D01*
X0013733Y0252150D01*
X0014350Y0252767D01*
X0014350Y0254002D02*
X0014350Y0255853D01*
X0011881Y0255853D01*
X0010667Y0255853D02*
X0010667Y0253384D01*
X0009432Y0252150D01*
X0008198Y0253384D01*
X0008198Y0255853D01*
X0032768Y0157736D02*
X0032768Y0155267D01*
X0032150Y0154650D01*
X0034599Y0154650D02*
X0034599Y0157119D01*
X0033385Y0157119D02*
X0032150Y0157119D01*
X0034599Y0154650D02*
X0036451Y0154650D01*
X0037068Y0155267D01*
X0037068Y0157119D01*
X0038282Y0157736D02*
X0038900Y0158353D01*
X0040134Y0158353D01*
X0040751Y0157736D01*
X0040751Y0155267D01*
X0040134Y0154650D01*
X0038900Y0154650D01*
X0038282Y0155267D01*
X0038282Y0157736D01*
X0045649Y0158353D02*
X0045649Y0154650D01*
X0046883Y0155884D01*
X0048117Y0154650D01*
X0048117Y0158353D01*
X0049332Y0157736D02*
X0049949Y0158353D01*
X0051183Y0158353D01*
X0051801Y0157736D01*
X0051801Y0157119D01*
X0051183Y0156502D01*
X0049949Y0156502D01*
X0049332Y0155884D01*
X0049332Y0155267D01*
X0049949Y0154650D01*
X0051183Y0154650D01*
X0051801Y0155267D01*
X0056698Y0155884D02*
X0056698Y0158353D01*
X0056698Y0155884D02*
X0057932Y0154650D01*
X0059167Y0155884D01*
X0059167Y0158353D01*
X0060381Y0158353D02*
X0062850Y0158353D01*
X0062850Y0156502D01*
X0061616Y0157119D01*
X0060998Y0157119D01*
X0060381Y0156502D01*
X0060381Y0155267D01*
X0060998Y0154650D01*
X0062233Y0154650D01*
X0062850Y0155267D01*
X0055850Y0143353D02*
X0053998Y0143353D01*
X0053381Y0142736D01*
X0053381Y0141502D01*
X0053998Y0140884D01*
X0055850Y0140884D01*
X0055850Y0139650D02*
X0055850Y0143353D01*
X0054616Y0140884D02*
X0053381Y0139650D01*
X0052167Y0139650D02*
X0049698Y0142119D01*
X0049698Y0142736D01*
X0050315Y0143353D01*
X0051550Y0143353D01*
X0052167Y0142736D01*
X0052167Y0139650D02*
X0049698Y0139650D01*
X0048484Y0141502D02*
X0046015Y0141502D01*
X0046632Y0143353D02*
X0048484Y0141502D01*
X0046632Y0143353D02*
X0046632Y0139650D01*
X0046682Y0128853D02*
X0046064Y0128236D01*
X0048533Y0125767D01*
X0047916Y0125150D01*
X0046682Y0125150D01*
X0046064Y0125767D01*
X0046064Y0128236D01*
X0046682Y0128853D02*
X0047916Y0128853D01*
X0048533Y0128236D01*
X0048533Y0125767D01*
X0049748Y0125767D02*
X0050365Y0125150D01*
X0051599Y0125150D01*
X0052216Y0125767D01*
X0053431Y0125150D02*
X0054665Y0126384D01*
X0054048Y0126384D02*
X0055899Y0126384D01*
X0055899Y0125150D02*
X0055899Y0128853D01*
X0054048Y0128853D01*
X0053431Y0128236D01*
X0053431Y0127002D01*
X0054048Y0126384D01*
X0052216Y0128236D02*
X0051599Y0128853D01*
X0050365Y0128853D01*
X0049748Y0128236D01*
X0049748Y0127619D01*
X0050365Y0127002D01*
X0049748Y0126384D01*
X0049748Y0125767D01*
X0050365Y0127002D02*
X0050982Y0127002D01*
X0050875Y0113853D02*
X0050258Y0113236D01*
X0050258Y0110767D01*
X0050875Y0110150D01*
X0052109Y0110150D01*
X0052726Y0110767D01*
X0052726Y0113236D01*
X0052109Y0113853D01*
X0050875Y0113853D01*
X0049043Y0112619D02*
X0049043Y0110767D01*
X0048426Y0110150D01*
X0046574Y0110150D01*
X0046574Y0112619D01*
X0045360Y0112619D02*
X0044126Y0112619D01*
X0044743Y0113236D02*
X0044743Y0110767D01*
X0044126Y0110150D01*
X0057624Y0110150D02*
X0057624Y0113853D01*
X0060093Y0113853D02*
X0060093Y0110150D01*
X0058858Y0111384D01*
X0057624Y0110150D01*
X0061307Y0110767D02*
X0061924Y0110150D01*
X0063159Y0110150D01*
X0063776Y0110767D01*
X0063159Y0112002D02*
X0061924Y0112002D01*
X0061307Y0111384D01*
X0061307Y0110767D01*
X0063159Y0112002D02*
X0063776Y0112619D01*
X0063776Y0113236D01*
X0063159Y0113853D01*
X0061924Y0113853D01*
X0061307Y0113236D01*
X0068673Y0113853D02*
X0068673Y0111384D01*
X0069908Y0110150D01*
X0071142Y0111384D01*
X0071142Y0113853D01*
X0072357Y0113236D02*
X0072357Y0112619D01*
X0072974Y0112002D01*
X0072357Y0111384D01*
X0072357Y0110767D01*
X0072974Y0110150D01*
X0074208Y0110150D01*
X0074825Y0110767D01*
X0076050Y0110767D02*
X0076050Y0110150D01*
X0076667Y0110150D01*
X0076667Y0110767D01*
X0076050Y0110767D01*
X0077881Y0110767D02*
X0078498Y0110150D01*
X0079733Y0110150D01*
X0080350Y0110767D01*
X0079116Y0112002D02*
X0078498Y0112002D01*
X0077881Y0111384D01*
X0077881Y0110767D01*
X0078498Y0112002D02*
X0077881Y0112619D01*
X0077881Y0113236D01*
X0078498Y0113853D01*
X0079733Y0113853D01*
X0080350Y0113236D01*
X0074825Y0113236D02*
X0074208Y0113853D01*
X0072974Y0113853D01*
X0072357Y0113236D01*
X0072974Y0112002D02*
X0073591Y0112002D01*
X0084132Y0125150D02*
X0085367Y0125150D01*
X0085984Y0125767D01*
X0084749Y0127002D02*
X0084132Y0127002D01*
X0083515Y0126384D01*
X0083515Y0125767D01*
X0084132Y0125150D01*
X0084132Y0127002D02*
X0083515Y0127619D01*
X0083515Y0128236D01*
X0084132Y0128853D01*
X0085367Y0128853D01*
X0085984Y0128236D01*
X0087198Y0127619D02*
X0088432Y0125150D01*
X0089667Y0127619D01*
X0090881Y0127619D02*
X0091498Y0127002D01*
X0090881Y0126384D01*
X0090881Y0125767D01*
X0091498Y0125150D01*
X0092733Y0125150D01*
X0093350Y0125767D01*
X0092116Y0127002D02*
X0091498Y0127002D01*
X0090881Y0127619D02*
X0090881Y0128236D01*
X0091498Y0128853D01*
X0092733Y0128853D01*
X0093350Y0128236D01*
X0092733Y0139650D02*
X0093350Y0140267D01*
X0092733Y0139650D02*
X0091498Y0139650D01*
X0090881Y0140267D01*
X0090881Y0141502D01*
X0091498Y0142119D01*
X0092116Y0142119D01*
X0093350Y0141502D01*
X0093350Y0143353D01*
X0090881Y0143353D01*
X0089667Y0143353D02*
X0089667Y0140884D01*
X0088432Y0139650D01*
X0087198Y0140884D01*
X0087198Y0143353D01*
X0085984Y0143353D02*
X0085984Y0141502D01*
X0084749Y0142119D01*
X0084132Y0142119D01*
X0083515Y0141502D01*
X0083515Y0140267D01*
X0084132Y0139650D01*
X0085367Y0139650D01*
X0085984Y0140267D01*
X0085984Y0143353D02*
X0083515Y0143353D01*
X0086315Y0155150D02*
X0085698Y0155767D01*
X0085698Y0157002D01*
X0086932Y0157002D01*
X0085698Y0158236D02*
X0086315Y0158853D01*
X0087550Y0158853D01*
X0088167Y0158236D01*
X0088167Y0155767D01*
X0087550Y0155150D01*
X0086315Y0155150D01*
X0089381Y0157002D02*
X0089998Y0156384D01*
X0091850Y0156384D01*
X0091850Y0155150D02*
X0091850Y0158853D01*
X0089998Y0158853D01*
X0089381Y0158236D01*
X0089381Y0157002D01*
X0223144Y0038002D02*
X0223144Y0036150D01*
X0223144Y0038002D02*
X0223761Y0038619D01*
X0225613Y0038619D01*
X0225613Y0036150D01*
X0226827Y0036767D02*
X0226827Y0039236D01*
X0227444Y0039853D01*
X0228679Y0039853D01*
X0229296Y0039236D01*
X0229296Y0036767D01*
X0228679Y0036150D01*
X0227444Y0036150D01*
X0226827Y0036767D01*
X0234193Y0037384D02*
X0236662Y0037384D01*
X0236662Y0038619D02*
X0234193Y0038619D01*
X0241560Y0038002D02*
X0241560Y0037384D01*
X0244028Y0037384D01*
X0244028Y0036767D02*
X0244028Y0038002D01*
X0243411Y0038619D01*
X0242177Y0038619D01*
X0241560Y0038002D01*
X0242177Y0036150D02*
X0243411Y0036150D01*
X0244028Y0036767D01*
X0245243Y0036150D02*
X0245243Y0038002D01*
X0245860Y0038619D01*
X0247711Y0038619D01*
X0247711Y0036150D01*
X0248932Y0036150D02*
X0250167Y0036150D01*
X0249550Y0036150D02*
X0249550Y0038619D01*
X0250167Y0038619D01*
X0249550Y0039853D02*
X0249550Y0040470D01*
X0253850Y0039853D02*
X0253850Y0036150D01*
X0251381Y0036150D01*
X0286188Y0011119D02*
X0288040Y0011119D01*
X0288657Y0010502D01*
X0288657Y0009267D01*
X0288040Y0008650D01*
X0286188Y0008650D01*
X0289878Y0008650D02*
X0291113Y0008650D01*
X0290495Y0008650D02*
X0290495Y0011119D01*
X0291113Y0011119D01*
X0290495Y0012353D02*
X0290495Y0012970D01*
X0292327Y0012353D02*
X0292327Y0008650D01*
X0294796Y0008650D02*
X0294796Y0012353D01*
X0293561Y0011119D01*
X0292327Y0012353D01*
X0299693Y0012353D02*
X0302162Y0008650D01*
X0307060Y0009884D02*
X0309528Y0009884D01*
X0309528Y0009267D02*
X0309528Y0010502D01*
X0308911Y0011119D01*
X0307677Y0011119D01*
X0307060Y0010502D01*
X0307060Y0009884D01*
X0307677Y0008650D02*
X0308911Y0008650D01*
X0309528Y0009267D01*
X0310743Y0008650D02*
X0310743Y0010502D01*
X0311360Y0011119D01*
X0313211Y0011119D01*
X0313211Y0008650D01*
X0314432Y0008650D02*
X0315667Y0008650D01*
X0315050Y0008650D02*
X0315050Y0011119D01*
X0315667Y0011119D01*
X0315050Y0012353D02*
X0315050Y0012970D01*
X0319350Y0012353D02*
X0319350Y0008650D01*
X0316881Y0008650D01*
X0363847Y0035650D02*
X0363847Y0037502D01*
X0364464Y0038119D01*
X0366316Y0038119D01*
X0366316Y0035650D01*
X0367530Y0036267D02*
X0367530Y0038736D01*
X0368147Y0039353D01*
X0369382Y0039353D01*
X0369999Y0038736D01*
X0369999Y0036267D01*
X0369382Y0035650D01*
X0368147Y0035650D01*
X0367530Y0036267D01*
X0374896Y0036884D02*
X0377365Y0036884D01*
X0377365Y0038119D02*
X0374896Y0038119D01*
X0382263Y0038119D02*
X0384731Y0035650D01*
X0382263Y0035650D01*
X0382263Y0038119D02*
X0384731Y0038119D01*
X0385946Y0037502D02*
X0388414Y0037502D01*
X0389632Y0038119D02*
X0391484Y0036884D01*
X0389632Y0035650D01*
X0388414Y0035650D02*
X0388414Y0039353D01*
X0385946Y0039353D02*
X0385946Y0035650D01*
X0391484Y0035650D02*
X0391484Y0039353D01*
X0396381Y0035650D02*
X0398850Y0035650D01*
X0397616Y0035650D02*
X0397616Y0039353D01*
X0398850Y0038119D01*
X0396350Y0012353D02*
X0393881Y0012353D01*
X0392667Y0011119D02*
X0392667Y0008650D01*
X0392667Y0009884D02*
X0391432Y0011119D01*
X0390815Y0011119D01*
X0389598Y0010502D02*
X0388980Y0011119D01*
X0387746Y0011119D01*
X0387129Y0010502D01*
X0387129Y0009884D01*
X0389598Y0009884D01*
X0389598Y0009267D02*
X0389598Y0010502D01*
X0389598Y0009267D02*
X0388980Y0008650D01*
X0387746Y0008650D01*
X0385914Y0009267D02*
X0385297Y0008650D01*
X0383446Y0008650D01*
X0383446Y0007416D02*
X0383446Y0011119D01*
X0385297Y0011119D01*
X0385914Y0010502D01*
X0385914Y0009267D01*
X0378548Y0009267D02*
X0377931Y0008650D01*
X0376697Y0008650D01*
X0376079Y0009267D01*
X0376079Y0009884D01*
X0376697Y0010502D01*
X0377931Y0010502D01*
X0378548Y0011119D01*
X0378548Y0011736D01*
X0377931Y0012353D01*
X0376697Y0012353D01*
X0376079Y0011736D01*
X0374865Y0011119D02*
X0373631Y0011119D01*
X0374248Y0011736D02*
X0374248Y0009267D01*
X0373631Y0008650D01*
X0372410Y0009267D02*
X0372410Y0010502D01*
X0371792Y0011119D01*
X0370558Y0011119D01*
X0369941Y0010502D01*
X0369941Y0009884D01*
X0372410Y0009884D01*
X0372410Y0009267D02*
X0371792Y0008650D01*
X0370558Y0008650D01*
X0368726Y0008650D02*
X0366875Y0008650D01*
X0366258Y0009267D01*
X0366258Y0010502D01*
X0366875Y0011119D01*
X0368726Y0011119D01*
X0368726Y0007416D01*
X0395116Y0010502D02*
X0396350Y0010502D01*
X0396350Y0012353D02*
X0396350Y0008650D01*
X0384350Y0188650D02*
X0381881Y0188650D01*
X0380667Y0189267D02*
X0380050Y0188650D01*
X0378815Y0188650D01*
X0378198Y0189267D01*
X0376984Y0188650D02*
X0375132Y0188650D01*
X0374515Y0189267D01*
X0374515Y0191736D01*
X0375132Y0192353D01*
X0376984Y0192353D01*
X0376984Y0188650D01*
X0378198Y0191736D02*
X0378815Y0192353D01*
X0380050Y0192353D01*
X0380667Y0191736D01*
X0380667Y0189267D01*
X0384350Y0188650D02*
X0384350Y0192353D01*
X0369617Y0192353D02*
X0369617Y0188650D01*
X0367149Y0188650D01*
X0365934Y0188650D02*
X0364083Y0188650D01*
X0363466Y0189267D01*
X0363466Y0191736D01*
X0364083Y0192353D01*
X0365934Y0192353D01*
X0365934Y0188650D01*
X0362251Y0189267D02*
X0362251Y0191736D01*
X0361634Y0192353D01*
X0360400Y0192353D01*
X0359782Y0191736D01*
X0359782Y0189267D01*
X0360400Y0188650D01*
X0361634Y0188650D01*
X0362251Y0189267D01*
X0354885Y0189267D02*
X0354268Y0188650D01*
X0353033Y0188650D01*
X0352416Y0189267D01*
X0352416Y0191736D01*
X0353033Y0192353D01*
X0354268Y0192353D01*
X0354885Y0191736D01*
X0354885Y0189267D01*
X0351202Y0189267D02*
X0351202Y0191119D01*
X0351202Y0189267D02*
X0350585Y0188650D01*
X0348733Y0188650D01*
X0348733Y0191119D01*
X0347519Y0191119D02*
X0346284Y0191119D01*
X0346901Y0191736D02*
X0346901Y0189267D01*
X0346284Y0188650D01*
X0324350Y0188267D02*
X0323733Y0187650D01*
X0322498Y0187650D01*
X0321881Y0188267D01*
X0321881Y0189502D01*
X0322498Y0190119D01*
X0323116Y0190119D01*
X0324350Y0189502D01*
X0324350Y0191353D01*
X0321881Y0191353D01*
X0320667Y0191353D02*
X0320667Y0188884D01*
X0319432Y0187650D01*
X0318198Y0188884D01*
X0318198Y0191353D01*
D12*
X0364000Y0196000D02*
X0364000Y0200000D01*
X0348500Y0039500D02*
X0348500Y0035500D01*
X0269000Y0035500D02*
X0269000Y0039500D01*
X0056500Y0117500D02*
X0056500Y0121500D01*
X0056500Y0147000D02*
X0056500Y0151000D01*
X0138000Y0246000D02*
X0138000Y0250000D01*
X0045000Y0250500D02*
X0045000Y0254500D01*
D13*
X0027500Y0207500D02*
X0016000Y0207500D01*
X0004500Y0207500D01*
X0004500Y0205000D01*
X0007000Y0205000D01*
X0007000Y0200000D01*
X0004500Y0200000D01*
X0004500Y0195000D01*
X0007000Y0195000D01*
X0007000Y0190000D01*
X0004500Y0190000D01*
X0004500Y0187500D01*
X0004500Y0197500D01*
X0004500Y0200000D02*
X0004500Y0205000D01*
X0021500Y0201500D02*
X0021500Y0193500D01*
X0023500Y0192500D01*
X0023500Y0193500D01*
X0027500Y0193500D01*
X0027500Y0192500D02*
X0023500Y0192500D01*
X0023500Y0193500D02*
X0023500Y0201500D01*
X0027500Y0201500D01*
X0027500Y0202500D02*
X0023500Y0202500D01*
X0021500Y0201500D01*
X0023500Y0201500D02*
X0023500Y0202500D01*
X0027500Y0197500D02*
X0027500Y0192500D01*
X0027500Y0187500D01*
X0016000Y0187500D01*
X0004500Y0187500D01*
X0160000Y0203000D02*
X0167500Y0203000D01*
X0167500Y0243000D01*
X0160000Y0243000D01*
X0160000Y0203000D01*
X0167500Y0203000D02*
X0185000Y0203000D01*
X0185000Y0243000D01*
X0167500Y0243000D01*
D14*
X0180505Y0245124D02*
X0182918Y0245124D01*
X0181712Y0245124D02*
X0181712Y0248743D01*
X0182918Y0247537D01*
X0184203Y0248743D02*
X0186616Y0245124D01*
X0184203Y0245124D02*
X0186616Y0248743D01*
X0188121Y0308483D02*
X0186587Y0310018D01*
X0185052Y0308483D01*
X0185052Y0313087D01*
X0183517Y0311553D02*
X0181983Y0313087D01*
X0181983Y0308483D01*
X0183517Y0308483D02*
X0180448Y0308483D01*
X0188121Y0308483D02*
X0188121Y0313087D01*
X0189656Y0312320D02*
X0190423Y0313087D01*
X0191958Y0313087D01*
X0192725Y0312320D01*
X0192725Y0311553D01*
X0191958Y0310785D01*
X0190423Y0310785D01*
X0189656Y0310018D01*
X0189656Y0309251D01*
X0190423Y0308483D01*
X0191958Y0308483D01*
X0192725Y0309251D01*
X0029260Y0315908D02*
X0028493Y0315141D01*
X0027725Y0315141D01*
X0026958Y0315908D01*
X0026958Y0319745D01*
X0027725Y0319745D02*
X0026191Y0319745D01*
X0024656Y0318210D02*
X0023121Y0319745D01*
X0023121Y0315141D01*
X0021587Y0315141D02*
X0024656Y0315141D01*
X0017111Y0093745D02*
X0015576Y0093745D01*
X0016344Y0093745D02*
X0016344Y0089908D01*
X0017111Y0089141D01*
X0017878Y0089141D01*
X0018646Y0089908D01*
X0014042Y0089141D02*
X0010972Y0092210D01*
X0010972Y0092978D01*
X0011740Y0093745D01*
X0013274Y0093745D01*
X0014042Y0092978D01*
X0014042Y0089141D02*
X0010972Y0089141D01*
X0069701Y0055296D02*
X0070468Y0056064D01*
X0072003Y0056064D01*
X0072770Y0055296D01*
X0074305Y0056064D02*
X0074305Y0051460D01*
X0075839Y0052994D01*
X0077374Y0051460D01*
X0077374Y0056064D01*
X0078909Y0055296D02*
X0079676Y0056064D01*
X0081211Y0056064D01*
X0081978Y0055296D01*
X0081978Y0054529D01*
X0081211Y0053762D01*
X0079676Y0053762D01*
X0078909Y0052994D01*
X0078909Y0052227D01*
X0079676Y0051460D01*
X0081211Y0051460D01*
X0081978Y0052227D01*
X0072770Y0051460D02*
X0069701Y0054529D01*
X0069701Y0055296D01*
X0069701Y0051460D02*
X0072770Y0051460D01*
D15*
X0063559Y0055984D02*
X0063559Y0004016D01*
X0008441Y0004016D01*
X0008441Y0055984D01*
X0063559Y0055984D01*
X0096020Y0043134D02*
X0096020Y0184866D01*
X0410980Y0184866D01*
X0410980Y0043134D01*
X0096020Y0043134D01*
X0095220Y0031780D02*
X0122780Y0031780D01*
X0122780Y0022724D01*
X0122780Y0013669D01*
X0122780Y0004220D01*
X0095220Y0004220D01*
X0095220Y0031780D01*
X0122780Y0022725D02*
X0122647Y0022723D01*
X0122514Y0022717D01*
X0122382Y0022707D01*
X0122249Y0022694D01*
X0122118Y0022676D01*
X0121986Y0022655D01*
X0121856Y0022630D01*
X0121726Y0022601D01*
X0121597Y0022568D01*
X0121470Y0022531D01*
X0121343Y0022491D01*
X0121217Y0022447D01*
X0121093Y0022399D01*
X0120971Y0022348D01*
X0120850Y0022293D01*
X0120730Y0022234D01*
X0120613Y0022173D01*
X0120497Y0022107D01*
X0120383Y0022039D01*
X0120271Y0021967D01*
X0120162Y0021891D01*
X0120054Y0021813D01*
X0119949Y0021731D01*
X0119847Y0021647D01*
X0119747Y0021559D01*
X0119649Y0021469D01*
X0119555Y0021375D01*
X0119463Y0021279D01*
X0119374Y0021180D01*
X0119288Y0021079D01*
X0119205Y0020975D01*
X0119125Y0020869D01*
X0119048Y0020761D01*
X0118974Y0020650D01*
X0118904Y0020537D01*
X0118837Y0020423D01*
X0118773Y0020306D01*
X0118713Y0020187D01*
X0118656Y0020067D01*
X0118603Y0019945D01*
X0118554Y0019822D01*
X0118508Y0019697D01*
X0118465Y0019571D01*
X0118427Y0019444D01*
X0118392Y0019315D01*
X0118361Y0019186D01*
X0118334Y0019056D01*
X0118311Y0018925D01*
X0118291Y0018794D01*
X0118276Y0018661D01*
X0118264Y0018529D01*
X0118256Y0018396D01*
X0118252Y0018263D01*
X0118252Y0018131D01*
X0118256Y0017998D01*
X0118264Y0017865D01*
X0118276Y0017733D01*
X0118291Y0017600D01*
X0118311Y0017469D01*
X0118334Y0017338D01*
X0118361Y0017208D01*
X0118392Y0017079D01*
X0118427Y0016950D01*
X0118465Y0016823D01*
X0118508Y0016697D01*
X0118554Y0016572D01*
X0118603Y0016449D01*
X0118656Y0016327D01*
X0118713Y0016207D01*
X0118773Y0016088D01*
X0118837Y0015971D01*
X0118904Y0015857D01*
X0118974Y0015744D01*
X0119048Y0015633D01*
X0119125Y0015525D01*
X0119205Y0015419D01*
X0119288Y0015315D01*
X0119374Y0015214D01*
X0119463Y0015115D01*
X0119555Y0015019D01*
X0119649Y0014925D01*
X0119747Y0014835D01*
X0119847Y0014747D01*
X0119949Y0014663D01*
X0120054Y0014581D01*
X0120162Y0014503D01*
X0120271Y0014427D01*
X0120383Y0014355D01*
X0120497Y0014287D01*
X0120613Y0014221D01*
X0120730Y0014160D01*
X0120850Y0014101D01*
X0120971Y0014046D01*
X0121093Y0013995D01*
X0121217Y0013947D01*
X0121343Y0013903D01*
X0121470Y0013863D01*
X0121597Y0013826D01*
X0121726Y0013793D01*
X0121856Y0013764D01*
X0121986Y0013739D01*
X0122118Y0013718D01*
X0122249Y0013700D01*
X0122382Y0013687D01*
X0122514Y0013677D01*
X0122647Y0013671D01*
X0122780Y0013669D01*
X0175220Y0004220D02*
X0175220Y0031780D01*
X0202780Y0031780D01*
X0202780Y0022724D01*
X0202780Y0013669D01*
X0202780Y0004220D01*
X0175220Y0004220D01*
X0202780Y0013669D02*
X0202647Y0013671D01*
X0202514Y0013677D01*
X0202382Y0013687D01*
X0202249Y0013700D01*
X0202118Y0013718D01*
X0201986Y0013739D01*
X0201856Y0013764D01*
X0201726Y0013793D01*
X0201597Y0013826D01*
X0201470Y0013863D01*
X0201343Y0013903D01*
X0201217Y0013947D01*
X0201093Y0013995D01*
X0200971Y0014046D01*
X0200850Y0014101D01*
X0200730Y0014160D01*
X0200613Y0014221D01*
X0200497Y0014287D01*
X0200383Y0014355D01*
X0200271Y0014427D01*
X0200162Y0014503D01*
X0200054Y0014581D01*
X0199949Y0014663D01*
X0199847Y0014747D01*
X0199747Y0014835D01*
X0199649Y0014925D01*
X0199555Y0015019D01*
X0199463Y0015115D01*
X0199374Y0015214D01*
X0199288Y0015315D01*
X0199205Y0015419D01*
X0199125Y0015525D01*
X0199048Y0015633D01*
X0198974Y0015744D01*
X0198904Y0015857D01*
X0198837Y0015971D01*
X0198773Y0016088D01*
X0198713Y0016207D01*
X0198656Y0016327D01*
X0198603Y0016449D01*
X0198554Y0016572D01*
X0198508Y0016697D01*
X0198465Y0016823D01*
X0198427Y0016950D01*
X0198392Y0017079D01*
X0198361Y0017208D01*
X0198334Y0017338D01*
X0198311Y0017469D01*
X0198291Y0017600D01*
X0198276Y0017733D01*
X0198264Y0017865D01*
X0198256Y0017998D01*
X0198252Y0018131D01*
X0198252Y0018263D01*
X0198256Y0018396D01*
X0198264Y0018529D01*
X0198276Y0018661D01*
X0198291Y0018794D01*
X0198311Y0018925D01*
X0198334Y0019056D01*
X0198361Y0019186D01*
X0198392Y0019315D01*
X0198427Y0019444D01*
X0198465Y0019571D01*
X0198508Y0019697D01*
X0198554Y0019822D01*
X0198603Y0019945D01*
X0198656Y0020067D01*
X0198713Y0020187D01*
X0198773Y0020306D01*
X0198837Y0020423D01*
X0198904Y0020537D01*
X0198974Y0020650D01*
X0199048Y0020761D01*
X0199125Y0020869D01*
X0199205Y0020975D01*
X0199288Y0021079D01*
X0199374Y0021180D01*
X0199463Y0021279D01*
X0199555Y0021375D01*
X0199649Y0021469D01*
X0199747Y0021559D01*
X0199847Y0021647D01*
X0199949Y0021731D01*
X0200054Y0021813D01*
X0200162Y0021891D01*
X0200271Y0021967D01*
X0200383Y0022039D01*
X0200497Y0022107D01*
X0200613Y0022173D01*
X0200730Y0022234D01*
X0200850Y0022293D01*
X0200971Y0022348D01*
X0201093Y0022399D01*
X0201217Y0022447D01*
X0201343Y0022491D01*
X0201470Y0022531D01*
X0201597Y0022568D01*
X0201726Y0022601D01*
X0201856Y0022630D01*
X0201986Y0022655D01*
X0202118Y0022676D01*
X0202249Y0022694D01*
X0202382Y0022707D01*
X0202514Y0022717D01*
X0202647Y0022723D01*
X0202780Y0022725D01*
X0255220Y0031780D02*
X0255220Y0004220D01*
X0282780Y0004220D01*
X0282780Y0013669D01*
X0282780Y0022724D01*
X0282780Y0031780D01*
X0255220Y0031780D01*
X0282780Y0022725D02*
X0282647Y0022723D01*
X0282514Y0022717D01*
X0282382Y0022707D01*
X0282249Y0022694D01*
X0282118Y0022676D01*
X0281986Y0022655D01*
X0281856Y0022630D01*
X0281726Y0022601D01*
X0281597Y0022568D01*
X0281470Y0022531D01*
X0281343Y0022491D01*
X0281217Y0022447D01*
X0281093Y0022399D01*
X0280971Y0022348D01*
X0280850Y0022293D01*
X0280730Y0022234D01*
X0280613Y0022173D01*
X0280497Y0022107D01*
X0280383Y0022039D01*
X0280271Y0021967D01*
X0280162Y0021891D01*
X0280054Y0021813D01*
X0279949Y0021731D01*
X0279847Y0021647D01*
X0279747Y0021559D01*
X0279649Y0021469D01*
X0279555Y0021375D01*
X0279463Y0021279D01*
X0279374Y0021180D01*
X0279288Y0021079D01*
X0279205Y0020975D01*
X0279125Y0020869D01*
X0279048Y0020761D01*
X0278974Y0020650D01*
X0278904Y0020537D01*
X0278837Y0020423D01*
X0278773Y0020306D01*
X0278713Y0020187D01*
X0278656Y0020067D01*
X0278603Y0019945D01*
X0278554Y0019822D01*
X0278508Y0019697D01*
X0278465Y0019571D01*
X0278427Y0019444D01*
X0278392Y0019315D01*
X0278361Y0019186D01*
X0278334Y0019056D01*
X0278311Y0018925D01*
X0278291Y0018794D01*
X0278276Y0018661D01*
X0278264Y0018529D01*
X0278256Y0018396D01*
X0278252Y0018263D01*
X0278252Y0018131D01*
X0278256Y0017998D01*
X0278264Y0017865D01*
X0278276Y0017733D01*
X0278291Y0017600D01*
X0278311Y0017469D01*
X0278334Y0017338D01*
X0278361Y0017208D01*
X0278392Y0017079D01*
X0278427Y0016950D01*
X0278465Y0016823D01*
X0278508Y0016697D01*
X0278554Y0016572D01*
X0278603Y0016449D01*
X0278656Y0016327D01*
X0278713Y0016207D01*
X0278773Y0016088D01*
X0278837Y0015971D01*
X0278904Y0015857D01*
X0278974Y0015744D01*
X0279048Y0015633D01*
X0279125Y0015525D01*
X0279205Y0015419D01*
X0279288Y0015315D01*
X0279374Y0015214D01*
X0279463Y0015115D01*
X0279555Y0015019D01*
X0279649Y0014925D01*
X0279747Y0014835D01*
X0279847Y0014747D01*
X0279949Y0014663D01*
X0280054Y0014581D01*
X0280162Y0014503D01*
X0280271Y0014427D01*
X0280383Y0014355D01*
X0280497Y0014287D01*
X0280613Y0014221D01*
X0280730Y0014160D01*
X0280850Y0014101D01*
X0280971Y0014046D01*
X0281093Y0013995D01*
X0281217Y0013947D01*
X0281343Y0013903D01*
X0281470Y0013863D01*
X0281597Y0013826D01*
X0281726Y0013793D01*
X0281856Y0013764D01*
X0281986Y0013739D01*
X0282118Y0013718D01*
X0282249Y0013700D01*
X0282382Y0013687D01*
X0282514Y0013677D01*
X0282647Y0013671D01*
X0282780Y0013669D01*
X0335220Y0004220D02*
X0335220Y0031780D01*
X0362780Y0031780D01*
X0362780Y0022724D01*
X0362780Y0013669D01*
X0362780Y0004220D01*
X0335220Y0004220D01*
X0362780Y0013669D02*
X0362647Y0013671D01*
X0362514Y0013677D01*
X0362382Y0013687D01*
X0362249Y0013700D01*
X0362118Y0013718D01*
X0361986Y0013739D01*
X0361856Y0013764D01*
X0361726Y0013793D01*
X0361597Y0013826D01*
X0361470Y0013863D01*
X0361343Y0013903D01*
X0361217Y0013947D01*
X0361093Y0013995D01*
X0360971Y0014046D01*
X0360850Y0014101D01*
X0360730Y0014160D01*
X0360613Y0014221D01*
X0360497Y0014287D01*
X0360383Y0014355D01*
X0360271Y0014427D01*
X0360162Y0014503D01*
X0360054Y0014581D01*
X0359949Y0014663D01*
X0359847Y0014747D01*
X0359747Y0014835D01*
X0359649Y0014925D01*
X0359555Y0015019D01*
X0359463Y0015115D01*
X0359374Y0015214D01*
X0359288Y0015315D01*
X0359205Y0015419D01*
X0359125Y0015525D01*
X0359048Y0015633D01*
X0358974Y0015744D01*
X0358904Y0015857D01*
X0358837Y0015971D01*
X0358773Y0016088D01*
X0358713Y0016207D01*
X0358656Y0016327D01*
X0358603Y0016449D01*
X0358554Y0016572D01*
X0358508Y0016697D01*
X0358465Y0016823D01*
X0358427Y0016950D01*
X0358392Y0017079D01*
X0358361Y0017208D01*
X0358334Y0017338D01*
X0358311Y0017469D01*
X0358291Y0017600D01*
X0358276Y0017733D01*
X0358264Y0017865D01*
X0358256Y0017998D01*
X0358252Y0018131D01*
X0358252Y0018263D01*
X0358256Y0018396D01*
X0358264Y0018529D01*
X0358276Y0018661D01*
X0358291Y0018794D01*
X0358311Y0018925D01*
X0358334Y0019056D01*
X0358361Y0019186D01*
X0358392Y0019315D01*
X0358427Y0019444D01*
X0358465Y0019571D01*
X0358508Y0019697D01*
X0358554Y0019822D01*
X0358603Y0019945D01*
X0358656Y0020067D01*
X0358713Y0020187D01*
X0358773Y0020306D01*
X0358837Y0020423D01*
X0358904Y0020537D01*
X0358974Y0020650D01*
X0359048Y0020761D01*
X0359125Y0020869D01*
X0359205Y0020975D01*
X0359288Y0021079D01*
X0359374Y0021180D01*
X0359463Y0021279D01*
X0359555Y0021375D01*
X0359649Y0021469D01*
X0359747Y0021559D01*
X0359847Y0021647D01*
X0359949Y0021731D01*
X0360054Y0021813D01*
X0360162Y0021891D01*
X0360271Y0021967D01*
X0360383Y0022039D01*
X0360497Y0022107D01*
X0360613Y0022173D01*
X0360730Y0022234D01*
X0360850Y0022293D01*
X0360971Y0022348D01*
X0361093Y0022399D01*
X0361217Y0022447D01*
X0361343Y0022491D01*
X0361470Y0022531D01*
X0361597Y0022568D01*
X0361726Y0022601D01*
X0361856Y0022630D01*
X0361986Y0022655D01*
X0362118Y0022676D01*
X0362249Y0022694D01*
X0362382Y0022707D01*
X0362514Y0022717D01*
X0362647Y0022723D01*
X0362780Y0022725D01*
X0410709Y0204638D02*
X0198701Y0204638D01*
X0198701Y0321055D01*
X0410709Y0321055D01*
X0410709Y0204638D01*
X0177091Y0265303D02*
X0177091Y0315303D01*
X0125909Y0315303D02*
X0125909Y0265303D01*
X0177091Y0265303D01*
X0045921Y0265378D02*
X0045921Y0312622D01*
X0000252Y0312622D01*
X0000252Y0300811D01*
X-0013528Y0300811D01*
X-0013528Y0277189D01*
X0000252Y0277189D01*
X0000252Y0265378D01*
X0045921Y0265378D01*
X0027500Y0207500D02*
X0027500Y0197500D01*
X0027500Y0193500D02*
X0027500Y0192500D01*
X0026000Y0192500D01*
X0016643Y0179148D02*
X0015142Y0179148D01*
X0015892Y0179148D02*
X0015892Y0175395D01*
X0016643Y0174644D01*
X0017393Y0174644D01*
X0018144Y0175395D01*
X0013540Y0175395D02*
X0012790Y0174644D01*
X0011288Y0174644D01*
X0010538Y0175395D01*
X0010538Y0176145D01*
X0011288Y0176896D01*
X0012039Y0176896D01*
X0011288Y0176896D02*
X0010538Y0177647D01*
X0010538Y0178397D01*
X0011288Y0179148D01*
X0012790Y0179148D01*
X0013540Y0178397D01*
X0004500Y0188500D02*
X0004500Y0190000D01*
X0004500Y0197500D02*
X0004500Y0200000D01*
X0004500Y0205000D02*
X0004500Y0207500D01*
X0008453Y0142366D02*
X0008451Y0142234D01*
X0008445Y0142103D01*
X0008436Y0141971D01*
X0008422Y0141840D01*
X0008405Y0141710D01*
X0008384Y0141580D01*
X0008359Y0141450D01*
X0008331Y0141322D01*
X0008299Y0141194D01*
X0008263Y0141067D01*
X0008223Y0140942D01*
X0008180Y0140817D01*
X0008133Y0140694D01*
X0008083Y0140573D01*
X0008029Y0140452D01*
X0007971Y0140334D01*
X0007911Y0140217D01*
X0007846Y0140102D01*
X0007779Y0139989D01*
X0007708Y0139878D01*
X0007634Y0139769D01*
X0007557Y0139662D01*
X0007477Y0139558D01*
X0007394Y0139455D01*
X0007308Y0139356D01*
X0007219Y0139259D01*
X0007127Y0139164D01*
X0007032Y0139072D01*
X0006935Y0138983D01*
X0006836Y0138897D01*
X0006733Y0138814D01*
X0006629Y0138734D01*
X0006522Y0138657D01*
X0006413Y0138583D01*
X0006302Y0138512D01*
X0006189Y0138445D01*
X0006074Y0138380D01*
X0005957Y0138320D01*
X0005839Y0138262D01*
X0005718Y0138208D01*
X0005597Y0138158D01*
X0005474Y0138111D01*
X0005349Y0138068D01*
X0005224Y0138028D01*
X0005097Y0137992D01*
X0004969Y0137960D01*
X0004841Y0137932D01*
X0004711Y0137907D01*
X0004581Y0137886D01*
X0004451Y0137869D01*
X0004320Y0137855D01*
X0004188Y0137846D01*
X0004057Y0137840D01*
X0003925Y0137838D01*
X0003925Y0137839D02*
X-0023043Y0137839D01*
X-0023043Y0105161D01*
X0003925Y0105161D01*
X0003925Y0105162D02*
X0004057Y0105160D01*
X0004188Y0105154D01*
X0004320Y0105145D01*
X0004451Y0105131D01*
X0004581Y0105114D01*
X0004711Y0105093D01*
X0004841Y0105068D01*
X0004969Y0105040D01*
X0005097Y0105008D01*
X0005224Y0104972D01*
X0005349Y0104932D01*
X0005474Y0104889D01*
X0005597Y0104842D01*
X0005718Y0104792D01*
X0005839Y0104738D01*
X0005957Y0104680D01*
X0006074Y0104620D01*
X0006189Y0104555D01*
X0006302Y0104488D01*
X0006413Y0104417D01*
X0006522Y0104343D01*
X0006629Y0104266D01*
X0006733Y0104186D01*
X0006836Y0104103D01*
X0006935Y0104017D01*
X0007032Y0103928D01*
X0007127Y0103836D01*
X0007219Y0103741D01*
X0007308Y0103644D01*
X0007394Y0103545D01*
X0007477Y0103442D01*
X0007557Y0103338D01*
X0007634Y0103231D01*
X0007708Y0103122D01*
X0007779Y0103011D01*
X0007846Y0102898D01*
X0007911Y0102783D01*
X0007971Y0102666D01*
X0008029Y0102548D01*
X0008083Y0102427D01*
X0008133Y0102306D01*
X0008180Y0102183D01*
X0008223Y0102058D01*
X0008263Y0101933D01*
X0008299Y0101806D01*
X0008331Y0101678D01*
X0008359Y0101550D01*
X0008384Y0101420D01*
X0008405Y0101290D01*
X0008422Y0101160D01*
X0008436Y0101029D01*
X0008445Y0100897D01*
X0008451Y0100766D01*
X0008453Y0100634D01*
X0034043Y0100634D01*
X0034043Y0142366D01*
X0008453Y0142366D01*
D16*
X0013644Y0183244D02*
X0016513Y0186113D01*
X0017230Y0186113D01*
X0017948Y0185396D01*
X0017948Y0183961D01*
X0017230Y0183244D01*
X0013644Y0183244D02*
X0013644Y0186113D01*
X0013944Y0210744D02*
X0013944Y0213613D01*
X0013944Y0212179D02*
X0018248Y0212179D01*
X0016813Y0210744D01*
M02*
